<?xml version="1.0" encoding="utf-8" standalone="no"?>
<!DOCTYPE svg PUBLIC "-//W3C//DTD SVG 1.1//EN"
  "http://www.w3.org/Graphics/SVG/1.1/DTD/svg11.dtd">
<svg xmlns:xlink="http://www.w3.org/1999/xlink" width="712.55125pt" height="279.034375pt" viewBox="0 0 712.55125 279.034375" xmlns="http://www.w3.org/2000/svg" version="1.1">
 <metadata>
  <rdf:RDF xmlns:dc="http://purl.org/dc/elements/1.1/" xmlns:cc="http://creativecommons.org/ns#" xmlns:rdf="http://www.w3.org/1999/02/22-rdf-syntax-ns#">
   <cc:Work>
    <dc:type rdf:resource="http://purl.org/dc/dcmitype/StillImage"/>
    <dc:date>2025-03-17T17:51:33.096816</dc:date>
    <dc:format>image/svg+xml</dc:format>
    <dc:creator>
     <cc:Agent>
      <dc:title>Matplotlib v3.9.2, https://matplotlib.org/</dc:title>
     </cc:Agent>
    </dc:creator>
   </cc:Work>
  </rdf:RDF>
 </metadata>
 <defs>
  <style type="text/css">*{stroke-linejoin: round; stroke-linecap: butt}</style>
 </defs>
 <g id="figure_1">
  <g id="patch_1">
   <path d="M 0 279.034375 
L 712.55125 279.034375 
L 712.55125 0 
L 0 0 
z
" style="fill: #ffffff"/>
  </g>
  <g id="axes_1">
   <g id="patch_2">
    <path d="M 43.78125 102.878125 
L 232.55125 102.878125 
L 232.55125 22.318125 
L 43.78125 22.318125 
z
" style="fill: #ffffff"/>
   </g>
   <g id="matplotlib.axis_1">
    <g id="xtick_1">
     <g id="line2d_1">
      <defs>
       <path id="m5d64412a1b" d="M 0 0 
L 0 3.5 
" style="stroke: #000000; stroke-width: 0.8"/>
      </defs>
      <g>
       <use xlink:href="#m5d64412a1b" x="86.436393" y="102.878125" style="stroke: #000000; stroke-width: 0.8"/>
      </g>
     </g>
     <g id="text_1">
      <!-- 6 -->
      <g transform="translate(83.255143 117.476563) scale(0.1 -0.1)">
       <defs>
        <path id="DejaVuSans-36" d="M 2113 2584 
Q 1688 2584 1439 2293 
Q 1191 2003 1191 1497 
Q 1191 994 1439 701 
Q 1688 409 2113 409 
Q 2538 409 2786 701 
Q 3034 994 3034 1497 
Q 3034 2003 2786 2293 
Q 2538 2584 2113 2584 
z
M 3366 4563 
L 3366 3988 
Q 3128 4100 2886 4159 
Q 2644 4219 2406 4219 
Q 1781 4219 1451 3797 
Q 1122 3375 1075 2522 
Q 1259 2794 1537 2939 
Q 1816 3084 2150 3084 
Q 2853 3084 3261 2657 
Q 3669 2231 3669 1497 
Q 3669 778 3244 343 
Q 2819 -91 2113 -91 
Q 1303 -91 875 529 
Q 447 1150 447 2328 
Q 447 3434 972 4092 
Q 1497 4750 2381 4750 
Q 2619 4750 2861 4703 
Q 3103 4656 3366 4563 
z
" transform="scale(0.015625)"/>
       </defs>
       <use xlink:href="#DejaVuSans-36"/>
      </g>
     </g>
    </g>
    <g id="xtick_2">
     <g id="line2d_2">
      <g>
       <use xlink:href="#m5d64412a1b" x="138.13391" y="102.878125" style="stroke: #000000; stroke-width: 0.8"/>
      </g>
     </g>
     <g id="text_2">
      <!-- 7 -->
      <g transform="translate(134.95266 117.476563) scale(0.1 -0.1)">
       <defs>
        <path id="DejaVuSans-37" d="M 525 4666 
L 3525 4666 
L 3525 4397 
L 1831 0 
L 1172 0 
L 2766 4134 
L 525 4134 
L 525 4666 
z
" transform="scale(0.015625)"/>
       </defs>
       <use xlink:href="#DejaVuSans-37"/>
      </g>
     </g>
    </g>
    <g id="xtick_3">
     <g id="line2d_3">
      <g>
       <use xlink:href="#m5d64412a1b" x="189.831426" y="102.878125" style="stroke: #000000; stroke-width: 0.8"/>
      </g>
     </g>
     <g id="text_3">
      <!-- 8 -->
      <g transform="translate(186.650176 117.476563) scale(0.1 -0.1)">
       <defs>
        <path id="DejaVuSans-38" d="M 2034 2216 
Q 1584 2216 1326 1975 
Q 1069 1734 1069 1313 
Q 1069 891 1326 650 
Q 1584 409 2034 409 
Q 2484 409 2743 651 
Q 3003 894 3003 1313 
Q 3003 1734 2745 1975 
Q 2488 2216 2034 2216 
z
M 1403 2484 
Q 997 2584 770 2862 
Q 544 3141 544 3541 
Q 544 4100 942 4425 
Q 1341 4750 2034 4750 
Q 2731 4750 3128 4425 
Q 3525 4100 3525 3541 
Q 3525 3141 3298 2862 
Q 3072 2584 2669 2484 
Q 3125 2378 3379 2068 
Q 3634 1759 3634 1313 
Q 3634 634 3220 271 
Q 2806 -91 2034 -91 
Q 1263 -91 848 271 
Q 434 634 434 1313 
Q 434 1759 690 2068 
Q 947 2378 1403 2484 
z
M 1172 3481 
Q 1172 3119 1398 2916 
Q 1625 2713 2034 2713 
Q 2441 2713 2670 2916 
Q 2900 3119 2900 3481 
Q 2900 3844 2670 4047 
Q 2441 4250 2034 4250 
Q 1625 4250 1398 4047 
Q 1172 3844 1172 3481 
z
" transform="scale(0.015625)"/>
       </defs>
       <use xlink:href="#DejaVuSans-38"/>
      </g>
     </g>
    </g>
    <g id="text_4">
     <!-- Magnetic Field (Gauss) -->
     <g transform="translate(81.331875 131.154688) scale(0.1 -0.1)">
      <defs>
       <path id="DejaVuSans-4d" d="M 628 4666 
L 1569 4666 
L 2759 1491 
L 3956 4666 
L 4897 4666 
L 4897 0 
L 4281 0 
L 4281 4097 
L 3078 897 
L 2444 897 
L 1241 4097 
L 1241 0 
L 628 0 
L 628 4666 
z
" transform="scale(0.015625)"/>
       <path id="DejaVuSans-61" d="M 2194 1759 
Q 1497 1759 1228 1600 
Q 959 1441 959 1056 
Q 959 750 1161 570 
Q 1363 391 1709 391 
Q 2188 391 2477 730 
Q 2766 1069 2766 1631 
L 2766 1759 
L 2194 1759 
z
M 3341 1997 
L 3341 0 
L 2766 0 
L 2766 531 
Q 2569 213 2275 61 
Q 1981 -91 1556 -91 
Q 1019 -91 701 211 
Q 384 513 384 1019 
Q 384 1609 779 1909 
Q 1175 2209 1959 2209 
L 2766 2209 
L 2766 2266 
Q 2766 2663 2505 2880 
Q 2244 3097 1772 3097 
Q 1472 3097 1187 3025 
Q 903 2953 641 2809 
L 641 3341 
Q 956 3463 1253 3523 
Q 1550 3584 1831 3584 
Q 2591 3584 2966 3190 
Q 3341 2797 3341 1997 
z
" transform="scale(0.015625)"/>
       <path id="DejaVuSans-67" d="M 2906 1791 
Q 2906 2416 2648 2759 
Q 2391 3103 1925 3103 
Q 1463 3103 1205 2759 
Q 947 2416 947 1791 
Q 947 1169 1205 825 
Q 1463 481 1925 481 
Q 2391 481 2648 825 
Q 2906 1169 2906 1791 
z
M 3481 434 
Q 3481 -459 3084 -895 
Q 2688 -1331 1869 -1331 
Q 1566 -1331 1297 -1286 
Q 1028 -1241 775 -1147 
L 775 -588 
Q 1028 -725 1275 -790 
Q 1522 -856 1778 -856 
Q 2344 -856 2625 -561 
Q 2906 -266 2906 331 
L 2906 616 
Q 2728 306 2450 153 
Q 2172 0 1784 0 
Q 1141 0 747 490 
Q 353 981 353 1791 
Q 353 2603 747 3093 
Q 1141 3584 1784 3584 
Q 2172 3584 2450 3431 
Q 2728 3278 2906 2969 
L 2906 3500 
L 3481 3500 
L 3481 434 
z
" transform="scale(0.015625)"/>
       <path id="DejaVuSans-6e" d="M 3513 2113 
L 3513 0 
L 2938 0 
L 2938 2094 
Q 2938 2591 2744 2837 
Q 2550 3084 2163 3084 
Q 1697 3084 1428 2787 
Q 1159 2491 1159 1978 
L 1159 0 
L 581 0 
L 581 3500 
L 1159 3500 
L 1159 2956 
Q 1366 3272 1645 3428 
Q 1925 3584 2291 3584 
Q 2894 3584 3203 3211 
Q 3513 2838 3513 2113 
z
" transform="scale(0.015625)"/>
       <path id="DejaVuSans-65" d="M 3597 1894 
L 3597 1613 
L 953 1613 
Q 991 1019 1311 708 
Q 1631 397 2203 397 
Q 2534 397 2845 478 
Q 3156 559 3463 722 
L 3463 178 
Q 3153 47 2828 -22 
Q 2503 -91 2169 -91 
Q 1331 -91 842 396 
Q 353 884 353 1716 
Q 353 2575 817 3079 
Q 1281 3584 2069 3584 
Q 2775 3584 3186 3129 
Q 3597 2675 3597 1894 
z
M 3022 2063 
Q 3016 2534 2758 2815 
Q 2500 3097 2075 3097 
Q 1594 3097 1305 2825 
Q 1016 2553 972 2059 
L 3022 2063 
z
" transform="scale(0.015625)"/>
       <path id="DejaVuSans-74" d="M 1172 4494 
L 1172 3500 
L 2356 3500 
L 2356 3053 
L 1172 3053 
L 1172 1153 
Q 1172 725 1289 603 
Q 1406 481 1766 481 
L 2356 481 
L 2356 0 
L 1766 0 
Q 1100 0 847 248 
Q 594 497 594 1153 
L 594 3053 
L 172 3053 
L 172 3500 
L 594 3500 
L 594 4494 
L 1172 4494 
z
" transform="scale(0.015625)"/>
       <path id="DejaVuSans-69" d="M 603 3500 
L 1178 3500 
L 1178 0 
L 603 0 
L 603 3500 
z
M 603 4863 
L 1178 4863 
L 1178 4134 
L 603 4134 
L 603 4863 
z
" transform="scale(0.015625)"/>
       <path id="DejaVuSans-63" d="M 3122 3366 
L 3122 2828 
Q 2878 2963 2633 3030 
Q 2388 3097 2138 3097 
Q 1578 3097 1268 2742 
Q 959 2388 959 1747 
Q 959 1106 1268 751 
Q 1578 397 2138 397 
Q 2388 397 2633 464 
Q 2878 531 3122 666 
L 3122 134 
Q 2881 22 2623 -34 
Q 2366 -91 2075 -91 
Q 1284 -91 818 406 
Q 353 903 353 1747 
Q 353 2603 823 3093 
Q 1294 3584 2113 3584 
Q 2378 3584 2631 3529 
Q 2884 3475 3122 3366 
z
" transform="scale(0.015625)"/>
       <path id="DejaVuSans-20" transform="scale(0.015625)"/>
       <path id="DejaVuSans-46" d="M 628 4666 
L 3309 4666 
L 3309 4134 
L 1259 4134 
L 1259 2759 
L 3109 2759 
L 3109 2228 
L 1259 2228 
L 1259 0 
L 628 0 
L 628 4666 
z
" transform="scale(0.015625)"/>
       <path id="DejaVuSans-6c" d="M 603 4863 
L 1178 4863 
L 1178 0 
L 603 0 
L 603 4863 
z
" transform="scale(0.015625)"/>
       <path id="DejaVuSans-64" d="M 2906 2969 
L 2906 4863 
L 3481 4863 
L 3481 0 
L 2906 0 
L 2906 525 
Q 2725 213 2448 61 
Q 2172 -91 1784 -91 
Q 1150 -91 751 415 
Q 353 922 353 1747 
Q 353 2572 751 3078 
Q 1150 3584 1784 3584 
Q 2172 3584 2448 3432 
Q 2725 3281 2906 2969 
z
M 947 1747 
Q 947 1113 1208 752 
Q 1469 391 1925 391 
Q 2381 391 2643 752 
Q 2906 1113 2906 1747 
Q 2906 2381 2643 2742 
Q 2381 3103 1925 3103 
Q 1469 3103 1208 2742 
Q 947 2381 947 1747 
z
" transform="scale(0.015625)"/>
       <path id="DejaVuSans-28" d="M 1984 4856 
Q 1566 4138 1362 3434 
Q 1159 2731 1159 2009 
Q 1159 1288 1364 580 
Q 1569 -128 1984 -844 
L 1484 -844 
Q 1016 -109 783 600 
Q 550 1309 550 2009 
Q 550 2706 781 3412 
Q 1013 4119 1484 4856 
L 1984 4856 
z
" transform="scale(0.015625)"/>
       <path id="DejaVuSans-47" d="M 3809 666 
L 3809 1919 
L 2778 1919 
L 2778 2438 
L 4434 2438 
L 4434 434 
Q 4069 175 3628 42 
Q 3188 -91 2688 -91 
Q 1594 -91 976 548 
Q 359 1188 359 2328 
Q 359 3472 976 4111 
Q 1594 4750 2688 4750 
Q 3144 4750 3555 4637 
Q 3966 4525 4313 4306 
L 4313 3634 
Q 3963 3931 3569 4081 
Q 3175 4231 2741 4231 
Q 1884 4231 1454 3753 
Q 1025 3275 1025 2328 
Q 1025 1384 1454 906 
Q 1884 428 2741 428 
Q 3075 428 3337 486 
Q 3600 544 3809 666 
z
" transform="scale(0.015625)"/>
       <path id="DejaVuSans-75" d="M 544 1381 
L 544 3500 
L 1119 3500 
L 1119 1403 
Q 1119 906 1312 657 
Q 1506 409 1894 409 
Q 2359 409 2629 706 
Q 2900 1003 2900 1516 
L 2900 3500 
L 3475 3500 
L 3475 0 
L 2900 0 
L 2900 538 
Q 2691 219 2414 64 
Q 2138 -91 1772 -91 
Q 1169 -91 856 284 
Q 544 659 544 1381 
z
M 1991 3584 
L 1991 3584 
z
" transform="scale(0.015625)"/>
       <path id="DejaVuSans-73" d="M 2834 3397 
L 2834 2853 
Q 2591 2978 2328 3040 
Q 2066 3103 1784 3103 
Q 1356 3103 1142 2972 
Q 928 2841 928 2578 
Q 928 2378 1081 2264 
Q 1234 2150 1697 2047 
L 1894 2003 
Q 2506 1872 2764 1633 
Q 3022 1394 3022 966 
Q 3022 478 2636 193 
Q 2250 -91 1575 -91 
Q 1294 -91 989 -36 
Q 684 19 347 128 
L 347 722 
Q 666 556 975 473 
Q 1284 391 1588 391 
Q 1994 391 2212 530 
Q 2431 669 2431 922 
Q 2431 1156 2273 1281 
Q 2116 1406 1581 1522 
L 1381 1569 
Q 847 1681 609 1914 
Q 372 2147 372 2553 
Q 372 3047 722 3315 
Q 1072 3584 1716 3584 
Q 2034 3584 2315 3537 
Q 2597 3491 2834 3397 
z
" transform="scale(0.015625)"/>
       <path id="DejaVuSans-29" d="M 513 4856 
L 1013 4856 
Q 1481 4119 1714 3412 
Q 1947 2706 1947 2009 
Q 1947 1309 1714 600 
Q 1481 -109 1013 -844 
L 513 -844 
Q 928 -128 1133 580 
Q 1338 1288 1338 2009 
Q 1338 2731 1133 3434 
Q 928 4138 513 4856 
z
" transform="scale(0.015625)"/>
      </defs>
      <use xlink:href="#DejaVuSans-4d"/>
      <use xlink:href="#DejaVuSans-61" x="86.279297"/>
      <use xlink:href="#DejaVuSans-67" x="147.558594"/>
      <use xlink:href="#DejaVuSans-6e" x="211.035156"/>
      <use xlink:href="#DejaVuSans-65" x="274.414062"/>
      <use xlink:href="#DejaVuSans-74" x="335.9375"/>
      <use xlink:href="#DejaVuSans-69" x="375.146484"/>
      <use xlink:href="#DejaVuSans-63" x="402.929688"/>
      <use xlink:href="#DejaVuSans-20" x="457.910156"/>
      <use xlink:href="#DejaVuSans-46" x="489.697266"/>
      <use xlink:href="#DejaVuSans-69" x="539.966797"/>
      <use xlink:href="#DejaVuSans-65" x="567.75"/>
      <use xlink:href="#DejaVuSans-6c" x="629.273438"/>
      <use xlink:href="#DejaVuSans-64" x="657.056641"/>
      <use xlink:href="#DejaVuSans-20" x="720.533203"/>
      <use xlink:href="#DejaVuSans-28" x="752.320312"/>
      <use xlink:href="#DejaVuSans-47" x="791.333984"/>
      <use xlink:href="#DejaVuSans-61" x="868.824219"/>
      <use xlink:href="#DejaVuSans-75" x="930.103516"/>
      <use xlink:href="#DejaVuSans-73" x="993.482422"/>
      <use xlink:href="#DejaVuSans-73" x="1045.582031"/>
      <use xlink:href="#DejaVuSans-29" x="1097.681641"/>
     </g>
    </g>
   </g>
   <g id="matplotlib.axis_2">
    <g id="ytick_1">
     <g id="line2d_4">
      <defs>
       <path id="m0118ca0a01" d="M 0 0 
L -3.5 0 
" style="stroke: #000000; stroke-width: 0.8"/>
      </defs>
      <g>
       <use xlink:href="#m0118ca0a01" x="43.78125" y="99.216307" style="stroke: #000000; stroke-width: 0.8"/>
      </g>
     </g>
     <g id="text_5">
      <!-- 2.5 -->
      <g transform="translate(20.878125 103.015526) scale(0.1 -0.1)">
       <defs>
        <path id="DejaVuSans-32" d="M 1228 531 
L 3431 531 
L 3431 0 
L 469 0 
L 469 531 
Q 828 903 1448 1529 
Q 2069 2156 2228 2338 
Q 2531 2678 2651 2914 
Q 2772 3150 2772 3378 
Q 2772 3750 2511 3984 
Q 2250 4219 1831 4219 
Q 1534 4219 1204 4116 
Q 875 4013 500 3803 
L 500 4441 
Q 881 4594 1212 4672 
Q 1544 4750 1819 4750 
Q 2544 4750 2975 4387 
Q 3406 4025 3406 3419 
Q 3406 3131 3298 2873 
Q 3191 2616 2906 2266 
Q 2828 2175 2409 1742 
Q 1991 1309 1228 531 
z
" transform="scale(0.015625)"/>
        <path id="DejaVuSans-2e" d="M 684 794 
L 1344 794 
L 1344 0 
L 684 0 
L 684 794 
z
" transform="scale(0.015625)"/>
        <path id="DejaVuSans-35" d="M 691 4666 
L 3169 4666 
L 3169 4134 
L 1269 4134 
L 1269 2991 
Q 1406 3038 1543 3061 
Q 1681 3084 1819 3084 
Q 2600 3084 3056 2656 
Q 3513 2228 3513 1497 
Q 3513 744 3044 326 
Q 2575 -91 1722 -91 
Q 1428 -91 1123 -41 
Q 819 9 494 109 
L 494 744 
Q 775 591 1075 516 
Q 1375 441 1709 441 
Q 2250 441 2565 725 
Q 2881 1009 2881 1497 
Q 2881 1984 2565 2268 
Q 2250 2553 1709 2553 
Q 1456 2553 1204 2497 
Q 953 2441 691 2322 
L 691 4666 
z
" transform="scale(0.015625)"/>
       </defs>
       <use xlink:href="#DejaVuSans-32"/>
       <use xlink:href="#DejaVuSans-2e" x="63.623047"/>
       <use xlink:href="#DejaVuSans-35" x="95.410156"/>
      </g>
     </g>
    </g>
    <g id="ytick_2">
     <g id="line2d_5">
      <g>
       <use xlink:href="#m0118ca0a01" x="43.78125" y="74.804186" style="stroke: #000000; stroke-width: 0.8"/>
      </g>
     </g>
     <g id="text_6">
      <!-- 3.0 -->
      <g transform="translate(20.878125 78.603404) scale(0.1 -0.1)">
       <defs>
        <path id="DejaVuSans-33" d="M 2597 2516 
Q 3050 2419 3304 2112 
Q 3559 1806 3559 1356 
Q 3559 666 3084 287 
Q 2609 -91 1734 -91 
Q 1441 -91 1130 -33 
Q 819 25 488 141 
L 488 750 
Q 750 597 1062 519 
Q 1375 441 1716 441 
Q 2309 441 2620 675 
Q 2931 909 2931 1356 
Q 2931 1769 2642 2001 
Q 2353 2234 1838 2234 
L 1294 2234 
L 1294 2753 
L 1863 2753 
Q 2328 2753 2575 2939 
Q 2822 3125 2822 3475 
Q 2822 3834 2567 4026 
Q 2313 4219 1838 4219 
Q 1578 4219 1281 4162 
Q 984 4106 628 3988 
L 628 4550 
Q 988 4650 1302 4700 
Q 1616 4750 1894 4750 
Q 2613 4750 3031 4423 
Q 3450 4097 3450 3541 
Q 3450 3153 3228 2886 
Q 3006 2619 2597 2516 
z
" transform="scale(0.015625)"/>
        <path id="DejaVuSans-30" d="M 2034 4250 
Q 1547 4250 1301 3770 
Q 1056 3291 1056 2328 
Q 1056 1369 1301 889 
Q 1547 409 2034 409 
Q 2525 409 2770 889 
Q 3016 1369 3016 2328 
Q 3016 3291 2770 3770 
Q 2525 4250 2034 4250 
z
M 2034 4750 
Q 2819 4750 3233 4129 
Q 3647 3509 3647 2328 
Q 3647 1150 3233 529 
Q 2819 -91 2034 -91 
Q 1250 -91 836 529 
Q 422 1150 422 2328 
Q 422 3509 836 4129 
Q 1250 4750 2034 4750 
z
" transform="scale(0.015625)"/>
       </defs>
       <use xlink:href="#DejaVuSans-33"/>
       <use xlink:href="#DejaVuSans-2e" x="63.623047"/>
       <use xlink:href="#DejaVuSans-30" x="95.410156"/>
      </g>
     </g>
    </g>
    <g id="ytick_3">
     <g id="line2d_6">
      <g>
       <use xlink:href="#m0118ca0a01" x="43.78125" y="50.392064" style="stroke: #000000; stroke-width: 0.8"/>
      </g>
     </g>
     <g id="text_7">
      <!-- 3.5 -->
      <g transform="translate(20.878125 54.191283) scale(0.1 -0.1)">
       <use xlink:href="#DejaVuSans-33"/>
       <use xlink:href="#DejaVuSans-2e" x="63.623047"/>
       <use xlink:href="#DejaVuSans-35" x="95.410156"/>
      </g>
     </g>
    </g>
    <g id="ytick_4">
     <g id="line2d_7">
      <g>
       <use xlink:href="#m0118ca0a01" x="43.78125" y="25.979943" style="stroke: #000000; stroke-width: 0.8"/>
      </g>
     </g>
     <g id="text_8">
      <!-- 4.0 -->
      <g transform="translate(20.878125 29.779162) scale(0.1 -0.1)">
       <defs>
        <path id="DejaVuSans-34" d="M 2419 4116 
L 825 1625 
L 2419 1625 
L 2419 4116 
z
M 2253 4666 
L 3047 4666 
L 3047 1625 
L 3713 1625 
L 3713 1100 
L 3047 1100 
L 3047 0 
L 2419 0 
L 2419 1100 
L 313 1100 
L 313 1709 
L 2253 4666 
z
" transform="scale(0.015625)"/>
       </defs>
       <use xlink:href="#DejaVuSans-34"/>
       <use xlink:href="#DejaVuSans-2e" x="63.623047"/>
       <use xlink:href="#DejaVuSans-30" x="95.410156"/>
      </g>
     </g>
    </g>
    <g id="text_9">
     <!-- Frequency (Hz) -->
     <g transform="translate(14.798438 100.302813) rotate(-90) scale(0.1 -0.1)">
      <defs>
       <path id="DejaVuSans-72" d="M 2631 2963 
Q 2534 3019 2420 3045 
Q 2306 3072 2169 3072 
Q 1681 3072 1420 2755 
Q 1159 2438 1159 1844 
L 1159 0 
L 581 0 
L 581 3500 
L 1159 3500 
L 1159 2956 
Q 1341 3275 1631 3429 
Q 1922 3584 2338 3584 
Q 2397 3584 2469 3576 
Q 2541 3569 2628 3553 
L 2631 2963 
z
" transform="scale(0.015625)"/>
       <path id="DejaVuSans-71" d="M 947 1747 
Q 947 1113 1208 752 
Q 1469 391 1925 391 
Q 2381 391 2643 752 
Q 2906 1113 2906 1747 
Q 2906 2381 2643 2742 
Q 2381 3103 1925 3103 
Q 1469 3103 1208 2742 
Q 947 2381 947 1747 
z
M 2906 525 
Q 2725 213 2448 61 
Q 2172 -91 1784 -91 
Q 1150 -91 751 415 
Q 353 922 353 1747 
Q 353 2572 751 3078 
Q 1150 3584 1784 3584 
Q 2172 3584 2448 3432 
Q 2725 3281 2906 2969 
L 2906 3500 
L 3481 3500 
L 3481 -1331 
L 2906 -1331 
L 2906 525 
z
" transform="scale(0.015625)"/>
       <path id="DejaVuSans-79" d="M 2059 -325 
Q 1816 -950 1584 -1140 
Q 1353 -1331 966 -1331 
L 506 -1331 
L 506 -850 
L 844 -850 
Q 1081 -850 1212 -737 
Q 1344 -625 1503 -206 
L 1606 56 
L 191 3500 
L 800 3500 
L 1894 763 
L 2988 3500 
L 3597 3500 
L 2059 -325 
z
" transform="scale(0.015625)"/>
       <path id="DejaVuSans-48" d="M 628 4666 
L 1259 4666 
L 1259 2753 
L 3553 2753 
L 3553 4666 
L 4184 4666 
L 4184 0 
L 3553 0 
L 3553 2222 
L 1259 2222 
L 1259 0 
L 628 0 
L 628 4666 
z
" transform="scale(0.015625)"/>
       <path id="DejaVuSans-7a" d="M 353 3500 
L 3084 3500 
L 3084 2975 
L 922 459 
L 3084 459 
L 3084 0 
L 275 0 
L 275 525 
L 2438 3041 
L 353 3041 
L 353 3500 
z
" transform="scale(0.015625)"/>
      </defs>
      <use xlink:href="#DejaVuSans-46"/>
      <use xlink:href="#DejaVuSans-72" x="50.269531"/>
      <use xlink:href="#DejaVuSans-65" x="89.132812"/>
      <use xlink:href="#DejaVuSans-71" x="150.65625"/>
      <use xlink:href="#DejaVuSans-75" x="214.132812"/>
      <use xlink:href="#DejaVuSans-65" x="277.511719"/>
      <use xlink:href="#DejaVuSans-6e" x="339.035156"/>
      <use xlink:href="#DejaVuSans-63" x="402.414062"/>
      <use xlink:href="#DejaVuSans-79" x="457.394531"/>
      <use xlink:href="#DejaVuSans-20" x="516.574219"/>
      <use xlink:href="#DejaVuSans-28" x="548.361328"/>
      <use xlink:href="#DejaVuSans-48" x="587.375"/>
      <use xlink:href="#DejaVuSans-7a" x="662.570312"/>
      <use xlink:href="#DejaVuSans-29" x="715.060547"/>
     </g>
    </g>
    <g id="text_10">
     <!-- 1e6 -->
     <g transform="translate(43.78125 19.318125) scale(0.1 -0.1)">
      <defs>
       <path id="DejaVuSans-31" d="M 794 531 
L 1825 531 
L 1825 4091 
L 703 3866 
L 703 4441 
L 1819 4666 
L 2450 4666 
L 2450 531 
L 3481 531 
L 3481 0 
L 794 0 
L 794 531 
z
" transform="scale(0.015625)"/>
      </defs>
      <use xlink:href="#DejaVuSans-31"/>
      <use xlink:href="#DejaVuSans-65" x="63.623047"/>
      <use xlink:href="#DejaVuSans-36" x="125.146484"/>
     </g>
    </g>
   </g>
   <g id="LineCollection_1">
    <path d="M 52.361705 99.216307 
L 55.76197 99.216307 
" clip-path="url(#p8f908eeafa)" style="fill: none; stroke: #000000; stroke-width: 1.5"/>
    <path d="M 107.531062 74.804186 
L 111.423784 74.804186 
" clip-path="url(#p8f908eeafa)" style="fill: none; stroke: #000000; stroke-width: 1.5"/>
    <path d="M 162.825097 50.392064 
L 167.236593 50.392064 
" clip-path="url(#p8f908eeafa)" style="fill: none; stroke: #000000; stroke-width: 1.5"/>
    <path d="M 219.027563 25.979943 
L 223.970795 25.979943 
" clip-path="url(#p8f908eeafa)" style="fill: none; stroke: #000000; stroke-width: 1.5"/>
   </g>
   <g id="line2d_8">
    <defs>
     <path id="m3cb911144f" d="M 0 5 
L 0 -5 
" style="stroke: #000000"/>
    </defs>
    <g clip-path="url(#p8f908eeafa)">
     <use xlink:href="#m3cb911144f" x="52.361705" y="99.216307" style="stroke: #000000"/>
     <use xlink:href="#m3cb911144f" x="107.531062" y="74.804186" style="stroke: #000000"/>
     <use xlink:href="#m3cb911144f" x="162.825097" y="50.392064" style="stroke: #000000"/>
     <use xlink:href="#m3cb911144f" x="219.027563" y="25.979943" style="stroke: #000000"/>
    </g>
   </g>
   <g id="line2d_9">
    <g clip-path="url(#p8f908eeafa)">
     <use xlink:href="#m3cb911144f" x="55.76197" y="99.216307" style="stroke: #000000"/>
     <use xlink:href="#m3cb911144f" x="111.423784" y="74.804186" style="stroke: #000000"/>
     <use xlink:href="#m3cb911144f" x="167.236593" y="50.392064" style="stroke: #000000"/>
     <use xlink:href="#m3cb911144f" x="223.970795" y="25.979943" style="stroke: #000000"/>
    </g>
   </g>
   <g id="line2d_10">
    <path d="M 52.975082 99.216307 
L 54.649122 98.476546 
L 56.323124 97.736784 
L 57.99709 96.997023 
L 59.671019 96.257262 
L 61.344911 95.517501 
L 63.018766 94.777739 
L 64.692584 94.037978 
L 66.366365 93.298217 
L 68.040109 92.558456 
L 69.713817 91.818694 
L 71.387487 91.078933 
L 73.061121 90.339172 
L 74.734718 89.599411 
L 76.408278 88.859649 
L 78.081801 88.119888 
L 79.755287 87.380127 
L 81.428736 86.640366 
L 83.102149 85.900604 
L 84.775525 85.160843 
L 86.448863 84.421082 
L 88.122165 83.681321 
L 89.79543 82.941559 
L 91.468658 82.201798 
L 93.14185 81.462037 
L 94.815004 80.722276 
L 96.488122 79.982514 
L 98.161203 79.242753 
L 99.834246 78.502992 
L 101.507254 77.763231 
L 103.180224 77.023469 
L 104.853157 76.283708 
L 106.526054 75.543947 
L 108.198914 74.804186 
L 109.871737 74.064424 
L 111.544523 73.324663 
L 113.217272 72.584902 
L 114.889984 71.845141 
L 116.56266 71.105379 
L 118.235299 70.365618 
L 119.907901 69.625857 
L 121.580466 68.886096 
L 123.252995 68.146334 
L 124.925486 67.406573 
L 126.597941 66.666812 
L 128.270359 65.927051 
L 129.94274 65.187289 
L 131.615085 64.447528 
L 133.287392 63.707767 
L 134.959663 62.968006 
L 136.631897 62.228244 
L 138.304095 61.488483 
L 139.976255 60.748722 
L 141.648379 60.008961 
L 143.320466 59.269199 
L 144.992516 58.529438 
L 146.664529 57.789677 
L 148.336506 57.049916 
L 150.008446 56.310154 
L 151.680349 55.570393 
L 153.352215 54.830632 
L 155.024045 54.090871 
L 156.695837 53.351109 
L 158.367594 52.611348 
L 160.039313 51.871587 
L 161.710995 51.131826 
L 163.382641 50.392064 
L 165.05425 49.652303 
L 166.725823 48.912542 
L 168.397358 48.172781 
L 170.068857 47.433019 
L 171.740319 46.693258 
L 173.411744 45.953497 
L 175.083133 45.213736 
L 176.754485 44.473974 
L 178.4258 43.734213 
L 180.097078 42.994452 
L 181.76832 42.254691 
L 183.439525 41.514929 
L 185.110693 40.775168 
L 186.781825 40.035407 
L 188.45292 39.295646 
L 190.123978 38.555884 
L 191.794999 37.816123 
L 193.465984 37.076362 
L 195.136932 36.336601 
L 196.807844 35.596839 
L 198.478718 34.857078 
L 200.149556 34.117317 
L 201.820357 33.377556 
L 203.491122 32.637794 
L 205.16185 31.898033 
L 206.832541 31.158272 
L 208.503195 30.418511 
L 210.173813 29.678749 
L 211.844394 28.938988 
L 213.514939 28.199227 
L 215.185447 27.459466 
L 216.855918 26.719704 
L 218.526352 25.979943 
" clip-path="url(#p8f908eeafa)" style="fill: none; stroke-dasharray: 5.55,2.4; stroke-dashoffset: 0; stroke: #000000; stroke-width: 1.5"/>
   </g>
   <g id="line2d_11">
    <defs>
     <path id="mc1341d89e9" d="M 0 1 
C 0.265203 1 0.51958 0.894634 0.707107 0.707107 
C 0.894634 0.51958 1 0.265203 1 0 
C 1 -0.265203 0.894634 -0.51958 0.707107 -0.707107 
C 0.51958 -0.894634 0.265203 -1 0 -1 
C -0.265203 -1 -0.51958 -0.894634 -0.707107 -0.707107 
C -0.894634 -0.51958 -1 -0.265203 -1 0 
C -1 0.265203 -0.894634 0.51958 -0.707107 0.707107 
C -0.51958 0.894634 -0.265203 1 0 1 
z
" style="stroke: #000000"/>
    </defs>
    <g clip-path="url(#p8f908eeafa)">
     <use xlink:href="#mc1341d89e9" x="54.061837" y="99.216307" style="stroke: #000000"/>
     <use xlink:href="#mc1341d89e9" x="109.477423" y="74.804186" style="stroke: #000000"/>
     <use xlink:href="#mc1341d89e9" x="165.030845" y="50.392064" style="stroke: #000000"/>
     <use xlink:href="#mc1341d89e9" x="221.499179" y="25.979943" style="stroke: #000000"/>
    </g>
   </g>
   <g id="patch_3">
    <path d="M 43.78125 102.878125 
L 43.78125 22.318125 
" style="fill: none; stroke: #000000; stroke-width: 0.8; stroke-linejoin: miter; stroke-linecap: square"/>
   </g>
   <g id="patch_4">
    <path d="M 232.55125 102.878125 
L 232.55125 22.318125 
" style="fill: none; stroke: #000000; stroke-width: 0.8; stroke-linejoin: miter; stroke-linecap: square"/>
   </g>
   <g id="patch_5">
    <path d="M 43.78125 102.878125 
L 232.55125 102.878125 
" style="fill: none; stroke: #000000; stroke-width: 0.8; stroke-linejoin: miter; stroke-linecap: square"/>
   </g>
   <g id="patch_6">
    <path d="M 43.78125 22.318125 
L 232.55125 22.318125 
" style="fill: none; stroke: #000000; stroke-width: 0.8; stroke-linejoin: miter; stroke-linecap: square"/>
   </g>
   <g id="text_11">
    <!-- First Peaks -->
    <g transform="translate(106.263125 16.318125) scale(0.12 -0.12)">
     <defs>
      <path id="DejaVuSans-50" d="M 1259 4147 
L 1259 2394 
L 2053 2394 
Q 2494 2394 2734 2622 
Q 2975 2850 2975 3272 
Q 2975 3691 2734 3919 
Q 2494 4147 2053 4147 
L 1259 4147 
z
M 628 4666 
L 2053 4666 
Q 2838 4666 3239 4311 
Q 3641 3956 3641 3272 
Q 3641 2581 3239 2228 
Q 2838 1875 2053 1875 
L 1259 1875 
L 1259 0 
L 628 0 
L 628 4666 
z
" transform="scale(0.015625)"/>
      <path id="DejaVuSans-6b" d="M 581 4863 
L 1159 4863 
L 1159 1991 
L 2875 3500 
L 3609 3500 
L 1753 1863 
L 3688 0 
L 2938 0 
L 1159 1709 
L 1159 0 
L 581 0 
L 581 4863 
z
" transform="scale(0.015625)"/>
     </defs>
     <use xlink:href="#DejaVuSans-46"/>
     <use xlink:href="#DejaVuSans-69" x="50.269531"/>
     <use xlink:href="#DejaVuSans-72" x="78.052734"/>
     <use xlink:href="#DejaVuSans-73" x="119.166016"/>
     <use xlink:href="#DejaVuSans-74" x="171.265625"/>
     <use xlink:href="#DejaVuSans-20" x="210.474609"/>
     <use xlink:href="#DejaVuSans-50" x="242.261719"/>
     <use xlink:href="#DejaVuSans-65" x="298.939453"/>
     <use xlink:href="#DejaVuSans-61" x="360.462891"/>
     <use xlink:href="#DejaVuSans-6b" x="421.742188"/>
     <use xlink:href="#DejaVuSans-73" x="479.652344"/>
    </g>
   </g>
   <g id="legend_1">
    <g id="patch_7">
     <path d="M 50.78125 59.674375 
L 130.895313 59.674375 
Q 132.895313 59.674375 132.895313 57.674375 
L 132.895313 29.318125 
Q 132.895313 27.318125 130.895313 27.318125 
L 50.78125 27.318125 
Q 48.78125 27.318125 48.78125 29.318125 
L 48.78125 57.674375 
Q 48.78125 59.674375 50.78125 59.674375 
z
" style="fill: #ffffff; opacity: 0.8; stroke: #cccccc; stroke-linejoin: miter"/>
    </g>
    <g id="line2d_12">
     <path d="M 52.78125 35.416562 
L 62.78125 35.416562 
L 72.78125 35.416562 
" style="fill: none; stroke-dasharray: 5.55,2.4; stroke-dashoffset: 0; stroke: #000000; stroke-width: 1.5"/>
    </g>
    <g id="text_12">
     <!-- Predicted -->
     <g transform="translate(80.78125 38.916562) scale(0.1 -0.1)">
      <use xlink:href="#DejaVuSans-50"/>
      <use xlink:href="#DejaVuSans-72" x="58.552734"/>
      <use xlink:href="#DejaVuSans-65" x="97.416016"/>
      <use xlink:href="#DejaVuSans-64" x="158.939453"/>
      <use xlink:href="#DejaVuSans-69" x="222.416016"/>
      <use xlink:href="#DejaVuSans-63" x="250.199219"/>
      <use xlink:href="#DejaVuSans-74" x="305.179688"/>
      <use xlink:href="#DejaVuSans-65" x="344.388672"/>
      <use xlink:href="#DejaVuSans-64" x="405.912109"/>
     </g>
    </g>
    <g id="LineCollection_2">
     <path d="M 57.78125 50.094687 
L 67.78125 50.094687 
" style="fill: none; stroke: #000000; stroke-width: 1.5"/>
    </g>
    <g id="line2d_13">
     <g>
      <use xlink:href="#m3cb911144f" x="57.78125" y="50.094687" style="stroke: #000000"/>
     </g>
    </g>
    <g id="line2d_14">
     <g>
      <use xlink:href="#m3cb911144f" x="67.78125" y="50.094687" style="stroke: #000000"/>
     </g>
    </g>
    <g id="line2d_15"/>
    <g id="line2d_16">
     <g>
      <use xlink:href="#mc1341d89e9" x="62.78125" y="50.094687" style="stroke: #000000"/>
     </g>
    </g>
    <g id="text_13">
     <!-- Observed -->
     <g transform="translate(80.78125 53.594687) scale(0.1 -0.1)">
      <defs>
       <path id="DejaVuSans-4f" d="M 2522 4238 
Q 1834 4238 1429 3725 
Q 1025 3213 1025 2328 
Q 1025 1447 1429 934 
Q 1834 422 2522 422 
Q 3209 422 3611 934 
Q 4013 1447 4013 2328 
Q 4013 3213 3611 3725 
Q 3209 4238 2522 4238 
z
M 2522 4750 
Q 3503 4750 4090 4092 
Q 4678 3434 4678 2328 
Q 4678 1225 4090 567 
Q 3503 -91 2522 -91 
Q 1538 -91 948 565 
Q 359 1222 359 2328 
Q 359 3434 948 4092 
Q 1538 4750 2522 4750 
z
" transform="scale(0.015625)"/>
       <path id="DejaVuSans-62" d="M 3116 1747 
Q 3116 2381 2855 2742 
Q 2594 3103 2138 3103 
Q 1681 3103 1420 2742 
Q 1159 2381 1159 1747 
Q 1159 1113 1420 752 
Q 1681 391 2138 391 
Q 2594 391 2855 752 
Q 3116 1113 3116 1747 
z
M 1159 2969 
Q 1341 3281 1617 3432 
Q 1894 3584 2278 3584 
Q 2916 3584 3314 3078 
Q 3713 2572 3713 1747 
Q 3713 922 3314 415 
Q 2916 -91 2278 -91 
Q 1894 -91 1617 61 
Q 1341 213 1159 525 
L 1159 0 
L 581 0 
L 581 4863 
L 1159 4863 
L 1159 2969 
z
" transform="scale(0.015625)"/>
       <path id="DejaVuSans-76" d="M 191 3500 
L 800 3500 
L 1894 563 
L 2988 3500 
L 3597 3500 
L 2284 0 
L 1503 0 
L 191 3500 
z
" transform="scale(0.015625)"/>
      </defs>
      <use xlink:href="#DejaVuSans-4f"/>
      <use xlink:href="#DejaVuSans-62" x="78.710938"/>
      <use xlink:href="#DejaVuSans-73" x="142.1875"/>
      <use xlink:href="#DejaVuSans-65" x="194.287109"/>
      <use xlink:href="#DejaVuSans-72" x="255.810547"/>
      <use xlink:href="#DejaVuSans-76" x="296.923828"/>
      <use xlink:href="#DejaVuSans-65" x="356.103516"/>
      <use xlink:href="#DejaVuSans-64" x="417.626953"/>
     </g>
    </g>
   </g>
  </g>
  <g id="axes_2">
   <g id="patch_8">
    <path d="M 280.18125 102.878125 
L 468.95125 102.878125 
L 468.95125 22.318125 
L 280.18125 22.318125 
z
" style="fill: #ffffff"/>
   </g>
   <g id="matplotlib.axis_3">
    <g id="xtick_4">
     <g id="line2d_17">
      <g>
       <use xlink:href="#m5d64412a1b" x="322.284533" y="102.878125" style="stroke: #000000; stroke-width: 0.8"/>
      </g>
     </g>
     <g id="text_14">
      <!-- 6 -->
      <g transform="translate(319.103283 117.476563) scale(0.1 -0.1)">
       <use xlink:href="#DejaVuSans-36"/>
      </g>
     </g>
    </g>
    <g id="xtick_5">
     <g id="line2d_18">
      <g>
       <use xlink:href="#m5d64412a1b" x="373.764322" y="102.878125" style="stroke: #000000; stroke-width: 0.8"/>
      </g>
     </g>
     <g id="text_15">
      <!-- 7 -->
      <g transform="translate(370.583072 117.476563) scale(0.1 -0.1)">
       <use xlink:href="#DejaVuSans-37"/>
      </g>
     </g>
    </g>
    <g id="xtick_6">
     <g id="line2d_19">
      <g>
       <use xlink:href="#m5d64412a1b" x="425.244111" y="102.878125" style="stroke: #000000; stroke-width: 0.8"/>
      </g>
     </g>
     <g id="text_16">
      <!-- 8 -->
      <g transform="translate(422.062861 117.476563) scale(0.1 -0.1)">
       <use xlink:href="#DejaVuSans-38"/>
      </g>
     </g>
    </g>
    <g id="text_17">
     <!-- Magnetic Field (Gauss) -->
     <g transform="translate(317.731875 131.154688) scale(0.1 -0.1)">
      <use xlink:href="#DejaVuSans-4d"/>
      <use xlink:href="#DejaVuSans-61" x="86.279297"/>
      <use xlink:href="#DejaVuSans-67" x="147.558594"/>
      <use xlink:href="#DejaVuSans-6e" x="211.035156"/>
      <use xlink:href="#DejaVuSans-65" x="274.414062"/>
      <use xlink:href="#DejaVuSans-74" x="335.9375"/>
      <use xlink:href="#DejaVuSans-69" x="375.146484"/>
      <use xlink:href="#DejaVuSans-63" x="402.929688"/>
      <use xlink:href="#DejaVuSans-20" x="457.910156"/>
      <use xlink:href="#DejaVuSans-46" x="489.697266"/>
      <use xlink:href="#DejaVuSans-69" x="539.966797"/>
      <use xlink:href="#DejaVuSans-65" x="567.75"/>
      <use xlink:href="#DejaVuSans-6c" x="629.273438"/>
      <use xlink:href="#DejaVuSans-64" x="657.056641"/>
      <use xlink:href="#DejaVuSans-20" x="720.533203"/>
      <use xlink:href="#DejaVuSans-28" x="752.320312"/>
      <use xlink:href="#DejaVuSans-47" x="791.333984"/>
      <use xlink:href="#DejaVuSans-61" x="868.824219"/>
      <use xlink:href="#DejaVuSans-75" x="930.103516"/>
      <use xlink:href="#DejaVuSans-73" x="993.482422"/>
      <use xlink:href="#DejaVuSans-73" x="1045.582031"/>
      <use xlink:href="#DejaVuSans-29" x="1097.681641"/>
     </g>
    </g>
   </g>
   <g id="matplotlib.axis_4">
    <g id="ytick_5">
     <g id="line2d_20">
      <g>
       <use xlink:href="#m0118ca0a01" x="280.18125" y="99.216307" style="stroke: #000000; stroke-width: 0.8"/>
      </g>
     </g>
     <g id="text_18">
      <!-- 2.5 -->
      <g transform="translate(257.278125 103.015526) scale(0.1 -0.1)">
       <use xlink:href="#DejaVuSans-32"/>
       <use xlink:href="#DejaVuSans-2e" x="63.623047"/>
       <use xlink:href="#DejaVuSans-35" x="95.410156"/>
      </g>
     </g>
    </g>
    <g id="ytick_6">
     <g id="line2d_21">
      <g>
       <use xlink:href="#m0118ca0a01" x="280.18125" y="74.804186" style="stroke: #000000; stroke-width: 0.8"/>
      </g>
     </g>
     <g id="text_19">
      <!-- 3.0 -->
      <g transform="translate(257.278125 78.603404) scale(0.1 -0.1)">
       <use xlink:href="#DejaVuSans-33"/>
       <use xlink:href="#DejaVuSans-2e" x="63.623047"/>
       <use xlink:href="#DejaVuSans-30" x="95.410156"/>
      </g>
     </g>
    </g>
    <g id="ytick_7">
     <g id="line2d_22">
      <g>
       <use xlink:href="#m0118ca0a01" x="280.18125" y="50.392064" style="stroke: #000000; stroke-width: 0.8"/>
      </g>
     </g>
     <g id="text_20">
      <!-- 3.5 -->
      <g transform="translate(257.278125 54.191283) scale(0.1 -0.1)">
       <use xlink:href="#DejaVuSans-33"/>
       <use xlink:href="#DejaVuSans-2e" x="63.623047"/>
       <use xlink:href="#DejaVuSans-35" x="95.410156"/>
      </g>
     </g>
    </g>
    <g id="ytick_8">
     <g id="line2d_23">
      <g>
       <use xlink:href="#m0118ca0a01" x="280.18125" y="25.979943" style="stroke: #000000; stroke-width: 0.8"/>
      </g>
     </g>
     <g id="text_21">
      <!-- 4.0 -->
      <g transform="translate(257.278125 29.779162) scale(0.1 -0.1)">
       <use xlink:href="#DejaVuSans-34"/>
       <use xlink:href="#DejaVuSans-2e" x="63.623047"/>
       <use xlink:href="#DejaVuSans-30" x="95.410156"/>
      </g>
     </g>
    </g>
    <g id="text_22">
     <!-- Frequency (Hz) -->
     <g transform="translate(251.198437 100.302813) rotate(-90) scale(0.1 -0.1)">
      <use xlink:href="#DejaVuSans-46"/>
      <use xlink:href="#DejaVuSans-72" x="50.269531"/>
      <use xlink:href="#DejaVuSans-65" x="89.132812"/>
      <use xlink:href="#DejaVuSans-71" x="150.65625"/>
      <use xlink:href="#DejaVuSans-75" x="214.132812"/>
      <use xlink:href="#DejaVuSans-65" x="277.511719"/>
      <use xlink:href="#DejaVuSans-6e" x="339.035156"/>
      <use xlink:href="#DejaVuSans-63" x="402.414062"/>
      <use xlink:href="#DejaVuSans-79" x="457.394531"/>
      <use xlink:href="#DejaVuSans-20" x="516.574219"/>
      <use xlink:href="#DejaVuSans-28" x="548.361328"/>
      <use xlink:href="#DejaVuSans-48" x="587.375"/>
      <use xlink:href="#DejaVuSans-7a" x="662.570312"/>
      <use xlink:href="#DejaVuSans-29" x="715.060547"/>
     </g>
    </g>
    <g id="text_23">
     <!-- 1e6 -->
     <g transform="translate(280.18125 19.318125) scale(0.1 -0.1)">
      <use xlink:href="#DejaVuSans-31"/>
      <use xlink:href="#DejaVuSans-65" x="63.623047"/>
      <use xlink:href="#DejaVuSans-36" x="125.146484"/>
     </g>
    </g>
   </g>
   <g id="LineCollection_3">
    <path d="M 288.761705 99.216307 
L 292.147756 99.216307 
" clip-path="url(#p9914859852)" style="fill: none; stroke: #000000; stroke-width: 1.5"/>
    <path d="M 343.918597 74.804186 
L 347.795083 74.804186 
" clip-path="url(#p9914859852)" style="fill: none; stroke: #000000; stroke-width: 1.5"/>
    <path d="M 399.231065 50.392064 
L 403.62418 50.392064 
" clip-path="url(#p9914859852)" style="fill: none; stroke: #000000; stroke-width: 1.5"/>
    <path d="M 455.44813 25.979943 
L 460.370795 25.979943 
" clip-path="url(#p9914859852)" style="fill: none; stroke: #000000; stroke-width: 1.5"/>
   </g>
   <g id="line2d_24">
    <g clip-path="url(#p9914859852)">
     <use xlink:href="#m3cb911144f" x="288.761705" y="99.216307" style="stroke: #000000"/>
     <use xlink:href="#m3cb911144f" x="343.918597" y="74.804186" style="stroke: #000000"/>
     <use xlink:href="#m3cb911144f" x="399.231065" y="50.392064" style="stroke: #000000"/>
     <use xlink:href="#m3cb911144f" x="455.44813" y="25.979943" style="stroke: #000000"/>
    </g>
   </g>
   <g id="line2d_25">
    <g clip-path="url(#p9914859852)">
     <use xlink:href="#m3cb911144f" x="292.147756" y="99.216307" style="stroke: #000000"/>
     <use xlink:href="#m3cb911144f" x="347.795083" y="74.804186" style="stroke: #000000"/>
     <use xlink:href="#m3cb911144f" x="403.62418" y="50.392064" style="stroke: #000000"/>
     <use xlink:href="#m3cb911144f" x="460.370795" y="25.979943" style="stroke: #000000"/>
    </g>
   </g>
   <g id="line2d_26">
    <path d="M 289.045153 99.216307 
L 290.712631 98.476546 
L 292.380071 97.736784 
L 294.047475 96.997023 
L 295.714842 96.257262 
L 297.382172 95.517501 
L 299.049466 94.777739 
L 300.716723 94.037978 
L 302.383943 93.298217 
L 304.051126 92.558456 
L 305.718273 91.818694 
L 307.385382 91.078933 
L 309.052455 90.339172 
L 310.719491 89.599411 
L 312.386491 88.859649 
L 314.053454 88.119888 
L 315.72038 87.380127 
L 317.387269 86.640366 
L 319.054121 85.900604 
L 320.720937 85.160843 
L 322.387716 84.421082 
L 324.054458 83.681321 
L 325.721164 82.941559 
L 327.387833 82.201798 
L 329.054465 81.462037 
L 330.72106 80.722276 
L 332.387619 79.982514 
L 334.05414 79.242753 
L 335.720626 78.502992 
L 337.387074 77.763231 
L 339.053486 77.023469 
L 340.719861 76.283708 
L 342.386199 75.543947 
L 344.052501 74.804186 
L 345.718766 74.064424 
L 347.384994 73.324663 
L 349.051186 72.584902 
L 350.71734 71.845141 
L 352.383459 71.105379 
L 354.04954 70.365618 
L 355.715585 69.625857 
L 357.381593 68.886096 
L 359.047564 68.146334 
L 360.713499 67.406573 
L 362.379397 66.666812 
L 364.045258 65.927051 
L 365.711083 65.187289 
L 367.376871 64.447528 
L 369.042622 63.707767 
L 370.708337 62.968006 
L 372.374015 62.228244 
L 374.039656 61.488483 
L 375.705261 60.748722 
L 377.370829 60.008961 
L 379.03636 59.269199 
L 380.701855 58.529438 
L 382.367313 57.789677 
L 384.032735 57.049916 
L 385.698119 56.310154 
L 387.363467 55.570393 
L 389.028779 54.830632 
L 390.694054 54.090871 
L 392.359292 53.351109 
L 394.024494 52.611348 
L 395.689659 51.871587 
L 397.354787 51.131826 
L 399.019879 50.392064 
L 400.684934 49.652303 
L 402.349952 48.912542 
L 404.014934 48.172781 
L 405.679879 47.433019 
L 407.344788 46.693258 
L 409.00966 45.953497 
L 410.674495 45.213736 
L 412.339294 44.473974 
L 414.004056 43.734213 
L 415.668782 42.994452 
L 417.333471 42.254691 
L 418.998123 41.514929 
L 420.662739 40.775168 
L 422.327318 40.035407 
L 423.991861 39.295646 
L 425.656367 38.555884 
L 427.320836 37.816123 
L 428.985269 37.076362 
L 430.649665 36.336601 
L 432.314025 35.596839 
L 433.978348 34.857078 
L 435.642635 34.117317 
L 437.306885 33.377556 
L 438.971098 32.637794 
L 440.635275 31.898033 
L 442.299415 31.158272 
L 443.963519 30.418511 
L 445.627586 29.678749 
L 447.291617 28.938988 
L 448.955611 28.199227 
L 450.619568 27.459466 
L 452.283489 26.719704 
L 453.947373 25.979943 
" clip-path="url(#p9914859852)" style="fill: none; stroke-dasharray: 5.55,2.4; stroke-dashoffset: 0; stroke: #000000; stroke-width: 1.5"/>
   </g>
   <g id="line2d_27">
    <g clip-path="url(#p9914859852)">
     <use xlink:href="#mc1341d89e9" x="290.45473" y="99.216307" style="stroke: #000000"/>
     <use xlink:href="#mc1341d89e9" x="345.85684" y="74.804186" style="stroke: #000000"/>
     <use xlink:href="#mc1341d89e9" x="401.427622" y="50.392064" style="stroke: #000000"/>
     <use xlink:href="#mc1341d89e9" x="457.909463" y="25.979943" style="stroke: #000000"/>
    </g>
   </g>
   <g id="patch_9">
    <path d="M 280.18125 102.878125 
L 280.18125 22.318125 
" style="fill: none; stroke: #000000; stroke-width: 0.8; stroke-linejoin: miter; stroke-linecap: square"/>
   </g>
   <g id="patch_10">
    <path d="M 468.95125 102.878125 
L 468.95125 22.318125 
" style="fill: none; stroke: #000000; stroke-width: 0.8; stroke-linejoin: miter; stroke-linecap: square"/>
   </g>
   <g id="patch_11">
    <path d="M 280.18125 102.878125 
L 468.95125 102.878125 
" style="fill: none; stroke: #000000; stroke-width: 0.8; stroke-linejoin: miter; stroke-linecap: square"/>
   </g>
   <g id="patch_12">
    <path d="M 280.18125 22.318125 
L 468.95125 22.318125 
" style="fill: none; stroke: #000000; stroke-width: 0.8; stroke-linejoin: miter; stroke-linecap: square"/>
   </g>
   <g id="text_24">
    <!-- Second Peaks -->
    <g transform="translate(333.2075 16.318125) scale(0.12 -0.12)">
     <defs>
      <path id="DejaVuSans-53" d="M 3425 4513 
L 3425 3897 
Q 3066 4069 2747 4153 
Q 2428 4238 2131 4238 
Q 1616 4238 1336 4038 
Q 1056 3838 1056 3469 
Q 1056 3159 1242 3001 
Q 1428 2844 1947 2747 
L 2328 2669 
Q 3034 2534 3370 2195 
Q 3706 1856 3706 1288 
Q 3706 609 3251 259 
Q 2797 -91 1919 -91 
Q 1588 -91 1214 -16 
Q 841 59 441 206 
L 441 856 
Q 825 641 1194 531 
Q 1563 422 1919 422 
Q 2459 422 2753 634 
Q 3047 847 3047 1241 
Q 3047 1584 2836 1778 
Q 2625 1972 2144 2069 
L 1759 2144 
Q 1053 2284 737 2584 
Q 422 2884 422 3419 
Q 422 4038 858 4394 
Q 1294 4750 2059 4750 
Q 2388 4750 2728 4690 
Q 3069 4631 3425 4513 
z
" transform="scale(0.015625)"/>
      <path id="DejaVuSans-6f" d="M 1959 3097 
Q 1497 3097 1228 2736 
Q 959 2375 959 1747 
Q 959 1119 1226 758 
Q 1494 397 1959 397 
Q 2419 397 2687 759 
Q 2956 1122 2956 1747 
Q 2956 2369 2687 2733 
Q 2419 3097 1959 3097 
z
M 1959 3584 
Q 2709 3584 3137 3096 
Q 3566 2609 3566 1747 
Q 3566 888 3137 398 
Q 2709 -91 1959 -91 
Q 1206 -91 779 398 
Q 353 888 353 1747 
Q 353 2609 779 3096 
Q 1206 3584 1959 3584 
z
" transform="scale(0.015625)"/>
     </defs>
     <use xlink:href="#DejaVuSans-53"/>
     <use xlink:href="#DejaVuSans-65" x="63.476562"/>
     <use xlink:href="#DejaVuSans-63" x="125"/>
     <use xlink:href="#DejaVuSans-6f" x="179.980469"/>
     <use xlink:href="#DejaVuSans-6e" x="241.162109"/>
     <use xlink:href="#DejaVuSans-64" x="304.541016"/>
     <use xlink:href="#DejaVuSans-20" x="368.017578"/>
     <use xlink:href="#DejaVuSans-50" x="399.804688"/>
     <use xlink:href="#DejaVuSans-65" x="456.482422"/>
     <use xlink:href="#DejaVuSans-61" x="518.005859"/>
     <use xlink:href="#DejaVuSans-6b" x="579.285156"/>
     <use xlink:href="#DejaVuSans-73" x="637.195312"/>
    </g>
   </g>
  </g>
  <g id="axes_3">
   <g id="patch_13">
    <path d="M 516.58125 102.878125 
L 705.35125 102.878125 
L 705.35125 22.318125 
L 516.58125 22.318125 
z
" style="fill: #ffffff"/>
   </g>
   <g id="matplotlib.axis_5">
    <g id="xtick_7">
     <g id="line2d_28">
      <g>
       <use xlink:href="#m5d64412a1b" x="558.080741" y="102.878125" style="stroke: #000000; stroke-width: 0.8"/>
      </g>
     </g>
     <g id="text_25">
      <!-- 6 -->
      <g transform="translate(554.899491 117.476563) scale(0.1 -0.1)">
       <use xlink:href="#DejaVuSans-36"/>
      </g>
     </g>
    </g>
    <g id="xtick_8">
     <g id="line2d_29">
      <g>
       <use xlink:href="#m5d64412a1b" x="609.353967" y="102.878125" style="stroke: #000000; stroke-width: 0.8"/>
      </g>
     </g>
     <g id="text_26">
      <!-- 7 -->
      <g transform="translate(606.172717 117.476563) scale(0.1 -0.1)">
       <use xlink:href="#DejaVuSans-37"/>
      </g>
     </g>
    </g>
    <g id="xtick_9">
     <g id="line2d_30">
      <g>
       <use xlink:href="#m5d64412a1b" x="660.627194" y="102.878125" style="stroke: #000000; stroke-width: 0.8"/>
      </g>
     </g>
     <g id="text_27">
      <!-- 8 -->
      <g transform="translate(657.445944 117.476563) scale(0.1 -0.1)">
       <use xlink:href="#DejaVuSans-38"/>
      </g>
     </g>
    </g>
    <g id="text_28">
     <!-- Magnetic Field (Gauss) -->
     <g transform="translate(554.131875 131.154688) scale(0.1 -0.1)">
      <use xlink:href="#DejaVuSans-4d"/>
      <use xlink:href="#DejaVuSans-61" x="86.279297"/>
      <use xlink:href="#DejaVuSans-67" x="147.558594"/>
      <use xlink:href="#DejaVuSans-6e" x="211.035156"/>
      <use xlink:href="#DejaVuSans-65" x="274.414062"/>
      <use xlink:href="#DejaVuSans-74" x="335.9375"/>
      <use xlink:href="#DejaVuSans-69" x="375.146484"/>
      <use xlink:href="#DejaVuSans-63" x="402.929688"/>
      <use xlink:href="#DejaVuSans-20" x="457.910156"/>
      <use xlink:href="#DejaVuSans-46" x="489.697266"/>
      <use xlink:href="#DejaVuSans-69" x="539.966797"/>
      <use xlink:href="#DejaVuSans-65" x="567.75"/>
      <use xlink:href="#DejaVuSans-6c" x="629.273438"/>
      <use xlink:href="#DejaVuSans-64" x="657.056641"/>
      <use xlink:href="#DejaVuSans-20" x="720.533203"/>
      <use xlink:href="#DejaVuSans-28" x="752.320312"/>
      <use xlink:href="#DejaVuSans-47" x="791.333984"/>
      <use xlink:href="#DejaVuSans-61" x="868.824219"/>
      <use xlink:href="#DejaVuSans-75" x="930.103516"/>
      <use xlink:href="#DejaVuSans-73" x="993.482422"/>
      <use xlink:href="#DejaVuSans-73" x="1045.582031"/>
      <use xlink:href="#DejaVuSans-29" x="1097.681641"/>
     </g>
    </g>
   </g>
   <g id="matplotlib.axis_6">
    <g id="ytick_9">
     <g id="line2d_31">
      <g>
       <use xlink:href="#m0118ca0a01" x="516.58125" y="99.216307" style="stroke: #000000; stroke-width: 0.8"/>
      </g>
     </g>
     <g id="text_29">
      <!-- 2.5 -->
      <g transform="translate(493.678125 103.015526) scale(0.1 -0.1)">
       <use xlink:href="#DejaVuSans-32"/>
       <use xlink:href="#DejaVuSans-2e" x="63.623047"/>
       <use xlink:href="#DejaVuSans-35" x="95.410156"/>
      </g>
     </g>
    </g>
    <g id="ytick_10">
     <g id="line2d_32">
      <g>
       <use xlink:href="#m0118ca0a01" x="516.58125" y="74.804186" style="stroke: #000000; stroke-width: 0.8"/>
      </g>
     </g>
     <g id="text_30">
      <!-- 3.0 -->
      <g transform="translate(493.678125 78.603404) scale(0.1 -0.1)">
       <use xlink:href="#DejaVuSans-33"/>
       <use xlink:href="#DejaVuSans-2e" x="63.623047"/>
       <use xlink:href="#DejaVuSans-30" x="95.410156"/>
      </g>
     </g>
    </g>
    <g id="ytick_11">
     <g id="line2d_33">
      <g>
       <use xlink:href="#m0118ca0a01" x="516.58125" y="50.392064" style="stroke: #000000; stroke-width: 0.8"/>
      </g>
     </g>
     <g id="text_31">
      <!-- 3.5 -->
      <g transform="translate(493.678125 54.191283) scale(0.1 -0.1)">
       <use xlink:href="#DejaVuSans-33"/>
       <use xlink:href="#DejaVuSans-2e" x="63.623047"/>
       <use xlink:href="#DejaVuSans-35" x="95.410156"/>
      </g>
     </g>
    </g>
    <g id="ytick_12">
     <g id="line2d_34">
      <g>
       <use xlink:href="#m0118ca0a01" x="516.58125" y="25.979943" style="stroke: #000000; stroke-width: 0.8"/>
      </g>
     </g>
     <g id="text_32">
      <!-- 4.0 -->
      <g transform="translate(493.678125 29.779162) scale(0.1 -0.1)">
       <use xlink:href="#DejaVuSans-34"/>
       <use xlink:href="#DejaVuSans-2e" x="63.623047"/>
       <use xlink:href="#DejaVuSans-30" x="95.410156"/>
      </g>
     </g>
    </g>
    <g id="text_33">
     <!-- Frequency (Hz) -->
     <g transform="translate(487.598437 100.302813) rotate(-90) scale(0.1 -0.1)">
      <use xlink:href="#DejaVuSans-46"/>
      <use xlink:href="#DejaVuSans-72" x="50.269531"/>
      <use xlink:href="#DejaVuSans-65" x="89.132812"/>
      <use xlink:href="#DejaVuSans-71" x="150.65625"/>
      <use xlink:href="#DejaVuSans-75" x="214.132812"/>
      <use xlink:href="#DejaVuSans-65" x="277.511719"/>
      <use xlink:href="#DejaVuSans-6e" x="339.035156"/>
      <use xlink:href="#DejaVuSans-63" x="402.414062"/>
      <use xlink:href="#DejaVuSans-79" x="457.394531"/>
      <use xlink:href="#DejaVuSans-20" x="516.574219"/>
      <use xlink:href="#DejaVuSans-28" x="548.361328"/>
      <use xlink:href="#DejaVuSans-48" x="587.375"/>
      <use xlink:href="#DejaVuSans-7a" x="662.570312"/>
      <use xlink:href="#DejaVuSans-29" x="715.060547"/>
     </g>
    </g>
    <g id="text_34">
     <!-- 1e6 -->
     <g transform="translate(516.58125 19.318125) scale(0.1 -0.1)">
      <use xlink:href="#DejaVuSans-31"/>
      <use xlink:href="#DejaVuSans-65" x="63.623047"/>
      <use xlink:href="#DejaVuSans-36" x="125.146484"/>
     </g>
    </g>
   </g>
   <g id="LineCollection_4">
    <path d="M 525.161705 99.216307 
L 528.534298 99.216307 
" clip-path="url(#pb48a00bb4d)" style="fill: none; stroke: #000000; stroke-width: 1.5"/>
    <path d="M 580.316281 74.804186 
L 584.177396 74.804186 
" clip-path="url(#pb48a00bb4d)" style="fill: none; stroke: #000000; stroke-width: 1.5"/>
    <path d="M 635.59453 50.392064 
L 639.970233 50.392064 
" clip-path="url(#pb48a00bb4d)" style="fill: none; stroke: #000000; stroke-width: 1.5"/>
    <path d="M 691.867597 25.979943 
L 696.770795 25.979943 
" clip-path="url(#pb48a00bb4d)" style="fill: none; stroke: #000000; stroke-width: 1.5"/>
   </g>
   <g id="line2d_35">
    <g clip-path="url(#pb48a00bb4d)">
     <use xlink:href="#m3cb911144f" x="525.161705" y="99.216307" style="stroke: #000000"/>
     <use xlink:href="#m3cb911144f" x="580.316281" y="74.804186" style="stroke: #000000"/>
     <use xlink:href="#m3cb911144f" x="635.59453" y="50.392064" style="stroke: #000000"/>
     <use xlink:href="#m3cb911144f" x="691.867597" y="25.979943" style="stroke: #000000"/>
    </g>
   </g>
   <g id="line2d_36">
    <g clip-path="url(#pb48a00bb4d)">
     <use xlink:href="#m3cb911144f" x="528.534298" y="99.216307" style="stroke: #000000"/>
     <use xlink:href="#m3cb911144f" x="584.177396" y="74.804186" style="stroke: #000000"/>
     <use xlink:href="#m3cb911144f" x="639.970233" y="50.392064" style="stroke: #000000"/>
     <use xlink:href="#m3cb911144f" x="696.770795" y="25.979943" style="stroke: #000000"/>
    </g>
   </g>
   <g id="line2d_37">
    <path d="M 525.69889 99.216307 
L 527.368969 98.476546 
L 529.039069 97.736784 
L 530.709193 96.997023 
L 532.379338 96.257262 
L 534.049506 95.517501 
L 535.719696 94.777739 
L 537.389909 94.037978 
L 539.060144 93.298217 
L 540.730401 92.558456 
L 542.400681 91.818694 
L 544.070982 91.078933 
L 545.741307 90.339172 
L 547.411654 89.599411 
L 549.082023 88.859649 
L 550.752414 88.119888 
L 552.422828 87.380127 
L 554.093264 86.640366 
L 555.763723 85.900604 
L 557.434204 85.160843 
L 559.104707 84.421082 
L 560.775232 83.681321 
L 562.44578 82.941559 
L 564.116351 82.201798 
L 565.786944 81.462037 
L 567.457559 80.722276 
L 569.128196 79.982514 
L 570.798856 79.242753 
L 572.469538 78.502992 
L 574.140243 77.763231 
L 575.81097 77.023469 
L 577.481719 76.283708 
L 579.152491 75.543947 
L 580.823285 74.804186 
L 582.494102 74.064424 
L 584.164941 73.324663 
L 585.835802 72.584902 
L 587.506686 71.845141 
L 589.177592 71.105379 
L 590.84852 70.365618 
L 592.519471 69.625857 
L 594.190444 68.886096 
L 595.86144 68.146334 
L 597.532458 67.406573 
L 599.203498 66.666812 
L 600.874561 65.927051 
L 602.545646 65.187289 
L 604.216754 64.447528 
L 605.887884 63.707767 
L 607.559036 62.968006 
L 609.230211 62.228244 
L 610.901408 61.488483 
L 612.572628 60.748722 
L 614.243869 60.008961 
L 615.915134 59.269199 
L 617.586421 58.529438 
L 619.25773 57.789677 
L 620.929061 57.049916 
L 622.600415 56.310154 
L 624.271791 55.570393 
L 625.94319 54.830632 
L 627.614611 54.090871 
L 629.286055 53.351109 
L 630.957521 52.611348 
L 632.629009 51.871587 
L 634.30052 51.131826 
L 635.972053 50.392064 
L 637.643609 49.652303 
L 639.315187 48.912542 
L 640.986787 48.172781 
L 642.65841 47.433019 
L 644.330055 46.693258 
L 646.001723 45.953497 
L 647.673413 45.213736 
L 649.345126 44.473974 
L 651.016861 43.734213 
L 652.688618 42.994452 
L 654.360398 42.254691 
L 656.0322 41.514929 
L 657.704025 40.775168 
L 659.375872 40.035407 
L 661.047741 39.295646 
L 662.719633 38.555884 
L 664.391547 37.816123 
L 666.063484 37.076362 
L 667.735443 36.336601 
L 669.407425 35.596839 
L 671.079429 34.857078 
L 672.751455 34.117317 
L 674.423504 33.377556 
L 676.095575 32.637794 
L 677.767669 31.898033 
L 679.439785 31.158272 
L 681.111924 30.418511 
L 682.784085 29.678749 
L 684.456268 28.938988 
L 686.128474 28.199227 
L 687.800703 27.459466 
L 689.472953 26.719704 
L 691.145227 25.979943 
" clip-path="url(#pb48a00bb4d)" style="fill: none; stroke-dasharray: 5.55,2.4; stroke-dashoffset: 0; stroke: #000000; stroke-width: 1.5"/>
   </g>
   <g id="line2d_38">
    <g clip-path="url(#pb48a00bb4d)">
     <use xlink:href="#mc1341d89e9" x="526.848001" y="99.216307" style="stroke: #000000"/>
     <use xlink:href="#mc1341d89e9" x="582.246838" y="74.804186" style="stroke: #000000"/>
     <use xlink:href="#mc1341d89e9" x="637.782381" y="50.392064" style="stroke: #000000"/>
     <use xlink:href="#mc1341d89e9" x="694.319196" y="25.979943" style="stroke: #000000"/>
    </g>
   </g>
   <g id="patch_14">
    <path d="M 516.58125 102.878125 
L 516.58125 22.318125 
" style="fill: none; stroke: #000000; stroke-width: 0.8; stroke-linejoin: miter; stroke-linecap: square"/>
   </g>
   <g id="patch_15">
    <path d="M 705.35125 102.878125 
L 705.35125 22.318125 
" style="fill: none; stroke: #000000; stroke-width: 0.8; stroke-linejoin: miter; stroke-linecap: square"/>
   </g>
   <g id="patch_16">
    <path d="M 516.58125 102.878125 
L 705.35125 102.878125 
" style="fill: none; stroke: #000000; stroke-width: 0.8; stroke-linejoin: miter; stroke-linecap: square"/>
   </g>
   <g id="patch_17">
    <path d="M 516.58125 22.318125 
L 705.35125 22.318125 
" style="fill: none; stroke: #000000; stroke-width: 0.8; stroke-linejoin: miter; stroke-linecap: square"/>
   </g>
   <g id="text_35">
    <!-- Third Peaks -->
    <g transform="translate(576.385625 16.318125) scale(0.12 -0.12)">
     <defs>
      <path id="DejaVuSans-54" d="M -19 4666 
L 3928 4666 
L 3928 4134 
L 2272 4134 
L 2272 0 
L 1638 0 
L 1638 4134 
L -19 4134 
L -19 4666 
z
" transform="scale(0.015625)"/>
      <path id="DejaVuSans-68" d="M 3513 2113 
L 3513 0 
L 2938 0 
L 2938 2094 
Q 2938 2591 2744 2837 
Q 2550 3084 2163 3084 
Q 1697 3084 1428 2787 
Q 1159 2491 1159 1978 
L 1159 0 
L 581 0 
L 581 4863 
L 1159 4863 
L 1159 2956 
Q 1366 3272 1645 3428 
Q 1925 3584 2291 3584 
Q 2894 3584 3203 3211 
Q 3513 2838 3513 2113 
z
" transform="scale(0.015625)"/>
     </defs>
     <use xlink:href="#DejaVuSans-54"/>
     <use xlink:href="#DejaVuSans-68" x="61.083984"/>
     <use xlink:href="#DejaVuSans-69" x="124.462891"/>
     <use xlink:href="#DejaVuSans-72" x="152.246094"/>
     <use xlink:href="#DejaVuSans-64" x="191.609375"/>
     <use xlink:href="#DejaVuSans-20" x="255.085938"/>
     <use xlink:href="#DejaVuSans-50" x="286.873047"/>
     <use xlink:href="#DejaVuSans-65" x="343.550781"/>
     <use xlink:href="#DejaVuSans-61" x="405.074219"/>
     <use xlink:href="#DejaVuSans-6b" x="466.353516"/>
     <use xlink:href="#DejaVuSans-73" x="524.263672"/>
    </g>
   </g>
  </g>
  <g id="axes_4">
   <g id="patch_18">
    <path d="M 43.78125 241.478125 
L 232.55125 241.478125 
L 232.55125 160.918125 
L 43.78125 160.918125 
z
" style="fill: #ffffff"/>
   </g>
   <g id="matplotlib.axis_7">
    <g id="xtick_10">
     <g id="line2d_39">
      <g>
       <use xlink:href="#m5d64412a1b" x="84.687646" y="241.478125" style="stroke: #000000; stroke-width: 0.8"/>
      </g>
     </g>
     <g id="text_36">
      <!-- 6 -->
      <g transform="translate(81.506396 256.076563) scale(0.1 -0.1)">
       <use xlink:href="#DejaVuSans-36"/>
      </g>
     </g>
    </g>
    <g id="xtick_11">
     <g id="line2d_40">
      <g>
       <use xlink:href="#m5d64412a1b" x="135.765233" y="241.478125" style="stroke: #000000; stroke-width: 0.8"/>
      </g>
     </g>
     <g id="text_37">
      <!-- 7 -->
      <g transform="translate(132.583983 256.076563) scale(0.1 -0.1)">
       <use xlink:href="#DejaVuSans-37"/>
      </g>
     </g>
    </g>
    <g id="xtick_12">
     <g id="line2d_41">
      <g>
       <use xlink:href="#m5d64412a1b" x="186.842821" y="241.478125" style="stroke: #000000; stroke-width: 0.8"/>
      </g>
     </g>
     <g id="text_38">
      <!-- 8 -->
      <g transform="translate(183.661571 256.076563) scale(0.1 -0.1)">
       <use xlink:href="#DejaVuSans-38"/>
      </g>
     </g>
    </g>
    <g id="text_39">
     <!-- Magnetic Field (Gauss) -->
     <g transform="translate(81.331875 269.754687) scale(0.1 -0.1)">
      <use xlink:href="#DejaVuSans-4d"/>
      <use xlink:href="#DejaVuSans-61" x="86.279297"/>
      <use xlink:href="#DejaVuSans-67" x="147.558594"/>
      <use xlink:href="#DejaVuSans-6e" x="211.035156"/>
      <use xlink:href="#DejaVuSans-65" x="274.414062"/>
      <use xlink:href="#DejaVuSans-74" x="335.9375"/>
      <use xlink:href="#DejaVuSans-69" x="375.146484"/>
      <use xlink:href="#DejaVuSans-63" x="402.929688"/>
      <use xlink:href="#DejaVuSans-20" x="457.910156"/>
      <use xlink:href="#DejaVuSans-46" x="489.697266"/>
      <use xlink:href="#DejaVuSans-69" x="539.966797"/>
      <use xlink:href="#DejaVuSans-65" x="567.75"/>
      <use xlink:href="#DejaVuSans-6c" x="629.273438"/>
      <use xlink:href="#DejaVuSans-64" x="657.056641"/>
      <use xlink:href="#DejaVuSans-20" x="720.533203"/>
      <use xlink:href="#DejaVuSans-28" x="752.320312"/>
      <use xlink:href="#DejaVuSans-47" x="791.333984"/>
      <use xlink:href="#DejaVuSans-61" x="868.824219"/>
      <use xlink:href="#DejaVuSans-75" x="930.103516"/>
      <use xlink:href="#DejaVuSans-73" x="993.482422"/>
      <use xlink:href="#DejaVuSans-73" x="1045.582031"/>
      <use xlink:href="#DejaVuSans-29" x="1097.681641"/>
     </g>
    </g>
   </g>
   <g id="matplotlib.axis_8">
    <g id="ytick_13">
     <g id="line2d_42">
      <g>
       <use xlink:href="#m0118ca0a01" x="43.78125" y="237.816307" style="stroke: #000000; stroke-width: 0.8"/>
      </g>
     </g>
     <g id="text_40">
      <!-- 2.5 -->
      <g transform="translate(20.878125 241.615526) scale(0.1 -0.1)">
       <use xlink:href="#DejaVuSans-32"/>
       <use xlink:href="#DejaVuSans-2e" x="63.623047"/>
       <use xlink:href="#DejaVuSans-35" x="95.410156"/>
      </g>
     </g>
    </g>
    <g id="ytick_14">
     <g id="line2d_43">
      <g>
       <use xlink:href="#m0118ca0a01" x="43.78125" y="213.404186" style="stroke: #000000; stroke-width: 0.8"/>
      </g>
     </g>
     <g id="text_41">
      <!-- 3.0 -->
      <g transform="translate(20.878125 217.203404) scale(0.1 -0.1)">
       <use xlink:href="#DejaVuSans-33"/>
       <use xlink:href="#DejaVuSans-2e" x="63.623047"/>
       <use xlink:href="#DejaVuSans-30" x="95.410156"/>
      </g>
     </g>
    </g>
    <g id="ytick_15">
     <g id="line2d_44">
      <g>
       <use xlink:href="#m0118ca0a01" x="43.78125" y="188.992064" style="stroke: #000000; stroke-width: 0.8"/>
      </g>
     </g>
     <g id="text_42">
      <!-- 3.5 -->
      <g transform="translate(20.878125 192.791283) scale(0.1 -0.1)">
       <use xlink:href="#DejaVuSans-33"/>
       <use xlink:href="#DejaVuSans-2e" x="63.623047"/>
       <use xlink:href="#DejaVuSans-35" x="95.410156"/>
      </g>
     </g>
    </g>
    <g id="ytick_16">
     <g id="line2d_45">
      <g>
       <use xlink:href="#m0118ca0a01" x="43.78125" y="164.579943" style="stroke: #000000; stroke-width: 0.8"/>
      </g>
     </g>
     <g id="text_43">
      <!-- 4.0 -->
      <g transform="translate(20.878125 168.379162) scale(0.1 -0.1)">
       <use xlink:href="#DejaVuSans-34"/>
       <use xlink:href="#DejaVuSans-2e" x="63.623047"/>
       <use xlink:href="#DejaVuSans-30" x="95.410156"/>
      </g>
     </g>
    </g>
    <g id="text_44">
     <!-- Frequency (Hz) -->
     <g transform="translate(14.798438 238.902813) rotate(-90) scale(0.1 -0.1)">
      <use xlink:href="#DejaVuSans-46"/>
      <use xlink:href="#DejaVuSans-72" x="50.269531"/>
      <use xlink:href="#DejaVuSans-65" x="89.132812"/>
      <use xlink:href="#DejaVuSans-71" x="150.65625"/>
      <use xlink:href="#DejaVuSans-75" x="214.132812"/>
      <use xlink:href="#DejaVuSans-65" x="277.511719"/>
      <use xlink:href="#DejaVuSans-6e" x="339.035156"/>
      <use xlink:href="#DejaVuSans-63" x="402.414062"/>
      <use xlink:href="#DejaVuSans-79" x="457.394531"/>
      <use xlink:href="#DejaVuSans-20" x="516.574219"/>
      <use xlink:href="#DejaVuSans-28" x="548.361328"/>
      <use xlink:href="#DejaVuSans-48" x="587.375"/>
      <use xlink:href="#DejaVuSans-7a" x="662.570312"/>
      <use xlink:href="#DejaVuSans-29" x="715.060547"/>
     </g>
    </g>
    <g id="text_45">
     <!-- 1e6 -->
     <g transform="translate(43.78125 157.918125) scale(0.1 -0.1)">
      <use xlink:href="#DejaVuSans-31"/>
      <use xlink:href="#DejaVuSans-65" x="63.623047"/>
      <use xlink:href="#DejaVuSans-36" x="125.146484"/>
     </g>
    </g>
   </g>
   <g id="LineCollection_5">
    <path d="M 52.361705 237.816307 
L 55.721564 237.816307 
" clip-path="url(#p07d8a77a5f)" style="fill: none; stroke: #000000; stroke-width: 1.5"/>
    <path d="M 107.461662 213.404186 
L 111.308222 213.404186 
" clip-path="url(#p07d8a77a5f)" style="fill: none; stroke: #000000; stroke-width: 1.5"/>
    <path d="M 162.778327 188.992064 
L 167.137564 188.992064 
" clip-path="url(#p07d8a77a5f)" style="fill: none; stroke: #000000; stroke-width: 1.5"/>
    <path d="M 219.086005 164.579943 
L 223.970795 164.579943 
" clip-path="url(#p07d8a77a5f)" style="fill: none; stroke: #000000; stroke-width: 1.5"/>
   </g>
   <g id="line2d_46">
    <g clip-path="url(#p07d8a77a5f)">
     <use xlink:href="#m3cb911144f" x="52.361705" y="237.816307" style="stroke: #000000"/>
     <use xlink:href="#m3cb911144f" x="107.461662" y="213.404186" style="stroke: #000000"/>
     <use xlink:href="#m3cb911144f" x="162.778327" y="188.992064" style="stroke: #000000"/>
     <use xlink:href="#m3cb911144f" x="219.086005" y="164.579943" style="stroke: #000000"/>
    </g>
   </g>
   <g id="line2d_47">
    <g clip-path="url(#p07d8a77a5f)">
     <use xlink:href="#m3cb911144f" x="55.721564" y="237.816307" style="stroke: #000000"/>
     <use xlink:href="#m3cb911144f" x="111.308222" y="213.404186" style="stroke: #000000"/>
     <use xlink:href="#m3cb911144f" x="167.137564" y="188.992064" style="stroke: #000000"/>
     <use xlink:href="#m3cb911144f" x="223.970795" y="164.579943" style="stroke: #000000"/>
    </g>
   </g>
   <g id="line2d_48">
    <path d="M 52.510435 237.816307 
L 54.174634 237.076546 
L 55.838855 236.336784 
L 57.503099 235.597023 
L 59.167365 234.857262 
L 60.831653 234.117501 
L 62.495964 233.377739 
L 64.160297 232.637978 
L 65.824652 231.898217 
L 67.489029 231.158456 
L 69.153429 230.418694 
L 70.817851 229.678933 
L 72.482295 228.939172 
L 74.146762 228.199411 
L 75.811251 227.459649 
L 77.475762 226.719888 
L 79.140295 225.980127 
L 80.804851 225.240366 
L 82.469429 224.500604 
L 84.13403 223.760843 
L 85.798652 223.021082 
L 87.463297 222.281321 
L 89.127964 221.541559 
L 90.792654 220.801798 
L 92.457366 220.062037 
L 94.1221 219.322276 
L 95.786857 218.582514 
L 97.451636 217.842753 
L 99.116437 217.102992 
L 100.78126 216.363231 
L 102.446106 215.623469 
L 104.110974 214.883708 
L 105.775864 214.143947 
L 107.440777 213.404186 
L 109.105712 212.664424 
L 110.77067 211.924663 
L 112.435649 211.184902 
L 114.100651 210.445141 
L 115.765675 209.705379 
L 117.430722 208.965618 
L 119.095791 208.225857 
L 120.760882 207.486096 
L 122.425996 206.746334 
L 124.091132 206.006573 
L 125.75629 205.266812 
L 127.421471 204.527051 
L 129.086673 203.787289 
L 130.751899 203.047528 
L 132.417146 202.307767 
L 134.082416 201.568006 
L 135.747708 200.828244 
L 137.413023 200.088483 
L 139.07836 199.348722 
L 140.743719 198.608961 
L 142.4091 197.869199 
L 144.074504 197.129438 
L 145.73993 196.389677 
L 147.405379 195.649916 
L 149.07085 194.910154 
L 150.736343 194.170393 
L 152.401859 193.430632 
L 154.067396 192.690871 
L 155.732957 191.951109 
L 157.398539 191.211348 
L 159.064144 190.471587 
L 160.729771 189.731826 
L 162.395421 188.992064 
L 164.061093 188.252303 
L 165.726787 187.512542 
L 167.392504 186.772781 
L 169.058243 186.033019 
L 170.724004 185.293258 
L 172.389788 184.553497 
L 174.055594 183.813736 
L 175.721422 183.073974 
L 177.387273 182.334213 
L 179.053146 181.594452 
L 180.719042 180.854691 
L 182.384959 180.114929 
L 184.050899 179.375168 
L 185.716862 178.635407 
L 187.382847 177.895646 
L 189.048854 177.155884 
L 190.714884 176.416123 
L 192.380936 175.676362 
L 194.04701 174.936601 
L 195.713107 174.196839 
L 197.379226 173.457078 
L 199.045367 172.717317 
L 200.711531 171.977556 
L 202.377717 171.237794 
L 204.043925 170.498033 
L 205.710156 169.758272 
L 207.376409 169.018511 
L 209.042685 168.278749 
L 210.708983 167.538988 
L 212.375303 166.799227 
L 214.041646 166.059466 
L 215.708011 165.319704 
L 217.374399 164.579943 
" clip-path="url(#p07d8a77a5f)" style="fill: none; stroke-dasharray: 5.55,2.4; stroke-dashoffset: 0; stroke: #000000; stroke-width: 1.5"/>
   </g>
   <g id="line2d_49">
    <g clip-path="url(#p07d8a77a5f)">
     <use xlink:href="#mc1341d89e9" x="54.041634" y="237.816307" style="stroke: #000000"/>
     <use xlink:href="#mc1341d89e9" x="109.384942" y="213.404186" style="stroke: #000000"/>
     <use xlink:href="#mc1341d89e9" x="164.957945" y="188.992064" style="stroke: #000000"/>
     <use xlink:href="#mc1341d89e9" x="221.5284" y="164.579943" style="stroke: #000000"/>
    </g>
   </g>
   <g id="patch_19">
    <path d="M 43.78125 241.478125 
L 43.78125 160.918125 
" style="fill: none; stroke: #000000; stroke-width: 0.8; stroke-linejoin: miter; stroke-linecap: square"/>
   </g>
   <g id="patch_20">
    <path d="M 232.55125 241.478125 
L 232.55125 160.918125 
" style="fill: none; stroke: #000000; stroke-width: 0.8; stroke-linejoin: miter; stroke-linecap: square"/>
   </g>
   <g id="patch_21">
    <path d="M 43.78125 241.478125 
L 232.55125 241.478125 
" style="fill: none; stroke: #000000; stroke-width: 0.8; stroke-linejoin: miter; stroke-linecap: square"/>
   </g>
   <g id="patch_22">
    <path d="M 43.78125 160.918125 
L 232.55125 160.918125 
" style="fill: none; stroke: #000000; stroke-width: 0.8; stroke-linejoin: miter; stroke-linecap: square"/>
   </g>
   <g id="text_46">
    <!-- Fourth Peaks -->
    <g transform="translate(99.561875 154.918125) scale(0.12 -0.12)">
     <use xlink:href="#DejaVuSans-46"/>
     <use xlink:href="#DejaVuSans-6f" x="53.894531"/>
     <use xlink:href="#DejaVuSans-75" x="115.076172"/>
     <use xlink:href="#DejaVuSans-72" x="178.455078"/>
     <use xlink:href="#DejaVuSans-74" x="219.568359"/>
     <use xlink:href="#DejaVuSans-68" x="258.777344"/>
     <use xlink:href="#DejaVuSans-20" x="322.15625"/>
     <use xlink:href="#DejaVuSans-50" x="353.943359"/>
     <use xlink:href="#DejaVuSans-65" x="410.621094"/>
     <use xlink:href="#DejaVuSans-61" x="472.144531"/>
     <use xlink:href="#DejaVuSans-6b" x="533.423828"/>
     <use xlink:href="#DejaVuSans-73" x="591.333984"/>
    </g>
   </g>
  </g>
  <g id="axes_5">
   <g id="patch_23">
    <path d="M 280.18125 241.478125 
L 468.95125 241.478125 
L 468.95125 160.918125 
L 280.18125 160.918125 
z
" style="fill: #ffffff"/>
   </g>
   <g id="matplotlib.axis_9">
    <g id="xtick_13">
     <g id="line2d_50">
      <g>
       <use xlink:href="#m5d64412a1b" x="320.648089" y="241.478125" style="stroke: #000000; stroke-width: 0.8"/>
      </g>
     </g>
     <g id="text_47">
      <!-- 6 -->
      <g transform="translate(317.466839 256.076563) scale(0.1 -0.1)">
       <use xlink:href="#DejaVuSans-36"/>
      </g>
     </g>
    </g>
    <g id="xtick_14">
     <g id="line2d_51">
      <g>
       <use xlink:href="#m5d64412a1b" x="371.454815" y="241.478125" style="stroke: #000000; stroke-width: 0.8"/>
      </g>
     </g>
     <g id="text_48">
      <!-- 7 -->
      <g transform="translate(368.273565 256.076563) scale(0.1 -0.1)">
       <use xlink:href="#DejaVuSans-37"/>
      </g>
     </g>
    </g>
    <g id="xtick_15">
     <g id="line2d_52">
      <g>
       <use xlink:href="#m5d64412a1b" x="422.261542" y="241.478125" style="stroke: #000000; stroke-width: 0.8"/>
      </g>
     </g>
     <g id="text_49">
      <!-- 8 -->
      <g transform="translate(419.080292 256.076563) scale(0.1 -0.1)">
       <use xlink:href="#DejaVuSans-38"/>
      </g>
     </g>
    </g>
    <g id="text_50">
     <!-- Magnetic Field (Gauss) -->
     <g transform="translate(317.731875 269.754687) scale(0.1 -0.1)">
      <use xlink:href="#DejaVuSans-4d"/>
      <use xlink:href="#DejaVuSans-61" x="86.279297"/>
      <use xlink:href="#DejaVuSans-67" x="147.558594"/>
      <use xlink:href="#DejaVuSans-6e" x="211.035156"/>
      <use xlink:href="#DejaVuSans-65" x="274.414062"/>
      <use xlink:href="#DejaVuSans-74" x="335.9375"/>
      <use xlink:href="#DejaVuSans-69" x="375.146484"/>
      <use xlink:href="#DejaVuSans-63" x="402.929688"/>
      <use xlink:href="#DejaVuSans-20" x="457.910156"/>
      <use xlink:href="#DejaVuSans-46" x="489.697266"/>
      <use xlink:href="#DejaVuSans-69" x="539.966797"/>
      <use xlink:href="#DejaVuSans-65" x="567.75"/>
      <use xlink:href="#DejaVuSans-6c" x="629.273438"/>
      <use xlink:href="#DejaVuSans-64" x="657.056641"/>
      <use xlink:href="#DejaVuSans-20" x="720.533203"/>
      <use xlink:href="#DejaVuSans-28" x="752.320312"/>
      <use xlink:href="#DejaVuSans-47" x="791.333984"/>
      <use xlink:href="#DejaVuSans-61" x="868.824219"/>
      <use xlink:href="#DejaVuSans-75" x="930.103516"/>
      <use xlink:href="#DejaVuSans-73" x="993.482422"/>
      <use xlink:href="#DejaVuSans-73" x="1045.582031"/>
      <use xlink:href="#DejaVuSans-29" x="1097.681641"/>
     </g>
    </g>
   </g>
   <g id="matplotlib.axis_10">
    <g id="ytick_17">
     <g id="line2d_53">
      <g>
       <use xlink:href="#m0118ca0a01" x="280.18125" y="237.816307" style="stroke: #000000; stroke-width: 0.8"/>
      </g>
     </g>
     <g id="text_51">
      <!-- 2.5 -->
      <g transform="translate(257.278125 241.615526) scale(0.1 -0.1)">
       <use xlink:href="#DejaVuSans-32"/>
       <use xlink:href="#DejaVuSans-2e" x="63.623047"/>
       <use xlink:href="#DejaVuSans-35" x="95.410156"/>
      </g>
     </g>
    </g>
    <g id="ytick_18">
     <g id="line2d_54">
      <g>
       <use xlink:href="#m0118ca0a01" x="280.18125" y="213.404186" style="stroke: #000000; stroke-width: 0.8"/>
      </g>
     </g>
     <g id="text_52">
      <!-- 3.0 -->
      <g transform="translate(257.278125 217.203404) scale(0.1 -0.1)">
       <use xlink:href="#DejaVuSans-33"/>
       <use xlink:href="#DejaVuSans-2e" x="63.623047"/>
       <use xlink:href="#DejaVuSans-30" x="95.410156"/>
      </g>
     </g>
    </g>
    <g id="ytick_19">
     <g id="line2d_55">
      <g>
       <use xlink:href="#m0118ca0a01" x="280.18125" y="188.992064" style="stroke: #000000; stroke-width: 0.8"/>
      </g>
     </g>
     <g id="text_53">
      <!-- 3.5 -->
      <g transform="translate(257.278125 192.791283) scale(0.1 -0.1)">
       <use xlink:href="#DejaVuSans-33"/>
       <use xlink:href="#DejaVuSans-2e" x="63.623047"/>
       <use xlink:href="#DejaVuSans-35" x="95.410156"/>
      </g>
     </g>
    </g>
    <g id="ytick_20">
     <g id="line2d_56">
      <g>
       <use xlink:href="#m0118ca0a01" x="280.18125" y="164.579943" style="stroke: #000000; stroke-width: 0.8"/>
      </g>
     </g>
     <g id="text_54">
      <!-- 4.0 -->
      <g transform="translate(257.278125 168.379162) scale(0.1 -0.1)">
       <use xlink:href="#DejaVuSans-34"/>
       <use xlink:href="#DejaVuSans-2e" x="63.623047"/>
       <use xlink:href="#DejaVuSans-30" x="95.410156"/>
      </g>
     </g>
    </g>
    <g id="text_55">
     <!-- Frequency (Hz) -->
     <g transform="translate(251.198437 238.902813) rotate(-90) scale(0.1 -0.1)">
      <use xlink:href="#DejaVuSans-46"/>
      <use xlink:href="#DejaVuSans-72" x="50.269531"/>
      <use xlink:href="#DejaVuSans-65" x="89.132812"/>
      <use xlink:href="#DejaVuSans-71" x="150.65625"/>
      <use xlink:href="#DejaVuSans-75" x="214.132812"/>
      <use xlink:href="#DejaVuSans-65" x="277.511719"/>
      <use xlink:href="#DejaVuSans-6e" x="339.035156"/>
      <use xlink:href="#DejaVuSans-63" x="402.414062"/>
      <use xlink:href="#DejaVuSans-79" x="457.394531"/>
      <use xlink:href="#DejaVuSans-20" x="516.574219"/>
      <use xlink:href="#DejaVuSans-28" x="548.361328"/>
      <use xlink:href="#DejaVuSans-48" x="587.375"/>
      <use xlink:href="#DejaVuSans-7a" x="662.570312"/>
      <use xlink:href="#DejaVuSans-29" x="715.060547"/>
     </g>
    </g>
    <g id="text_56">
     <!-- 1e6 -->
     <g transform="translate(280.18125 157.918125) scale(0.1 -0.1)">
      <use xlink:href="#DejaVuSans-31"/>
      <use xlink:href="#DejaVuSans-65" x="63.623047"/>
      <use xlink:href="#DejaVuSans-36" x="125.146484"/>
     </g>
    </g>
   </g>
   <g id="LineCollection_6">
    <path d="M 288.927863 237.816307 
L 292.26946 237.816307 
" clip-path="url(#p4078a0a142)" style="fill: none; stroke: #000000; stroke-width: 1.5"/>
    <path d="M 343.952596 213.404186 
L 347.778451 213.404186 
" clip-path="url(#p4078a0a142)" style="fill: none; stroke: #000000; stroke-width: 1.5"/>
    <path d="M 399.223901 188.992064 
L 403.559834 188.992064 
" clip-path="url(#p4078a0a142)" style="fill: none; stroke: #000000; stroke-width: 1.5"/>
    <path d="M 455.511962 164.579943 
L 460.370795 164.579943 
" clip-path="url(#p4078a0a142)" style="fill: none; stroke: #000000; stroke-width: 1.5"/>
   </g>
   <g id="line2d_57">
    <g clip-path="url(#p4078a0a142)">
     <use xlink:href="#m3cb911144f" x="288.927863" y="237.816307" style="stroke: #000000"/>
     <use xlink:href="#m3cb911144f" x="343.952596" y="213.404186" style="stroke: #000000"/>
     <use xlink:href="#m3cb911144f" x="399.223901" y="188.992064" style="stroke: #000000"/>
     <use xlink:href="#m3cb911144f" x="455.511962" y="164.579943" style="stroke: #000000"/>
    </g>
   </g>
   <g id="line2d_58">
    <g clip-path="url(#p4078a0a142)">
     <use xlink:href="#m3cb911144f" x="292.26946" y="237.816307" style="stroke: #000000"/>
     <use xlink:href="#m3cb911144f" x="347.778451" y="213.404186" style="stroke: #000000"/>
     <use xlink:href="#m3cb911144f" x="403.559834" y="188.992064" style="stroke: #000000"/>
     <use xlink:href="#m3cb911144f" x="460.370795" y="164.579943" style="stroke: #000000"/>
    </g>
   </g>
   <g id="line2d_59">
    <path d="M 288.761705 237.816307 
L 290.419037 237.076546 
L 292.076407 236.336784 
L 293.733814 235.597023 
L 295.391258 234.857262 
L 297.048739 234.117501 
L 298.706257 233.377739 
L 300.363812 232.637978 
L 302.021404 231.898217 
L 303.679034 231.158456 
L 305.3367 230.418694 
L 306.994404 229.678933 
L 308.652144 228.939172 
L 310.309922 228.199411 
L 311.967737 227.459649 
L 313.625589 226.719888 
L 315.283478 225.980127 
L 316.941404 225.240366 
L 318.599368 224.500604 
L 320.257368 223.760843 
L 321.915406 223.021082 
L 323.57348 222.281321 
L 325.231592 221.541559 
L 326.889741 220.801798 
L 328.547927 220.062037 
L 330.206151 219.322276 
L 331.864411 218.582514 
L 333.522709 217.842753 
L 335.181043 217.102992 
L 336.839415 216.363231 
L 338.497824 215.623469 
L 340.15627 214.883708 
L 341.814754 214.143947 
L 343.473274 213.404186 
L 345.131832 212.664424 
L 346.790426 211.924663 
L 348.449058 211.184902 
L 350.107727 210.445141 
L 351.766434 209.705379 
L 353.425177 208.965618 
L 355.083958 208.225857 
L 356.742776 207.486096 
L 358.40163 206.746334 
L 360.060523 206.006573 
L 361.719452 205.266812 
L 363.378418 204.527051 
L 365.037422 203.787289 
L 366.696463 203.047528 
L 368.355541 202.307767 
L 370.014656 201.568006 
L 371.673809 200.828244 
L 373.332999 200.088483 
L 374.992226 199.348722 
L 376.65149 198.608961 
L 378.310791 197.869199 
L 379.970129 197.129438 
L 381.629505 196.389677 
L 383.288918 195.649916 
L 384.948368 194.910154 
L 386.607856 194.170393 
L 388.26738 193.430632 
L 389.926942 192.690871 
L 391.586541 191.951109 
L 393.246178 191.211348 
L 394.905851 190.471587 
L 396.565562 189.731826 
L 398.22531 188.992064 
L 399.885095 188.252303 
L 401.544918 187.512542 
L 403.204777 186.772781 
L 404.864674 186.033019 
L 406.524609 185.293258 
L 408.18458 184.553497 
L 409.844589 183.813736 
L 411.504635 183.073974 
L 413.164718 182.334213 
L 414.824839 181.594452 
L 416.484997 180.854691 
L 418.145192 180.114929 
L 419.805424 179.375168 
L 421.465694 178.635407 
L 423.126001 177.895646 
L 424.786345 177.155884 
L 426.446726 176.416123 
L 428.107145 175.676362 
L 429.767601 174.936601 
L 431.428094 174.196839 
L 433.088625 173.457078 
L 434.749193 172.717317 
L 436.409798 171.977556 
L 438.070441 171.237794 
L 439.73112 170.498033 
L 441.391838 169.758272 
L 443.052592 169.018511 
L 444.713384 168.278749 
L 446.374213 167.538988 
L 448.035079 166.799227 
L 449.695983 166.059466 
L 451.356924 165.319704 
L 453.017902 164.579943 
" clip-path="url(#p4078a0a142)" style="fill: none; stroke-dasharray: 5.55,2.4; stroke-dashoffset: 0; stroke: #000000; stroke-width: 1.5"/>
   </g>
   <g id="line2d_60">
    <g clip-path="url(#p4078a0a142)">
     <use xlink:href="#mc1341d89e9" x="290.598661" y="237.816307" style="stroke: #000000"/>
     <use xlink:href="#mc1341d89e9" x="345.865523" y="213.404186" style="stroke: #000000"/>
     <use xlink:href="#mc1341d89e9" x="401.391867" y="188.992064" style="stroke: #000000"/>
     <use xlink:href="#mc1341d89e9" x="457.941378" y="164.579943" style="stroke: #000000"/>
    </g>
   </g>
   <g id="patch_24">
    <path d="M 280.18125 241.478125 
L 280.18125 160.918125 
" style="fill: none; stroke: #000000; stroke-width: 0.8; stroke-linejoin: miter; stroke-linecap: square"/>
   </g>
   <g id="patch_25">
    <path d="M 468.95125 241.478125 
L 468.95125 160.918125 
" style="fill: none; stroke: #000000; stroke-width: 0.8; stroke-linejoin: miter; stroke-linecap: square"/>
   </g>
   <g id="patch_26">
    <path d="M 280.18125 241.478125 
L 468.95125 241.478125 
" style="fill: none; stroke: #000000; stroke-width: 0.8; stroke-linejoin: miter; stroke-linecap: square"/>
   </g>
   <g id="patch_27">
    <path d="M 280.18125 160.918125 
L 468.95125 160.918125 
" style="fill: none; stroke: #000000; stroke-width: 0.8; stroke-linejoin: miter; stroke-linecap: square"/>
   </g>
   <g id="text_57">
    <!-- Fifth Peaks -->
    <g transform="translate(342.445625 154.918125) scale(0.12 -0.12)">
     <defs>
      <path id="DejaVuSans-66" d="M 2375 4863 
L 2375 4384 
L 1825 4384 
Q 1516 4384 1395 4259 
Q 1275 4134 1275 3809 
L 1275 3500 
L 2222 3500 
L 2222 3053 
L 1275 3053 
L 1275 0 
L 697 0 
L 697 3053 
L 147 3053 
L 147 3500 
L 697 3500 
L 697 3744 
Q 697 4328 969 4595 
Q 1241 4863 1831 4863 
L 2375 4863 
z
" transform="scale(0.015625)"/>
     </defs>
     <use xlink:href="#DejaVuSans-46"/>
     <use xlink:href="#DejaVuSans-69" x="50.269531"/>
     <use xlink:href="#DejaVuSans-66" x="78.052734"/>
     <use xlink:href="#DejaVuSans-74" x="111.507812"/>
     <use xlink:href="#DejaVuSans-68" x="150.716797"/>
     <use xlink:href="#DejaVuSans-20" x="214.095703"/>
     <use xlink:href="#DejaVuSans-50" x="245.882812"/>
     <use xlink:href="#DejaVuSans-65" x="302.560547"/>
     <use xlink:href="#DejaVuSans-61" x="364.083984"/>
     <use xlink:href="#DejaVuSans-6b" x="425.363281"/>
     <use xlink:href="#DejaVuSans-73" x="483.273438"/>
    </g>
   </g>
  </g>
  <g id="axes_6">
   <g id="patch_28">
    <path d="M 516.58125 241.478125 
L 705.35125 241.478125 
L 705.35125 160.918125 
L 516.58125 160.918125 
z
" style="fill: #ffffff"/>
   </g>
   <g id="matplotlib.axis_11">
    <g id="xtick_16">
     <g id="line2d_61">
      <g>
       <use xlink:href="#m5d64412a1b" x="556.77081" y="241.478125" style="stroke: #000000; stroke-width: 0.8"/>
      </g>
     </g>
     <g id="text_58">
      <!-- 6 -->
      <g transform="translate(553.58956 256.076563) scale(0.1 -0.1)">
       <use xlink:href="#DejaVuSans-36"/>
      </g>
     </g>
    </g>
    <g id="xtick_17">
     <g id="line2d_62">
      <g>
       <use xlink:href="#m5d64412a1b" x="607.263727" y="241.478125" style="stroke: #000000; stroke-width: 0.8"/>
      </g>
     </g>
     <g id="text_59">
      <!-- 7 -->
      <g transform="translate(604.082477 256.076563) scale(0.1 -0.1)">
       <use xlink:href="#DejaVuSans-37"/>
      </g>
     </g>
    </g>
    <g id="xtick_18">
     <g id="line2d_63">
      <g>
       <use xlink:href="#m5d64412a1b" x="657.756644" y="241.478125" style="stroke: #000000; stroke-width: 0.8"/>
      </g>
     </g>
     <g id="text_60">
      <!-- 8 -->
      <g transform="translate(654.575394 256.076563) scale(0.1 -0.1)">
       <use xlink:href="#DejaVuSans-38"/>
      </g>
     </g>
    </g>
    <g id="text_61">
     <!-- Magnetic Field (Gauss) -->
     <g transform="translate(554.131875 269.754687) scale(0.1 -0.1)">
      <use xlink:href="#DejaVuSans-4d"/>
      <use xlink:href="#DejaVuSans-61" x="86.279297"/>
      <use xlink:href="#DejaVuSans-67" x="147.558594"/>
      <use xlink:href="#DejaVuSans-6e" x="211.035156"/>
      <use xlink:href="#DejaVuSans-65" x="274.414062"/>
      <use xlink:href="#DejaVuSans-74" x="335.9375"/>
      <use xlink:href="#DejaVuSans-69" x="375.146484"/>
      <use xlink:href="#DejaVuSans-63" x="402.929688"/>
      <use xlink:href="#DejaVuSans-20" x="457.910156"/>
      <use xlink:href="#DejaVuSans-46" x="489.697266"/>
      <use xlink:href="#DejaVuSans-69" x="539.966797"/>
      <use xlink:href="#DejaVuSans-65" x="567.75"/>
      <use xlink:href="#DejaVuSans-6c" x="629.273438"/>
      <use xlink:href="#DejaVuSans-64" x="657.056641"/>
      <use xlink:href="#DejaVuSans-20" x="720.533203"/>
      <use xlink:href="#DejaVuSans-28" x="752.320312"/>
      <use xlink:href="#DejaVuSans-47" x="791.333984"/>
      <use xlink:href="#DejaVuSans-61" x="868.824219"/>
      <use xlink:href="#DejaVuSans-75" x="930.103516"/>
      <use xlink:href="#DejaVuSans-73" x="993.482422"/>
      <use xlink:href="#DejaVuSans-73" x="1045.582031"/>
      <use xlink:href="#DejaVuSans-29" x="1097.681641"/>
     </g>
    </g>
   </g>
   <g id="matplotlib.axis_12">
    <g id="ytick_21">
     <g id="line2d_64">
      <g>
       <use xlink:href="#m0118ca0a01" x="516.58125" y="237.816307" style="stroke: #000000; stroke-width: 0.8"/>
      </g>
     </g>
     <g id="text_62">
      <!-- 2.5 -->
      <g transform="translate(493.678125 241.615526) scale(0.1 -0.1)">
       <use xlink:href="#DejaVuSans-32"/>
       <use xlink:href="#DejaVuSans-2e" x="63.623047"/>
       <use xlink:href="#DejaVuSans-35" x="95.410156"/>
      </g>
     </g>
    </g>
    <g id="ytick_22">
     <g id="line2d_65">
      <g>
       <use xlink:href="#m0118ca0a01" x="516.58125" y="213.404186" style="stroke: #000000; stroke-width: 0.8"/>
      </g>
     </g>
     <g id="text_63">
      <!-- 3.0 -->
      <g transform="translate(493.678125 217.203404) scale(0.1 -0.1)">
       <use xlink:href="#DejaVuSans-33"/>
       <use xlink:href="#DejaVuSans-2e" x="63.623047"/>
       <use xlink:href="#DejaVuSans-30" x="95.410156"/>
      </g>
     </g>
    </g>
    <g id="ytick_23">
     <g id="line2d_66">
      <g>
       <use xlink:href="#m0118ca0a01" x="516.58125" y="188.992064" style="stroke: #000000; stroke-width: 0.8"/>
      </g>
     </g>
     <g id="text_64">
      <!-- 3.5 -->
      <g transform="translate(493.678125 192.791283) scale(0.1 -0.1)">
       <use xlink:href="#DejaVuSans-33"/>
       <use xlink:href="#DejaVuSans-2e" x="63.623047"/>
       <use xlink:href="#DejaVuSans-35" x="95.410156"/>
      </g>
     </g>
    </g>
    <g id="ytick_24">
     <g id="line2d_67">
      <g>
       <use xlink:href="#m0118ca0a01" x="516.58125" y="164.579943" style="stroke: #000000; stroke-width: 0.8"/>
      </g>
     </g>
     <g id="text_65">
      <!-- 4.0 -->
      <g transform="translate(493.678125 168.379162) scale(0.1 -0.1)">
       <use xlink:href="#DejaVuSans-34"/>
       <use xlink:href="#DejaVuSans-2e" x="63.623047"/>
       <use xlink:href="#DejaVuSans-30" x="95.410156"/>
      </g>
     </g>
    </g>
    <g id="text_66">
     <!-- Frequency (Hz) -->
     <g transform="translate(487.598437 238.902813) rotate(-90) scale(0.1 -0.1)">
      <use xlink:href="#DejaVuSans-46"/>
      <use xlink:href="#DejaVuSans-72" x="50.269531"/>
      <use xlink:href="#DejaVuSans-65" x="89.132812"/>
      <use xlink:href="#DejaVuSans-71" x="150.65625"/>
      <use xlink:href="#DejaVuSans-75" x="214.132812"/>
      <use xlink:href="#DejaVuSans-65" x="277.511719"/>
      <use xlink:href="#DejaVuSans-6e" x="339.035156"/>
      <use xlink:href="#DejaVuSans-63" x="402.414062"/>
      <use xlink:href="#DejaVuSans-79" x="457.394531"/>
      <use xlink:href="#DejaVuSans-20" x="516.574219"/>
      <use xlink:href="#DejaVuSans-28" x="548.361328"/>
      <use xlink:href="#DejaVuSans-48" x="587.375"/>
      <use xlink:href="#DejaVuSans-7a" x="662.570312"/>
      <use xlink:href="#DejaVuSans-29" x="715.060547"/>
     </g>
    </g>
    <g id="text_67">
     <!-- 1e6 -->
     <g transform="translate(516.58125 157.918125) scale(0.1 -0.1)">
      <use xlink:href="#DejaVuSans-31"/>
      <use xlink:href="#DejaVuSans-65" x="63.623047"/>
      <use xlink:href="#DejaVuSans-36" x="125.146484"/>
     </g>
    </g>
   </g>
   <g id="LineCollection_7">
    <path d="M 525.708636 237.816307 
L 529.029738 237.816307 
" clip-path="url(#p669214526b)" style="fill: none; stroke: #000000; stroke-width: 1.5"/>
    <path d="M 580.578358 213.404186 
L 584.380787 213.404186 
" clip-path="url(#p669214526b)" style="fill: none; stroke: #000000; stroke-width: 1.5"/>
    <path d="M 635.754753 188.992064 
L 640.064177 188.992064 
" clip-path="url(#p669214526b)" style="fill: none; stroke: #000000; stroke-width: 1.5"/>
    <path d="M 691.941614 164.579943 
L 696.770795 164.579943 
" clip-path="url(#p669214526b)" style="fill: none; stroke: #000000; stroke-width: 1.5"/>
   </g>
   <g id="line2d_68">
    <g clip-path="url(#p669214526b)">
     <use xlink:href="#m3cb911144f" x="525.708636" y="237.816307" style="stroke: #000000"/>
     <use xlink:href="#m3cb911144f" x="580.578358" y="213.404186" style="stroke: #000000"/>
     <use xlink:href="#m3cb911144f" x="635.754753" y="188.992064" style="stroke: #000000"/>
     <use xlink:href="#m3cb911144f" x="691.941614" y="164.579943" style="stroke: #000000"/>
    </g>
   </g>
   <g id="line2d_69">
    <g clip-path="url(#p669214526b)">
     <use xlink:href="#m3cb911144f" x="529.029738" y="237.816307" style="stroke: #000000"/>
     <use xlink:href="#m3cb911144f" x="584.380787" y="213.404186" style="stroke: #000000"/>
     <use xlink:href="#m3cb911144f" x="640.064177" y="188.992064" style="stroke: #000000"/>
     <use xlink:href="#m3cb911144f" x="696.770795" y="164.579943" style="stroke: #000000"/>
    </g>
   </g>
   <g id="line2d_70">
    <path d="M 525.161705 237.816307 
L 526.80929 237.076546 
L 528.456913 236.336784 
L 530.104572 235.597023 
L 531.752269 234.857262 
L 533.400002 234.117501 
L 535.047772 233.377739 
L 536.695579 232.637978 
L 538.343423 231.898217 
L 539.991304 231.158456 
L 541.639221 230.418694 
L 543.287176 229.678933 
L 544.935167 228.939172 
L 546.583196 228.199411 
L 548.231261 227.459649 
L 549.879363 226.719888 
L 551.527503 225.980127 
L 553.175679 225.240366 
L 554.823892 224.500604 
L 556.472142 223.760843 
L 558.120429 223.021082 
L 559.768752 222.281321 
L 561.417113 221.541559 
L 563.065511 220.801798 
L 564.713945 220.062037 
L 566.362417 219.322276 
L 568.010925 218.582514 
L 569.659471 217.842753 
L 571.308053 217.102992 
L 572.956673 216.363231 
L 574.605329 215.623469 
L 576.254022 214.883708 
L 577.902752 214.143947 
L 579.551519 213.404186 
L 581.200324 212.664424 
L 582.849165 211.924663 
L 584.498043 211.184902 
L 586.146958 210.445141 
L 587.79591 209.705379 
L 589.444899 208.965618 
L 591.093925 208.225857 
L 592.742988 207.486096 
L 594.392088 206.746334 
L 596.041224 206.006573 
L 597.690398 205.266812 
L 599.339609 204.527051 
L 600.988857 203.787289 
L 602.638142 203.047528 
L 604.287464 202.307767 
L 605.936823 201.568006 
L 607.586219 200.828244 
L 609.235651 200.088483 
L 610.885121 199.348722 
L 612.534628 198.608961 
L 614.184172 197.869199 
L 615.833753 197.129438 
L 617.483371 196.389677 
L 619.133026 195.649916 
L 620.782718 194.910154 
L 622.432447 194.170393 
L 624.082213 193.430632 
L 625.732016 192.690871 
L 627.381856 191.951109 
L 629.031733 191.211348 
L 630.681647 190.471587 
L 632.331599 189.731826 
L 633.981587 188.992064 
L 635.631612 188.252303 
L 637.281674 187.512542 
L 638.931774 186.772781 
L 640.58191 186.033019 
L 642.232084 185.293258 
L 643.882294 184.553497 
L 645.532542 183.813736 
L 647.182827 183.073974 
L 648.833148 182.334213 
L 650.483507 181.594452 
L 652.133903 180.854691 
L 653.784336 180.114929 
L 655.434806 179.375168 
L 657.085313 178.635407 
L 658.735857 177.895646 
L 660.386439 177.155884 
L 662.037057 176.416123 
L 663.687712 175.676362 
L 665.338405 174.936601 
L 666.989135 174.196839 
L 668.639901 173.457078 
L 670.290705 172.717317 
L 671.941546 171.977556 
L 673.592424 171.237794 
L 675.243339 170.498033 
L 676.894291 169.758272 
L 678.545281 169.018511 
L 680.196307 168.278749 
L 681.847371 167.538988 
L 683.498471 166.799227 
L 685.149609 166.059466 
L 686.800784 165.319704 
L 688.451996 164.579943 
" clip-path="url(#p669214526b)" style="fill: none; stroke-dasharray: 5.55,2.4; stroke-dashoffset: 0; stroke: #000000; stroke-width: 1.5"/>
   </g>
   <g id="line2d_71">
    <g clip-path="url(#p669214526b)">
     <use xlink:href="#mc1341d89e9" x="527.369187" y="237.816307" style="stroke: #000000"/>
     <use xlink:href="#mc1341d89e9" x="582.479572" y="213.404186" style="stroke: #000000"/>
     <use xlink:href="#mc1341d89e9" x="637.909465" y="188.992064" style="stroke: #000000"/>
     <use xlink:href="#mc1341d89e9" x="694.356205" y="164.579943" style="stroke: #000000"/>
    </g>
   </g>
   <g id="patch_29">
    <path d="M 516.58125 241.478125 
L 516.58125 160.918125 
" style="fill: none; stroke: #000000; stroke-width: 0.8; stroke-linejoin: miter; stroke-linecap: square"/>
   </g>
   <g id="patch_30">
    <path d="M 705.35125 241.478125 
L 705.35125 160.918125 
" style="fill: none; stroke: #000000; stroke-width: 0.8; stroke-linejoin: miter; stroke-linecap: square"/>
   </g>
   <g id="patch_31">
    <path d="M 516.58125 241.478125 
L 705.35125 241.478125 
" style="fill: none; stroke: #000000; stroke-width: 0.8; stroke-linejoin: miter; stroke-linecap: square"/>
   </g>
   <g id="patch_32">
    <path d="M 516.58125 160.918125 
L 705.35125 160.918125 
" style="fill: none; stroke: #000000; stroke-width: 0.8; stroke-linejoin: miter; stroke-linecap: square"/>
   </g>
   <g id="text_68">
    <!-- Sixth Peaks -->
    <g transform="translate(576.508437 154.918125) scale(0.12 -0.12)">
     <defs>
      <path id="DejaVuSans-78" d="M 3513 3500 
L 2247 1797 
L 3578 0 
L 2900 0 
L 1881 1375 
L 863 0 
L 184 0 
L 1544 1831 
L 300 3500 
L 978 3500 
L 1906 2253 
L 2834 3500 
L 3513 3500 
z
" transform="scale(0.015625)"/>
     </defs>
     <use xlink:href="#DejaVuSans-53"/>
     <use xlink:href="#DejaVuSans-69" x="63.476562"/>
     <use xlink:href="#DejaVuSans-78" x="91.259766"/>
     <use xlink:href="#DejaVuSans-74" x="150.439453"/>
     <use xlink:href="#DejaVuSans-68" x="189.648438"/>
     <use xlink:href="#DejaVuSans-20" x="253.027344"/>
     <use xlink:href="#DejaVuSans-50" x="284.814453"/>
     <use xlink:href="#DejaVuSans-65" x="341.492188"/>
     <use xlink:href="#DejaVuSans-61" x="403.015625"/>
     <use xlink:href="#DejaVuSans-6b" x="464.294922"/>
     <use xlink:href="#DejaVuSans-73" x="522.205078"/>
    </g>
   </g>
  </g>
 </g>
 <defs>
  <clipPath id="p8f908eeafa">
   <rect x="43.78125" y="22.318125" width="188.77" height="80.56"/>
  </clipPath>
  <clipPath id="p9914859852">
   <rect x="280.18125" y="22.318125" width="188.77" height="80.56"/>
  </clipPath>
  <clipPath id="pb48a00bb4d">
   <rect x="516.58125" y="22.318125" width="188.77" height="80.56"/>
  </clipPath>
  <clipPath id="p07d8a77a5f">
   <rect x="43.78125" y="160.918125" width="188.77" height="80.56"/>
  </clipPath>
  <clipPath id="p4078a0a142">
   <rect x="280.18125" y="160.918125" width="188.77" height="80.56"/>
  </clipPath>
  <clipPath id="p669214526b">
   <rect x="516.58125" y="160.918125" width="188.77" height="80.56"/>
  </clipPath>
 </defs>
</svg>
