<?xml version="1.0" encoding="utf-8" standalone="no"?>
<!DOCTYPE svg PUBLIC "-//W3C//DTD SVG 1.1//EN"
  "http://www.w3.org/Graphics/SVG/1.1/DTD/svg11.dtd">
<svg xmlns:xlink="http://www.w3.org/1999/xlink" width="608.98125pt" height="194.42pt" viewBox="0 0 608.98125 194.42" xmlns="http://www.w3.org/2000/svg" version="1.1">
 <metadata>
  <rdf:RDF xmlns:dc="http://purl.org/dc/elements/1.1/" xmlns:cc="http://creativecommons.org/ns#" xmlns:rdf="http://www.w3.org/1999/02/22-rdf-syntax-ns#">
   <cc:Work>
    <dc:type rdf:resource="http://purl.org/dc/dcmitype/StillImage"/>
    <dc:date>2025-03-17T17:51:33.711270</dc:date>
    <dc:format>image/svg+xml</dc:format>
    <dc:creator>
     <cc:Agent>
      <dc:title>Matplotlib v3.9.2, https://matplotlib.org/</dc:title>
     </cc:Agent>
    </dc:creator>
   </cc:Work>
  </rdf:RDF>
 </metadata>
 <defs>
  <style type="text/css">*{stroke-linejoin: round; stroke-linecap: butt}</style>
 </defs>
 <g id="figure_1">
  <g id="patch_1">
   <path d="M 0 194.42 
L 608.98125 194.42 
L 608.98125 0 
L 0 0 
z
" style="fill: #ffffff"/>
  </g>
  <g id="axes_1">
   <g id="patch_2">
    <path d="M 43.78125 173.52 
L 601.78125 173.52 
L 601.78125 7.2 
L 43.78125 7.2 
z
" style="fill: #ffffff"/>
   </g>
   <g id="matplotlib.axis_1">
    <g id="text_1">
     <!-- Increasing Magnetic Field $\rightarrow$ -->
     <g transform="translate(251.13125 185.12) scale(0.1 -0.1)">
      <defs>
       <path id="DejaVuSans-49" d="M 628 4666 
L 1259 4666 
L 1259 0 
L 628 0 
L 628 4666 
z
" transform="scale(0.015625)"/>
       <path id="DejaVuSans-6e" d="M 3513 2113 
L 3513 0 
L 2938 0 
L 2938 2094 
Q 2938 2591 2744 2837 
Q 2550 3084 2163 3084 
Q 1697 3084 1428 2787 
Q 1159 2491 1159 1978 
L 1159 0 
L 581 0 
L 581 3500 
L 1159 3500 
L 1159 2956 
Q 1366 3272 1645 3428 
Q 1925 3584 2291 3584 
Q 2894 3584 3203 3211 
Q 3513 2838 3513 2113 
z
" transform="scale(0.015625)"/>
       <path id="DejaVuSans-63" d="M 3122 3366 
L 3122 2828 
Q 2878 2963 2633 3030 
Q 2388 3097 2138 3097 
Q 1578 3097 1268 2742 
Q 959 2388 959 1747 
Q 959 1106 1268 751 
Q 1578 397 2138 397 
Q 2388 397 2633 464 
Q 2878 531 3122 666 
L 3122 134 
Q 2881 22 2623 -34 
Q 2366 -91 2075 -91 
Q 1284 -91 818 406 
Q 353 903 353 1747 
Q 353 2603 823 3093 
Q 1294 3584 2113 3584 
Q 2378 3584 2631 3529 
Q 2884 3475 3122 3366 
z
" transform="scale(0.015625)"/>
       <path id="DejaVuSans-72" d="M 2631 2963 
Q 2534 3019 2420 3045 
Q 2306 3072 2169 3072 
Q 1681 3072 1420 2755 
Q 1159 2438 1159 1844 
L 1159 0 
L 581 0 
L 581 3500 
L 1159 3500 
L 1159 2956 
Q 1341 3275 1631 3429 
Q 1922 3584 2338 3584 
Q 2397 3584 2469 3576 
Q 2541 3569 2628 3553 
L 2631 2963 
z
" transform="scale(0.015625)"/>
       <path id="DejaVuSans-65" d="M 3597 1894 
L 3597 1613 
L 953 1613 
Q 991 1019 1311 708 
Q 1631 397 2203 397 
Q 2534 397 2845 478 
Q 3156 559 3463 722 
L 3463 178 
Q 3153 47 2828 -22 
Q 2503 -91 2169 -91 
Q 1331 -91 842 396 
Q 353 884 353 1716 
Q 353 2575 817 3079 
Q 1281 3584 2069 3584 
Q 2775 3584 3186 3129 
Q 3597 2675 3597 1894 
z
M 3022 2063 
Q 3016 2534 2758 2815 
Q 2500 3097 2075 3097 
Q 1594 3097 1305 2825 
Q 1016 2553 972 2059 
L 3022 2063 
z
" transform="scale(0.015625)"/>
       <path id="DejaVuSans-61" d="M 2194 1759 
Q 1497 1759 1228 1600 
Q 959 1441 959 1056 
Q 959 750 1161 570 
Q 1363 391 1709 391 
Q 2188 391 2477 730 
Q 2766 1069 2766 1631 
L 2766 1759 
L 2194 1759 
z
M 3341 1997 
L 3341 0 
L 2766 0 
L 2766 531 
Q 2569 213 2275 61 
Q 1981 -91 1556 -91 
Q 1019 -91 701 211 
Q 384 513 384 1019 
Q 384 1609 779 1909 
Q 1175 2209 1959 2209 
L 2766 2209 
L 2766 2266 
Q 2766 2663 2505 2880 
Q 2244 3097 1772 3097 
Q 1472 3097 1187 3025 
Q 903 2953 641 2809 
L 641 3341 
Q 956 3463 1253 3523 
Q 1550 3584 1831 3584 
Q 2591 3584 2966 3190 
Q 3341 2797 3341 1997 
z
" transform="scale(0.015625)"/>
       <path id="DejaVuSans-73" d="M 2834 3397 
L 2834 2853 
Q 2591 2978 2328 3040 
Q 2066 3103 1784 3103 
Q 1356 3103 1142 2972 
Q 928 2841 928 2578 
Q 928 2378 1081 2264 
Q 1234 2150 1697 2047 
L 1894 2003 
Q 2506 1872 2764 1633 
Q 3022 1394 3022 966 
Q 3022 478 2636 193 
Q 2250 -91 1575 -91 
Q 1294 -91 989 -36 
Q 684 19 347 128 
L 347 722 
Q 666 556 975 473 
Q 1284 391 1588 391 
Q 1994 391 2212 530 
Q 2431 669 2431 922 
Q 2431 1156 2273 1281 
Q 2116 1406 1581 1522 
L 1381 1569 
Q 847 1681 609 1914 
Q 372 2147 372 2553 
Q 372 3047 722 3315 
Q 1072 3584 1716 3584 
Q 2034 3584 2315 3537 
Q 2597 3491 2834 3397 
z
" transform="scale(0.015625)"/>
       <path id="DejaVuSans-69" d="M 603 3500 
L 1178 3500 
L 1178 0 
L 603 0 
L 603 3500 
z
M 603 4863 
L 1178 4863 
L 1178 4134 
L 603 4134 
L 603 4863 
z
" transform="scale(0.015625)"/>
       <path id="DejaVuSans-67" d="M 2906 1791 
Q 2906 2416 2648 2759 
Q 2391 3103 1925 3103 
Q 1463 3103 1205 2759 
Q 947 2416 947 1791 
Q 947 1169 1205 825 
Q 1463 481 1925 481 
Q 2391 481 2648 825 
Q 2906 1169 2906 1791 
z
M 3481 434 
Q 3481 -459 3084 -895 
Q 2688 -1331 1869 -1331 
Q 1566 -1331 1297 -1286 
Q 1028 -1241 775 -1147 
L 775 -588 
Q 1028 -725 1275 -790 
Q 1522 -856 1778 -856 
Q 2344 -856 2625 -561 
Q 2906 -266 2906 331 
L 2906 616 
Q 2728 306 2450 153 
Q 2172 0 1784 0 
Q 1141 0 747 490 
Q 353 981 353 1791 
Q 353 2603 747 3093 
Q 1141 3584 1784 3584 
Q 2172 3584 2450 3431 
Q 2728 3278 2906 2969 
L 2906 3500 
L 3481 3500 
L 3481 434 
z
" transform="scale(0.015625)"/>
       <path id="DejaVuSans-20" transform="scale(0.015625)"/>
       <path id="DejaVuSans-4d" d="M 628 4666 
L 1569 4666 
L 2759 1491 
L 3956 4666 
L 4897 4666 
L 4897 0 
L 4281 0 
L 4281 4097 
L 3078 897 
L 2444 897 
L 1241 4097 
L 1241 0 
L 628 0 
L 628 4666 
z
" transform="scale(0.015625)"/>
       <path id="DejaVuSans-74" d="M 1172 4494 
L 1172 3500 
L 2356 3500 
L 2356 3053 
L 1172 3053 
L 1172 1153 
Q 1172 725 1289 603 
Q 1406 481 1766 481 
L 2356 481 
L 2356 0 
L 1766 0 
Q 1100 0 847 248 
Q 594 497 594 1153 
L 594 3053 
L 172 3053 
L 172 3500 
L 594 3500 
L 594 4494 
L 1172 4494 
z
" transform="scale(0.015625)"/>
       <path id="DejaVuSans-46" d="M 628 4666 
L 3309 4666 
L 3309 4134 
L 1259 4134 
L 1259 2759 
L 3109 2759 
L 3109 2228 
L 1259 2228 
L 1259 0 
L 628 0 
L 628 4666 
z
" transform="scale(0.015625)"/>
       <path id="DejaVuSans-6c" d="M 603 4863 
L 1178 4863 
L 1178 0 
L 603 0 
L 603 4863 
z
" transform="scale(0.015625)"/>
       <path id="DejaVuSans-64" d="M 2906 2969 
L 2906 4863 
L 3481 4863 
L 3481 0 
L 2906 0 
L 2906 525 
Q 2725 213 2448 61 
Q 2172 -91 1784 -91 
Q 1150 -91 751 415 
Q 353 922 353 1747 
Q 353 2572 751 3078 
Q 1150 3584 1784 3584 
Q 2172 3584 2448 3432 
Q 2725 3281 2906 2969 
z
M 947 1747 
Q 947 1113 1208 752 
Q 1469 391 1925 391 
Q 2381 391 2643 752 
Q 2906 1113 2906 1747 
Q 2906 2381 2643 2742 
Q 2381 3103 1925 3103 
Q 1469 3103 1208 2742 
Q 947 2381 947 1747 
z
" transform="scale(0.015625)"/>
       <path id="DejaVuSans-2192" d="M 5050 2147 
L 5050 1866 
L 3822 638 
L 3447 1013 
L 4175 1741 
L 366 1741 
L 366 2272 
L 4175 2272 
L 3447 3000 
L 3822 3375 
L 5050 2147 
z
" transform="scale(0.015625)"/>
      </defs>
      <use xlink:href="#DejaVuSans-49" transform="translate(0 0.015625)"/>
      <use xlink:href="#DejaVuSans-6e" transform="translate(29.492188 0.015625)"/>
      <use xlink:href="#DejaVuSans-63" transform="translate(92.871094 0.015625)"/>
      <use xlink:href="#DejaVuSans-72" transform="translate(147.851562 0.015625)"/>
      <use xlink:href="#DejaVuSans-65" transform="translate(188.964844 0.015625)"/>
      <use xlink:href="#DejaVuSans-61" transform="translate(250.488281 0.015625)"/>
      <use xlink:href="#DejaVuSans-73" transform="translate(311.767578 0.015625)"/>
      <use xlink:href="#DejaVuSans-69" transform="translate(363.867188 0.015625)"/>
      <use xlink:href="#DejaVuSans-6e" transform="translate(391.650391 0.015625)"/>
      <use xlink:href="#DejaVuSans-67" transform="translate(455.029297 0.015625)"/>
      <use xlink:href="#DejaVuSans-20" transform="translate(518.505859 0.015625)"/>
      <use xlink:href="#DejaVuSans-4d" transform="translate(550.292969 0.015625)"/>
      <use xlink:href="#DejaVuSans-61" transform="translate(636.572266 0.015625)"/>
      <use xlink:href="#DejaVuSans-67" transform="translate(697.851562 0.015625)"/>
      <use xlink:href="#DejaVuSans-6e" transform="translate(761.328125 0.015625)"/>
      <use xlink:href="#DejaVuSans-65" transform="translate(824.707031 0.015625)"/>
      <use xlink:href="#DejaVuSans-74" transform="translate(886.230469 0.015625)"/>
      <use xlink:href="#DejaVuSans-69" transform="translate(925.439453 0.015625)"/>
      <use xlink:href="#DejaVuSans-63" transform="translate(953.222656 0.015625)"/>
      <use xlink:href="#DejaVuSans-20" transform="translate(1008.203125 0.015625)"/>
      <use xlink:href="#DejaVuSans-46" transform="translate(1039.990234 0.015625)"/>
      <use xlink:href="#DejaVuSans-69" transform="translate(1097.509766 0.015625)"/>
      <use xlink:href="#DejaVuSans-65" transform="translate(1125.292969 0.015625)"/>
      <use xlink:href="#DejaVuSans-6c" transform="translate(1186.816406 0.015625)"/>
      <use xlink:href="#DejaVuSans-64" transform="translate(1214.599609 0.015625)"/>
      <use xlink:href="#DejaVuSans-20" transform="translate(1278.076172 0.015625)"/>
      <use xlink:href="#DejaVuSans-2192" transform="translate(1329.345703 0.015625)"/>
     </g>
    </g>
   </g>
   <g id="matplotlib.axis_2">
    <g id="ytick_1">
     <g id="line2d_1">
      <defs>
       <path id="m8f39176b9d" d="M 0 0 
L -3.5 0 
" style="stroke: #000000; stroke-width: 0.8"/>
      </defs>
      <g>
       <use xlink:href="#m8f39176b9d" x="43.78125" y="165.96" style="stroke: #000000; stroke-width: 0.8"/>
      </g>
     </g>
     <g id="text_2">
      <!-- 0.0 -->
      <g transform="translate(20.878125 169.759219) scale(0.1 -0.1)">
       <defs>
        <path id="DejaVuSans-30" d="M 2034 4250 
Q 1547 4250 1301 3770 
Q 1056 3291 1056 2328 
Q 1056 1369 1301 889 
Q 1547 409 2034 409 
Q 2525 409 2770 889 
Q 3016 1369 3016 2328 
Q 3016 3291 2770 3770 
Q 2525 4250 2034 4250 
z
M 2034 4750 
Q 2819 4750 3233 4129 
Q 3647 3509 3647 2328 
Q 3647 1150 3233 529 
Q 2819 -91 2034 -91 
Q 1250 -91 836 529 
Q 422 1150 422 2328 
Q 422 3509 836 4129 
Q 1250 4750 2034 4750 
z
" transform="scale(0.015625)"/>
        <path id="DejaVuSans-2e" d="M 684 794 
L 1344 794 
L 1344 0 
L 684 0 
L 684 794 
z
" transform="scale(0.015625)"/>
       </defs>
       <use xlink:href="#DejaVuSans-30"/>
       <use xlink:href="#DejaVuSans-2e" x="63.623047"/>
       <use xlink:href="#DejaVuSans-30" x="95.410156"/>
      </g>
     </g>
    </g>
    <g id="ytick_2">
     <g id="line2d_2">
      <g>
       <use xlink:href="#m8f39176b9d" x="43.78125" y="135.72" style="stroke: #000000; stroke-width: 0.8"/>
      </g>
     </g>
     <g id="text_3">
      <!-- 0.2 -->
      <g transform="translate(20.878125 139.519219) scale(0.1 -0.1)">
       <defs>
        <path id="DejaVuSans-32" d="M 1228 531 
L 3431 531 
L 3431 0 
L 469 0 
L 469 531 
Q 828 903 1448 1529 
Q 2069 2156 2228 2338 
Q 2531 2678 2651 2914 
Q 2772 3150 2772 3378 
Q 2772 3750 2511 3984 
Q 2250 4219 1831 4219 
Q 1534 4219 1204 4116 
Q 875 4013 500 3803 
L 500 4441 
Q 881 4594 1212 4672 
Q 1544 4750 1819 4750 
Q 2544 4750 2975 4387 
Q 3406 4025 3406 3419 
Q 3406 3131 3298 2873 
Q 3191 2616 2906 2266 
Q 2828 2175 2409 1742 
Q 1991 1309 1228 531 
z
" transform="scale(0.015625)"/>
       </defs>
       <use xlink:href="#DejaVuSans-30"/>
       <use xlink:href="#DejaVuSans-2e" x="63.623047"/>
       <use xlink:href="#DejaVuSans-32" x="95.410156"/>
      </g>
     </g>
    </g>
    <g id="ytick_3">
     <g id="line2d_3">
      <g>
       <use xlink:href="#m8f39176b9d" x="43.78125" y="105.48" style="stroke: #000000; stroke-width: 0.8"/>
      </g>
     </g>
     <g id="text_4">
      <!-- 0.4 -->
      <g transform="translate(20.878125 109.279219) scale(0.1 -0.1)">
       <defs>
        <path id="DejaVuSans-34" d="M 2419 4116 
L 825 1625 
L 2419 1625 
L 2419 4116 
z
M 2253 4666 
L 3047 4666 
L 3047 1625 
L 3713 1625 
L 3713 1100 
L 3047 1100 
L 3047 0 
L 2419 0 
L 2419 1100 
L 313 1100 
L 313 1709 
L 2253 4666 
z
" transform="scale(0.015625)"/>
       </defs>
       <use xlink:href="#DejaVuSans-30"/>
       <use xlink:href="#DejaVuSans-2e" x="63.623047"/>
       <use xlink:href="#DejaVuSans-34" x="95.410156"/>
      </g>
     </g>
    </g>
    <g id="ytick_4">
     <g id="line2d_4">
      <g>
       <use xlink:href="#m8f39176b9d" x="43.78125" y="75.24" style="stroke: #000000; stroke-width: 0.8"/>
      </g>
     </g>
     <g id="text_5">
      <!-- 0.6 -->
      <g transform="translate(20.878125 79.039219) scale(0.1 -0.1)">
       <defs>
        <path id="DejaVuSans-36" d="M 2113 2584 
Q 1688 2584 1439 2293 
Q 1191 2003 1191 1497 
Q 1191 994 1439 701 
Q 1688 409 2113 409 
Q 2538 409 2786 701 
Q 3034 994 3034 1497 
Q 3034 2003 2786 2293 
Q 2538 2584 2113 2584 
z
M 3366 4563 
L 3366 3988 
Q 3128 4100 2886 4159 
Q 2644 4219 2406 4219 
Q 1781 4219 1451 3797 
Q 1122 3375 1075 2522 
Q 1259 2794 1537 2939 
Q 1816 3084 2150 3084 
Q 2853 3084 3261 2657 
Q 3669 2231 3669 1497 
Q 3669 778 3244 343 
Q 2819 -91 2113 -91 
Q 1303 -91 875 529 
Q 447 1150 447 2328 
Q 447 3434 972 4092 
Q 1497 4750 2381 4750 
Q 2619 4750 2861 4703 
Q 3103 4656 3366 4563 
z
" transform="scale(0.015625)"/>
       </defs>
       <use xlink:href="#DejaVuSans-30"/>
       <use xlink:href="#DejaVuSans-2e" x="63.623047"/>
       <use xlink:href="#DejaVuSans-36" x="95.410156"/>
      </g>
     </g>
    </g>
    <g id="ytick_5">
     <g id="line2d_5">
      <g>
       <use xlink:href="#m8f39176b9d" x="43.78125" y="45" style="stroke: #000000; stroke-width: 0.8"/>
      </g>
     </g>
     <g id="text_6">
      <!-- 0.8 -->
      <g transform="translate(20.878125 48.799219) scale(0.1 -0.1)">
       <defs>
        <path id="DejaVuSans-38" d="M 2034 2216 
Q 1584 2216 1326 1975 
Q 1069 1734 1069 1313 
Q 1069 891 1326 650 
Q 1584 409 2034 409 
Q 2484 409 2743 651 
Q 3003 894 3003 1313 
Q 3003 1734 2745 1975 
Q 2488 2216 2034 2216 
z
M 1403 2484 
Q 997 2584 770 2862 
Q 544 3141 544 3541 
Q 544 4100 942 4425 
Q 1341 4750 2034 4750 
Q 2731 4750 3128 4425 
Q 3525 4100 3525 3541 
Q 3525 3141 3298 2862 
Q 3072 2584 2669 2484 
Q 3125 2378 3379 2068 
Q 3634 1759 3634 1313 
Q 3634 634 3220 271 
Q 2806 -91 2034 -91 
Q 1263 -91 848 271 
Q 434 634 434 1313 
Q 434 1759 690 2068 
Q 947 2378 1403 2484 
z
M 1172 3481 
Q 1172 3119 1398 2916 
Q 1625 2713 2034 2713 
Q 2441 2713 2670 2916 
Q 2900 3119 2900 3481 
Q 2900 3844 2670 4047 
Q 2441 4250 2034 4250 
Q 1625 4250 1398 4047 
Q 1172 3844 1172 3481 
z
" transform="scale(0.015625)"/>
       </defs>
       <use xlink:href="#DejaVuSans-30"/>
       <use xlink:href="#DejaVuSans-2e" x="63.623047"/>
       <use xlink:href="#DejaVuSans-38" x="95.410156"/>
      </g>
     </g>
    </g>
    <g id="ytick_6">
     <g id="line2d_6">
      <g>
       <use xlink:href="#m8f39176b9d" x="43.78125" y="14.76" style="stroke: #000000; stroke-width: 0.8"/>
      </g>
     </g>
     <g id="text_7">
      <!-- 1.0 -->
      <g transform="translate(20.878125 18.559219) scale(0.1 -0.1)">
       <defs>
        <path id="DejaVuSans-31" d="M 794 531 
L 1825 531 
L 1825 4091 
L 703 3866 
L 703 4441 
L 1819 4666 
L 2450 4666 
L 2450 531 
L 3481 531 
L 3481 0 
L 794 0 
L 794 531 
z
" transform="scale(0.015625)"/>
       </defs>
       <use xlink:href="#DejaVuSans-31"/>
       <use xlink:href="#DejaVuSans-2e" x="63.623047"/>
       <use xlink:href="#DejaVuSans-30" x="95.410156"/>
      </g>
     </g>
    </g>
    <g id="text_8">
     <!-- Relative Intensity -->
     <g transform="translate(14.798438 133.875625) rotate(-90) scale(0.1 -0.1)">
      <defs>
       <path id="DejaVuSans-52" d="M 2841 2188 
Q 3044 2119 3236 1894 
Q 3428 1669 3622 1275 
L 4263 0 
L 3584 0 
L 2988 1197 
Q 2756 1666 2539 1819 
Q 2322 1972 1947 1972 
L 1259 1972 
L 1259 0 
L 628 0 
L 628 4666 
L 2053 4666 
Q 2853 4666 3247 4331 
Q 3641 3997 3641 3322 
Q 3641 2881 3436 2590 
Q 3231 2300 2841 2188 
z
M 1259 4147 
L 1259 2491 
L 2053 2491 
Q 2509 2491 2742 2702 
Q 2975 2913 2975 3322 
Q 2975 3731 2742 3939 
Q 2509 4147 2053 4147 
L 1259 4147 
z
" transform="scale(0.015625)"/>
       <path id="DejaVuSans-76" d="M 191 3500 
L 800 3500 
L 1894 563 
L 2988 3500 
L 3597 3500 
L 2284 0 
L 1503 0 
L 191 3500 
z
" transform="scale(0.015625)"/>
       <path id="DejaVuSans-79" d="M 2059 -325 
Q 1816 -950 1584 -1140 
Q 1353 -1331 966 -1331 
L 506 -1331 
L 506 -850 
L 844 -850 
Q 1081 -850 1212 -737 
Q 1344 -625 1503 -206 
L 1606 56 
L 191 3500 
L 800 3500 
L 1894 763 
L 2988 3500 
L 3597 3500 
L 2059 -325 
z
" transform="scale(0.015625)"/>
      </defs>
      <use xlink:href="#DejaVuSans-52"/>
      <use xlink:href="#DejaVuSans-65" x="64.982422"/>
      <use xlink:href="#DejaVuSans-6c" x="126.505859"/>
      <use xlink:href="#DejaVuSans-61" x="154.289062"/>
      <use xlink:href="#DejaVuSans-74" x="215.568359"/>
      <use xlink:href="#DejaVuSans-69" x="254.777344"/>
      <use xlink:href="#DejaVuSans-76" x="282.560547"/>
      <use xlink:href="#DejaVuSans-65" x="341.740234"/>
      <use xlink:href="#DejaVuSans-20" x="403.263672"/>
      <use xlink:href="#DejaVuSans-49" x="435.050781"/>
      <use xlink:href="#DejaVuSans-6e" x="464.542969"/>
      <use xlink:href="#DejaVuSans-74" x="527.921875"/>
      <use xlink:href="#DejaVuSans-65" x="567.130859"/>
      <use xlink:href="#DejaVuSans-6e" x="628.654297"/>
      <use xlink:href="#DejaVuSans-73" x="692.033203"/>
      <use xlink:href="#DejaVuSans-69" x="744.132812"/>
      <use xlink:href="#DejaVuSans-74" x="771.916016"/>
      <use xlink:href="#DejaVuSans-79" x="811.125"/>
     </g>
    </g>
   </g>
   <g id="line2d_7">
    <path d="M 69.144886 14.76 
L 69.605206 16.02 
L 73.287767 16.02 
L 73.748087 17.28 
L 74.208407 16.02 
L 74.668727 16.02 
L 75.129047 17.28 
L 75.589367 16.02 
L 76.049688 16.02 
L 76.510008 14.76 
L 77.430648 14.76 
L 77.890968 16.02 
L 78.351288 14.76 
L 78.811608 16.02 
L 82.033849 16.02 
L 82.494169 14.76 
L 82.954489 14.76 
L 83.414809 16.02 
L 86.637049 16.02 
L 87.097369 14.76 
L 87.55769 16.02 
L 88.47833 16.02 
L 88.93865 17.28 
L 89.39897 16.02 
L 90.31961 16.02 
L 90.77993 14.76 
L 91.24025 16.02 
L 91.70057 14.76 
L 92.16089 16.02 
L 93.541851 16.02 
L 94.002171 17.28 
L 94.462491 16.02 
L 94.922811 17.28 
L 95.383131 16.02 
L 95.843451 17.28 
L 96.303771 16.02 
L 97.684731 16.02 
L 98.145051 14.76 
L 98.605371 16.02 
L 99.065692 14.76 
L 99.526012 16.02 
L 99.986332 16.02 
L 100.446652 17.28 
L 101.827612 17.28 
L 102.287932 18.54 
L 102.748252 17.28 
L 103.208572 18.54 
L 106.891133 18.54 
L 107.351453 19.8 
L 107.811773 18.54 
L 108.272093 19.8 
L 108.732413 19.8 
L 109.192733 18.54 
L 109.653053 18.54 
L 110.113373 19.8 
L 110.573693 18.54 
L 111.034014 18.54 
L 111.494334 19.8 
L 111.954654 19.8 
L 112.414974 18.54 
L 114.256254 18.54 
L 114.716574 17.28 
L 115.176894 18.54 
L 117.018175 18.54 
L 117.478495 19.8 
L 117.938815 19.8 
L 118.399135 21.06 
L 118.859455 19.8 
L 119.780095 19.8 
L 120.240415 18.54 
L 120.700735 18.54 
L 121.161055 19.8 
L 121.621375 18.54 
L 122.542016 18.54 
L 123.002336 19.8 
L 123.462656 18.54 
L 123.922976 19.8 
L 124.843616 19.8 
L 125.303936 18.54 
L 125.764256 19.8 
L 126.224576 18.54 
L 126.684896 19.8 
L 128.986497 19.8 
L 129.446817 21.06 
L 130.827777 21.06 
L 131.288097 19.8 
L 131.748417 21.06 
L 132.208737 21.06 
L 132.669057 22.32 
L 133.129377 21.06 
L 133.589697 22.32 
L 138.653218 22.32 
L 139.113538 21.06 
L 139.573858 22.32 
L 142.335779 22.32 
L 142.796099 23.58 
L 143.256419 22.32 
L 143.716739 22.32 
L 144.177059 21.06 
L 144.637379 22.32 
L 148.31994 22.32 
L 148.78026 21.06 
L 149.24058 22.32 
L 149.7009 21.06 
L 150.62154 21.06 
L 151.08186 22.32 
L 151.542181 21.06 
L 152.923141 21.06 
L 153.383461 19.8 
L 155.685061 19.8 
L 156.145381 18.54 
L 156.605701 19.8 
L 159.367622 19.8 
L 159.827942 18.54 
L 160.288262 19.8 
L 161.669222 19.8 
L 162.129542 21.06 
L 163.510503 21.06 
L 163.970823 22.32 
L 164.431143 22.32 
L 164.891463 21.06 
L 167.193063 21.06 
L 167.653383 19.8 
L 168.113703 19.8 
L 168.574023 22.32 
L 169.034344 22.32 
L 169.494664 21.06 
L 169.954984 22.32 
L 170.415304 21.06 
L 170.875624 22.32 
L 171.335944 22.32 
L 171.796264 23.58 
L 172.256584 22.32 
L 172.716904 23.58 
L 173.177224 22.32 
L 175.018505 27.36 
L 175.478825 27.36 
L 176.399465 29.88 
L 179.161385 45 
L 180.082025 47.52 
L 181.002666 45 
L 181.462986 38.7 
L 181.923306 36.18 
L 182.383626 32.4 
L 182.843946 31.14 
L 183.304266 28.62 
L 184.685226 24.84 
L 185.145546 24.84 
L 185.605866 23.58 
L 186.066186 23.58 
L 186.526507 22.32 
L 186.986827 23.58 
L 187.447147 22.32 
L 189.288427 22.32 
L 189.748747 21.06 
L 190.209067 22.32 
L 193.431308 22.32 
L 193.891628 21.06 
L 194.351948 22.32 
L 194.812268 19.8 
L 195.272588 21.06 
L 196.193228 21.06 
L 196.653548 22.32 
L 197.113868 21.06 
L 197.574188 22.32 
L 198.034509 21.06 
L 198.494829 21.06 
L 198.955149 22.32 
L 199.415469 21.06 
L 200.336109 21.06 
L 200.796429 22.32 
L 201.717069 22.32 
L 202.177389 21.06 
L 202.637709 21.06 
L 203.098029 22.32 
L 204.01867 22.32 
L 204.47899 23.58 
L 204.93931 23.58 
L 205.39963 24.84 
L 205.85995 21.06 
L 206.32027 23.58 
L 206.78059 21.06 
L 207.24091 22.32 
L 207.70123 21.06 
L 208.16155 22.32 
L 208.62187 21.06 
L 209.08219 21.06 
L 209.542511 22.32 
L 210.002831 22.32 
L 210.923471 19.8 
L 211.383791 21.06 
L 211.844111 21.06 
L 212.304431 19.8 
L 212.764751 19.8 
L 213.225071 21.06 
L 213.685391 21.06 
L 214.145711 22.32 
L 215.986992 22.32 
L 216.447312 23.58 
L 218.748912 23.58 
L 219.209232 24.84 
L 219.669552 24.84 
L 220.129872 23.58 
L 221.050512 26.1 
L 221.971153 26.1 
L 224.272753 32.4 
L 224.733073 34.92 
L 225.193393 36.18 
L 226.574353 43.74 
L 227.034674 47.52 
L 227.494994 52.56 
L 228.415634 57.6 
L 228.875954 61.38 
L 229.336274 60.12 
L 229.796594 60.12 
L 230.256914 58.86 
L 230.717234 55.08 
L 231.177554 52.56 
L 232.098194 45 
L 232.558514 42.48 
L 233.018835 38.7 
L 233.479155 37.44 
L 234.399795 32.4 
L 234.860115 31.14 
L 235.320435 28.62 
L 235.780755 27.36 
L 236.241075 27.36 
L 236.701395 26.1 
L 237.622035 26.1 
L 238.542676 23.58 
L 239.002996 23.58 
L 239.463316 22.32 
L 239.923636 23.58 
L 240.383956 21.06 
L 240.844276 22.32 
L 243.145876 22.32 
L 243.606196 21.06 
L 244.066516 22.32 
L 244.526837 21.06 
L 246.368117 21.06 
L 246.828437 19.8 
L 247.288757 21.06 
L 247.749077 19.8 
L 248.209397 21.06 
L 251.431638 21.06 
L 251.891958 22.32 
L 252.352278 22.32 
L 254.193558 27.36 
L 254.653878 26.1 
L 255.114198 26.1 
L 255.574518 27.36 
L 256.955479 23.58 
L 257.415799 23.58 
L 258.336439 21.06 
L 258.796759 21.06 
L 259.257079 22.32 
L 259.717399 21.06 
L 261.558679 21.06 
L 262.019 19.8 
L 262.47932 21.06 
L 264.3206 21.06 
L 264.78092 22.32 
L 265.24124 22.32 
L 265.70156 21.06 
L 266.16188 22.32 
L 268.003161 22.32 
L 268.463481 23.58 
L 269.844441 23.58 
L 270.304761 24.84 
L 270.765081 24.84 
L 271.225401 26.1 
L 271.685721 26.1 
L 273.527002 31.14 
L 275.828602 43.74 
L 276.288922 47.52 
L 276.749242 52.56 
L 277.209562 56.34 
L 278.130202 66.42 
L 279.050842 73.98 
L 279.971483 76.5 
L 280.892123 73.98 
L 281.352443 70.2 
L 281.812763 67.68 
L 282.273083 62.64 
L 282.733403 61.38 
L 283.654043 53.82 
L 284.114363 51.3 
L 284.574683 47.52 
L 285.495324 42.48 
L 286.415964 39.96 
L 286.876284 36.18 
L 287.336604 34.92 
L 287.796924 32.4 
L 288.257244 31.14 
L 288.717564 28.62 
L 289.177884 28.62 
L 290.098524 26.1 
L 290.558844 23.58 
L 291.019165 24.84 
L 291.479485 22.32 
L 292.860445 22.32 
L 293.320765 21.06 
L 293.781085 22.32 
L 294.241405 21.06 
L 296.082685 21.06 
L 296.543005 19.8 
L 297.003326 19.8 
L 297.463646 21.06 
L 298.384286 21.06 
L 298.844606 19.8 
L 299.304926 21.06 
L 299.765246 19.8 
L 300.685886 19.8 
L 301.146206 21.06 
L 301.606526 21.06 
L 302.066846 19.8 
L 302.987487 22.32 
L 303.447807 24.84 
L 304.828767 28.62 
L 305.749407 28.62 
L 306.670047 26.1 
L 307.130367 23.58 
L 307.590687 22.32 
L 308.051007 19.8 
L 311.733568 19.8 
L 312.193888 21.06 
L 312.654208 19.8 
L 313.574848 19.8 
L 314.035168 21.06 
L 314.495489 19.8 
L 314.955809 21.06 
L 316.336769 21.06 
L 316.797089 22.32 
L 318.638369 22.32 
L 319.098689 23.58 
L 320.01933 23.58 
L 321.40029 27.36 
L 322.32093 27.36 
L 322.78125 29.88 
L 324.16221 33.66 
L 324.62253 33.66 
L 325.08285 37.44 
L 325.54317 39.96 
L 326.003491 45 
L 326.924131 52.56 
L 329.686051 90.36 
L 330.146371 94.14 
L 330.606691 95.4 
L 331.067011 95.4 
L 331.527332 94.14 
L 331.987652 90.36 
L 332.447972 87.84 
L 332.908292 80.28 
L 334.289252 65.16 
L 334.749572 61.38 
L 335.209892 56.34 
L 335.670212 55.08 
L 336.130532 52.56 
L 336.590852 48.78 
L 337.051172 46.26 
L 337.511493 42.48 
L 338.432133 37.44 
L 338.892453 32.4 
L 339.352773 31.14 
L 339.813093 28.62 
L 340.733733 26.1 
L 341.194053 26.1 
L 342.114693 23.58 
L 343.495654 23.58 
L 343.955974 22.32 
L 344.416294 22.32 
L 344.876614 21.06 
L 349.019495 21.06 
L 349.479815 22.32 
L 352.241735 22.32 
L 353.162375 24.84 
L 354.083015 32.4 
L 354.543335 33.66 
L 356.844936 33.66 
L 357.305256 29.88 
L 357.765576 27.36 
L 358.225896 23.58 
L 358.686216 22.32 
L 359.146536 23.58 
L 359.606856 22.32 
L 362.829097 22.32 
L 363.289417 23.58 
L 363.749737 23.58 
L 364.210057 24.84 
L 364.670377 23.58 
L 365.130697 24.84 
L 365.591017 24.84 
L 366.051337 26.1 
L 367.432298 26.1 
L 367.892618 27.36 
L 369.273578 27.36 
L 369.733898 28.62 
L 370.194218 28.62 
L 370.654538 29.88 
L 371.114858 29.88 
L 372.035498 32.4 
L 372.495819 32.4 
L 372.956139 33.66 
L 373.416459 36.18 
L 373.876779 36.18 
L 374.337099 39.96 
L 374.797419 41.22 
L 376.178379 52.56 
L 376.638699 57.6 
L 377.099019 61.38 
L 378.47998 84.06 
L 379.40062 105.48 
L 380.78158 126.9 
L 381.2419 129.42 
L 381.70222 129.42 
L 382.16254 125.64 
L 383.08318 111.78 
L 385.384781 68.94 
L 385.845101 61.38 
L 386.765741 51.3 
L 387.226061 47.52 
L 388.146701 42.48 
L 388.607021 38.7 
L 389.067341 37.44 
L 389.527661 34.92 
L 390.908622 31.14 
L 391.368942 31.14 
L 391.829262 29.88 
L 392.289582 31.14 
L 392.749902 29.88 
L 393.210222 29.88 
L 393.670542 28.62 
L 395.051502 28.62 
L 395.511823 27.36 
L 397.813423 27.36 
L 398.273743 26.1 
L 398.734063 27.36 
L 401.035663 27.36 
L 401.495984 26.1 
L 401.956304 27.36 
L 402.416624 26.1 
L 402.876944 27.36 
L 403.337264 27.36 
L 403.797584 28.62 
L 405.178544 36.18 
L 405.638864 36.18 
L 406.099184 34.92 
L 407.019824 37.44 
L 407.480145 37.44 
L 407.940465 36.18 
L 408.861105 31.14 
L 410.242065 27.36 
L 412.083345 27.36 
L 412.543665 28.62 
L 417.146866 28.62 
L 417.607186 29.88 
L 418.067506 28.62 
L 418.527826 29.88 
L 419.908787 29.88 
L 420.369107 31.14 
L 420.829427 31.14 
L 421.289747 32.4 
L 421.750067 31.14 
L 422.210387 32.4 
L 422.670707 34.92 
L 423.131027 34.92 
L 423.591347 36.18 
L 424.051667 36.18 
L 424.511988 38.7 
L 424.972308 39.96 
L 425.432628 43.74 
L 425.892948 46.26 
L 426.813588 53.82 
L 427.273908 58.86 
L 428.194548 75.24 
L 428.654868 84.06 
L 429.115188 95.4 
L 429.575508 110.52 
L 430.496149 153.36 
L 430.956469 162.18 
L 431.416789 165.96 
L 431.877109 165.96 
L 432.337429 159.66 
L 432.797749 150.84 
L 434.639029 99.18 
L 435.099349 84.06 
L 436.48031 58.86 
L 436.94063 55.08 
L 437.40095 48.78 
L 437.86127 46.26 
L 438.32159 42.48 
L 438.78191 39.96 
L 441.54383 32.4 
L 442.004151 32.4 
L 442.464471 31.14 
L 442.924791 31.14 
L 443.385111 29.88 
L 444.305751 29.88 
L 444.766071 28.62 
L 445.686711 28.62 
L 446.147031 27.36 
L 449.369272 27.36 
L 449.829592 26.1 
L 450.289912 26.1 
L 450.750232 27.36 
L 451.210552 26.1 
L 451.670872 27.36 
L 453.051832 27.36 
L 453.512152 26.1 
L 453.972473 27.36 
L 454.432793 27.36 
L 454.893113 26.1 
L 455.353433 27.36 
L 456.274073 27.36 
L 456.734393 26.1 
L 461.337594 26.1 
L 461.797914 27.36 
L 462.258234 26.1 
L 462.718554 27.36 
L 463.178874 26.1 
L 465.940795 26.1 
L 466.401115 24.84 
L 466.861435 24.84 
L 467.321755 26.1 
L 467.782075 24.84 
L 468.242395 26.1 
L 469.623355 26.1 
L 470.083675 24.84 
L 470.543995 26.1 
L 471.004316 24.84 
L 471.464636 26.1 
L 472.845596 26.1 
L 473.305916 24.84 
L 473.766236 26.1 
L 474.686876 23.58 
L 476.988477 23.58 
L 477.448797 24.84 
L 477.909117 23.58 
L 478.369437 24.84 
L 478.829757 23.58 
L 481.131357 23.58 
L 481.591677 24.84 
L 482.051997 23.58 
L 483.893278 23.58 
L 484.353598 24.84 
L 484.813918 23.58 
L 485.274238 23.58 
L 485.734558 24.84 
L 486.194878 23.58 
L 486.655198 24.84 
L 487.115518 24.84 
L 487.575838 23.58 
L 489.417119 23.58 
L 489.877439 24.84 
L 490.337759 23.58 
L 490.798079 23.58 
L 491.258399 24.84 
L 491.718719 23.58 
L 493.559999 23.58 
L 494.020319 22.32 
L 494.48064 23.58 
L 494.94096 22.32 
L 495.40128 23.58 
L 495.8616 22.32 
L 496.78224 22.32 
L 497.24256 23.58 
L 497.70288 22.32 
L 498.1632 22.32 
L 498.62352 23.58 
L 500.925121 23.58 
L 501.385441 22.32 
L 504.147361 22.32 
L 504.607681 21.06 
L 505.068001 21.06 
L 505.528321 23.58 
L 505.988642 21.06 
L 506.448962 22.32 
L 506.909282 22.32 
L 507.369602 23.58 
L 507.829922 22.32 
L 508.290242 23.58 
L 508.750562 22.32 
L 513.814083 22.32 
L 514.274403 23.58 
L 515.195043 23.58 
L 515.655363 24.84 
L 516.115683 24.84 
L 516.576003 26.1 
L 517.036323 24.84 
L 517.496643 26.1 
L 518.417284 26.1 
L 518.877604 24.84 
L 519.337924 26.1 
L 519.798244 24.84 
L 520.258564 26.1 
L 520.718884 24.84 
L 521.179204 24.84 
L 521.639524 26.1 
L 522.099844 24.84 
L 525.322085 24.84 
L 525.782405 26.1 
L 526.703045 26.1 
L 527.163365 24.84 
L 527.623685 24.84 
L 528.084005 26.1 
L 529.004645 26.1 
L 529.925286 23.58 
L 530.385606 23.58 
L 530.845926 24.84 
L 531.766566 24.84 
L 532.226886 26.1 
L 532.687206 24.84 
L 533.147526 26.1 
L 533.607846 24.84 
L 534.528486 24.84 
L 534.988807 26.1 
L 535.449127 24.84 
L 537.750727 24.84 
L 538.211047 26.1 
L 538.671367 24.84 
L 539.131687 26.1 
L 539.592007 26.1 
L 540.052327 27.36 
L 540.512647 26.1 
L 542.353928 26.1 
L 542.814248 24.84 
L 543.274568 26.1 
L 543.734888 26.1 
L 544.195208 24.84 
L 544.655528 26.1 
L 545.576168 26.1 
L 546.036488 27.36 
L 546.496808 26.1 
L 546.957129 27.36 
L 547.877769 27.36 
L 548.338089 26.1 
L 548.798409 27.36 
L 549.258729 26.1 
L 550.179369 26.1 
L 550.639689 27.36 
L 551.560329 27.36 
L 552.020649 26.1 
L 552.48097 27.36 
L 553.86193 27.36 
L 554.32225 26.1 
L 555.24289 26.1 
L 555.70321 28.62 
L 556.16353 27.36 
L 557.54449 27.36 
L 558.00481 26.1 
L 558.465131 27.36 
L 558.925451 26.1 
L 559.385771 27.36 
L 559.846091 27.36 
L 560.306411 28.62 
L 562.147691 28.62 
L 562.608011 27.36 
L 563.988971 27.36 
L 564.449292 28.62 
L 567.211212 28.62 
L 567.671532 27.36 
L 568.131852 28.62 
L 569.052492 28.62 
L 569.512812 29.88 
L 569.973133 27.36 
L 570.433453 28.62 
L 571.354093 28.62 
L 571.814413 27.36 
L 572.274733 28.62 
L 573.195373 28.62 
L 573.655693 29.88 
L 574.116013 28.62 
L 576.417614 28.62 
L 576.417614 28.62 
" clip-path="url(#p03746dbf6a)" style="fill: none; stroke: #1f77b4; stroke-width: 1.5; stroke-linecap: square"/>
   </g>
   <g id="patch_3">
    <path d="M 43.78125 173.52 
L 43.78125 7.2 
" style="fill: none; stroke: #000000; stroke-width: 0.8; stroke-linejoin: miter; stroke-linecap: square"/>
   </g>
   <g id="patch_4">
    <path d="M 601.78125 173.52 
L 601.78125 7.2 
" style="fill: none; stroke: #000000; stroke-width: 0.8; stroke-linejoin: miter; stroke-linecap: square"/>
   </g>
   <g id="patch_5">
    <path d="M 43.78125 173.52 
L 601.78125 173.52 
" style="fill: none; stroke: #000000; stroke-width: 0.8; stroke-linejoin: miter; stroke-linecap: square"/>
   </g>
   <g id="patch_6">
    <path d="M 43.78125 7.2 
L 601.78125 7.2 
" style="fill: none; stroke: #000000; stroke-width: 0.8; stroke-linejoin: miter; stroke-linecap: square"/>
   </g>
  </g>
 </g>
 <defs>
  <clipPath id="p03746dbf6a">
   <rect x="43.78125" y="7.2" width="558" height="166.32"/>
  </clipPath>
 </defs>
</svg>
