<?xml version="1.0" encoding="utf-8" standalone="no"?>
<!DOCTYPE svg PUBLIC "-//W3C//DTD SVG 1.1//EN"
  "http://www.w3.org/Graphics/SVG/1.1/DTD/svg11.dtd">
<svg xmlns:xlink="http://www.w3.org/1999/xlink" width="608.98125pt" height="194.42pt" viewBox="0 0 608.98125 194.42" xmlns="http://www.w3.org/2000/svg" version="1.1">
 <metadata>
  <rdf:RDF xmlns:dc="http://purl.org/dc/elements/1.1/" xmlns:cc="http://creativecommons.org/ns#" xmlns:rdf="http://www.w3.org/1999/02/22-rdf-syntax-ns#">
   <cc:Work>
    <dc:type rdf:resource="http://purl.org/dc/dcmitype/StillImage"/>
    <dc:date>2025-03-17T17:51:33.625552</dc:date>
    <dc:format>image/svg+xml</dc:format>
    <dc:creator>
     <cc:Agent>
      <dc:title>Matplotlib v3.9.2, https://matplotlib.org/</dc:title>
     </cc:Agent>
    </dc:creator>
   </cc:Work>
  </rdf:RDF>
 </metadata>
 <defs>
  <style type="text/css">*{stroke-linejoin: round; stroke-linecap: butt}</style>
 </defs>
 <g id="figure_1">
  <g id="patch_1">
   <path d="M 0 194.42 
L 608.98125 194.42 
L 608.98125 0 
L 0 0 
z
" style="fill: #ffffff"/>
  </g>
  <g id="axes_1">
   <g id="patch_2">
    <path d="M 43.78125 173.52 
L 601.78125 173.52 
L 601.78125 7.2 
L 43.78125 7.2 
z
" style="fill: #ffffff"/>
   </g>
   <g id="matplotlib.axis_1">
    <g id="text_1">
     <!-- Increasing Magnetic Field $\rightarrow$ -->
     <g transform="translate(251.13125 185.12) scale(0.1 -0.1)">
      <defs>
       <path id="DejaVuSans-49" d="M 628 4666 
L 1259 4666 
L 1259 0 
L 628 0 
L 628 4666 
z
" transform="scale(0.015625)"/>
       <path id="DejaVuSans-6e" d="M 3513 2113 
L 3513 0 
L 2938 0 
L 2938 2094 
Q 2938 2591 2744 2837 
Q 2550 3084 2163 3084 
Q 1697 3084 1428 2787 
Q 1159 2491 1159 1978 
L 1159 0 
L 581 0 
L 581 3500 
L 1159 3500 
L 1159 2956 
Q 1366 3272 1645 3428 
Q 1925 3584 2291 3584 
Q 2894 3584 3203 3211 
Q 3513 2838 3513 2113 
z
" transform="scale(0.015625)"/>
       <path id="DejaVuSans-63" d="M 3122 3366 
L 3122 2828 
Q 2878 2963 2633 3030 
Q 2388 3097 2138 3097 
Q 1578 3097 1268 2742 
Q 959 2388 959 1747 
Q 959 1106 1268 751 
Q 1578 397 2138 397 
Q 2388 397 2633 464 
Q 2878 531 3122 666 
L 3122 134 
Q 2881 22 2623 -34 
Q 2366 -91 2075 -91 
Q 1284 -91 818 406 
Q 353 903 353 1747 
Q 353 2603 823 3093 
Q 1294 3584 2113 3584 
Q 2378 3584 2631 3529 
Q 2884 3475 3122 3366 
z
" transform="scale(0.015625)"/>
       <path id="DejaVuSans-72" d="M 2631 2963 
Q 2534 3019 2420 3045 
Q 2306 3072 2169 3072 
Q 1681 3072 1420 2755 
Q 1159 2438 1159 1844 
L 1159 0 
L 581 0 
L 581 3500 
L 1159 3500 
L 1159 2956 
Q 1341 3275 1631 3429 
Q 1922 3584 2338 3584 
Q 2397 3584 2469 3576 
Q 2541 3569 2628 3553 
L 2631 2963 
z
" transform="scale(0.015625)"/>
       <path id="DejaVuSans-65" d="M 3597 1894 
L 3597 1613 
L 953 1613 
Q 991 1019 1311 708 
Q 1631 397 2203 397 
Q 2534 397 2845 478 
Q 3156 559 3463 722 
L 3463 178 
Q 3153 47 2828 -22 
Q 2503 -91 2169 -91 
Q 1331 -91 842 396 
Q 353 884 353 1716 
Q 353 2575 817 3079 
Q 1281 3584 2069 3584 
Q 2775 3584 3186 3129 
Q 3597 2675 3597 1894 
z
M 3022 2063 
Q 3016 2534 2758 2815 
Q 2500 3097 2075 3097 
Q 1594 3097 1305 2825 
Q 1016 2553 972 2059 
L 3022 2063 
z
" transform="scale(0.015625)"/>
       <path id="DejaVuSans-61" d="M 2194 1759 
Q 1497 1759 1228 1600 
Q 959 1441 959 1056 
Q 959 750 1161 570 
Q 1363 391 1709 391 
Q 2188 391 2477 730 
Q 2766 1069 2766 1631 
L 2766 1759 
L 2194 1759 
z
M 3341 1997 
L 3341 0 
L 2766 0 
L 2766 531 
Q 2569 213 2275 61 
Q 1981 -91 1556 -91 
Q 1019 -91 701 211 
Q 384 513 384 1019 
Q 384 1609 779 1909 
Q 1175 2209 1959 2209 
L 2766 2209 
L 2766 2266 
Q 2766 2663 2505 2880 
Q 2244 3097 1772 3097 
Q 1472 3097 1187 3025 
Q 903 2953 641 2809 
L 641 3341 
Q 956 3463 1253 3523 
Q 1550 3584 1831 3584 
Q 2591 3584 2966 3190 
Q 3341 2797 3341 1997 
z
" transform="scale(0.015625)"/>
       <path id="DejaVuSans-73" d="M 2834 3397 
L 2834 2853 
Q 2591 2978 2328 3040 
Q 2066 3103 1784 3103 
Q 1356 3103 1142 2972 
Q 928 2841 928 2578 
Q 928 2378 1081 2264 
Q 1234 2150 1697 2047 
L 1894 2003 
Q 2506 1872 2764 1633 
Q 3022 1394 3022 966 
Q 3022 478 2636 193 
Q 2250 -91 1575 -91 
Q 1294 -91 989 -36 
Q 684 19 347 128 
L 347 722 
Q 666 556 975 473 
Q 1284 391 1588 391 
Q 1994 391 2212 530 
Q 2431 669 2431 922 
Q 2431 1156 2273 1281 
Q 2116 1406 1581 1522 
L 1381 1569 
Q 847 1681 609 1914 
Q 372 2147 372 2553 
Q 372 3047 722 3315 
Q 1072 3584 1716 3584 
Q 2034 3584 2315 3537 
Q 2597 3491 2834 3397 
z
" transform="scale(0.015625)"/>
       <path id="DejaVuSans-69" d="M 603 3500 
L 1178 3500 
L 1178 0 
L 603 0 
L 603 3500 
z
M 603 4863 
L 1178 4863 
L 1178 4134 
L 603 4134 
L 603 4863 
z
" transform="scale(0.015625)"/>
       <path id="DejaVuSans-67" d="M 2906 1791 
Q 2906 2416 2648 2759 
Q 2391 3103 1925 3103 
Q 1463 3103 1205 2759 
Q 947 2416 947 1791 
Q 947 1169 1205 825 
Q 1463 481 1925 481 
Q 2391 481 2648 825 
Q 2906 1169 2906 1791 
z
M 3481 434 
Q 3481 -459 3084 -895 
Q 2688 -1331 1869 -1331 
Q 1566 -1331 1297 -1286 
Q 1028 -1241 775 -1147 
L 775 -588 
Q 1028 -725 1275 -790 
Q 1522 -856 1778 -856 
Q 2344 -856 2625 -561 
Q 2906 -266 2906 331 
L 2906 616 
Q 2728 306 2450 153 
Q 2172 0 1784 0 
Q 1141 0 747 490 
Q 353 981 353 1791 
Q 353 2603 747 3093 
Q 1141 3584 1784 3584 
Q 2172 3584 2450 3431 
Q 2728 3278 2906 2969 
L 2906 3500 
L 3481 3500 
L 3481 434 
z
" transform="scale(0.015625)"/>
       <path id="DejaVuSans-20" transform="scale(0.015625)"/>
       <path id="DejaVuSans-4d" d="M 628 4666 
L 1569 4666 
L 2759 1491 
L 3956 4666 
L 4897 4666 
L 4897 0 
L 4281 0 
L 4281 4097 
L 3078 897 
L 2444 897 
L 1241 4097 
L 1241 0 
L 628 0 
L 628 4666 
z
" transform="scale(0.015625)"/>
       <path id="DejaVuSans-74" d="M 1172 4494 
L 1172 3500 
L 2356 3500 
L 2356 3053 
L 1172 3053 
L 1172 1153 
Q 1172 725 1289 603 
Q 1406 481 1766 481 
L 2356 481 
L 2356 0 
L 1766 0 
Q 1100 0 847 248 
Q 594 497 594 1153 
L 594 3053 
L 172 3053 
L 172 3500 
L 594 3500 
L 594 4494 
L 1172 4494 
z
" transform="scale(0.015625)"/>
       <path id="DejaVuSans-46" d="M 628 4666 
L 3309 4666 
L 3309 4134 
L 1259 4134 
L 1259 2759 
L 3109 2759 
L 3109 2228 
L 1259 2228 
L 1259 0 
L 628 0 
L 628 4666 
z
" transform="scale(0.015625)"/>
       <path id="DejaVuSans-6c" d="M 603 4863 
L 1178 4863 
L 1178 0 
L 603 0 
L 603 4863 
z
" transform="scale(0.015625)"/>
       <path id="DejaVuSans-64" d="M 2906 2969 
L 2906 4863 
L 3481 4863 
L 3481 0 
L 2906 0 
L 2906 525 
Q 2725 213 2448 61 
Q 2172 -91 1784 -91 
Q 1150 -91 751 415 
Q 353 922 353 1747 
Q 353 2572 751 3078 
Q 1150 3584 1784 3584 
Q 2172 3584 2448 3432 
Q 2725 3281 2906 2969 
z
M 947 1747 
Q 947 1113 1208 752 
Q 1469 391 1925 391 
Q 2381 391 2643 752 
Q 2906 1113 2906 1747 
Q 2906 2381 2643 2742 
Q 2381 3103 1925 3103 
Q 1469 3103 1208 2742 
Q 947 2381 947 1747 
z
" transform="scale(0.015625)"/>
       <path id="DejaVuSans-2192" d="M 5050 2147 
L 5050 1866 
L 3822 638 
L 3447 1013 
L 4175 1741 
L 366 1741 
L 366 2272 
L 4175 2272 
L 3447 3000 
L 3822 3375 
L 5050 2147 
z
" transform="scale(0.015625)"/>
      </defs>
      <use xlink:href="#DejaVuSans-49" transform="translate(0 0.015625)"/>
      <use xlink:href="#DejaVuSans-6e" transform="translate(29.492188 0.015625)"/>
      <use xlink:href="#DejaVuSans-63" transform="translate(92.871094 0.015625)"/>
      <use xlink:href="#DejaVuSans-72" transform="translate(147.851562 0.015625)"/>
      <use xlink:href="#DejaVuSans-65" transform="translate(188.964844 0.015625)"/>
      <use xlink:href="#DejaVuSans-61" transform="translate(250.488281 0.015625)"/>
      <use xlink:href="#DejaVuSans-73" transform="translate(311.767578 0.015625)"/>
      <use xlink:href="#DejaVuSans-69" transform="translate(363.867188 0.015625)"/>
      <use xlink:href="#DejaVuSans-6e" transform="translate(391.650391 0.015625)"/>
      <use xlink:href="#DejaVuSans-67" transform="translate(455.029297 0.015625)"/>
      <use xlink:href="#DejaVuSans-20" transform="translate(518.505859 0.015625)"/>
      <use xlink:href="#DejaVuSans-4d" transform="translate(550.292969 0.015625)"/>
      <use xlink:href="#DejaVuSans-61" transform="translate(636.572266 0.015625)"/>
      <use xlink:href="#DejaVuSans-67" transform="translate(697.851562 0.015625)"/>
      <use xlink:href="#DejaVuSans-6e" transform="translate(761.328125 0.015625)"/>
      <use xlink:href="#DejaVuSans-65" transform="translate(824.707031 0.015625)"/>
      <use xlink:href="#DejaVuSans-74" transform="translate(886.230469 0.015625)"/>
      <use xlink:href="#DejaVuSans-69" transform="translate(925.439453 0.015625)"/>
      <use xlink:href="#DejaVuSans-63" transform="translate(953.222656 0.015625)"/>
      <use xlink:href="#DejaVuSans-20" transform="translate(1008.203125 0.015625)"/>
      <use xlink:href="#DejaVuSans-46" transform="translate(1039.990234 0.015625)"/>
      <use xlink:href="#DejaVuSans-69" transform="translate(1097.509766 0.015625)"/>
      <use xlink:href="#DejaVuSans-65" transform="translate(1125.292969 0.015625)"/>
      <use xlink:href="#DejaVuSans-6c" transform="translate(1186.816406 0.015625)"/>
      <use xlink:href="#DejaVuSans-64" transform="translate(1214.599609 0.015625)"/>
      <use xlink:href="#DejaVuSans-20" transform="translate(1278.076172 0.015625)"/>
      <use xlink:href="#DejaVuSans-2192" transform="translate(1329.345703 0.015625)"/>
     </g>
    </g>
   </g>
   <g id="matplotlib.axis_2">
    <g id="ytick_1">
     <g id="line2d_1">
      <defs>
       <path id="m2158b349f3" d="M 0 0 
L -3.5 0 
" style="stroke: #000000; stroke-width: 0.8"/>
      </defs>
      <g>
       <use xlink:href="#m2158b349f3" x="43.78125" y="165.96" style="stroke: #000000; stroke-width: 0.8"/>
      </g>
     </g>
     <g id="text_2">
      <!-- 0.0 -->
      <g transform="translate(20.878125 169.759219) scale(0.1 -0.1)">
       <defs>
        <path id="DejaVuSans-30" d="M 2034 4250 
Q 1547 4250 1301 3770 
Q 1056 3291 1056 2328 
Q 1056 1369 1301 889 
Q 1547 409 2034 409 
Q 2525 409 2770 889 
Q 3016 1369 3016 2328 
Q 3016 3291 2770 3770 
Q 2525 4250 2034 4250 
z
M 2034 4750 
Q 2819 4750 3233 4129 
Q 3647 3509 3647 2328 
Q 3647 1150 3233 529 
Q 2819 -91 2034 -91 
Q 1250 -91 836 529 
Q 422 1150 422 2328 
Q 422 3509 836 4129 
Q 1250 4750 2034 4750 
z
" transform="scale(0.015625)"/>
        <path id="DejaVuSans-2e" d="M 684 794 
L 1344 794 
L 1344 0 
L 684 0 
L 684 794 
z
" transform="scale(0.015625)"/>
       </defs>
       <use xlink:href="#DejaVuSans-30"/>
       <use xlink:href="#DejaVuSans-2e" x="63.623047"/>
       <use xlink:href="#DejaVuSans-30" x="95.410156"/>
      </g>
     </g>
    </g>
    <g id="ytick_2">
     <g id="line2d_2">
      <g>
       <use xlink:href="#m2158b349f3" x="43.78125" y="135.72" style="stroke: #000000; stroke-width: 0.8"/>
      </g>
     </g>
     <g id="text_3">
      <!-- 0.2 -->
      <g transform="translate(20.878125 139.519219) scale(0.1 -0.1)">
       <defs>
        <path id="DejaVuSans-32" d="M 1228 531 
L 3431 531 
L 3431 0 
L 469 0 
L 469 531 
Q 828 903 1448 1529 
Q 2069 2156 2228 2338 
Q 2531 2678 2651 2914 
Q 2772 3150 2772 3378 
Q 2772 3750 2511 3984 
Q 2250 4219 1831 4219 
Q 1534 4219 1204 4116 
Q 875 4013 500 3803 
L 500 4441 
Q 881 4594 1212 4672 
Q 1544 4750 1819 4750 
Q 2544 4750 2975 4387 
Q 3406 4025 3406 3419 
Q 3406 3131 3298 2873 
Q 3191 2616 2906 2266 
Q 2828 2175 2409 1742 
Q 1991 1309 1228 531 
z
" transform="scale(0.015625)"/>
       </defs>
       <use xlink:href="#DejaVuSans-30"/>
       <use xlink:href="#DejaVuSans-2e" x="63.623047"/>
       <use xlink:href="#DejaVuSans-32" x="95.410156"/>
      </g>
     </g>
    </g>
    <g id="ytick_3">
     <g id="line2d_3">
      <g>
       <use xlink:href="#m2158b349f3" x="43.78125" y="105.48" style="stroke: #000000; stroke-width: 0.8"/>
      </g>
     </g>
     <g id="text_4">
      <!-- 0.4 -->
      <g transform="translate(20.878125 109.279219) scale(0.1 -0.1)">
       <defs>
        <path id="DejaVuSans-34" d="M 2419 4116 
L 825 1625 
L 2419 1625 
L 2419 4116 
z
M 2253 4666 
L 3047 4666 
L 3047 1625 
L 3713 1625 
L 3713 1100 
L 3047 1100 
L 3047 0 
L 2419 0 
L 2419 1100 
L 313 1100 
L 313 1709 
L 2253 4666 
z
" transform="scale(0.015625)"/>
       </defs>
       <use xlink:href="#DejaVuSans-30"/>
       <use xlink:href="#DejaVuSans-2e" x="63.623047"/>
       <use xlink:href="#DejaVuSans-34" x="95.410156"/>
      </g>
     </g>
    </g>
    <g id="ytick_4">
     <g id="line2d_4">
      <g>
       <use xlink:href="#m2158b349f3" x="43.78125" y="75.24" style="stroke: #000000; stroke-width: 0.8"/>
      </g>
     </g>
     <g id="text_5">
      <!-- 0.6 -->
      <g transform="translate(20.878125 79.039219) scale(0.1 -0.1)">
       <defs>
        <path id="DejaVuSans-36" d="M 2113 2584 
Q 1688 2584 1439 2293 
Q 1191 2003 1191 1497 
Q 1191 994 1439 701 
Q 1688 409 2113 409 
Q 2538 409 2786 701 
Q 3034 994 3034 1497 
Q 3034 2003 2786 2293 
Q 2538 2584 2113 2584 
z
M 3366 4563 
L 3366 3988 
Q 3128 4100 2886 4159 
Q 2644 4219 2406 4219 
Q 1781 4219 1451 3797 
Q 1122 3375 1075 2522 
Q 1259 2794 1537 2939 
Q 1816 3084 2150 3084 
Q 2853 3084 3261 2657 
Q 3669 2231 3669 1497 
Q 3669 778 3244 343 
Q 2819 -91 2113 -91 
Q 1303 -91 875 529 
Q 447 1150 447 2328 
Q 447 3434 972 4092 
Q 1497 4750 2381 4750 
Q 2619 4750 2861 4703 
Q 3103 4656 3366 4563 
z
" transform="scale(0.015625)"/>
       </defs>
       <use xlink:href="#DejaVuSans-30"/>
       <use xlink:href="#DejaVuSans-2e" x="63.623047"/>
       <use xlink:href="#DejaVuSans-36" x="95.410156"/>
      </g>
     </g>
    </g>
    <g id="ytick_5">
     <g id="line2d_5">
      <g>
       <use xlink:href="#m2158b349f3" x="43.78125" y="45" style="stroke: #000000; stroke-width: 0.8"/>
      </g>
     </g>
     <g id="text_6">
      <!-- 0.8 -->
      <g transform="translate(20.878125 48.799219) scale(0.1 -0.1)">
       <defs>
        <path id="DejaVuSans-38" d="M 2034 2216 
Q 1584 2216 1326 1975 
Q 1069 1734 1069 1313 
Q 1069 891 1326 650 
Q 1584 409 2034 409 
Q 2484 409 2743 651 
Q 3003 894 3003 1313 
Q 3003 1734 2745 1975 
Q 2488 2216 2034 2216 
z
M 1403 2484 
Q 997 2584 770 2862 
Q 544 3141 544 3541 
Q 544 4100 942 4425 
Q 1341 4750 2034 4750 
Q 2731 4750 3128 4425 
Q 3525 4100 3525 3541 
Q 3525 3141 3298 2862 
Q 3072 2584 2669 2484 
Q 3125 2378 3379 2068 
Q 3634 1759 3634 1313 
Q 3634 634 3220 271 
Q 2806 -91 2034 -91 
Q 1263 -91 848 271 
Q 434 634 434 1313 
Q 434 1759 690 2068 
Q 947 2378 1403 2484 
z
M 1172 3481 
Q 1172 3119 1398 2916 
Q 1625 2713 2034 2713 
Q 2441 2713 2670 2916 
Q 2900 3119 2900 3481 
Q 2900 3844 2670 4047 
Q 2441 4250 2034 4250 
Q 1625 4250 1398 4047 
Q 1172 3844 1172 3481 
z
" transform="scale(0.015625)"/>
       </defs>
       <use xlink:href="#DejaVuSans-30"/>
       <use xlink:href="#DejaVuSans-2e" x="63.623047"/>
       <use xlink:href="#DejaVuSans-38" x="95.410156"/>
      </g>
     </g>
    </g>
    <g id="ytick_6">
     <g id="line2d_6">
      <g>
       <use xlink:href="#m2158b349f3" x="43.78125" y="14.76" style="stroke: #000000; stroke-width: 0.8"/>
      </g>
     </g>
     <g id="text_7">
      <!-- 1.0 -->
      <g transform="translate(20.878125 18.559219) scale(0.1 -0.1)">
       <defs>
        <path id="DejaVuSans-31" d="M 794 531 
L 1825 531 
L 1825 4091 
L 703 3866 
L 703 4441 
L 1819 4666 
L 2450 4666 
L 2450 531 
L 3481 531 
L 3481 0 
L 794 0 
L 794 531 
z
" transform="scale(0.015625)"/>
       </defs>
       <use xlink:href="#DejaVuSans-31"/>
       <use xlink:href="#DejaVuSans-2e" x="63.623047"/>
       <use xlink:href="#DejaVuSans-30" x="95.410156"/>
      </g>
     </g>
    </g>
    <g id="text_8">
     <!-- Relative Intensity -->
     <g transform="translate(14.798438 133.875625) rotate(-90) scale(0.1 -0.1)">
      <defs>
       <path id="DejaVuSans-52" d="M 2841 2188 
Q 3044 2119 3236 1894 
Q 3428 1669 3622 1275 
L 4263 0 
L 3584 0 
L 2988 1197 
Q 2756 1666 2539 1819 
Q 2322 1972 1947 1972 
L 1259 1972 
L 1259 0 
L 628 0 
L 628 4666 
L 2053 4666 
Q 2853 4666 3247 4331 
Q 3641 3997 3641 3322 
Q 3641 2881 3436 2590 
Q 3231 2300 2841 2188 
z
M 1259 4147 
L 1259 2491 
L 2053 2491 
Q 2509 2491 2742 2702 
Q 2975 2913 2975 3322 
Q 2975 3731 2742 3939 
Q 2509 4147 2053 4147 
L 1259 4147 
z
" transform="scale(0.015625)"/>
       <path id="DejaVuSans-76" d="M 191 3500 
L 800 3500 
L 1894 563 
L 2988 3500 
L 3597 3500 
L 2284 0 
L 1503 0 
L 191 3500 
z
" transform="scale(0.015625)"/>
       <path id="DejaVuSans-79" d="M 2059 -325 
Q 1816 -950 1584 -1140 
Q 1353 -1331 966 -1331 
L 506 -1331 
L 506 -850 
L 844 -850 
Q 1081 -850 1212 -737 
Q 1344 -625 1503 -206 
L 1606 56 
L 191 3500 
L 800 3500 
L 1894 763 
L 2988 3500 
L 3597 3500 
L 2059 -325 
z
" transform="scale(0.015625)"/>
      </defs>
      <use xlink:href="#DejaVuSans-52"/>
      <use xlink:href="#DejaVuSans-65" x="64.982422"/>
      <use xlink:href="#DejaVuSans-6c" x="126.505859"/>
      <use xlink:href="#DejaVuSans-61" x="154.289062"/>
      <use xlink:href="#DejaVuSans-74" x="215.568359"/>
      <use xlink:href="#DejaVuSans-69" x="254.777344"/>
      <use xlink:href="#DejaVuSans-76" x="282.560547"/>
      <use xlink:href="#DejaVuSans-65" x="341.740234"/>
      <use xlink:href="#DejaVuSans-20" x="403.263672"/>
      <use xlink:href="#DejaVuSans-49" x="435.050781"/>
      <use xlink:href="#DejaVuSans-6e" x="464.542969"/>
      <use xlink:href="#DejaVuSans-74" x="527.921875"/>
      <use xlink:href="#DejaVuSans-65" x="567.130859"/>
      <use xlink:href="#DejaVuSans-6e" x="628.654297"/>
      <use xlink:href="#DejaVuSans-73" x="692.033203"/>
      <use xlink:href="#DejaVuSans-69" x="744.132812"/>
      <use xlink:href="#DejaVuSans-74" x="771.916016"/>
      <use xlink:href="#DejaVuSans-79" x="811.125"/>
     </g>
    </g>
   </g>
   <g id="line2d_7">
    <path d="M 69.144886 44.304828 
L 71.095935 44.304828 
L 71.746285 45.173793 
L 72.396635 44.304828 
L 75.648383 44.304828 
L 76.298733 45.173793 
L 76.949082 44.304828 
L 77.599432 45.173793 
L 78.249781 44.304828 
L 80.85118 44.304828 
L 81.50153 43.435862 
L 82.151879 43.435862 
L 82.802229 44.304828 
L 83.452579 43.435862 
L 86.053977 43.435862 
L 86.704327 44.304828 
L 87.354677 44.304828 
L 88.005026 43.435862 
L 89.305726 43.435862 
L 89.956075 42.566897 
L 91.256774 42.566897 
L 91.907124 41.697931 
L 93.858173 41.697931 
L 94.508523 40.828966 
L 95.158872 40.828966 
L 95.809222 39.96 
L 96.459572 39.96 
L 97.109921 40.828966 
L 97.760271 39.96 
L 98.410621 39.96 
L 99.06097 40.828966 
L 102.312719 40.828966 
L 102.963068 41.697931 
L 106.214816 41.697931 
L 106.865166 40.828966 
L 108.816215 40.828966 
L 109.466565 39.96 
L 110.116914 40.828966 
L 111.417614 40.828966 
L 112.067963 41.697931 
L 112.718313 40.828966 
L 114.019012 40.828966 
L 114.669362 41.697931 
L 119.221809 41.697931 
L 119.872159 40.828966 
L 120.522509 41.697931 
L 121.172858 40.828966 
L 121.823208 40.828966 
L 122.473558 39.96 
L 124.424607 39.96 
L 125.074956 39.091034 
L 125.725306 39.96 
L 132.879152 39.96 
L 133.529502 39.091034 
L 134.179851 39.96 
L 134.830201 39.091034 
L 135.480551 39.091034 
L 136.1309 38.222069 
L 137.4316 39.96 
L 138.081949 38.222069 
L 138.732299 39.091034 
L 139.382649 39.091034 
L 140.032998 38.222069 
L 140.683348 39.091034 
L 141.984047 37.353103 
L 142.634397 38.222069 
L 143.935096 38.222069 
L 144.585446 37.353103 
L 145.235795 38.222069 
L 146.536495 38.222069 
L 147.186844 37.353103 
L 147.837194 37.353103 
L 148.487544 38.222069 
L 149.137893 38.222069 
L 149.788243 37.353103 
L 150.438593 38.222069 
L 151.739292 36.484138 
L 152.389642 37.353103 
L 153.039991 36.484138 
L 156.942089 36.484138 
L 157.592439 35.615172 
L 158.893138 35.615172 
L 159.543488 34.746207 
L 160.193837 34.746207 
L 160.844187 33.877241 
L 162.795236 33.877241 
L 163.445586 34.746207 
L 164.095935 33.877241 
L 166.697334 33.877241 
L 167.347684 36.484138 
L 168.648383 33.008276 
L 171.900131 33.008276 
L 172.550481 31.270345 
L 173.20083 33.008276 
L 173.85118 31.270345 
L 174.50153 31.270345 
L 175.151879 30.401379 
L 175.802229 31.270345 
L 176.452579 30.401379 
L 177.102928 31.270345 
L 177.753278 30.401379 
L 184.256774 30.401379 
L 184.907124 28.663448 
L 185.557474 29.532414 
L 186.207823 28.663448 
L 187.508523 28.663448 
L 188.158872 27.794483 
L 188.809222 28.663448 
L 189.459572 27.794483 
L 190.109921 28.663448 
L 190.760271 28.663448 
L 192.06097 26.925517 
L 192.71132 27.794483 
L 195.312719 27.794483 
L 195.963068 26.925517 
L 197.914117 26.925517 
L 198.564467 26.056552 
L 201.816215 26.056552 
L 202.466565 25.187586 
L 203.116914 26.056552 
L 203.767264 25.187586 
L 212.221809 25.187586 
L 214.172858 30.401379 
L 214.823208 31.270345 
L 216.123907 36.484138 
L 216.774257 39.96 
L 217.424607 42.566897 
L 218.074956 40.828966 
L 218.725306 44.304828 
L 219.375656 46.042759 
L 220.026005 46.911724 
L 220.676355 46.911724 
L 221.977054 45.173793 
L 223.277753 41.697931 
L 223.928103 37.353103 
L 225.879152 29.532414 
L 226.529502 28.663448 
L 227.179851 26.056552 
L 227.830201 25.187586 
L 228.480551 25.187586 
L 229.1309 24.318621 
L 229.78125 22.58069 
L 230.4316 21.711724 
L 231.732299 21.711724 
L 232.382649 20.842759 
L 233.683348 20.842759 
L 234.333698 21.711724 
L 234.984047 20.842759 
L 236.935096 20.842759 
L 237.585446 19.973793 
L 239.536495 19.973793 
L 240.186844 19.104828 
L 240.837194 19.104828 
L 241.487544 18.235862 
L 242.788243 18.235862 
L 244.088942 16.497931 
L 248.64139 16.497931 
L 249.942089 14.76 
L 250.592439 15.628966 
L 251.893138 15.628966 
L 252.543488 16.497931 
L 253.844187 16.497931 
L 254.494537 15.628966 
L 264.900131 15.628966 
L 265.550481 16.497931 
L 266.20083 15.628966 
L 266.85118 16.497931 
L 267.50153 15.628966 
L 268.151879 16.497931 
L 268.802229 16.497931 
L 269.452579 17.366897 
L 270.102928 16.497931 
L 271.403628 18.235862 
L 272.704327 16.497931 
L 273.354677 16.497931 
L 274.655376 18.235862 
L 275.305726 17.366897 
L 275.956075 18.235862 
L 276.606425 17.366897 
L 277.256774 17.366897 
L 279.207823 19.973793 
L 279.858173 19.973793 
L 280.508523 20.842759 
L 281.809222 20.842759 
L 282.459572 21.711724 
L 283.109921 21.711724 
L 283.760271 24.318621 
L 284.410621 24.318621 
L 285.06097 25.187586 
L 285.71132 27.794483 
L 286.36167 28.663448 
L 287.012019 33.008276 
L 287.662369 36.484138 
L 288.312719 39.091034 
L 288.963068 43.435862 
L 290.263767 52.994483 
L 291.564467 59.946207 
L 292.214816 61.684138 
L 292.865166 62.553103 
L 294.165865 60.815172 
L 294.816215 58.208276 
L 296.767264 45.173793 
L 298.718313 34.746207 
L 299.368663 33.008276 
L 300.019012 28.663448 
L 301.319712 26.925517 
L 301.970061 26.925517 
L 303.27076 25.187586 
L 304.57146 25.187586 
L 305.872159 23.449655 
L 306.522509 23.449655 
L 307.172858 22.58069 
L 307.823208 22.58069 
L 308.473558 21.711724 
L 309.123907 22.58069 
L 310.424607 22.58069 
L 311.074956 21.711724 
L 311.725306 22.58069 
L 312.375656 21.711724 
L 313.026005 22.58069 
L 313.676355 22.58069 
L 314.326705 21.711724 
L 314.977054 21.711724 
L 315.627404 22.58069 
L 316.277753 21.711724 
L 318.879152 21.711724 
L 319.529502 22.58069 
L 321.480551 22.58069 
L 322.1309 21.711724 
L 322.78125 22.58069 
L 323.4316 21.711724 
L 324.081949 22.58069 
L 324.732299 22.58069 
L 325.382649 21.711724 
L 326.032998 23.449655 
L 326.683348 22.58069 
L 327.333698 23.449655 
L 327.984047 23.449655 
L 328.634397 24.318621 
L 329.284747 24.318621 
L 329.935096 23.449655 
L 330.585446 24.318621 
L 331.235795 23.449655 
L 331.886145 25.187586 
L 332.536495 25.187586 
L 333.186844 24.318621 
L 333.837194 24.318621 
L 334.487544 23.449655 
L 335.137893 23.449655 
L 335.788243 22.58069 
L 337.739292 22.58069 
L 338.389642 21.711724 
L 339.039991 22.58069 
L 341.64139 22.58069 
L 342.29174 23.449655 
L 342.942089 22.58069 
L 343.592439 23.449655 
L 346.844187 23.449655 
L 347.494537 24.318621 
L 348.144886 24.318621 
L 348.795236 25.187586 
L 349.445586 24.318621 
L 350.095935 25.187586 
L 351.396635 25.187586 
L 352.046984 26.056552 
L 352.697334 26.056552 
L 353.998033 27.794483 
L 356.599432 34.746207 
L 357.249781 38.222069 
L 357.900131 39.96 
L 359.20083 48.649655 
L 361.151879 65.16 
L 361.802229 71.242759 
L 362.452579 79.063448 
L 363.753278 92.097931 
L 364.403628 95.573793 
L 365.053977 98.18069 
L 365.704327 98.18069 
L 366.354677 94.704828 
L 367.655376 83.408276 
L 368.305726 76.456552 
L 368.956075 67.766897 
L 370.256774 53.863448 
L 372.207823 38.222069 
L 372.858173 36.484138 
L 374.158872 31.270345 
L 374.809222 30.401379 
L 375.459572 30.401379 
L 376.109921 28.663448 
L 376.760271 28.663448 
L 377.410621 27.794483 
L 378.71132 27.794483 
L 380.012019 26.056552 
L 382.613418 26.056552 
L 383.263767 25.187586 
L 384.564467 25.187586 
L 385.214816 24.318621 
L 385.865166 24.318621 
L 386.515516 23.449655 
L 387.165865 24.318621 
L 389.116914 24.318621 
L 389.767264 25.187586 
L 390.417614 25.187586 
L 391.067963 24.318621 
L 391.718313 24.318621 
L 392.368663 23.449655 
L 393.019012 24.318621 
L 394.319712 24.318621 
L 394.970061 22.58069 
L 395.620411 23.449655 
L 396.27076 22.58069 
L 396.92111 23.449655 
L 397.57146 23.449655 
L 398.221809 22.58069 
L 398.872159 24.318621 
L 400.172858 26.056552 
L 400.823208 26.056552 
L 401.473558 25.187586 
L 402.774257 25.187586 
L 403.424607 26.056552 
L 404.074956 26.056552 
L 404.725306 26.925517 
L 407.326705 23.449655 
L 408.627404 23.449655 
L 409.277753 22.58069 
L 409.928103 22.58069 
L 410.578453 23.449655 
L 411.879152 23.449655 
L 412.529502 24.318621 
L 413.179851 24.318621 
L 413.830201 23.449655 
L 414.480551 23.449655 
L 415.1309 24.318621 
L 415.78125 23.449655 
L 416.4316 24.318621 
L 419.683348 24.318621 
L 420.333698 25.187586 
L 422.284747 25.187586 
L 422.935096 26.056552 
L 423.585446 26.056552 
L 424.886145 27.794483 
L 426.186844 27.794483 
L 426.837194 29.532414 
L 427.487544 30.401379 
L 428.137893 32.13931 
L 428.788243 34.746207 
L 429.438593 35.615172 
L 430.088942 39.96 
L 430.739292 43.435862 
L 432.039991 57.33931 
L 432.690341 66.897931 
L 433.340691 80.801379 
L 433.99104 91.228966 
L 434.64139 92.966897 
L 435.29174 103.394483 
L 435.942089 116.428966 
L 436.592439 134.677241 
L 437.893138 156.401379 
L 438.543488 163.353103 
L 439.193837 165.96 
L 439.844187 164.222069 
L 440.494537 159.877241 
L 442.445586 122.511724 
L 443.095935 103.394483 
L 444.396635 73.849655 
L 445.046984 61.684138 
L 446.347684 46.911724 
L 446.998033 42.566897 
L 447.648383 39.96 
L 448.298733 35.615172 
L 449.599432 32.13931 
L 450.900131 30.401379 
L 451.550481 28.663448 
L 452.20083 28.663448 
L 454.151879 26.056552 
L 454.802229 26.056552 
L 456.102928 24.318621 
L 456.753278 24.318621 
L 457.403628 23.449655 
L 458.053977 23.449655 
L 458.704327 24.318621 
L 459.354677 23.449655 
L 460.005026 23.449655 
L 460.655376 24.318621 
L 461.305726 24.318621 
L 461.956075 23.449655 
L 463.256774 23.449655 
L 463.907124 22.58069 
L 466.508523 22.58069 
L 467.158872 23.449655 
L 470.410621 23.449655 
L 471.06097 22.58069 
L 471.71132 22.58069 
L 472.36167 23.449655 
L 473.012019 22.58069 
L 474.312719 22.58069 
L 474.963068 21.711724 
L 475.613418 21.711724 
L 476.263767 20.842759 
L 478.865166 20.842759 
L 479.515516 21.711724 
L 480.165865 20.842759 
L 482.116914 20.842759 
L 482.767264 19.973793 
L 483.417614 19.973793 
L 484.067963 19.104828 
L 484.718313 19.973793 
L 485.368663 19.973793 
L 486.019012 19.104828 
L 486.669362 19.973793 
L 487.970061 18.235862 
L 488.620411 19.104828 
L 489.92111 19.104828 
L 490.57146 19.973793 
L 491.221809 19.973793 
L 491.872159 19.104828 
L 493.172858 19.104828 
L 493.823208 18.235862 
L 494.473558 19.104828 
L 496.424607 19.104828 
L 497.074956 19.973793 
L 499.676355 19.973793 
L 500.326705 19.104828 
L 501.627404 19.104828 
L 502.277753 19.973793 
L 502.928103 19.104828 
L 503.578453 19.973793 
L 504.228802 19.104828 
L 512.683348 19.104828 
L 513.333698 18.235862 
L 515.935096 18.235862 
L 516.585446 17.366897 
L 517.235795 18.235862 
L 518.536495 16.497931 
L 519.837194 18.235862 
L 520.487544 16.497931 
L 521.137893 17.366897 
L 522.438593 17.366897 
L 523.088942 16.497931 
L 523.739292 17.366897 
L 524.389642 17.366897 
L 525.039991 18.235862 
L 525.690341 17.366897 
L 526.340691 18.235862 
L 526.99104 18.235862 
L 527.64139 17.366897 
L 528.29174 17.366897 
L 528.942089 18.235862 
L 533.494537 18.235862 
L 534.144886 17.366897 
L 538.046984 17.366897 
L 538.697334 18.235862 
L 539.347684 17.366897 
L 539.998033 17.366897 
L 540.648383 16.497931 
L 541.298733 17.366897 
L 541.949082 16.497931 
L 542.599432 17.366897 
L 543.249781 17.366897 
L 543.900131 18.235862 
L 545.20083 16.497931 
L 548.452579 16.497931 
L 549.102928 15.628966 
L 549.753278 16.497931 
L 550.403628 15.628966 
L 551.053977 15.628966 
L 551.704327 16.497931 
L 554.956075 16.497931 
L 556.256774 14.76 
L 560.158872 14.76 
L 560.809222 16.497931 
L 561.459572 15.628966 
L 563.410621 15.628966 
L 564.06097 16.497931 
L 564.71132 15.628966 
L 565.36167 15.628966 
L 566.012019 16.497931 
L 566.662369 16.497931 
L 567.312719 15.628966 
L 567.963068 16.497931 
L 573.165865 16.497931 
L 573.816215 17.366897 
L 574.466565 16.497931 
L 576.417614 16.497931 
L 576.417614 16.497931 
" clip-path="url(#p6d50e2bdb2)" style="fill: none; stroke: #1f77b4; stroke-width: 1.5; stroke-linecap: square"/>
   </g>
   <g id="patch_3">
    <path d="M 43.78125 173.52 
L 43.78125 7.2 
" style="fill: none; stroke: #000000; stroke-width: 0.8; stroke-linejoin: miter; stroke-linecap: square"/>
   </g>
   <g id="patch_4">
    <path d="M 601.78125 173.52 
L 601.78125 7.2 
" style="fill: none; stroke: #000000; stroke-width: 0.8; stroke-linejoin: miter; stroke-linecap: square"/>
   </g>
   <g id="patch_5">
    <path d="M 43.78125 173.52 
L 601.78125 173.52 
" style="fill: none; stroke: #000000; stroke-width: 0.8; stroke-linejoin: miter; stroke-linecap: square"/>
   </g>
   <g id="patch_6">
    <path d="M 43.78125 7.2 
L 601.78125 7.2 
" style="fill: none; stroke: #000000; stroke-width: 0.8; stroke-linejoin: miter; stroke-linecap: square"/>
   </g>
  </g>
 </g>
 <defs>
  <clipPath id="p6d50e2bdb2">
   <rect x="43.78125" y="7.2" width="558" height="166.32"/>
  </clipPath>
 </defs>
</svg>
