<?xml version="1.0" encoding="utf-8" standalone="no"?>
<!DOCTYPE svg PUBLIC "-//W3C//DTD SVG 1.1//EN"
  "http://www.w3.org/Graphics/SVG/1.1/DTD/svg11.dtd">
<svg xmlns:xlink="http://www.w3.org/1999/xlink" width="622.9pt" height="377.39625pt" viewBox="0 0 622.9 377.39625" xmlns="http://www.w3.org/2000/svg" version="1.1">
 <metadata>
  <rdf:RDF xmlns:dc="http://purl.org/dc/elements/1.1/" xmlns:cc="http://creativecommons.org/ns#" xmlns:rdf="http://www.w3.org/1999/02/22-rdf-syntax-ns#">
   <cc:Work>
    <dc:type rdf:resource="http://purl.org/dc/dcmitype/StillImage"/>
    <dc:date>2025-02-04T23:41:13.486111</dc:date>
    <dc:format>image/svg+xml</dc:format>
    <dc:creator>
     <cc:Agent>
      <dc:title>Matplotlib v3.9.2, https://matplotlib.org/</dc:title>
     </cc:Agent>
    </dc:creator>
   </cc:Work>
  </rdf:RDF>
 </metadata>
 <defs>
  <style type="text/css">*{stroke-linejoin: round; stroke-linecap: butt}</style>
 </defs>
 <g id="figure_1">
  <g id="patch_1">
   <path d="M 0 377.39625 
L 622.9 377.39625 
L 622.9 0 
L 0 0 
z
" style="fill: #ffffff"/>
  </g>
  <g id="axes_1">
   <g id="patch_2">
    <path d="M 57.7 339.84 
L 615.7 339.84 
L 615.7 7.2 
L 57.7 7.2 
z
" style="fill: #ffffff"/>
   </g>
   <g id="matplotlib.axis_1">
    <g id="xtick_1">
     <g id="line2d_1">
      <defs>
       <path id="m6add9e85d8" d="M 0 0 
L 0 3.5 
" style="stroke: #000000; stroke-width: 0.8"/>
      </defs>
      <g>
       <use xlink:href="#m6add9e85d8" x="119.712668" y="339.84" style="stroke: #000000; stroke-width: 0.8"/>
      </g>
     </g>
     <g id="text_1">
      <!-- $\mathdefault{10^{1}}$ -->
      <g transform="translate(110.912668 354.438437) scale(0.1 -0.1)">
       <defs>
        <path id="DejaVuSans-31" d="M 794 531 
L 1825 531 
L 1825 4091 
L 703 3866 
L 703 4441 
L 1819 4666 
L 2450 4666 
L 2450 531 
L 3481 531 
L 3481 0 
L 794 0 
L 794 531 
z
" transform="scale(0.015625)"/>
        <path id="DejaVuSans-30" d="M 2034 4250 
Q 1547 4250 1301 3770 
Q 1056 3291 1056 2328 
Q 1056 1369 1301 889 
Q 1547 409 2034 409 
Q 2525 409 2770 889 
Q 3016 1369 3016 2328 
Q 3016 3291 2770 3770 
Q 2525 4250 2034 4250 
z
M 2034 4750 
Q 2819 4750 3233 4129 
Q 3647 3509 3647 2328 
Q 3647 1150 3233 529 
Q 2819 -91 2034 -91 
Q 1250 -91 836 529 
Q 422 1150 422 2328 
Q 422 3509 836 4129 
Q 1250 4750 2034 4750 
z
" transform="scale(0.015625)"/>
       </defs>
       <use xlink:href="#DejaVuSans-31" transform="translate(0 0.684375)"/>
       <use xlink:href="#DejaVuSans-30" transform="translate(63.623047 0.684375)"/>
       <use xlink:href="#DejaVuSans-31" transform="translate(128.203125 38.965625) scale(0.7)"/>
      </g>
     </g>
    </g>
    <g id="xtick_2">
     <g id="line2d_2">
      <g>
       <use xlink:href="#m6add9e85d8" x="241.458116" y="339.84" style="stroke: #000000; stroke-width: 0.8"/>
      </g>
     </g>
     <g id="text_2">
      <!-- $\mathdefault{10^{2}}$ -->
      <g transform="translate(232.658116 354.438437) scale(0.1 -0.1)">
       <defs>
        <path id="DejaVuSans-32" d="M 1228 531 
L 3431 531 
L 3431 0 
L 469 0 
L 469 531 
Q 828 903 1448 1529 
Q 2069 2156 2228 2338 
Q 2531 2678 2651 2914 
Q 2772 3150 2772 3378 
Q 2772 3750 2511 3984 
Q 2250 4219 1831 4219 
Q 1534 4219 1204 4116 
Q 875 4013 500 3803 
L 500 4441 
Q 881 4594 1212 4672 
Q 1544 4750 1819 4750 
Q 2544 4750 2975 4387 
Q 3406 4025 3406 3419 
Q 3406 3131 3298 2873 
Q 3191 2616 2906 2266 
Q 2828 2175 2409 1742 
Q 1991 1309 1228 531 
z
" transform="scale(0.015625)"/>
       </defs>
       <use xlink:href="#DejaVuSans-31" transform="translate(0 0.765625)"/>
       <use xlink:href="#DejaVuSans-30" transform="translate(63.623047 0.765625)"/>
       <use xlink:href="#DejaVuSans-32" transform="translate(128.203125 39.046875) scale(0.7)"/>
      </g>
     </g>
    </g>
    <g id="xtick_3">
     <g id="line2d_3">
      <g>
       <use xlink:href="#m6add9e85d8" x="363.203565" y="339.84" style="stroke: #000000; stroke-width: 0.8"/>
      </g>
     </g>
     <g id="text_3">
      <!-- $\mathdefault{10^{3}}$ -->
      <g transform="translate(354.403565 354.438437) scale(0.1 -0.1)">
       <defs>
        <path id="DejaVuSans-33" d="M 2597 2516 
Q 3050 2419 3304 2112 
Q 3559 1806 3559 1356 
Q 3559 666 3084 287 
Q 2609 -91 1734 -91 
Q 1441 -91 1130 -33 
Q 819 25 488 141 
L 488 750 
Q 750 597 1062 519 
Q 1375 441 1716 441 
Q 2309 441 2620 675 
Q 2931 909 2931 1356 
Q 2931 1769 2642 2001 
Q 2353 2234 1838 2234 
L 1294 2234 
L 1294 2753 
L 1863 2753 
Q 2328 2753 2575 2939 
Q 2822 3125 2822 3475 
Q 2822 3834 2567 4026 
Q 2313 4219 1838 4219 
Q 1578 4219 1281 4162 
Q 984 4106 628 3988 
L 628 4550 
Q 988 4650 1302 4700 
Q 1616 4750 1894 4750 
Q 2613 4750 3031 4423 
Q 3450 4097 3450 3541 
Q 3450 3153 3228 2886 
Q 3006 2619 2597 2516 
z
" transform="scale(0.015625)"/>
       </defs>
       <use xlink:href="#DejaVuSans-31" transform="translate(0 0.765625)"/>
       <use xlink:href="#DejaVuSans-30" transform="translate(63.623047 0.765625)"/>
       <use xlink:href="#DejaVuSans-33" transform="translate(128.203125 39.046875) scale(0.7)"/>
      </g>
     </g>
    </g>
    <g id="xtick_4">
     <g id="line2d_4">
      <g>
       <use xlink:href="#m6add9e85d8" x="484.949013" y="339.84" style="stroke: #000000; stroke-width: 0.8"/>
      </g>
     </g>
     <g id="text_4">
      <!-- $\mathdefault{10^{4}}$ -->
      <g transform="translate(476.149013 354.438437) scale(0.1 -0.1)">
       <defs>
        <path id="DejaVuSans-34" d="M 2419 4116 
L 825 1625 
L 2419 1625 
L 2419 4116 
z
M 2253 4666 
L 3047 4666 
L 3047 1625 
L 3713 1625 
L 3713 1100 
L 3047 1100 
L 3047 0 
L 2419 0 
L 2419 1100 
L 313 1100 
L 313 1709 
L 2253 4666 
z
" transform="scale(0.015625)"/>
       </defs>
       <use xlink:href="#DejaVuSans-31" transform="translate(0 0.684375)"/>
       <use xlink:href="#DejaVuSans-30" transform="translate(63.623047 0.684375)"/>
       <use xlink:href="#DejaVuSans-34" transform="translate(128.203125 38.965625) scale(0.7)"/>
      </g>
     </g>
    </g>
    <g id="xtick_5">
     <g id="line2d_5">
      <g>
       <use xlink:href="#m6add9e85d8" x="606.694461" y="339.84" style="stroke: #000000; stroke-width: 0.8"/>
      </g>
     </g>
     <g id="text_5">
      <!-- $\mathdefault{10^{5}}$ -->
      <g transform="translate(597.894461 354.438437) scale(0.1 -0.1)">
       <defs>
        <path id="DejaVuSans-35" d="M 691 4666 
L 3169 4666 
L 3169 4134 
L 1269 4134 
L 1269 2991 
Q 1406 3038 1543 3061 
Q 1681 3084 1819 3084 
Q 2600 3084 3056 2656 
Q 3513 2228 3513 1497 
Q 3513 744 3044 326 
Q 2575 -91 1722 -91 
Q 1428 -91 1123 -41 
Q 819 9 494 109 
L 494 744 
Q 775 591 1075 516 
Q 1375 441 1709 441 
Q 2250 441 2565 725 
Q 2881 1009 2881 1497 
Q 2881 1984 2565 2268 
Q 2250 2553 1709 2553 
Q 1456 2553 1204 2497 
Q 953 2441 691 2322 
L 691 4666 
z
" transform="scale(0.015625)"/>
       </defs>
       <use xlink:href="#DejaVuSans-31" transform="translate(0 0.684375)"/>
       <use xlink:href="#DejaVuSans-30" transform="translate(63.623047 0.684375)"/>
       <use xlink:href="#DejaVuSans-35" transform="translate(128.203125 38.965625) scale(0.7)"/>
      </g>
     </g>
    </g>
    <g id="xtick_6">
     <g id="line2d_6">
      <defs>
       <path id="m11f1f1e75a" d="M 0 0 
L 0 2 
" style="stroke: #000000; stroke-width: 0.6"/>
      </defs>
      <g>
       <use xlink:href="#m11f1f1e75a" x="71.265283" y="339.84" style="stroke: #000000; stroke-width: 0.6"/>
      </g>
     </g>
    </g>
    <g id="xtick_7">
     <g id="line2d_7">
      <g>
       <use xlink:href="#m11f1f1e75a" x="83.063636" y="339.84" style="stroke: #000000; stroke-width: 0.6"/>
      </g>
     </g>
    </g>
    <g id="xtick_8">
     <g id="line2d_8">
      <g>
       <use xlink:href="#m11f1f1e75a" x="92.703593" y="339.84" style="stroke: #000000; stroke-width: 0.6"/>
      </g>
     </g>
    </g>
    <g id="xtick_9">
     <g id="line2d_9">
      <g>
       <use xlink:href="#m11f1f1e75a" x="100.85406" y="339.84" style="stroke: #000000; stroke-width: 0.6"/>
      </g>
     </g>
    </g>
    <g id="xtick_10">
     <g id="line2d_10">
      <g>
       <use xlink:href="#m11f1f1e75a" x="107.914315" y="339.84" style="stroke: #000000; stroke-width: 0.6"/>
      </g>
     </g>
    </g>
    <g id="xtick_11">
     <g id="line2d_11">
      <g>
       <use xlink:href="#m11f1f1e75a" x="114.141902" y="339.84" style="stroke: #000000; stroke-width: 0.6"/>
      </g>
     </g>
    </g>
    <g id="xtick_12">
     <g id="line2d_12">
      <g>
       <use xlink:href="#m11f1f1e75a" x="156.3617" y="339.84" style="stroke: #000000; stroke-width: 0.6"/>
      </g>
     </g>
    </g>
    <g id="xtick_13">
     <g id="line2d_13">
      <g>
       <use xlink:href="#m11f1f1e75a" x="177.800009" y="339.84" style="stroke: #000000; stroke-width: 0.6"/>
      </g>
     </g>
    </g>
    <g id="xtick_14">
     <g id="line2d_14">
      <g>
       <use xlink:href="#m11f1f1e75a" x="193.010732" y="339.84" style="stroke: #000000; stroke-width: 0.6"/>
      </g>
     </g>
    </g>
    <g id="xtick_15">
     <g id="line2d_15">
      <g>
       <use xlink:href="#m11f1f1e75a" x="204.809085" y="339.84" style="stroke: #000000; stroke-width: 0.6"/>
      </g>
     </g>
    </g>
    <g id="xtick_16">
     <g id="line2d_16">
      <g>
       <use xlink:href="#m11f1f1e75a" x="214.449041" y="339.84" style="stroke: #000000; stroke-width: 0.6"/>
      </g>
     </g>
    </g>
    <g id="xtick_17">
     <g id="line2d_17">
      <g>
       <use xlink:href="#m11f1f1e75a" x="222.599508" y="339.84" style="stroke: #000000; stroke-width: 0.6"/>
      </g>
     </g>
    </g>
    <g id="xtick_18">
     <g id="line2d_18">
      <g>
       <use xlink:href="#m11f1f1e75a" x="229.659763" y="339.84" style="stroke: #000000; stroke-width: 0.6"/>
      </g>
     </g>
    </g>
    <g id="xtick_19">
     <g id="line2d_19">
      <g>
       <use xlink:href="#m11f1f1e75a" x="235.88735" y="339.84" style="stroke: #000000; stroke-width: 0.6"/>
      </g>
     </g>
    </g>
    <g id="xtick_20">
     <g id="line2d_20">
      <g>
       <use xlink:href="#m11f1f1e75a" x="278.107148" y="339.84" style="stroke: #000000; stroke-width: 0.6"/>
      </g>
     </g>
    </g>
    <g id="xtick_21">
     <g id="line2d_21">
      <g>
       <use xlink:href="#m11f1f1e75a" x="299.545457" y="339.84" style="stroke: #000000; stroke-width: 0.6"/>
      </g>
     </g>
    </g>
    <g id="xtick_22">
     <g id="line2d_22">
      <g>
       <use xlink:href="#m11f1f1e75a" x="314.75618" y="339.84" style="stroke: #000000; stroke-width: 0.6"/>
      </g>
     </g>
    </g>
    <g id="xtick_23">
     <g id="line2d_23">
      <g>
       <use xlink:href="#m11f1f1e75a" x="326.554533" y="339.84" style="stroke: #000000; stroke-width: 0.6"/>
      </g>
     </g>
    </g>
    <g id="xtick_24">
     <g id="line2d_24">
      <g>
       <use xlink:href="#m11f1f1e75a" x="336.194489" y="339.84" style="stroke: #000000; stroke-width: 0.6"/>
      </g>
     </g>
    </g>
    <g id="xtick_25">
     <g id="line2d_25">
      <g>
       <use xlink:href="#m11f1f1e75a" x="344.344956" y="339.84" style="stroke: #000000; stroke-width: 0.6"/>
      </g>
     </g>
    </g>
    <g id="xtick_26">
     <g id="line2d_26">
      <g>
       <use xlink:href="#m11f1f1e75a" x="351.405212" y="339.84" style="stroke: #000000; stroke-width: 0.6"/>
      </g>
     </g>
    </g>
    <g id="xtick_27">
     <g id="line2d_27">
      <g>
       <use xlink:href="#m11f1f1e75a" x="357.632798" y="339.84" style="stroke: #000000; stroke-width: 0.6"/>
      </g>
     </g>
    </g>
    <g id="xtick_28">
     <g id="line2d_28">
      <g>
       <use xlink:href="#m11f1f1e75a" x="399.852596" y="339.84" style="stroke: #000000; stroke-width: 0.6"/>
      </g>
     </g>
    </g>
    <g id="xtick_29">
     <g id="line2d_29">
      <g>
       <use xlink:href="#m11f1f1e75a" x="421.290906" y="339.84" style="stroke: #000000; stroke-width: 0.6"/>
      </g>
     </g>
    </g>
    <g id="xtick_30">
     <g id="line2d_30">
      <g>
       <use xlink:href="#m11f1f1e75a" x="436.501628" y="339.84" style="stroke: #000000; stroke-width: 0.6"/>
      </g>
     </g>
    </g>
    <g id="xtick_31">
     <g id="line2d_31">
      <g>
       <use xlink:href="#m11f1f1e75a" x="448.299981" y="339.84" style="stroke: #000000; stroke-width: 0.6"/>
      </g>
     </g>
    </g>
    <g id="xtick_32">
     <g id="line2d_32">
      <g>
       <use xlink:href="#m11f1f1e75a" x="457.939937" y="339.84" style="stroke: #000000; stroke-width: 0.6"/>
      </g>
     </g>
    </g>
    <g id="xtick_33">
     <g id="line2d_33">
      <g>
       <use xlink:href="#m11f1f1e75a" x="466.090404" y="339.84" style="stroke: #000000; stroke-width: 0.6"/>
      </g>
     </g>
    </g>
    <g id="xtick_34">
     <g id="line2d_34">
      <g>
       <use xlink:href="#m11f1f1e75a" x="473.15066" y="339.84" style="stroke: #000000; stroke-width: 0.6"/>
      </g>
     </g>
    </g>
    <g id="xtick_35">
     <g id="line2d_35">
      <g>
       <use xlink:href="#m11f1f1e75a" x="479.378247" y="339.84" style="stroke: #000000; stroke-width: 0.6"/>
      </g>
     </g>
    </g>
    <g id="xtick_36">
     <g id="line2d_36">
      <g>
       <use xlink:href="#m11f1f1e75a" x="521.598045" y="339.84" style="stroke: #000000; stroke-width: 0.6"/>
      </g>
     </g>
    </g>
    <g id="xtick_37">
     <g id="line2d_37">
      <g>
       <use xlink:href="#m11f1f1e75a" x="543.036354" y="339.84" style="stroke: #000000; stroke-width: 0.6"/>
      </g>
     </g>
    </g>
    <g id="xtick_38">
     <g id="line2d_38">
      <g>
       <use xlink:href="#m11f1f1e75a" x="558.247076" y="339.84" style="stroke: #000000; stroke-width: 0.6"/>
      </g>
     </g>
    </g>
    <g id="xtick_39">
     <g id="line2d_39">
      <g>
       <use xlink:href="#m11f1f1e75a" x="570.045429" y="339.84" style="stroke: #000000; stroke-width: 0.6"/>
      </g>
     </g>
    </g>
    <g id="xtick_40">
     <g id="line2d_40">
      <g>
       <use xlink:href="#m11f1f1e75a" x="579.685386" y="339.84" style="stroke: #000000; stroke-width: 0.6"/>
      </g>
     </g>
    </g>
    <g id="xtick_41">
     <g id="line2d_41">
      <g>
       <use xlink:href="#m11f1f1e75a" x="587.835852" y="339.84" style="stroke: #000000; stroke-width: 0.6"/>
      </g>
     </g>
    </g>
    <g id="xtick_42">
     <g id="line2d_42">
      <g>
       <use xlink:href="#m11f1f1e75a" x="594.896108" y="339.84" style="stroke: #000000; stroke-width: 0.6"/>
      </g>
     </g>
    </g>
    <g id="xtick_43">
     <g id="line2d_43">
      <g>
       <use xlink:href="#m11f1f1e75a" x="601.123695" y="339.84" style="stroke: #000000; stroke-width: 0.6"/>
      </g>
     </g>
    </g>
    <g id="text_6">
     <!-- Frequency (Hz) -->
     <g transform="translate(298.995313 368.116562) scale(0.1 -0.1)">
      <defs>
       <path id="DejaVuSans-46" d="M 628 4666 
L 3309 4666 
L 3309 4134 
L 1259 4134 
L 1259 2759 
L 3109 2759 
L 3109 2228 
L 1259 2228 
L 1259 0 
L 628 0 
L 628 4666 
z
" transform="scale(0.015625)"/>
       <path id="DejaVuSans-72" d="M 2631 2963 
Q 2534 3019 2420 3045 
Q 2306 3072 2169 3072 
Q 1681 3072 1420 2755 
Q 1159 2438 1159 1844 
L 1159 0 
L 581 0 
L 581 3500 
L 1159 3500 
L 1159 2956 
Q 1341 3275 1631 3429 
Q 1922 3584 2338 3584 
Q 2397 3584 2469 3576 
Q 2541 3569 2628 3553 
L 2631 2963 
z
" transform="scale(0.015625)"/>
       <path id="DejaVuSans-65" d="M 3597 1894 
L 3597 1613 
L 953 1613 
Q 991 1019 1311 708 
Q 1631 397 2203 397 
Q 2534 397 2845 478 
Q 3156 559 3463 722 
L 3463 178 
Q 3153 47 2828 -22 
Q 2503 -91 2169 -91 
Q 1331 -91 842 396 
Q 353 884 353 1716 
Q 353 2575 817 3079 
Q 1281 3584 2069 3584 
Q 2775 3584 3186 3129 
Q 3597 2675 3597 1894 
z
M 3022 2063 
Q 3016 2534 2758 2815 
Q 2500 3097 2075 3097 
Q 1594 3097 1305 2825 
Q 1016 2553 972 2059 
L 3022 2063 
z
" transform="scale(0.015625)"/>
       <path id="DejaVuSans-71" d="M 947 1747 
Q 947 1113 1208 752 
Q 1469 391 1925 391 
Q 2381 391 2643 752 
Q 2906 1113 2906 1747 
Q 2906 2381 2643 2742 
Q 2381 3103 1925 3103 
Q 1469 3103 1208 2742 
Q 947 2381 947 1747 
z
M 2906 525 
Q 2725 213 2448 61 
Q 2172 -91 1784 -91 
Q 1150 -91 751 415 
Q 353 922 353 1747 
Q 353 2572 751 3078 
Q 1150 3584 1784 3584 
Q 2172 3584 2448 3432 
Q 2725 3281 2906 2969 
L 2906 3500 
L 3481 3500 
L 3481 -1331 
L 2906 -1331 
L 2906 525 
z
" transform="scale(0.015625)"/>
       <path id="DejaVuSans-75" d="M 544 1381 
L 544 3500 
L 1119 3500 
L 1119 1403 
Q 1119 906 1312 657 
Q 1506 409 1894 409 
Q 2359 409 2629 706 
Q 2900 1003 2900 1516 
L 2900 3500 
L 3475 3500 
L 3475 0 
L 2900 0 
L 2900 538 
Q 2691 219 2414 64 
Q 2138 -91 1772 -91 
Q 1169 -91 856 284 
Q 544 659 544 1381 
z
M 1991 3584 
L 1991 3584 
z
" transform="scale(0.015625)"/>
       <path id="DejaVuSans-6e" d="M 3513 2113 
L 3513 0 
L 2938 0 
L 2938 2094 
Q 2938 2591 2744 2837 
Q 2550 3084 2163 3084 
Q 1697 3084 1428 2787 
Q 1159 2491 1159 1978 
L 1159 0 
L 581 0 
L 581 3500 
L 1159 3500 
L 1159 2956 
Q 1366 3272 1645 3428 
Q 1925 3584 2291 3584 
Q 2894 3584 3203 3211 
Q 3513 2838 3513 2113 
z
" transform="scale(0.015625)"/>
       <path id="DejaVuSans-63" d="M 3122 3366 
L 3122 2828 
Q 2878 2963 2633 3030 
Q 2388 3097 2138 3097 
Q 1578 3097 1268 2742 
Q 959 2388 959 1747 
Q 959 1106 1268 751 
Q 1578 397 2138 397 
Q 2388 397 2633 464 
Q 2878 531 3122 666 
L 3122 134 
Q 2881 22 2623 -34 
Q 2366 -91 2075 -91 
Q 1284 -91 818 406 
Q 353 903 353 1747 
Q 353 2603 823 3093 
Q 1294 3584 2113 3584 
Q 2378 3584 2631 3529 
Q 2884 3475 3122 3366 
z
" transform="scale(0.015625)"/>
       <path id="DejaVuSans-79" d="M 2059 -325 
Q 1816 -950 1584 -1140 
Q 1353 -1331 966 -1331 
L 506 -1331 
L 506 -850 
L 844 -850 
Q 1081 -850 1212 -737 
Q 1344 -625 1503 -206 
L 1606 56 
L 191 3500 
L 800 3500 
L 1894 763 
L 2988 3500 
L 3597 3500 
L 2059 -325 
z
" transform="scale(0.015625)"/>
       <path id="DejaVuSans-20" transform="scale(0.015625)"/>
       <path id="DejaVuSans-28" d="M 1984 4856 
Q 1566 4138 1362 3434 
Q 1159 2731 1159 2009 
Q 1159 1288 1364 580 
Q 1569 -128 1984 -844 
L 1484 -844 
Q 1016 -109 783 600 
Q 550 1309 550 2009 
Q 550 2706 781 3412 
Q 1013 4119 1484 4856 
L 1984 4856 
z
" transform="scale(0.015625)"/>
       <path id="DejaVuSans-48" d="M 628 4666 
L 1259 4666 
L 1259 2753 
L 3553 2753 
L 3553 4666 
L 4184 4666 
L 4184 0 
L 3553 0 
L 3553 2222 
L 1259 2222 
L 1259 0 
L 628 0 
L 628 4666 
z
" transform="scale(0.015625)"/>
       <path id="DejaVuSans-7a" d="M 353 3500 
L 3084 3500 
L 3084 2975 
L 922 459 
L 3084 459 
L 3084 0 
L 275 0 
L 275 525 
L 2438 3041 
L 353 3041 
L 353 3500 
z
" transform="scale(0.015625)"/>
       <path id="DejaVuSans-29" d="M 513 4856 
L 1013 4856 
Q 1481 4119 1714 3412 
Q 1947 2706 1947 2009 
Q 1947 1309 1714 600 
Q 1481 -109 1013 -844 
L 513 -844 
Q 928 -128 1133 580 
Q 1338 1288 1338 2009 
Q 1338 2731 1133 3434 
Q 928 4138 513 4856 
z
" transform="scale(0.015625)"/>
      </defs>
      <use xlink:href="#DejaVuSans-46"/>
      <use xlink:href="#DejaVuSans-72" x="50.269531"/>
      <use xlink:href="#DejaVuSans-65" x="89.132812"/>
      <use xlink:href="#DejaVuSans-71" x="150.65625"/>
      <use xlink:href="#DejaVuSans-75" x="214.132812"/>
      <use xlink:href="#DejaVuSans-65" x="277.511719"/>
      <use xlink:href="#DejaVuSans-6e" x="339.035156"/>
      <use xlink:href="#DejaVuSans-63" x="402.414062"/>
      <use xlink:href="#DejaVuSans-79" x="457.394531"/>
      <use xlink:href="#DejaVuSans-20" x="516.574219"/>
      <use xlink:href="#DejaVuSans-28" x="548.361328"/>
      <use xlink:href="#DejaVuSans-48" x="587.375"/>
      <use xlink:href="#DejaVuSans-7a" x="662.570312"/>
      <use xlink:href="#DejaVuSans-29" x="715.060547"/>
     </g>
    </g>
   </g>
   <g id="matplotlib.axis_2">
    <g id="ytick_1">
     <g id="line2d_44">
      <defs>
       <path id="m101d7606a5" d="M 0 0 
L -3.5 0 
" style="stroke: #000000; stroke-width: 0.8"/>
      </defs>
      <g>
       <use xlink:href="#m101d7606a5" x="57.7" y="307.013405" style="stroke: #000000; stroke-width: 0.8"/>
      </g>
     </g>
     <g id="text_7">
      <!-- $\mathdefault{10^{-8}}$ -->
      <g transform="translate(27.2 310.812623) scale(0.1 -0.1)">
       <defs>
        <path id="DejaVuSans-2212" d="M 678 2272 
L 4684 2272 
L 4684 1741 
L 678 1741 
L 678 2272 
z
" transform="scale(0.015625)"/>
        <path id="DejaVuSans-38" d="M 2034 2216 
Q 1584 2216 1326 1975 
Q 1069 1734 1069 1313 
Q 1069 891 1326 650 
Q 1584 409 2034 409 
Q 2484 409 2743 651 
Q 3003 894 3003 1313 
Q 3003 1734 2745 1975 
Q 2488 2216 2034 2216 
z
M 1403 2484 
Q 997 2584 770 2862 
Q 544 3141 544 3541 
Q 544 4100 942 4425 
Q 1341 4750 2034 4750 
Q 2731 4750 3128 4425 
Q 3525 4100 3525 3541 
Q 3525 3141 3298 2862 
Q 3072 2584 2669 2484 
Q 3125 2378 3379 2068 
Q 3634 1759 3634 1313 
Q 3634 634 3220 271 
Q 2806 -91 2034 -91 
Q 1263 -91 848 271 
Q 434 634 434 1313 
Q 434 1759 690 2068 
Q 947 2378 1403 2484 
z
M 1172 3481 
Q 1172 3119 1398 2916 
Q 1625 2713 2034 2713 
Q 2441 2713 2670 2916 
Q 2900 3119 2900 3481 
Q 2900 3844 2670 4047 
Q 2441 4250 2034 4250 
Q 1625 4250 1398 4047 
Q 1172 3844 1172 3481 
z
" transform="scale(0.015625)"/>
       </defs>
       <use xlink:href="#DejaVuSans-31" transform="translate(0 0.765625)"/>
       <use xlink:href="#DejaVuSans-30" transform="translate(63.623047 0.765625)"/>
       <use xlink:href="#DejaVuSans-2212" transform="translate(128.203125 39.046875) scale(0.7)"/>
       <use xlink:href="#DejaVuSans-38" transform="translate(186.855469 39.046875) scale(0.7)"/>
      </g>
     </g>
    </g>
    <g id="ytick_2">
     <g id="line2d_45">
      <g>
       <use xlink:href="#m101d7606a5" x="57.7" y="175.723652" style="stroke: #000000; stroke-width: 0.8"/>
      </g>
     </g>
     <g id="text_8">
      <!-- $\mathdefault{10^{-7}}$ -->
      <g transform="translate(27.2 179.522871) scale(0.1 -0.1)">
       <defs>
        <path id="DejaVuSans-37" d="M 525 4666 
L 3525 4666 
L 3525 4397 
L 1831 0 
L 1172 0 
L 2766 4134 
L 525 4134 
L 525 4666 
z
" transform="scale(0.015625)"/>
       </defs>
       <use xlink:href="#DejaVuSans-31" transform="translate(0 0.684375)"/>
       <use xlink:href="#DejaVuSans-30" transform="translate(63.623047 0.684375)"/>
       <use xlink:href="#DejaVuSans-2212" transform="translate(128.203125 38.965625) scale(0.7)"/>
       <use xlink:href="#DejaVuSans-37" transform="translate(186.855469 38.965625) scale(0.7)"/>
      </g>
     </g>
    </g>
    <g id="ytick_3">
     <g id="line2d_46">
      <g>
       <use xlink:href="#m101d7606a5" x="57.7" y="44.433899" style="stroke: #000000; stroke-width: 0.8"/>
      </g>
     </g>
     <g id="text_9">
      <!-- $\mathdefault{10^{-6}}$ -->
      <g transform="translate(27.2 48.233118) scale(0.1 -0.1)">
       <defs>
        <path id="DejaVuSans-36" d="M 2113 2584 
Q 1688 2584 1439 2293 
Q 1191 2003 1191 1497 
Q 1191 994 1439 701 
Q 1688 409 2113 409 
Q 2538 409 2786 701 
Q 3034 994 3034 1497 
Q 3034 2003 2786 2293 
Q 2538 2584 2113 2584 
z
M 3366 4563 
L 3366 3988 
Q 3128 4100 2886 4159 
Q 2644 4219 2406 4219 
Q 1781 4219 1451 3797 
Q 1122 3375 1075 2522 
Q 1259 2794 1537 2939 
Q 1816 3084 2150 3084 
Q 2853 3084 3261 2657 
Q 3669 2231 3669 1497 
Q 3669 778 3244 343 
Q 2819 -91 2113 -91 
Q 1303 -91 875 529 
Q 447 1150 447 2328 
Q 447 3434 972 4092 
Q 1497 4750 2381 4750 
Q 2619 4750 2861 4703 
Q 3103 4656 3366 4563 
z
" transform="scale(0.015625)"/>
       </defs>
       <use xlink:href="#DejaVuSans-31" transform="translate(0 0.765625)"/>
       <use xlink:href="#DejaVuSans-30" transform="translate(63.623047 0.765625)"/>
       <use xlink:href="#DejaVuSans-2212" transform="translate(128.203125 39.046875) scale(0.7)"/>
       <use xlink:href="#DejaVuSans-36" transform="translate(186.855469 39.046875) scale(0.7)"/>
      </g>
     </g>
    </g>
    <g id="ytick_4">
     <g id="line2d_47">
      <defs>
       <path id="m69cbd8f1d1" d="M 0 0 
L -2 0 
" style="stroke: #000000; stroke-width: 0.6"/>
      </defs>
      <g>
       <use xlink:href="#m69cbd8f1d1" x="57.7" y="336.139872" style="stroke: #000000; stroke-width: 0.6"/>
      </g>
     </g>
    </g>
    <g id="ytick_5">
     <g id="line2d_48">
      <g>
       <use xlink:href="#m69cbd8f1d1" x="57.7" y="327.350445" style="stroke: #000000; stroke-width: 0.6"/>
      </g>
     </g>
    </g>
    <g id="ytick_6">
     <g id="line2d_49">
      <g>
       <use xlink:href="#m69cbd8f1d1" x="57.7" y="319.736696" style="stroke: #000000; stroke-width: 0.6"/>
      </g>
     </g>
    </g>
    <g id="ytick_7">
     <g id="line2d_50">
      <g>
       <use xlink:href="#m69cbd8f1d1" x="57.7" y="313.020894" style="stroke: #000000; stroke-width: 0.6"/>
      </g>
     </g>
    </g>
    <g id="ytick_8">
     <g id="line2d_51">
      <g>
       <use xlink:href="#m69cbd8f1d1" x="57.7" y="267.491251" style="stroke: #000000; stroke-width: 0.6"/>
      </g>
     </g>
    </g>
    <g id="ytick_9">
     <g id="line2d_52">
      <g>
       <use xlink:href="#m69cbd8f1d1" x="57.7" y="244.372273" style="stroke: #000000; stroke-width: 0.6"/>
      </g>
     </g>
    </g>
    <g id="ytick_10">
     <g id="line2d_53">
      <g>
       <use xlink:href="#m69cbd8f1d1" x="57.7" y="227.969097" style="stroke: #000000; stroke-width: 0.6"/>
      </g>
     </g>
    </g>
    <g id="ytick_11">
     <g id="line2d_54">
      <g>
       <use xlink:href="#m69cbd8f1d1" x="57.7" y="215.245806" style="stroke: #000000; stroke-width: 0.6"/>
      </g>
     </g>
    </g>
    <g id="ytick_12">
     <g id="line2d_55">
      <g>
       <use xlink:href="#m69cbd8f1d1" x="57.7" y="204.850119" style="stroke: #000000; stroke-width: 0.6"/>
      </g>
     </g>
    </g>
    <g id="ytick_13">
     <g id="line2d_56">
      <g>
       <use xlink:href="#m69cbd8f1d1" x="57.7" y="196.060692" style="stroke: #000000; stroke-width: 0.6"/>
      </g>
     </g>
    </g>
    <g id="ytick_14">
     <g id="line2d_57">
      <g>
       <use xlink:href="#m69cbd8f1d1" x="57.7" y="188.446944" style="stroke: #000000; stroke-width: 0.6"/>
      </g>
     </g>
    </g>
    <g id="ytick_15">
     <g id="line2d_58">
      <g>
       <use xlink:href="#m69cbd8f1d1" x="57.7" y="181.731142" style="stroke: #000000; stroke-width: 0.6"/>
      </g>
     </g>
    </g>
    <g id="ytick_16">
     <g id="line2d_59">
      <g>
       <use xlink:href="#m69cbd8f1d1" x="57.7" y="136.201498" style="stroke: #000000; stroke-width: 0.6"/>
      </g>
     </g>
    </g>
    <g id="ytick_17">
     <g id="line2d_60">
      <g>
       <use xlink:href="#m69cbd8f1d1" x="57.7" y="113.08252" style="stroke: #000000; stroke-width: 0.6"/>
      </g>
     </g>
    </g>
    <g id="ytick_18">
     <g id="line2d_61">
      <g>
       <use xlink:href="#m69cbd8f1d1" x="57.7" y="96.679345" style="stroke: #000000; stroke-width: 0.6"/>
      </g>
     </g>
    </g>
    <g id="ytick_19">
     <g id="line2d_62">
      <g>
       <use xlink:href="#m69cbd8f1d1" x="57.7" y="83.956053" style="stroke: #000000; stroke-width: 0.6"/>
      </g>
     </g>
    </g>
    <g id="ytick_20">
     <g id="line2d_63">
      <g>
       <use xlink:href="#m69cbd8f1d1" x="57.7" y="73.560367" style="stroke: #000000; stroke-width: 0.6"/>
      </g>
     </g>
    </g>
    <g id="ytick_21">
     <g id="line2d_64">
      <g>
       <use xlink:href="#m69cbd8f1d1" x="57.7" y="64.770939" style="stroke: #000000; stroke-width: 0.6"/>
      </g>
     </g>
    </g>
    <g id="ytick_22">
     <g id="line2d_65">
      <g>
       <use xlink:href="#m69cbd8f1d1" x="57.7" y="57.157191" style="stroke: #000000; stroke-width: 0.6"/>
      </g>
     </g>
    </g>
    <g id="ytick_23">
     <g id="line2d_66">
      <g>
       <use xlink:href="#m69cbd8f1d1" x="57.7" y="50.441389" style="stroke: #000000; stroke-width: 0.6"/>
      </g>
     </g>
    </g>
    <g id="text_10">
     <!-- Measured RMS Voltage ($\frac{V}{\sqrt{Hz}}$) -->
     <g transform="translate(16.7 244.92) rotate(-90) scale(0.1 -0.1)">
      <defs>
       <path id="DejaVuSans-4d" d="M 628 4666 
L 1569 4666 
L 2759 1491 
L 3956 4666 
L 4897 4666 
L 4897 0 
L 4281 0 
L 4281 4097 
L 3078 897 
L 2444 897 
L 1241 4097 
L 1241 0 
L 628 0 
L 628 4666 
z
" transform="scale(0.015625)"/>
       <path id="DejaVuSans-61" d="M 2194 1759 
Q 1497 1759 1228 1600 
Q 959 1441 959 1056 
Q 959 750 1161 570 
Q 1363 391 1709 391 
Q 2188 391 2477 730 
Q 2766 1069 2766 1631 
L 2766 1759 
L 2194 1759 
z
M 3341 1997 
L 3341 0 
L 2766 0 
L 2766 531 
Q 2569 213 2275 61 
Q 1981 -91 1556 -91 
Q 1019 -91 701 211 
Q 384 513 384 1019 
Q 384 1609 779 1909 
Q 1175 2209 1959 2209 
L 2766 2209 
L 2766 2266 
Q 2766 2663 2505 2880 
Q 2244 3097 1772 3097 
Q 1472 3097 1187 3025 
Q 903 2953 641 2809 
L 641 3341 
Q 956 3463 1253 3523 
Q 1550 3584 1831 3584 
Q 2591 3584 2966 3190 
Q 3341 2797 3341 1997 
z
" transform="scale(0.015625)"/>
       <path id="DejaVuSans-73" d="M 2834 3397 
L 2834 2853 
Q 2591 2978 2328 3040 
Q 2066 3103 1784 3103 
Q 1356 3103 1142 2972 
Q 928 2841 928 2578 
Q 928 2378 1081 2264 
Q 1234 2150 1697 2047 
L 1894 2003 
Q 2506 1872 2764 1633 
Q 3022 1394 3022 966 
Q 3022 478 2636 193 
Q 2250 -91 1575 -91 
Q 1294 -91 989 -36 
Q 684 19 347 128 
L 347 722 
Q 666 556 975 473 
Q 1284 391 1588 391 
Q 1994 391 2212 530 
Q 2431 669 2431 922 
Q 2431 1156 2273 1281 
Q 2116 1406 1581 1522 
L 1381 1569 
Q 847 1681 609 1914 
Q 372 2147 372 2553 
Q 372 3047 722 3315 
Q 1072 3584 1716 3584 
Q 2034 3584 2315 3537 
Q 2597 3491 2834 3397 
z
" transform="scale(0.015625)"/>
       <path id="DejaVuSans-64" d="M 2906 2969 
L 2906 4863 
L 3481 4863 
L 3481 0 
L 2906 0 
L 2906 525 
Q 2725 213 2448 61 
Q 2172 -91 1784 -91 
Q 1150 -91 751 415 
Q 353 922 353 1747 
Q 353 2572 751 3078 
Q 1150 3584 1784 3584 
Q 2172 3584 2448 3432 
Q 2725 3281 2906 2969 
z
M 947 1747 
Q 947 1113 1208 752 
Q 1469 391 1925 391 
Q 2381 391 2643 752 
Q 2906 1113 2906 1747 
Q 2906 2381 2643 2742 
Q 2381 3103 1925 3103 
Q 1469 3103 1208 2742 
Q 947 2381 947 1747 
z
" transform="scale(0.015625)"/>
       <path id="DejaVuSans-52" d="M 2841 2188 
Q 3044 2119 3236 1894 
Q 3428 1669 3622 1275 
L 4263 0 
L 3584 0 
L 2988 1197 
Q 2756 1666 2539 1819 
Q 2322 1972 1947 1972 
L 1259 1972 
L 1259 0 
L 628 0 
L 628 4666 
L 2053 4666 
Q 2853 4666 3247 4331 
Q 3641 3997 3641 3322 
Q 3641 2881 3436 2590 
Q 3231 2300 2841 2188 
z
M 1259 4147 
L 1259 2491 
L 2053 2491 
Q 2509 2491 2742 2702 
Q 2975 2913 2975 3322 
Q 2975 3731 2742 3939 
Q 2509 4147 2053 4147 
L 1259 4147 
z
" transform="scale(0.015625)"/>
       <path id="DejaVuSans-53" d="M 3425 4513 
L 3425 3897 
Q 3066 4069 2747 4153 
Q 2428 4238 2131 4238 
Q 1616 4238 1336 4038 
Q 1056 3838 1056 3469 
Q 1056 3159 1242 3001 
Q 1428 2844 1947 2747 
L 2328 2669 
Q 3034 2534 3370 2195 
Q 3706 1856 3706 1288 
Q 3706 609 3251 259 
Q 2797 -91 1919 -91 
Q 1588 -91 1214 -16 
Q 841 59 441 206 
L 441 856 
Q 825 641 1194 531 
Q 1563 422 1919 422 
Q 2459 422 2753 634 
Q 3047 847 3047 1241 
Q 3047 1584 2836 1778 
Q 2625 1972 2144 2069 
L 1759 2144 
Q 1053 2284 737 2584 
Q 422 2884 422 3419 
Q 422 4038 858 4394 
Q 1294 4750 2059 4750 
Q 2388 4750 2728 4690 
Q 3069 4631 3425 4513 
z
" transform="scale(0.015625)"/>
       <path id="DejaVuSans-56" d="M 1831 0 
L 50 4666 
L 709 4666 
L 2188 738 
L 3669 4666 
L 4325 4666 
L 2547 0 
L 1831 0 
z
" transform="scale(0.015625)"/>
       <path id="DejaVuSans-6f" d="M 1959 3097 
Q 1497 3097 1228 2736 
Q 959 2375 959 1747 
Q 959 1119 1226 758 
Q 1494 397 1959 397 
Q 2419 397 2687 759 
Q 2956 1122 2956 1747 
Q 2956 2369 2687 2733 
Q 2419 3097 1959 3097 
z
M 1959 3584 
Q 2709 3584 3137 3096 
Q 3566 2609 3566 1747 
Q 3566 888 3137 398 
Q 2709 -91 1959 -91 
Q 1206 -91 779 398 
Q 353 888 353 1747 
Q 353 2609 779 3096 
Q 1206 3584 1959 3584 
z
" transform="scale(0.015625)"/>
       <path id="DejaVuSans-6c" d="M 603 4863 
L 1178 4863 
L 1178 0 
L 603 0 
L 603 4863 
z
" transform="scale(0.015625)"/>
       <path id="DejaVuSans-74" d="M 1172 4494 
L 1172 3500 
L 2356 3500 
L 2356 3053 
L 1172 3053 
L 1172 1153 
Q 1172 725 1289 603 
Q 1406 481 1766 481 
L 2356 481 
L 2356 0 
L 1766 0 
Q 1100 0 847 248 
Q 594 497 594 1153 
L 594 3053 
L 172 3053 
L 172 3500 
L 594 3500 
L 594 4494 
L 1172 4494 
z
" transform="scale(0.015625)"/>
       <path id="DejaVuSans-67" d="M 2906 1791 
Q 2906 2416 2648 2759 
Q 2391 3103 1925 3103 
Q 1463 3103 1205 2759 
Q 947 2416 947 1791 
Q 947 1169 1205 825 
Q 1463 481 1925 481 
Q 2391 481 2648 825 
Q 2906 1169 2906 1791 
z
M 3481 434 
Q 3481 -459 3084 -895 
Q 2688 -1331 1869 -1331 
Q 1566 -1331 1297 -1286 
Q 1028 -1241 775 -1147 
L 775 -588 
Q 1028 -725 1275 -790 
Q 1522 -856 1778 -856 
Q 2344 -856 2625 -561 
Q 2906 -266 2906 331 
L 2906 616 
Q 2728 306 2450 153 
Q 2172 0 1784 0 
Q 1141 0 747 490 
Q 353 981 353 1791 
Q 353 2603 747 3093 
Q 1141 3584 1784 3584 
Q 2172 3584 2450 3431 
Q 2728 3278 2906 2969 
L 2906 3500 
L 3481 3500 
L 3481 434 
z
" transform="scale(0.015625)"/>
       <path id="DejaVuSans-Oblique-56" d="M 1319 0 
L 500 4666 
L 1119 4666 
L 1797 653 
L 4063 4666 
L 4750 4666 
L 2053 0 
L 1319 0 
z
" transform="scale(0.015625)"/>
       <path id="STIXSizeOneSym-Regular-221a" d="M 6970 9933 
L 3373 -1888 
L 3104 -1888 
L 1626 2918 
Q 1555 3149 1465 3251 
Q 1376 3354 1229 3354 
Q 1011 3354 794 3181 
L 717 3309 
L 1766 4115 
L 1926 4115 
L 3379 -602 
L 3405 -602 
L 6605 9933 
L 6970 9933 
z
" transform="scale(0.015625)"/>
       <path id="DejaVuSans-Oblique-48" d="M 1081 4666 
L 1716 4666 
L 1344 2753 
L 3634 2753 
L 4006 4666 
L 4641 4666 
L 3731 0 
L 3097 0 
L 3531 2222 
L 1241 2222 
L 806 0 
L 172 0 
L 1081 4666 
z
" transform="scale(0.015625)"/>
       <path id="DejaVuSans-Oblique-7a" d="M 744 3500 
L 3475 3500 
L 3372 2975 
L 738 459 
L 2913 459 
L 2822 0 
L -19 0 
L 84 525 
L 2719 3041 
L 653 3041 
L 744 3500 
z
" transform="scale(0.015625)"/>
      </defs>
      <use xlink:href="#DejaVuSans-4d" transform="translate(0 0.16875)"/>
      <use xlink:href="#DejaVuSans-65" transform="translate(86.279297 0.16875)"/>
      <use xlink:href="#DejaVuSans-61" transform="translate(147.802734 0.16875)"/>
      <use xlink:href="#DejaVuSans-73" transform="translate(209.082031 0.16875)"/>
      <use xlink:href="#DejaVuSans-75" transform="translate(261.181641 0.16875)"/>
      <use xlink:href="#DejaVuSans-72" transform="translate(324.560547 0.16875)"/>
      <use xlink:href="#DejaVuSans-65" transform="translate(365.673828 0.16875)"/>
      <use xlink:href="#DejaVuSans-64" transform="translate(427.197266 0.16875)"/>
      <use xlink:href="#DejaVuSans-20" transform="translate(490.673828 0.16875)"/>
      <use xlink:href="#DejaVuSans-52" transform="translate(522.460938 0.16875)"/>
      <use xlink:href="#DejaVuSans-4d" transform="translate(591.943359 0.16875)"/>
      <use xlink:href="#DejaVuSans-53" transform="translate(678.222656 0.16875)"/>
      <use xlink:href="#DejaVuSans-20" transform="translate(741.699219 0.16875)"/>
      <use xlink:href="#DejaVuSans-56" transform="translate(773.486328 0.16875)"/>
      <use xlink:href="#DejaVuSans-6f" transform="translate(841.894531 0.16875)"/>
      <use xlink:href="#DejaVuSans-6c" transform="translate(903.076172 0.16875)"/>
      <use xlink:href="#DejaVuSans-74" transform="translate(930.859375 0.16875)"/>
      <use xlink:href="#DejaVuSans-61" transform="translate(970.068359 0.16875)"/>
      <use xlink:href="#DejaVuSans-67" transform="translate(1031.347656 0.16875)"/>
      <use xlink:href="#DejaVuSans-65" transform="translate(1094.824219 0.16875)"/>
      <use xlink:href="#DejaVuSans-20" transform="translate(1156.347656 0.16875)"/>
      <use xlink:href="#DejaVuSans-28" transform="translate(1188.134766 0.16875)"/>
      <use xlink:href="#DejaVuSans-Oblique-56" transform="translate(1277.148438 43.965625) scale(0.7)"/>
      <use xlink:href="#STIXSizeOneSym-Regular-221a" transform="translate(1227.148438 -52.31875) scale(0.394738)"/>
      <use xlink:href="#DejaVuSans-Oblique-48" transform="translate(1277.610292 -63.69375) scale(0.7)"/>
      <use xlink:href="#DejaVuSans-Oblique-7a" transform="translate(1330.247011 -63.69375) scale(0.7)"/>
      <use xlink:href="#DejaVuSans-29" transform="translate(1388.240175 0.16875)"/>
      <path d="M 1227.148438 18.965625 
L 1227.148438 25.215625 
L 1375.740175 25.215625 
L 1375.740175 18.965625 
L 1227.148438 18.965625 
z
"/>
      <path d="M 1268.860292 3.965625 
L 1268.860292 8.340625 
L 1375.740175 8.340625 
L 1375.740175 3.965625 
L 1268.860292 3.965625 
z
"/>
     </g>
    </g>
   </g>
   <g id="LineCollection_1">
    <path d="M 83.063636 29.632016 
L 83.063636 22.32 
" clip-path="url(#p6b4f19d1ac)" style="fill: none; stroke: #000000; stroke-width: 1.5"/>
    <path d="M 103.354571 99.798183 
L 103.354571 91.326363 
" clip-path="url(#p6b4f19d1ac)" style="fill: none; stroke: #000000; stroke-width: 1.5"/>
    <path d="M 123.644601 175.200334 
L 123.644601 165.567008 
" clip-path="url(#p6b4f19d1ac)" style="fill: none; stroke: #000000; stroke-width: 1.5"/>
    <path d="M 143.935062 210.193817 
L 143.935062 199.396963 
" clip-path="url(#p6b4f19d1ac)" style="fill: none; stroke: #000000; stroke-width: 1.5"/>
    <path d="M 164.227396 214.235601 
L 164.227396 202.272866 
" clip-path="url(#p6b4f19d1ac)" style="fill: none; stroke: #000000; stroke-width: 1.5"/>
    <path d="M 184.518792 208.933099 
L 184.518792 195.80204 
" clip-path="url(#p6b4f19d1ac)" style="fill: none; stroke: #000000; stroke-width: 1.5"/>
    <path d="M 204.809085 211.875415 
L 204.809085 197.573344 
" clip-path="url(#p6b4f19d1ac)" style="fill: none; stroke: #000000; stroke-width: 1.5"/>
    <path d="M 225.100019 220.061352 
L 225.100019 204.585225 
" clip-path="url(#p6b4f19d1ac)" style="fill: none; stroke: #000000; stroke-width: 1.5"/>
    <path d="M 245.390049 204.708858 
L 245.390049 188.055457 
" clip-path="url(#p6b4f19d1ac)" style="fill: none; stroke: #000000; stroke-width: 1.5"/>
    <path d="M 265.68051 214.003585 
L 265.68051 196.169349 
" clip-path="url(#p6b4f19d1ac)" style="fill: none; stroke: #000000; stroke-width: 1.5"/>
    <path d="M 285.972844 224.238042 
L 285.972844 205.219055 
" clip-path="url(#p6b4f19d1ac)" style="fill: none; stroke: #000000; stroke-width: 1.5"/>
    <path d="M 306.26424 215.540343 
L 306.26424 195.332579 
" clip-path="url(#p6b4f19d1ac)" style="fill: none; stroke: #000000; stroke-width: 1.5"/>
    <path d="M 326.554533 200.997204 
L 326.554533 179.596364 
" clip-path="url(#p6b4f19d1ac)" style="fill: none; stroke: #000000; stroke-width: 1.5"/>
    <path d="M 346.845467 200.56427 
L 346.845467 177.965669 
" clip-path="url(#p6b4f19d1ac)" style="fill: none; stroke: #000000; stroke-width: 1.5"/>
    <path d="M 367.135498 219.445858 
L 367.135498 195.644606 
" clip-path="url(#p6b4f19d1ac)" style="fill: none; stroke: #000000; stroke-width: 1.5"/>
    <path d="M 387.425958 226.464697 
L 387.425958 201.455527 
" clip-path="url(#p6b4f19d1ac)" style="fill: none; stroke: #000000; stroke-width: 1.5"/>
    <path d="M 407.718292 212.354497 
L 407.718292 186.131747 
" clip-path="url(#p6b4f19d1ac)" style="fill: none; stroke: #000000; stroke-width: 1.5"/>
    <path d="M 428.009688 232.216721 
L 428.009688 204.774583 
" clip-path="url(#p6b4f19d1ac)" style="fill: none; stroke: #000000; stroke-width: 1.5"/>
    <path d="M 448.299981 221.539061 
L 448.299981 192.871412 
" clip-path="url(#p6b4f19d1ac)" style="fill: none; stroke: #000000; stroke-width: 1.5"/>
    <path d="M 468.590915 227.122561 
L 468.590915 197.222842 
" clip-path="url(#p6b4f19d1ac)" style="fill: none; stroke: #000000; stroke-width: 1.5"/>
    <path d="M 488.880946 228.049288 
L 488.880946 196.910692 
" clip-path="url(#p6b4f19d1ac)" style="fill: none; stroke: #000000; stroke-width: 1.5"/>
    <path d="M 509.171407 241.93275 
L 509.171407 209.548035 
" clip-path="url(#p6b4f19d1ac)" style="fill: none; stroke: #000000; stroke-width: 1.5"/>
    <path d="M 529.46374 265.526818 
L 529.46374 231.88829 
" clip-path="url(#p6b4f19d1ac)" style="fill: none; stroke: #000000; stroke-width: 1.5"/>
    <path d="M 549.755137 279.925135 
L 549.755137 245.024897 
" clip-path="url(#p6b4f19d1ac)" style="fill: none; stroke: #000000; stroke-width: 1.5"/>
    <path d="M 570.045429 292.364098 
L 570.045429 256.193877 
" clip-path="url(#p6b4f19d1ac)" style="fill: none; stroke: #000000; stroke-width: 1.5"/>
    <path d="M 590.336364 324.72 
L 590.336364 287.271011 
" clip-path="url(#p6b4f19d1ac)" style="fill: none; stroke: #000000; stroke-width: 1.5"/>
   </g>
   <g id="line2d_67">
    <defs>
     <path id="m58ff577363" d="M 5 0 
L -5 -0 
" style="stroke: #000000"/>
    </defs>
    <g clip-path="url(#p6b4f19d1ac)">
     <use xlink:href="#m58ff577363" x="83.063636" y="29.632016" style="stroke: #000000"/>
     <use xlink:href="#m58ff577363" x="103.354571" y="99.798183" style="stroke: #000000"/>
     <use xlink:href="#m58ff577363" x="123.644601" y="175.200334" style="stroke: #000000"/>
     <use xlink:href="#m58ff577363" x="143.935062" y="210.193817" style="stroke: #000000"/>
     <use xlink:href="#m58ff577363" x="164.227396" y="214.235601" style="stroke: #000000"/>
     <use xlink:href="#m58ff577363" x="184.518792" y="208.933099" style="stroke: #000000"/>
     <use xlink:href="#m58ff577363" x="204.809085" y="211.875415" style="stroke: #000000"/>
     <use xlink:href="#m58ff577363" x="225.100019" y="220.061352" style="stroke: #000000"/>
     <use xlink:href="#m58ff577363" x="245.390049" y="204.708858" style="stroke: #000000"/>
     <use xlink:href="#m58ff577363" x="265.68051" y="214.003585" style="stroke: #000000"/>
     <use xlink:href="#m58ff577363" x="285.972844" y="224.238042" style="stroke: #000000"/>
     <use xlink:href="#m58ff577363" x="306.26424" y="215.540343" style="stroke: #000000"/>
     <use xlink:href="#m58ff577363" x="326.554533" y="200.997204" style="stroke: #000000"/>
     <use xlink:href="#m58ff577363" x="346.845467" y="200.56427" style="stroke: #000000"/>
     <use xlink:href="#m58ff577363" x="367.135498" y="219.445858" style="stroke: #000000"/>
     <use xlink:href="#m58ff577363" x="387.425958" y="226.464697" style="stroke: #000000"/>
     <use xlink:href="#m58ff577363" x="407.718292" y="212.354497" style="stroke: #000000"/>
     <use xlink:href="#m58ff577363" x="428.009688" y="232.216721" style="stroke: #000000"/>
     <use xlink:href="#m58ff577363" x="448.299981" y="221.539061" style="stroke: #000000"/>
     <use xlink:href="#m58ff577363" x="468.590915" y="227.122561" style="stroke: #000000"/>
     <use xlink:href="#m58ff577363" x="488.880946" y="228.049288" style="stroke: #000000"/>
     <use xlink:href="#m58ff577363" x="509.171407" y="241.93275" style="stroke: #000000"/>
     <use xlink:href="#m58ff577363" x="529.46374" y="265.526818" style="stroke: #000000"/>
     <use xlink:href="#m58ff577363" x="549.755137" y="279.925135" style="stroke: #000000"/>
     <use xlink:href="#m58ff577363" x="570.045429" y="292.364098" style="stroke: #000000"/>
     <use xlink:href="#m58ff577363" x="590.336364" y="324.72" style="stroke: #000000"/>
    </g>
   </g>
   <g id="line2d_68">
    <g clip-path="url(#p6b4f19d1ac)">
     <use xlink:href="#m58ff577363" x="83.063636" y="22.32" style="stroke: #000000"/>
     <use xlink:href="#m58ff577363" x="103.354571" y="91.326363" style="stroke: #000000"/>
     <use xlink:href="#m58ff577363" x="123.644601" y="165.567008" style="stroke: #000000"/>
     <use xlink:href="#m58ff577363" x="143.935062" y="199.396963" style="stroke: #000000"/>
     <use xlink:href="#m58ff577363" x="164.227396" y="202.272866" style="stroke: #000000"/>
     <use xlink:href="#m58ff577363" x="184.518792" y="195.80204" style="stroke: #000000"/>
     <use xlink:href="#m58ff577363" x="204.809085" y="197.573344" style="stroke: #000000"/>
     <use xlink:href="#m58ff577363" x="225.100019" y="204.585225" style="stroke: #000000"/>
     <use xlink:href="#m58ff577363" x="245.390049" y="188.055457" style="stroke: #000000"/>
     <use xlink:href="#m58ff577363" x="265.68051" y="196.169349" style="stroke: #000000"/>
     <use xlink:href="#m58ff577363" x="285.972844" y="205.219055" style="stroke: #000000"/>
     <use xlink:href="#m58ff577363" x="306.26424" y="195.332579" style="stroke: #000000"/>
     <use xlink:href="#m58ff577363" x="326.554533" y="179.596364" style="stroke: #000000"/>
     <use xlink:href="#m58ff577363" x="346.845467" y="177.965669" style="stroke: #000000"/>
     <use xlink:href="#m58ff577363" x="367.135498" y="195.644606" style="stroke: #000000"/>
     <use xlink:href="#m58ff577363" x="387.425958" y="201.455527" style="stroke: #000000"/>
     <use xlink:href="#m58ff577363" x="407.718292" y="186.131747" style="stroke: #000000"/>
     <use xlink:href="#m58ff577363" x="428.009688" y="204.774583" style="stroke: #000000"/>
     <use xlink:href="#m58ff577363" x="448.299981" y="192.871412" style="stroke: #000000"/>
     <use xlink:href="#m58ff577363" x="468.590915" y="197.222842" style="stroke: #000000"/>
     <use xlink:href="#m58ff577363" x="488.880946" y="196.910692" style="stroke: #000000"/>
     <use xlink:href="#m58ff577363" x="509.171407" y="209.548035" style="stroke: #000000"/>
     <use xlink:href="#m58ff577363" x="529.46374" y="231.88829" style="stroke: #000000"/>
     <use xlink:href="#m58ff577363" x="549.755137" y="245.024897" style="stroke: #000000"/>
     <use xlink:href="#m58ff577363" x="570.045429" y="256.193877" style="stroke: #000000"/>
     <use xlink:href="#m58ff577363" x="590.336364" y="287.271011" style="stroke: #000000"/>
    </g>
   </g>
   <g id="line2d_69">
    <defs>
     <path id="ma1a3ad6599" d="M 0 3 
C 0.795609 3 1.55874 2.683901 2.12132 2.12132 
C 2.683901 1.55874 3 0.795609 3 0 
C 3 -0.795609 2.683901 -1.55874 2.12132 -2.12132 
C 1.55874 -2.683901 0.795609 -3 0 -3 
C -0.795609 -3 -1.55874 -2.683901 -2.12132 -2.12132 
C -2.683901 -1.55874 -3 -0.795609 -3 0 
C -3 0.795609 -2.683901 1.55874 -2.12132 2.12132 
C -1.55874 2.683901 -0.795609 3 0 3 
z
" style="stroke: #000000"/>
    </defs>
    <g clip-path="url(#p6b4f19d1ac)">
     <use xlink:href="#ma1a3ad6599" x="83.063636" y="25.858877" style="stroke: #000000"/>
     <use xlink:href="#ma1a3ad6599" x="103.354571" y="95.405074" style="stroke: #000000"/>
     <use xlink:href="#ma1a3ad6599" x="123.644601" y="170.180467" style="stroke: #000000"/>
     <use xlink:href="#ma1a3ad6599" x="143.935062" y="204.540213" style="stroke: #000000"/>
     <use xlink:href="#ma1a3ad6599" x="164.227396" y="207.941078" style="stroke: #000000"/>
     <use xlink:href="#ma1a3ad6599" x="184.518792" y="201.9904" style="stroke: #000000"/>
     <use xlink:href="#ma1a3ad6599" x="204.809085" y="204.277122" style="stroke: #000000"/>
     <use xlink:href="#ma1a3ad6599" x="225.100019" y="211.79982" style="stroke: #000000"/>
     <use xlink:href="#ma1a3ad6599" x="245.390049" y="195.77631" style="stroke: #000000"/>
     <use xlink:href="#ma1a3ad6599" x="265.68051" y="204.392016" style="stroke: #000000"/>
     <use xlink:href="#ma1a3ad6599" x="285.972844" y="213.939205" style="stroke: #000000"/>
     <use xlink:href="#ma1a3ad6599" x="306.26424" y="204.545884" style="stroke: #000000"/>
     <use xlink:href="#ma1a3ad6599" x="326.554533" y="189.29857" style="stroke: #000000"/>
     <use xlink:href="#ma1a3ad6599" x="346.845467" y="188.152634" style="stroke: #000000"/>
     <use xlink:href="#ma1a3ad6599" x="367.135498" y="206.312223" style="stroke: #000000"/>
     <use xlink:href="#ma1a3ad6599" x="387.425958" y="212.599788" style="stroke: #000000"/>
     <use xlink:href="#ma1a3ad6599" x="407.718292" y="197.748744" style="stroke: #000000"/>
     <use xlink:href="#ma1a3ad6599" x="428.009688" y="216.860406" style="stroke: #000000"/>
     <use xlink:href="#ma1a3ad6599" x="448.299981" y="205.422214" style="stroke: #000000"/>
     <use xlink:href="#ma1a3ad6599" x="468.590915" y="210.234875" style="stroke: #000000"/>
     <use xlink:href="#ma1a3ad6599" x="488.880946" y="210.380236" style="stroke: #000000"/>
     <use xlink:href="#ma1a3ad6599" x="509.171407" y="223.471457" style="stroke: #000000"/>
     <use xlink:href="#ma1a3ad6599" x="529.46374" y="246.262047" style="stroke: #000000"/>
     <use xlink:href="#ma1a3ad6599" x="549.755137" y="259.845439" style="stroke: #000000"/>
     <use xlink:href="#ma1a3ad6599" x="570.045429" y="271.457706" style="stroke: #000000"/>
     <use xlink:href="#ma1a3ad6599" x="590.336364" y="302.974723" style="stroke: #000000"/>
    </g>
   </g>
   <g id="patch_3">
    <path d="M 57.7 339.84 
L 57.7 7.2 
" style="fill: none; stroke: #000000; stroke-width: 0.8; stroke-linejoin: miter; stroke-linecap: square"/>
   </g>
   <g id="patch_4">
    <path d="M 615.7 339.84 
L 615.7 7.2 
" style="fill: none; stroke: #000000; stroke-width: 0.8; stroke-linejoin: miter; stroke-linecap: square"/>
   </g>
   <g id="patch_5">
    <path d="M 57.7 339.84 
L 615.7 339.84 
" style="fill: none; stroke: #000000; stroke-width: 0.8; stroke-linejoin: miter; stroke-linecap: square"/>
   </g>
   <g id="patch_6">
    <path d="M 57.7 7.2 
L 615.7 7.2 
" style="fill: none; stroke: #000000; stroke-width: 0.8; stroke-linejoin: miter; stroke-linecap: square"/>
   </g>
   <g id="legend_1">
    <g id="patch_7">
     <path d="M 406.4 29.9 
L 608.7 29.9 
Q 610.7 29.9 610.7 27.9 
L 610.7 14.2 
Q 610.7 12.2 608.7 12.2 
L 406.4 12.2 
Q 404.4 12.2 404.4 14.2 
L 404.4 27.9 
Q 404.4 29.9 406.4 29.9 
z
" style="fill: #ffffff; opacity: 0.8; stroke: #cccccc; stroke-linejoin: miter"/>
    </g>
    <g id="LineCollection_2">
     <path d="M 418.4 25.3 
L 418.4 15.3 
" style="fill: none; stroke: #000000; stroke-width: 1.5"/>
    </g>
    <g id="line2d_70">
     <g>
      <use xlink:href="#m58ff577363" x="418.4" y="25.3" style="stroke: #000000"/>
     </g>
    </g>
    <g id="line2d_71">
     <g>
      <use xlink:href="#m58ff577363" x="418.4" y="15.3" style="stroke: #000000"/>
     </g>
    </g>
    <g id="line2d_72"/>
    <g id="line2d_73">
     <g>
      <use xlink:href="#ma1a3ad6599" x="418.4" y="20.3" style="stroke: #000000"/>
     </g>
    </g>
    <g id="text_11">
     <!-- 250K$\Omega$ Noise Amplitude Spectrum -->
     <g transform="translate(436.4 23.8) scale(0.1 -0.1)">
      <defs>
       <path id="DejaVuSans-4b" d="M 628 4666 
L 1259 4666 
L 1259 2694 
L 3353 4666 
L 4166 4666 
L 1850 2491 
L 4331 0 
L 3500 0 
L 1259 2247 
L 1259 0 
L 628 0 
L 628 4666 
z
" transform="scale(0.015625)"/>
       <path id="DejaVuSans-3a9" d="M 4647 556 
L 4647 0 
L 2772 0 
L 2772 556 
Q 3325 859 3634 1378 
Q 3944 1897 3944 2528 
Q 3944 3278 3531 3731 
Q 3119 4184 2444 4184 
Q 1769 4184 1355 3729 
Q 941 3275 941 2528 
Q 941 1897 1250 1378 
Q 1563 859 2119 556 
L 2119 0 
L 244 0 
L 244 556 
L 1241 556 
Q 747 991 519 1456 
Q 294 1922 294 2497 
Q 294 3491 894 4106 
Q 1491 4722 2444 4722 
Q 3391 4722 3994 4106 
Q 4594 3494 4594 2528 
Q 4594 1922 4372 1459 
Q 4150 997 3647 556 
L 4647 556 
z
" transform="scale(0.015625)"/>
       <path id="DejaVuSans-4e" d="M 628 4666 
L 1478 4666 
L 3547 763 
L 3547 4666 
L 4159 4666 
L 4159 0 
L 3309 0 
L 1241 3903 
L 1241 0 
L 628 0 
L 628 4666 
z
" transform="scale(0.015625)"/>
       <path id="DejaVuSans-69" d="M 603 3500 
L 1178 3500 
L 1178 0 
L 603 0 
L 603 3500 
z
M 603 4863 
L 1178 4863 
L 1178 4134 
L 603 4134 
L 603 4863 
z
" transform="scale(0.015625)"/>
       <path id="DejaVuSans-41" d="M 2188 4044 
L 1331 1722 
L 3047 1722 
L 2188 4044 
z
M 1831 4666 
L 2547 4666 
L 4325 0 
L 3669 0 
L 3244 1197 
L 1141 1197 
L 716 0 
L 50 0 
L 1831 4666 
z
" transform="scale(0.015625)"/>
       <path id="DejaVuSans-6d" d="M 3328 2828 
Q 3544 3216 3844 3400 
Q 4144 3584 4550 3584 
Q 5097 3584 5394 3201 
Q 5691 2819 5691 2113 
L 5691 0 
L 5113 0 
L 5113 2094 
Q 5113 2597 4934 2840 
Q 4756 3084 4391 3084 
Q 3944 3084 3684 2787 
Q 3425 2491 3425 1978 
L 3425 0 
L 2847 0 
L 2847 2094 
Q 2847 2600 2669 2842 
Q 2491 3084 2119 3084 
Q 1678 3084 1418 2786 
Q 1159 2488 1159 1978 
L 1159 0 
L 581 0 
L 581 3500 
L 1159 3500 
L 1159 2956 
Q 1356 3278 1631 3431 
Q 1906 3584 2284 3584 
Q 2666 3584 2933 3390 
Q 3200 3197 3328 2828 
z
" transform="scale(0.015625)"/>
       <path id="DejaVuSans-70" d="M 1159 525 
L 1159 -1331 
L 581 -1331 
L 581 3500 
L 1159 3500 
L 1159 2969 
Q 1341 3281 1617 3432 
Q 1894 3584 2278 3584 
Q 2916 3584 3314 3078 
Q 3713 2572 3713 1747 
Q 3713 922 3314 415 
Q 2916 -91 2278 -91 
Q 1894 -91 1617 61 
Q 1341 213 1159 525 
z
M 3116 1747 
Q 3116 2381 2855 2742 
Q 2594 3103 2138 3103 
Q 1681 3103 1420 2742 
Q 1159 2381 1159 1747 
Q 1159 1113 1420 752 
Q 1681 391 2138 391 
Q 2594 391 2855 752 
Q 3116 1113 3116 1747 
z
" transform="scale(0.015625)"/>
      </defs>
      <use xlink:href="#DejaVuSans-32" transform="translate(0 0.015625)"/>
      <use xlink:href="#DejaVuSans-35" transform="translate(63.623047 0.015625)"/>
      <use xlink:href="#DejaVuSans-30" transform="translate(127.246094 0.015625)"/>
      <use xlink:href="#DejaVuSans-4b" transform="translate(190.869141 0.015625)"/>
      <use xlink:href="#DejaVuSans-3a9" transform="translate(256.445312 0.015625)"/>
      <use xlink:href="#DejaVuSans-20" transform="translate(332.861328 0.015625)"/>
      <use xlink:href="#DejaVuSans-4e" transform="translate(364.648438 0.015625)"/>
      <use xlink:href="#DejaVuSans-6f" transform="translate(439.453125 0.015625)"/>
      <use xlink:href="#DejaVuSans-69" transform="translate(500.634766 0.015625)"/>
      <use xlink:href="#DejaVuSans-73" transform="translate(528.417969 0.015625)"/>
      <use xlink:href="#DejaVuSans-65" transform="translate(580.517578 0.015625)"/>
      <use xlink:href="#DejaVuSans-20" transform="translate(642.041016 0.015625)"/>
      <use xlink:href="#DejaVuSans-41" transform="translate(673.828125 0.015625)"/>
      <use xlink:href="#DejaVuSans-6d" transform="translate(742.236328 0.015625)"/>
      <use xlink:href="#DejaVuSans-70" transform="translate(839.648438 0.015625)"/>
      <use xlink:href="#DejaVuSans-6c" transform="translate(903.125 0.015625)"/>
      <use xlink:href="#DejaVuSans-69" transform="translate(930.908203 0.015625)"/>
      <use xlink:href="#DejaVuSans-74" transform="translate(958.691406 0.015625)"/>
      <use xlink:href="#DejaVuSans-75" transform="translate(997.900391 0.015625)"/>
      <use xlink:href="#DejaVuSans-64" transform="translate(1061.279297 0.015625)"/>
      <use xlink:href="#DejaVuSans-65" transform="translate(1124.755859 0.015625)"/>
      <use xlink:href="#DejaVuSans-20" transform="translate(1186.279297 0.015625)"/>
      <use xlink:href="#DejaVuSans-53" transform="translate(1218.066406 0.015625)"/>
      <use xlink:href="#DejaVuSans-70" transform="translate(1281.542969 0.015625)"/>
      <use xlink:href="#DejaVuSans-65" transform="translate(1345.019531 0.015625)"/>
      <use xlink:href="#DejaVuSans-63" transform="translate(1406.542969 0.015625)"/>
      <use xlink:href="#DejaVuSans-74" transform="translate(1461.523438 0.015625)"/>
      <use xlink:href="#DejaVuSans-72" transform="translate(1500.732422 0.015625)"/>
      <use xlink:href="#DejaVuSans-75" transform="translate(1541.845703 0.015625)"/>
      <use xlink:href="#DejaVuSans-6d" transform="translate(1605.224609 0.015625)"/>
     </g>
    </g>
   </g>
  </g>
 </g>
 <defs>
  <clipPath id="p6b4f19d1ac">
   <rect x="57.7" y="7.2" width="558" height="332.64"/>
  </clipPath>
 </defs>
</svg>
