<?xml version="1.0" encoding="utf-8" standalone="no"?>
<!DOCTYPE svg PUBLIC "-//W3C//DTD SVG 1.1//EN"
  "http://www.w3.org/Graphics/SVG/1.1/DTD/svg11.dtd">
<svg xmlns:xlink="http://www.w3.org/1999/xlink" width="622.9pt" height="211.07625pt" viewBox="0 0 622.9 211.07625" xmlns="http://www.w3.org/2000/svg" version="1.1">
 <metadata>
  <rdf:RDF xmlns:dc="http://purl.org/dc/elements/1.1/" xmlns:cc="http://creativecommons.org/ns#" xmlns:rdf="http://www.w3.org/1999/02/22-rdf-syntax-ns#">
   <cc:Work>
    <dc:type rdf:resource="http://purl.org/dc/dcmitype/StillImage"/>
    <dc:date>2025-02-09T03:03:00.008131</dc:date>
    <dc:format>image/svg+xml</dc:format>
    <dc:creator>
     <cc:Agent>
      <dc:title>Matplotlib v3.9.2, https://matplotlib.org/</dc:title>
     </cc:Agent>
    </dc:creator>
   </cc:Work>
  </rdf:RDF>
 </metadata>
 <defs>
  <style type="text/css">*{stroke-linejoin: round; stroke-linecap: butt}</style>
 </defs>
 <g id="figure_1">
  <g id="patch_1">
   <path d="M 0 211.07625 
L 622.9 211.07625 
L 622.9 0 
L 0 0 
z
" style="fill: #ffffff"/>
  </g>
  <g id="axes_1">
   <g id="patch_2">
    <path d="M 57.7 173.52 
L 615.7 173.52 
L 615.7 7.2 
L 57.7 7.2 
z
" style="fill: #ffffff"/>
   </g>
   <g id="matplotlib.axis_1">
    <g id="xtick_1">
     <g id="line2d_1">
      <path d="M 123.878683 173.52 
L 123.878683 7.2 
" clip-path="url(#p9bdfa15d7d)" style="fill: none; stroke: #b0b0b0; stroke-width: 0.8; stroke-linecap: square"/>
     </g>
     <g id="line2d_2">
      <defs>
       <path id="m93f4efae9b" d="M 0 0 
L 0 3.5 
" style="stroke: #000000; stroke-width: 0.8"/>
      </defs>
      <g>
       <use xlink:href="#m93f4efae9b" x="123.878683" y="173.52" style="stroke: #000000; stroke-width: 0.8"/>
      </g>
     </g>
     <g id="text_1">
      <!-- $\mathdefault{10^{1}}$ -->
      <g transform="translate(115.078683 188.118438) scale(0.1 -0.1)">
       <defs>
        <path id="DejaVuSans-31" d="M 794 531 
L 1825 531 
L 1825 4091 
L 703 3866 
L 703 4441 
L 1819 4666 
L 2450 4666 
L 2450 531 
L 3481 531 
L 3481 0 
L 794 0 
L 794 531 
z
" transform="scale(0.015625)"/>
        <path id="DejaVuSans-30" d="M 2034 4250 
Q 1547 4250 1301 3770 
Q 1056 3291 1056 2328 
Q 1056 1369 1301 889 
Q 1547 409 2034 409 
Q 2525 409 2770 889 
Q 3016 1369 3016 2328 
Q 3016 3291 2770 3770 
Q 2525 4250 2034 4250 
z
M 2034 4750 
Q 2819 4750 3233 4129 
Q 3647 3509 3647 2328 
Q 3647 1150 3233 529 
Q 2819 -91 2034 -91 
Q 1250 -91 836 529 
Q 422 1150 422 2328 
Q 422 3509 836 4129 
Q 1250 4750 2034 4750 
z
" transform="scale(0.015625)"/>
       </defs>
       <use xlink:href="#DejaVuSans-31" transform="translate(0 0.684375)"/>
       <use xlink:href="#DejaVuSans-30" transform="translate(63.623047 0.684375)"/>
       <use xlink:href="#DejaVuSans-31" transform="translate(128.203125 38.965625) scale(0.7)"/>
      </g>
     </g>
    </g>
    <g id="xtick_2">
     <g id="line2d_3">
      <path d="M 240.493103 173.52 
L 240.493103 7.2 
" clip-path="url(#p9bdfa15d7d)" style="fill: none; stroke: #b0b0b0; stroke-width: 0.8; stroke-linecap: square"/>
     </g>
     <g id="line2d_4">
      <g>
       <use xlink:href="#m93f4efae9b" x="240.493103" y="173.52" style="stroke: #000000; stroke-width: 0.8"/>
      </g>
     </g>
     <g id="text_2">
      <!-- $\mathdefault{10^{2}}$ -->
      <g transform="translate(231.693103 188.118438) scale(0.1 -0.1)">
       <defs>
        <path id="DejaVuSans-32" d="M 1228 531 
L 3431 531 
L 3431 0 
L 469 0 
L 469 531 
Q 828 903 1448 1529 
Q 2069 2156 2228 2338 
Q 2531 2678 2651 2914 
Q 2772 3150 2772 3378 
Q 2772 3750 2511 3984 
Q 2250 4219 1831 4219 
Q 1534 4219 1204 4116 
Q 875 4013 500 3803 
L 500 4441 
Q 881 4594 1212 4672 
Q 1544 4750 1819 4750 
Q 2544 4750 2975 4387 
Q 3406 4025 3406 3419 
Q 3406 3131 3298 2873 
Q 3191 2616 2906 2266 
Q 2828 2175 2409 1742 
Q 1991 1309 1228 531 
z
" transform="scale(0.015625)"/>
       </defs>
       <use xlink:href="#DejaVuSans-31" transform="translate(0 0.765625)"/>
       <use xlink:href="#DejaVuSans-30" transform="translate(63.623047 0.765625)"/>
       <use xlink:href="#DejaVuSans-32" transform="translate(128.203125 39.046875) scale(0.7)"/>
      </g>
     </g>
    </g>
    <g id="xtick_3">
     <g id="line2d_5">
      <path d="M 357.107524 173.52 
L 357.107524 7.2 
" clip-path="url(#p9bdfa15d7d)" style="fill: none; stroke: #b0b0b0; stroke-width: 0.8; stroke-linecap: square"/>
     </g>
     <g id="line2d_6">
      <g>
       <use xlink:href="#m93f4efae9b" x="357.107524" y="173.52" style="stroke: #000000; stroke-width: 0.8"/>
      </g>
     </g>
     <g id="text_3">
      <!-- $\mathdefault{10^{3}}$ -->
      <g transform="translate(348.307524 188.118438) scale(0.1 -0.1)">
       <defs>
        <path id="DejaVuSans-33" d="M 2597 2516 
Q 3050 2419 3304 2112 
Q 3559 1806 3559 1356 
Q 3559 666 3084 287 
Q 2609 -91 1734 -91 
Q 1441 -91 1130 -33 
Q 819 25 488 141 
L 488 750 
Q 750 597 1062 519 
Q 1375 441 1716 441 
Q 2309 441 2620 675 
Q 2931 909 2931 1356 
Q 2931 1769 2642 2001 
Q 2353 2234 1838 2234 
L 1294 2234 
L 1294 2753 
L 1863 2753 
Q 2328 2753 2575 2939 
Q 2822 3125 2822 3475 
Q 2822 3834 2567 4026 
Q 2313 4219 1838 4219 
Q 1578 4219 1281 4162 
Q 984 4106 628 3988 
L 628 4550 
Q 988 4650 1302 4700 
Q 1616 4750 1894 4750 
Q 2613 4750 3031 4423 
Q 3450 4097 3450 3541 
Q 3450 3153 3228 2886 
Q 3006 2619 2597 2516 
z
" transform="scale(0.015625)"/>
       </defs>
       <use xlink:href="#DejaVuSans-31" transform="translate(0 0.765625)"/>
       <use xlink:href="#DejaVuSans-30" transform="translate(63.623047 0.765625)"/>
       <use xlink:href="#DejaVuSans-33" transform="translate(128.203125 39.046875) scale(0.7)"/>
      </g>
     </g>
    </g>
    <g id="xtick_4">
     <g id="line2d_7">
      <path d="M 473.721944 173.52 
L 473.721944 7.2 
" clip-path="url(#p9bdfa15d7d)" style="fill: none; stroke: #b0b0b0; stroke-width: 0.8; stroke-linecap: square"/>
     </g>
     <g id="line2d_8">
      <g>
       <use xlink:href="#m93f4efae9b" x="473.721944" y="173.52" style="stroke: #000000; stroke-width: 0.8"/>
      </g>
     </g>
     <g id="text_4">
      <!-- $\mathdefault{10^{4}}$ -->
      <g transform="translate(464.921944 188.118438) scale(0.1 -0.1)">
       <defs>
        <path id="DejaVuSans-34" d="M 2419 4116 
L 825 1625 
L 2419 1625 
L 2419 4116 
z
M 2253 4666 
L 3047 4666 
L 3047 1625 
L 3713 1625 
L 3713 1100 
L 3047 1100 
L 3047 0 
L 2419 0 
L 2419 1100 
L 313 1100 
L 313 1709 
L 2253 4666 
z
" transform="scale(0.015625)"/>
       </defs>
       <use xlink:href="#DejaVuSans-31" transform="translate(0 0.684375)"/>
       <use xlink:href="#DejaVuSans-30" transform="translate(63.623047 0.684375)"/>
       <use xlink:href="#DejaVuSans-34" transform="translate(128.203125 38.965625) scale(0.7)"/>
      </g>
     </g>
    </g>
    <g id="xtick_5">
     <g id="line2d_9">
      <path d="M 590.336364 173.52 
L 590.336364 7.2 
" clip-path="url(#p9bdfa15d7d)" style="fill: none; stroke: #b0b0b0; stroke-width: 0.8; stroke-linecap: square"/>
     </g>
     <g id="line2d_10">
      <g>
       <use xlink:href="#m93f4efae9b" x="590.336364" y="173.52" style="stroke: #000000; stroke-width: 0.8"/>
      </g>
     </g>
     <g id="text_5">
      <!-- $\mathdefault{10^{5}}$ -->
      <g transform="translate(581.536364 188.118438) scale(0.1 -0.1)">
       <defs>
        <path id="DejaVuSans-35" d="M 691 4666 
L 3169 4666 
L 3169 4134 
L 1269 4134 
L 1269 2991 
Q 1406 3038 1543 3061 
Q 1681 3084 1819 3084 
Q 2600 3084 3056 2656 
Q 3513 2228 3513 1497 
Q 3513 744 3044 326 
Q 2575 -91 1722 -91 
Q 1428 -91 1123 -41 
Q 819 9 494 109 
L 494 744 
Q 775 591 1075 516 
Q 1375 441 1709 441 
Q 2250 441 2565 725 
Q 2881 1009 2881 1497 
Q 2881 1984 2565 2268 
Q 2250 2553 1709 2553 
Q 1456 2553 1204 2497 
Q 953 2441 691 2322 
L 691 4666 
z
" transform="scale(0.015625)"/>
       </defs>
       <use xlink:href="#DejaVuSans-31" transform="translate(0 0.684375)"/>
       <use xlink:href="#DejaVuSans-30" transform="translate(63.623047 0.684375)"/>
       <use xlink:href="#DejaVuSans-35" transform="translate(128.203125 38.965625) scale(0.7)"/>
      </g>
     </g>
    </g>
    <g id="xtick_6">
     <g id="line2d_11">
      <path d="M 62.903482 173.52 
L 62.903482 7.2 
" clip-path="url(#p9bdfa15d7d)" style="fill: none; stroke: #b0b0b0; stroke-width: 0.8; stroke-linecap: square"/>
     </g>
     <g id="line2d_12">
      <defs>
       <path id="mf5bef32db7" d="M 0 0 
L 0 2 
" style="stroke: #000000; stroke-width: 0.6"/>
      </defs>
      <g>
       <use xlink:href="#mf5bef32db7" x="62.903482" y="173.52" style="stroke: #000000; stroke-width: 0.6"/>
      </g>
     </g>
    </g>
    <g id="xtick_7">
     <g id="line2d_13">
      <path d="M 77.47314 173.52 
L 77.47314 7.2 
" clip-path="url(#p9bdfa15d7d)" style="fill: none; stroke: #b0b0b0; stroke-width: 0.8; stroke-linecap: square"/>
     </g>
     <g id="line2d_14">
      <g>
       <use xlink:href="#mf5bef32db7" x="77.47314" y="173.52" style="stroke: #000000; stroke-width: 0.6"/>
      </g>
     </g>
    </g>
    <g id="xtick_8">
     <g id="line2d_15">
      <path d="M 88.774245 173.52 
L 88.774245 7.2 
" clip-path="url(#p9bdfa15d7d)" style="fill: none; stroke: #b0b0b0; stroke-width: 0.8; stroke-linecap: square"/>
     </g>
     <g id="line2d_16">
      <g>
       <use xlink:href="#mf5bef32db7" x="88.774245" y="173.52" style="stroke: #000000; stroke-width: 0.6"/>
      </g>
     </g>
    </g>
    <g id="xtick_9">
     <g id="line2d_17">
      <path d="M 98.00792 173.52 
L 98.00792 7.2 
" clip-path="url(#p9bdfa15d7d)" style="fill: none; stroke: #b0b0b0; stroke-width: 0.8; stroke-linecap: square"/>
     </g>
     <g id="line2d_18">
      <g>
       <use xlink:href="#mf5bef32db7" x="98.00792" y="173.52" style="stroke: #000000; stroke-width: 0.6"/>
      </g>
     </g>
    </g>
    <g id="xtick_10">
     <g id="line2d_19">
      <path d="M 105.814881 173.52 
L 105.814881 7.2 
" clip-path="url(#p9bdfa15d7d)" style="fill: none; stroke: #b0b0b0; stroke-width: 0.8; stroke-linecap: square"/>
     </g>
     <g id="line2d_20">
      <g>
       <use xlink:href="#mf5bef32db7" x="105.814881" y="173.52" style="stroke: #000000; stroke-width: 0.6"/>
      </g>
     </g>
    </g>
    <g id="xtick_11">
     <g id="line2d_21">
      <path d="M 112.577578 173.52 
L 112.577578 7.2 
" clip-path="url(#p9bdfa15d7d)" style="fill: none; stroke: #b0b0b0; stroke-width: 0.8; stroke-linecap: square"/>
     </g>
     <g id="line2d_22">
      <g>
       <use xlink:href="#mf5bef32db7" x="112.577578" y="173.52" style="stroke: #000000; stroke-width: 0.6"/>
      </g>
     </g>
    </g>
    <g id="xtick_12">
     <g id="line2d_23">
      <path d="M 118.5427 173.52 
L 118.5427 7.2 
" clip-path="url(#p9bdfa15d7d)" style="fill: none; stroke: #b0b0b0; stroke-width: 0.8; stroke-linecap: square"/>
     </g>
     <g id="line2d_24">
      <g>
       <use xlink:href="#mf5bef32db7" x="118.5427" y="173.52" style="stroke: #000000; stroke-width: 0.6"/>
      </g>
     </g>
    </g>
    <g id="xtick_13">
     <g id="line2d_25">
      <path d="M 158.983122 173.52 
L 158.983122 7.2 
" clip-path="url(#p9bdfa15d7d)" style="fill: none; stroke: #b0b0b0; stroke-width: 0.8; stroke-linecap: square"/>
     </g>
     <g id="line2d_26">
      <g>
       <use xlink:href="#mf5bef32db7" x="158.983122" y="173.52" style="stroke: #000000; stroke-width: 0.6"/>
      </g>
     </g>
    </g>
    <g id="xtick_14">
     <g id="line2d_27">
      <path d="M 179.517902 173.52 
L 179.517902 7.2 
" clip-path="url(#p9bdfa15d7d)" style="fill: none; stroke: #b0b0b0; stroke-width: 0.8; stroke-linecap: square"/>
     </g>
     <g id="line2d_28">
      <g>
       <use xlink:href="#mf5bef32db7" x="179.517902" y="173.52" style="stroke: #000000; stroke-width: 0.6"/>
      </g>
     </g>
    </g>
    <g id="xtick_15">
     <g id="line2d_29">
      <path d="M 194.08756 173.52 
L 194.08756 7.2 
" clip-path="url(#p9bdfa15d7d)" style="fill: none; stroke: #b0b0b0; stroke-width: 0.8; stroke-linecap: square"/>
     </g>
     <g id="line2d_30">
      <g>
       <use xlink:href="#mf5bef32db7" x="194.08756" y="173.52" style="stroke: #000000; stroke-width: 0.6"/>
      </g>
     </g>
    </g>
    <g id="xtick_16">
     <g id="line2d_31">
      <path d="M 205.388665 173.52 
L 205.388665 7.2 
" clip-path="url(#p9bdfa15d7d)" style="fill: none; stroke: #b0b0b0; stroke-width: 0.8; stroke-linecap: square"/>
     </g>
     <g id="line2d_32">
      <g>
       <use xlink:href="#mf5bef32db7" x="205.388665" y="173.52" style="stroke: #000000; stroke-width: 0.6"/>
      </g>
     </g>
    </g>
    <g id="xtick_17">
     <g id="line2d_33">
      <path d="M 214.62234 173.52 
L 214.62234 7.2 
" clip-path="url(#p9bdfa15d7d)" style="fill: none; stroke: #b0b0b0; stroke-width: 0.8; stroke-linecap: square"/>
     </g>
     <g id="line2d_34">
      <g>
       <use xlink:href="#mf5bef32db7" x="214.62234" y="173.52" style="stroke: #000000; stroke-width: 0.6"/>
      </g>
     </g>
    </g>
    <g id="xtick_18">
     <g id="line2d_35">
      <path d="M 222.429301 173.52 
L 222.429301 7.2 
" clip-path="url(#p9bdfa15d7d)" style="fill: none; stroke: #b0b0b0; stroke-width: 0.8; stroke-linecap: square"/>
     </g>
     <g id="line2d_36">
      <g>
       <use xlink:href="#mf5bef32db7" x="222.429301" y="173.52" style="stroke: #000000; stroke-width: 0.6"/>
      </g>
     </g>
    </g>
    <g id="xtick_19">
     <g id="line2d_37">
      <path d="M 229.191998 173.52 
L 229.191998 7.2 
" clip-path="url(#p9bdfa15d7d)" style="fill: none; stroke: #b0b0b0; stroke-width: 0.8; stroke-linecap: square"/>
     </g>
     <g id="line2d_38">
      <g>
       <use xlink:href="#mf5bef32db7" x="229.191998" y="173.52" style="stroke: #000000; stroke-width: 0.6"/>
      </g>
     </g>
    </g>
    <g id="xtick_20">
     <g id="line2d_39">
      <path d="M 235.15712 173.52 
L 235.15712 7.2 
" clip-path="url(#p9bdfa15d7d)" style="fill: none; stroke: #b0b0b0; stroke-width: 0.8; stroke-linecap: square"/>
     </g>
     <g id="line2d_40">
      <g>
       <use xlink:href="#mf5bef32db7" x="235.15712" y="173.52" style="stroke: #000000; stroke-width: 0.6"/>
      </g>
     </g>
    </g>
    <g id="xtick_21">
     <g id="line2d_41">
      <path d="M 275.597542 173.52 
L 275.597542 7.2 
" clip-path="url(#p9bdfa15d7d)" style="fill: none; stroke: #b0b0b0; stroke-width: 0.8; stroke-linecap: square"/>
     </g>
     <g id="line2d_42">
      <g>
       <use xlink:href="#mf5bef32db7" x="275.597542" y="173.52" style="stroke: #000000; stroke-width: 0.6"/>
      </g>
     </g>
    </g>
    <g id="xtick_22">
     <g id="line2d_43">
      <path d="M 296.132322 173.52 
L 296.132322 7.2 
" clip-path="url(#p9bdfa15d7d)" style="fill: none; stroke: #b0b0b0; stroke-width: 0.8; stroke-linecap: square"/>
     </g>
     <g id="line2d_44">
      <g>
       <use xlink:href="#mf5bef32db7" x="296.132322" y="173.52" style="stroke: #000000; stroke-width: 0.6"/>
      </g>
     </g>
    </g>
    <g id="xtick_23">
     <g id="line2d_45">
      <path d="M 310.70198 173.52 
L 310.70198 7.2 
" clip-path="url(#p9bdfa15d7d)" style="fill: none; stroke: #b0b0b0; stroke-width: 0.8; stroke-linecap: square"/>
     </g>
     <g id="line2d_46">
      <g>
       <use xlink:href="#mf5bef32db7" x="310.70198" y="173.52" style="stroke: #000000; stroke-width: 0.6"/>
      </g>
     </g>
    </g>
    <g id="xtick_24">
     <g id="line2d_47">
      <path d="M 322.003085 173.52 
L 322.003085 7.2 
" clip-path="url(#p9bdfa15d7d)" style="fill: none; stroke: #b0b0b0; stroke-width: 0.8; stroke-linecap: square"/>
     </g>
     <g id="line2d_48">
      <g>
       <use xlink:href="#mf5bef32db7" x="322.003085" y="173.52" style="stroke: #000000; stroke-width: 0.6"/>
      </g>
     </g>
    </g>
    <g id="xtick_25">
     <g id="line2d_49">
      <path d="M 331.23676 173.52 
L 331.23676 7.2 
" clip-path="url(#p9bdfa15d7d)" style="fill: none; stroke: #b0b0b0; stroke-width: 0.8; stroke-linecap: square"/>
     </g>
     <g id="line2d_50">
      <g>
       <use xlink:href="#mf5bef32db7" x="331.23676" y="173.52" style="stroke: #000000; stroke-width: 0.6"/>
      </g>
     </g>
    </g>
    <g id="xtick_26">
     <g id="line2d_51">
      <path d="M 339.043721 173.52 
L 339.043721 7.2 
" clip-path="url(#p9bdfa15d7d)" style="fill: none; stroke: #b0b0b0; stroke-width: 0.8; stroke-linecap: square"/>
     </g>
     <g id="line2d_52">
      <g>
       <use xlink:href="#mf5bef32db7" x="339.043721" y="173.52" style="stroke: #000000; stroke-width: 0.6"/>
      </g>
     </g>
    </g>
    <g id="xtick_27">
     <g id="line2d_53">
      <path d="M 345.806419 173.52 
L 345.806419 7.2 
" clip-path="url(#p9bdfa15d7d)" style="fill: none; stroke: #b0b0b0; stroke-width: 0.8; stroke-linecap: square"/>
     </g>
     <g id="line2d_54">
      <g>
       <use xlink:href="#mf5bef32db7" x="345.806419" y="173.52" style="stroke: #000000; stroke-width: 0.6"/>
      </g>
     </g>
    </g>
    <g id="xtick_28">
     <g id="line2d_55">
      <path d="M 351.77154 173.52 
L 351.77154 7.2 
" clip-path="url(#p9bdfa15d7d)" style="fill: none; stroke: #b0b0b0; stroke-width: 0.8; stroke-linecap: square"/>
     </g>
     <g id="line2d_56">
      <g>
       <use xlink:href="#mf5bef32db7" x="351.77154" y="173.52" style="stroke: #000000; stroke-width: 0.6"/>
      </g>
     </g>
    </g>
    <g id="xtick_29">
     <g id="line2d_57">
      <path d="M 392.211962 173.52 
L 392.211962 7.2 
" clip-path="url(#p9bdfa15d7d)" style="fill: none; stroke: #b0b0b0; stroke-width: 0.8; stroke-linecap: square"/>
     </g>
     <g id="line2d_58">
      <g>
       <use xlink:href="#mf5bef32db7" x="392.211962" y="173.52" style="stroke: #000000; stroke-width: 0.6"/>
      </g>
     </g>
    </g>
    <g id="xtick_30">
     <g id="line2d_59">
      <path d="M 412.746742 173.52 
L 412.746742 7.2 
" clip-path="url(#p9bdfa15d7d)" style="fill: none; stroke: #b0b0b0; stroke-width: 0.8; stroke-linecap: square"/>
     </g>
     <g id="line2d_60">
      <g>
       <use xlink:href="#mf5bef32db7" x="412.746742" y="173.52" style="stroke: #000000; stroke-width: 0.6"/>
      </g>
     </g>
    </g>
    <g id="xtick_31">
     <g id="line2d_61">
      <path d="M 427.3164 173.52 
L 427.3164 7.2 
" clip-path="url(#p9bdfa15d7d)" style="fill: none; stroke: #b0b0b0; stroke-width: 0.8; stroke-linecap: square"/>
     </g>
     <g id="line2d_62">
      <g>
       <use xlink:href="#mf5bef32db7" x="427.3164" y="173.52" style="stroke: #000000; stroke-width: 0.6"/>
      </g>
     </g>
    </g>
    <g id="xtick_32">
     <g id="line2d_63">
      <path d="M 438.617505 173.52 
L 438.617505 7.2 
" clip-path="url(#p9bdfa15d7d)" style="fill: none; stroke: #b0b0b0; stroke-width: 0.8; stroke-linecap: square"/>
     </g>
     <g id="line2d_64">
      <g>
       <use xlink:href="#mf5bef32db7" x="438.617505" y="173.52" style="stroke: #000000; stroke-width: 0.6"/>
      </g>
     </g>
    </g>
    <g id="xtick_33">
     <g id="line2d_65">
      <path d="M 447.85118 173.52 
L 447.85118 7.2 
" clip-path="url(#p9bdfa15d7d)" style="fill: none; stroke: #b0b0b0; stroke-width: 0.8; stroke-linecap: square"/>
     </g>
     <g id="line2d_66">
      <g>
       <use xlink:href="#mf5bef32db7" x="447.85118" y="173.52" style="stroke: #000000; stroke-width: 0.6"/>
      </g>
     </g>
    </g>
    <g id="xtick_34">
     <g id="line2d_67">
      <path d="M 455.658141 173.52 
L 455.658141 7.2 
" clip-path="url(#p9bdfa15d7d)" style="fill: none; stroke: #b0b0b0; stroke-width: 0.8; stroke-linecap: square"/>
     </g>
     <g id="line2d_68">
      <g>
       <use xlink:href="#mf5bef32db7" x="455.658141" y="173.52" style="stroke: #000000; stroke-width: 0.6"/>
      </g>
     </g>
    </g>
    <g id="xtick_35">
     <g id="line2d_69">
      <path d="M 462.420839 173.52 
L 462.420839 7.2 
" clip-path="url(#p9bdfa15d7d)" style="fill: none; stroke: #b0b0b0; stroke-width: 0.8; stroke-linecap: square"/>
     </g>
     <g id="line2d_70">
      <g>
       <use xlink:href="#mf5bef32db7" x="462.420839" y="173.52" style="stroke: #000000; stroke-width: 0.6"/>
      </g>
     </g>
    </g>
    <g id="xtick_36">
     <g id="line2d_71">
      <path d="M 468.38596 173.52 
L 468.38596 7.2 
" clip-path="url(#p9bdfa15d7d)" style="fill: none; stroke: #b0b0b0; stroke-width: 0.8; stroke-linecap: square"/>
     </g>
     <g id="line2d_72">
      <g>
       <use xlink:href="#mf5bef32db7" x="468.38596" y="173.52" style="stroke: #000000; stroke-width: 0.6"/>
      </g>
     </g>
    </g>
    <g id="xtick_37">
     <g id="line2d_73">
      <path d="M 508.826382 173.52 
L 508.826382 7.2 
" clip-path="url(#p9bdfa15d7d)" style="fill: none; stroke: #b0b0b0; stroke-width: 0.8; stroke-linecap: square"/>
     </g>
     <g id="line2d_74">
      <g>
       <use xlink:href="#mf5bef32db7" x="508.826382" y="173.52" style="stroke: #000000; stroke-width: 0.6"/>
      </g>
     </g>
    </g>
    <g id="xtick_38">
     <g id="line2d_75">
      <path d="M 529.361162 173.52 
L 529.361162 7.2 
" clip-path="url(#p9bdfa15d7d)" style="fill: none; stroke: #b0b0b0; stroke-width: 0.8; stroke-linecap: square"/>
     </g>
     <g id="line2d_76">
      <g>
       <use xlink:href="#mf5bef32db7" x="529.361162" y="173.52" style="stroke: #000000; stroke-width: 0.6"/>
      </g>
     </g>
    </g>
    <g id="xtick_39">
     <g id="line2d_77">
      <path d="M 543.93082 173.52 
L 543.93082 7.2 
" clip-path="url(#p9bdfa15d7d)" style="fill: none; stroke: #b0b0b0; stroke-width: 0.8; stroke-linecap: square"/>
     </g>
     <g id="line2d_78">
      <g>
       <use xlink:href="#mf5bef32db7" x="543.93082" y="173.52" style="stroke: #000000; stroke-width: 0.6"/>
      </g>
     </g>
    </g>
    <g id="xtick_40">
     <g id="line2d_79">
      <path d="M 555.231925 173.52 
L 555.231925 7.2 
" clip-path="url(#p9bdfa15d7d)" style="fill: none; stroke: #b0b0b0; stroke-width: 0.8; stroke-linecap: square"/>
     </g>
     <g id="line2d_80">
      <g>
       <use xlink:href="#mf5bef32db7" x="555.231925" y="173.52" style="stroke: #000000; stroke-width: 0.6"/>
      </g>
     </g>
    </g>
    <g id="xtick_41">
     <g id="line2d_81">
      <path d="M 564.4656 173.52 
L 564.4656 7.2 
" clip-path="url(#p9bdfa15d7d)" style="fill: none; stroke: #b0b0b0; stroke-width: 0.8; stroke-linecap: square"/>
     </g>
     <g id="line2d_82">
      <g>
       <use xlink:href="#mf5bef32db7" x="564.4656" y="173.52" style="stroke: #000000; stroke-width: 0.6"/>
      </g>
     </g>
    </g>
    <g id="xtick_42">
     <g id="line2d_83">
      <path d="M 572.272561 173.52 
L 572.272561 7.2 
" clip-path="url(#p9bdfa15d7d)" style="fill: none; stroke: #b0b0b0; stroke-width: 0.8; stroke-linecap: square"/>
     </g>
     <g id="line2d_84">
      <g>
       <use xlink:href="#mf5bef32db7" x="572.272561" y="173.52" style="stroke: #000000; stroke-width: 0.6"/>
      </g>
     </g>
    </g>
    <g id="xtick_43">
     <g id="line2d_85">
      <path d="M 579.035259 173.52 
L 579.035259 7.2 
" clip-path="url(#p9bdfa15d7d)" style="fill: none; stroke: #b0b0b0; stroke-width: 0.8; stroke-linecap: square"/>
     </g>
     <g id="line2d_86">
      <g>
       <use xlink:href="#mf5bef32db7" x="579.035259" y="173.52" style="stroke: #000000; stroke-width: 0.6"/>
      </g>
     </g>
    </g>
    <g id="xtick_44">
     <g id="line2d_87">
      <path d="M 585.00038 173.52 
L 585.00038 7.2 
" clip-path="url(#p9bdfa15d7d)" style="fill: none; stroke: #b0b0b0; stroke-width: 0.8; stroke-linecap: square"/>
     </g>
     <g id="line2d_88">
      <g>
       <use xlink:href="#mf5bef32db7" x="585.00038" y="173.52" style="stroke: #000000; stroke-width: 0.6"/>
      </g>
     </g>
    </g>
    <g id="text_6">
     <!-- Frequency (Hz) -->
     <g transform="translate(298.995313 201.796563) scale(0.1 -0.1)">
      <defs>
       <path id="DejaVuSans-46" d="M 628 4666 
L 3309 4666 
L 3309 4134 
L 1259 4134 
L 1259 2759 
L 3109 2759 
L 3109 2228 
L 1259 2228 
L 1259 0 
L 628 0 
L 628 4666 
z
" transform="scale(0.015625)"/>
       <path id="DejaVuSans-72" d="M 2631 2963 
Q 2534 3019 2420 3045 
Q 2306 3072 2169 3072 
Q 1681 3072 1420 2755 
Q 1159 2438 1159 1844 
L 1159 0 
L 581 0 
L 581 3500 
L 1159 3500 
L 1159 2956 
Q 1341 3275 1631 3429 
Q 1922 3584 2338 3584 
Q 2397 3584 2469 3576 
Q 2541 3569 2628 3553 
L 2631 2963 
z
" transform="scale(0.015625)"/>
       <path id="DejaVuSans-65" d="M 3597 1894 
L 3597 1613 
L 953 1613 
Q 991 1019 1311 708 
Q 1631 397 2203 397 
Q 2534 397 2845 478 
Q 3156 559 3463 722 
L 3463 178 
Q 3153 47 2828 -22 
Q 2503 -91 2169 -91 
Q 1331 -91 842 396 
Q 353 884 353 1716 
Q 353 2575 817 3079 
Q 1281 3584 2069 3584 
Q 2775 3584 3186 3129 
Q 3597 2675 3597 1894 
z
M 3022 2063 
Q 3016 2534 2758 2815 
Q 2500 3097 2075 3097 
Q 1594 3097 1305 2825 
Q 1016 2553 972 2059 
L 3022 2063 
z
" transform="scale(0.015625)"/>
       <path id="DejaVuSans-71" d="M 947 1747 
Q 947 1113 1208 752 
Q 1469 391 1925 391 
Q 2381 391 2643 752 
Q 2906 1113 2906 1747 
Q 2906 2381 2643 2742 
Q 2381 3103 1925 3103 
Q 1469 3103 1208 2742 
Q 947 2381 947 1747 
z
M 2906 525 
Q 2725 213 2448 61 
Q 2172 -91 1784 -91 
Q 1150 -91 751 415 
Q 353 922 353 1747 
Q 353 2572 751 3078 
Q 1150 3584 1784 3584 
Q 2172 3584 2448 3432 
Q 2725 3281 2906 2969 
L 2906 3500 
L 3481 3500 
L 3481 -1331 
L 2906 -1331 
L 2906 525 
z
" transform="scale(0.015625)"/>
       <path id="DejaVuSans-75" d="M 544 1381 
L 544 3500 
L 1119 3500 
L 1119 1403 
Q 1119 906 1312 657 
Q 1506 409 1894 409 
Q 2359 409 2629 706 
Q 2900 1003 2900 1516 
L 2900 3500 
L 3475 3500 
L 3475 0 
L 2900 0 
L 2900 538 
Q 2691 219 2414 64 
Q 2138 -91 1772 -91 
Q 1169 -91 856 284 
Q 544 659 544 1381 
z
M 1991 3584 
L 1991 3584 
z
" transform="scale(0.015625)"/>
       <path id="DejaVuSans-6e" d="M 3513 2113 
L 3513 0 
L 2938 0 
L 2938 2094 
Q 2938 2591 2744 2837 
Q 2550 3084 2163 3084 
Q 1697 3084 1428 2787 
Q 1159 2491 1159 1978 
L 1159 0 
L 581 0 
L 581 3500 
L 1159 3500 
L 1159 2956 
Q 1366 3272 1645 3428 
Q 1925 3584 2291 3584 
Q 2894 3584 3203 3211 
Q 3513 2838 3513 2113 
z
" transform="scale(0.015625)"/>
       <path id="DejaVuSans-63" d="M 3122 3366 
L 3122 2828 
Q 2878 2963 2633 3030 
Q 2388 3097 2138 3097 
Q 1578 3097 1268 2742 
Q 959 2388 959 1747 
Q 959 1106 1268 751 
Q 1578 397 2138 397 
Q 2388 397 2633 464 
Q 2878 531 3122 666 
L 3122 134 
Q 2881 22 2623 -34 
Q 2366 -91 2075 -91 
Q 1284 -91 818 406 
Q 353 903 353 1747 
Q 353 2603 823 3093 
Q 1294 3584 2113 3584 
Q 2378 3584 2631 3529 
Q 2884 3475 3122 3366 
z
" transform="scale(0.015625)"/>
       <path id="DejaVuSans-79" d="M 2059 -325 
Q 1816 -950 1584 -1140 
Q 1353 -1331 966 -1331 
L 506 -1331 
L 506 -850 
L 844 -850 
Q 1081 -850 1212 -737 
Q 1344 -625 1503 -206 
L 1606 56 
L 191 3500 
L 800 3500 
L 1894 763 
L 2988 3500 
L 3597 3500 
L 2059 -325 
z
" transform="scale(0.015625)"/>
       <path id="DejaVuSans-20" transform="scale(0.015625)"/>
       <path id="DejaVuSans-28" d="M 1984 4856 
Q 1566 4138 1362 3434 
Q 1159 2731 1159 2009 
Q 1159 1288 1364 580 
Q 1569 -128 1984 -844 
L 1484 -844 
Q 1016 -109 783 600 
Q 550 1309 550 2009 
Q 550 2706 781 3412 
Q 1013 4119 1484 4856 
L 1984 4856 
z
" transform="scale(0.015625)"/>
       <path id="DejaVuSans-48" d="M 628 4666 
L 1259 4666 
L 1259 2753 
L 3553 2753 
L 3553 4666 
L 4184 4666 
L 4184 0 
L 3553 0 
L 3553 2222 
L 1259 2222 
L 1259 0 
L 628 0 
L 628 4666 
z
" transform="scale(0.015625)"/>
       <path id="DejaVuSans-7a" d="M 353 3500 
L 3084 3500 
L 3084 2975 
L 922 459 
L 3084 459 
L 3084 0 
L 275 0 
L 275 525 
L 2438 3041 
L 353 3041 
L 353 3500 
z
" transform="scale(0.015625)"/>
       <path id="DejaVuSans-29" d="M 513 4856 
L 1013 4856 
Q 1481 4119 1714 3412 
Q 1947 2706 1947 2009 
Q 1947 1309 1714 600 
Q 1481 -109 1013 -844 
L 513 -844 
Q 928 -128 1133 580 
Q 1338 1288 1338 2009 
Q 1338 2731 1133 3434 
Q 928 4138 513 4856 
z
" transform="scale(0.015625)"/>
      </defs>
      <use xlink:href="#DejaVuSans-46"/>
      <use xlink:href="#DejaVuSans-72" x="50.269531"/>
      <use xlink:href="#DejaVuSans-65" x="89.132812"/>
      <use xlink:href="#DejaVuSans-71" x="150.65625"/>
      <use xlink:href="#DejaVuSans-75" x="214.132812"/>
      <use xlink:href="#DejaVuSans-65" x="277.511719"/>
      <use xlink:href="#DejaVuSans-6e" x="339.035156"/>
      <use xlink:href="#DejaVuSans-63" x="402.414062"/>
      <use xlink:href="#DejaVuSans-79" x="457.394531"/>
      <use xlink:href="#DejaVuSans-20" x="516.574219"/>
      <use xlink:href="#DejaVuSans-28" x="548.361328"/>
      <use xlink:href="#DejaVuSans-48" x="587.375"/>
      <use xlink:href="#DejaVuSans-7a" x="662.570312"/>
      <use xlink:href="#DejaVuSans-29" x="715.060547"/>
     </g>
    </g>
   </g>
   <g id="matplotlib.axis_2">
    <g id="ytick_1">
     <g id="line2d_89">
      <path d="M 57.7 141.729889 
L 615.7 141.729889 
" clip-path="url(#p9bdfa15d7d)" style="fill: none; stroke: #b0b0b0; stroke-width: 0.8; stroke-linecap: square"/>
     </g>
     <g id="line2d_90">
      <defs>
       <path id="m54a90ae677" d="M 0 0 
L -3.5 0 
" style="stroke: #000000; stroke-width: 0.8"/>
      </defs>
      <g>
       <use xlink:href="#m54a90ae677" x="57.7" y="141.729889" style="stroke: #000000; stroke-width: 0.8"/>
      </g>
     </g>
     <g id="text_7">
      <!-- $\mathdefault{10^{-7}}$ -->
      <g transform="translate(27.2 145.529107) scale(0.1 -0.1)">
       <defs>
        <path id="DejaVuSans-2212" d="M 678 2272 
L 4684 2272 
L 4684 1741 
L 678 1741 
L 678 2272 
z
" transform="scale(0.015625)"/>
        <path id="DejaVuSans-37" d="M 525 4666 
L 3525 4666 
L 3525 4397 
L 1831 0 
L 1172 0 
L 2766 4134 
L 525 4134 
L 525 4666 
z
" transform="scale(0.015625)"/>
       </defs>
       <use xlink:href="#DejaVuSans-31" transform="translate(0 0.684375)"/>
       <use xlink:href="#DejaVuSans-30" transform="translate(63.623047 0.684375)"/>
       <use xlink:href="#DejaVuSans-2212" transform="translate(128.203125 38.965625) scale(0.7)"/>
       <use xlink:href="#DejaVuSans-37" transform="translate(186.855469 38.965625) scale(0.7)"/>
      </g>
     </g>
    </g>
    <g id="ytick_2">
     <g id="line2d_91">
      <path d="M 57.7 45.272769 
L 615.7 45.272769 
" clip-path="url(#p9bdfa15d7d)" style="fill: none; stroke: #b0b0b0; stroke-width: 0.8; stroke-linecap: square"/>
     </g>
     <g id="line2d_92">
      <g>
       <use xlink:href="#m54a90ae677" x="57.7" y="45.272769" style="stroke: #000000; stroke-width: 0.8"/>
      </g>
     </g>
     <g id="text_8">
      <!-- $\mathdefault{10^{-6}}$ -->
      <g transform="translate(27.2 49.071988) scale(0.1 -0.1)">
       <defs>
        <path id="DejaVuSans-36" d="M 2113 2584 
Q 1688 2584 1439 2293 
Q 1191 2003 1191 1497 
Q 1191 994 1439 701 
Q 1688 409 2113 409 
Q 2538 409 2786 701 
Q 3034 994 3034 1497 
Q 3034 2003 2786 2293 
Q 2538 2584 2113 2584 
z
M 3366 4563 
L 3366 3988 
Q 3128 4100 2886 4159 
Q 2644 4219 2406 4219 
Q 1781 4219 1451 3797 
Q 1122 3375 1075 2522 
Q 1259 2794 1537 2939 
Q 1816 3084 2150 3084 
Q 2853 3084 3261 2657 
Q 3669 2231 3669 1497 
Q 3669 778 3244 343 
Q 2819 -91 2113 -91 
Q 1303 -91 875 529 
Q 447 1150 447 2328 
Q 447 3434 972 4092 
Q 1497 4750 2381 4750 
Q 2619 4750 2861 4703 
Q 3103 4656 3366 4563 
z
" transform="scale(0.015625)"/>
       </defs>
       <use xlink:href="#DejaVuSans-31" transform="translate(0 0.765625)"/>
       <use xlink:href="#DejaVuSans-30" transform="translate(63.623047 0.765625)"/>
       <use xlink:href="#DejaVuSans-2212" transform="translate(128.203125 39.046875) scale(0.7)"/>
       <use xlink:href="#DejaVuSans-36" transform="translate(186.855469 39.046875) scale(0.7)"/>
      </g>
     </g>
    </g>
    <g id="ytick_3">
     <g id="line2d_93">
      <path d="M 57.7 170.766375 
L 615.7 170.766375 
" clip-path="url(#p9bdfa15d7d)" style="fill: none; stroke: #b0b0b0; stroke-width: 0.8; stroke-linecap: square"/>
     </g>
     <g id="line2d_94">
      <defs>
       <path id="mf4f561e694" d="M 0 0 
L -2 0 
" style="stroke: #000000; stroke-width: 0.6"/>
      </defs>
      <g>
       <use xlink:href="#mf4f561e694" x="57.7" y="170.766375" style="stroke: #000000; stroke-width: 0.6"/>
      </g>
     </g>
    </g>
    <g id="ytick_4">
     <g id="line2d_95">
      <path d="M 57.7 163.12878 
L 615.7 163.12878 
" clip-path="url(#p9bdfa15d7d)" style="fill: none; stroke: #b0b0b0; stroke-width: 0.8; stroke-linecap: square"/>
     </g>
     <g id="line2d_96">
      <g>
       <use xlink:href="#mf4f561e694" x="57.7" y="163.12878" style="stroke: #000000; stroke-width: 0.6"/>
      </g>
     </g>
    </g>
    <g id="ytick_5">
     <g id="line2d_97">
      <path d="M 57.7 156.671286 
L 615.7 156.671286 
" clip-path="url(#p9bdfa15d7d)" style="fill: none; stroke: #b0b0b0; stroke-width: 0.8; stroke-linecap: square"/>
     </g>
     <g id="line2d_98">
      <g>
       <use xlink:href="#mf4f561e694" x="57.7" y="156.671286" style="stroke: #000000; stroke-width: 0.6"/>
      </g>
     </g>
    </g>
    <g id="ytick_6">
     <g id="line2d_99">
      <path d="M 57.7 151.077549 
L 615.7 151.077549 
" clip-path="url(#p9bdfa15d7d)" style="fill: none; stroke: #b0b0b0; stroke-width: 0.8; stroke-linecap: square"/>
     </g>
     <g id="line2d_100">
      <g>
       <use xlink:href="#mf4f561e694" x="57.7" y="151.077549" style="stroke: #000000; stroke-width: 0.6"/>
      </g>
     </g>
    </g>
    <g id="ytick_7">
     <g id="line2d_101">
      <path d="M 57.7 146.143524 
L 615.7 146.143524 
" clip-path="url(#p9bdfa15d7d)" style="fill: none; stroke: #b0b0b0; stroke-width: 0.8; stroke-linecap: square"/>
     </g>
     <g id="line2d_102">
      <g>
       <use xlink:href="#mf4f561e694" x="57.7" y="146.143524" style="stroke: #000000; stroke-width: 0.6"/>
      </g>
     </g>
    </g>
    <g id="ytick_8">
     <g id="line2d_103">
      <path d="M 57.7 112.693402 
L 615.7 112.693402 
" clip-path="url(#p9bdfa15d7d)" style="fill: none; stroke: #b0b0b0; stroke-width: 0.8; stroke-linecap: square"/>
     </g>
     <g id="line2d_104">
      <g>
       <use xlink:href="#mf4f561e694" x="57.7" y="112.693402" style="stroke: #000000; stroke-width: 0.6"/>
      </g>
     </g>
    </g>
    <g id="ytick_9">
     <g id="line2d_105">
      <path d="M 57.7 95.708147 
L 615.7 95.708147 
" clip-path="url(#p9bdfa15d7d)" style="fill: none; stroke: #b0b0b0; stroke-width: 0.8; stroke-linecap: square"/>
     </g>
     <g id="line2d_106">
      <g>
       <use xlink:href="#mf4f561e694" x="57.7" y="95.708147" style="stroke: #000000; stroke-width: 0.6"/>
      </g>
     </g>
    </g>
    <g id="ytick_10">
     <g id="line2d_107">
      <path d="M 57.7 83.656916 
L 615.7 83.656916 
" clip-path="url(#p9bdfa15d7d)" style="fill: none; stroke: #b0b0b0; stroke-width: 0.8; stroke-linecap: square"/>
     </g>
     <g id="line2d_108">
      <g>
       <use xlink:href="#mf4f561e694" x="57.7" y="83.656916" style="stroke: #000000; stroke-width: 0.6"/>
      </g>
     </g>
    </g>
    <g id="ytick_11">
     <g id="line2d_109">
      <path d="M 57.7 74.309255 
L 615.7 74.309255 
" clip-path="url(#p9bdfa15d7d)" style="fill: none; stroke: #b0b0b0; stroke-width: 0.8; stroke-linecap: square"/>
     </g>
     <g id="line2d_110">
      <g>
       <use xlink:href="#mf4f561e694" x="57.7" y="74.309255" style="stroke: #000000; stroke-width: 0.6"/>
      </g>
     </g>
    </g>
    <g id="ytick_12">
     <g id="line2d_111">
      <path d="M 57.7 66.67166 
L 615.7 66.67166 
" clip-path="url(#p9bdfa15d7d)" style="fill: none; stroke: #b0b0b0; stroke-width: 0.8; stroke-linecap: square"/>
     </g>
     <g id="line2d_112">
      <g>
       <use xlink:href="#mf4f561e694" x="57.7" y="66.67166" style="stroke: #000000; stroke-width: 0.6"/>
      </g>
     </g>
    </g>
    <g id="ytick_13">
     <g id="line2d_113">
      <path d="M 57.7 60.214166 
L 615.7 60.214166 
" clip-path="url(#p9bdfa15d7d)" style="fill: none; stroke: #b0b0b0; stroke-width: 0.8; stroke-linecap: square"/>
     </g>
     <g id="line2d_114">
      <g>
       <use xlink:href="#mf4f561e694" x="57.7" y="60.214166" style="stroke: #000000; stroke-width: 0.6"/>
      </g>
     </g>
    </g>
    <g id="ytick_14">
     <g id="line2d_115">
      <path d="M 57.7 54.62043 
L 615.7 54.62043 
" clip-path="url(#p9bdfa15d7d)" style="fill: none; stroke: #b0b0b0; stroke-width: 0.8; stroke-linecap: square"/>
     </g>
     <g id="line2d_116">
      <g>
       <use xlink:href="#mf4f561e694" x="57.7" y="54.62043" style="stroke: #000000; stroke-width: 0.6"/>
      </g>
     </g>
    </g>
    <g id="ytick_15">
     <g id="line2d_117">
      <path d="M 57.7 49.686405 
L 615.7 49.686405 
" clip-path="url(#p9bdfa15d7d)" style="fill: none; stroke: #b0b0b0; stroke-width: 0.8; stroke-linecap: square"/>
     </g>
     <g id="line2d_118">
      <g>
       <use xlink:href="#mf4f561e694" x="57.7" y="49.686405" style="stroke: #000000; stroke-width: 0.6"/>
      </g>
     </g>
    </g>
    <g id="ytick_16">
     <g id="line2d_119">
      <path d="M 57.7 16.236283 
L 615.7 16.236283 
" clip-path="url(#p9bdfa15d7d)" style="fill: none; stroke: #b0b0b0; stroke-width: 0.8; stroke-linecap: square"/>
     </g>
     <g id="line2d_120">
      <g>
       <use xlink:href="#mf4f561e694" x="57.7" y="16.236283" style="stroke: #000000; stroke-width: 0.6"/>
      </g>
     </g>
    </g>
    <g id="text_9">
     <!-- Noise Voltage $(\frac{V}{\sqrt{Hz}})$ -->
     <g transform="translate(16.7 138.51) rotate(-90) scale(0.1 -0.1)">
      <defs>
       <path id="DejaVuSans-4e" d="M 628 4666 
L 1478 4666 
L 3547 763 
L 3547 4666 
L 4159 4666 
L 4159 0 
L 3309 0 
L 1241 3903 
L 1241 0 
L 628 0 
L 628 4666 
z
" transform="scale(0.015625)"/>
       <path id="DejaVuSans-6f" d="M 1959 3097 
Q 1497 3097 1228 2736 
Q 959 2375 959 1747 
Q 959 1119 1226 758 
Q 1494 397 1959 397 
Q 2419 397 2687 759 
Q 2956 1122 2956 1747 
Q 2956 2369 2687 2733 
Q 2419 3097 1959 3097 
z
M 1959 3584 
Q 2709 3584 3137 3096 
Q 3566 2609 3566 1747 
Q 3566 888 3137 398 
Q 2709 -91 1959 -91 
Q 1206 -91 779 398 
Q 353 888 353 1747 
Q 353 2609 779 3096 
Q 1206 3584 1959 3584 
z
" transform="scale(0.015625)"/>
       <path id="DejaVuSans-69" d="M 603 3500 
L 1178 3500 
L 1178 0 
L 603 0 
L 603 3500 
z
M 603 4863 
L 1178 4863 
L 1178 4134 
L 603 4134 
L 603 4863 
z
" transform="scale(0.015625)"/>
       <path id="DejaVuSans-73" d="M 2834 3397 
L 2834 2853 
Q 2591 2978 2328 3040 
Q 2066 3103 1784 3103 
Q 1356 3103 1142 2972 
Q 928 2841 928 2578 
Q 928 2378 1081 2264 
Q 1234 2150 1697 2047 
L 1894 2003 
Q 2506 1872 2764 1633 
Q 3022 1394 3022 966 
Q 3022 478 2636 193 
Q 2250 -91 1575 -91 
Q 1294 -91 989 -36 
Q 684 19 347 128 
L 347 722 
Q 666 556 975 473 
Q 1284 391 1588 391 
Q 1994 391 2212 530 
Q 2431 669 2431 922 
Q 2431 1156 2273 1281 
Q 2116 1406 1581 1522 
L 1381 1569 
Q 847 1681 609 1914 
Q 372 2147 372 2553 
Q 372 3047 722 3315 
Q 1072 3584 1716 3584 
Q 2034 3584 2315 3537 
Q 2597 3491 2834 3397 
z
" transform="scale(0.015625)"/>
       <path id="DejaVuSans-56" d="M 1831 0 
L 50 4666 
L 709 4666 
L 2188 738 
L 3669 4666 
L 4325 4666 
L 2547 0 
L 1831 0 
z
" transform="scale(0.015625)"/>
       <path id="DejaVuSans-6c" d="M 603 4863 
L 1178 4863 
L 1178 0 
L 603 0 
L 603 4863 
z
" transform="scale(0.015625)"/>
       <path id="DejaVuSans-74" d="M 1172 4494 
L 1172 3500 
L 2356 3500 
L 2356 3053 
L 1172 3053 
L 1172 1153 
Q 1172 725 1289 603 
Q 1406 481 1766 481 
L 2356 481 
L 2356 0 
L 1766 0 
Q 1100 0 847 248 
Q 594 497 594 1153 
L 594 3053 
L 172 3053 
L 172 3500 
L 594 3500 
L 594 4494 
L 1172 4494 
z
" transform="scale(0.015625)"/>
       <path id="DejaVuSans-61" d="M 2194 1759 
Q 1497 1759 1228 1600 
Q 959 1441 959 1056 
Q 959 750 1161 570 
Q 1363 391 1709 391 
Q 2188 391 2477 730 
Q 2766 1069 2766 1631 
L 2766 1759 
L 2194 1759 
z
M 3341 1997 
L 3341 0 
L 2766 0 
L 2766 531 
Q 2569 213 2275 61 
Q 1981 -91 1556 -91 
Q 1019 -91 701 211 
Q 384 513 384 1019 
Q 384 1609 779 1909 
Q 1175 2209 1959 2209 
L 2766 2209 
L 2766 2266 
Q 2766 2663 2505 2880 
Q 2244 3097 1772 3097 
Q 1472 3097 1187 3025 
Q 903 2953 641 2809 
L 641 3341 
Q 956 3463 1253 3523 
Q 1550 3584 1831 3584 
Q 2591 3584 2966 3190 
Q 3341 2797 3341 1997 
z
" transform="scale(0.015625)"/>
       <path id="DejaVuSans-67" d="M 2906 1791 
Q 2906 2416 2648 2759 
Q 2391 3103 1925 3103 
Q 1463 3103 1205 2759 
Q 947 2416 947 1791 
Q 947 1169 1205 825 
Q 1463 481 1925 481 
Q 2391 481 2648 825 
Q 2906 1169 2906 1791 
z
M 3481 434 
Q 3481 -459 3084 -895 
Q 2688 -1331 1869 -1331 
Q 1566 -1331 1297 -1286 
Q 1028 -1241 775 -1147 
L 775 -588 
Q 1028 -725 1275 -790 
Q 1522 -856 1778 -856 
Q 2344 -856 2625 -561 
Q 2906 -266 2906 331 
L 2906 616 
Q 2728 306 2450 153 
Q 2172 0 1784 0 
Q 1141 0 747 490 
Q 353 981 353 1791 
Q 353 2603 747 3093 
Q 1141 3584 1784 3584 
Q 2172 3584 2450 3431 
Q 2728 3278 2906 2969 
L 2906 3500 
L 3481 3500 
L 3481 434 
z
" transform="scale(0.015625)"/>
       <path id="DejaVuSans-Oblique-56" d="M 1319 0 
L 500 4666 
L 1119 4666 
L 1797 653 
L 4063 4666 
L 4750 4666 
L 2053 0 
L 1319 0 
z
" transform="scale(0.015625)"/>
       <path id="STIXSizeOneSym-Regular-221a" d="M 6970 9933 
L 3373 -1888 
L 3104 -1888 
L 1626 2918 
Q 1555 3149 1465 3251 
Q 1376 3354 1229 3354 
Q 1011 3354 794 3181 
L 717 3309 
L 1766 4115 
L 1926 4115 
L 3379 -602 
L 3405 -602 
L 6605 9933 
L 6970 9933 
z
" transform="scale(0.015625)"/>
       <path id="DejaVuSans-Oblique-48" d="M 1081 4666 
L 1716 4666 
L 1344 2753 
L 3634 2753 
L 4006 4666 
L 4641 4666 
L 3731 0 
L 3097 0 
L 3531 2222 
L 1241 2222 
L 806 0 
L 172 0 
L 1081 4666 
z
" transform="scale(0.015625)"/>
       <path id="DejaVuSans-Oblique-7a" d="M 744 3500 
L 3475 3500 
L 3372 2975 
L 738 459 
L 2913 459 
L 2822 0 
L -19 0 
L 84 525 
L 2719 3041 
L 653 3041 
L 744 3500 
z
" transform="scale(0.015625)"/>
      </defs>
      <use xlink:href="#DejaVuSans-4e" transform="translate(0 0.16875)"/>
      <use xlink:href="#DejaVuSans-6f" transform="translate(74.804688 0.16875)"/>
      <use xlink:href="#DejaVuSans-69" transform="translate(135.986328 0.16875)"/>
      <use xlink:href="#DejaVuSans-73" transform="translate(163.769531 0.16875)"/>
      <use xlink:href="#DejaVuSans-65" transform="translate(215.869141 0.16875)"/>
      <use xlink:href="#DejaVuSans-20" transform="translate(277.392578 0.16875)"/>
      <use xlink:href="#DejaVuSans-56" transform="translate(309.179688 0.16875)"/>
      <use xlink:href="#DejaVuSans-6f" transform="translate(377.587891 0.16875)"/>
      <use xlink:href="#DejaVuSans-6c" transform="translate(438.769531 0.16875)"/>
      <use xlink:href="#DejaVuSans-74" transform="translate(466.552734 0.16875)"/>
      <use xlink:href="#DejaVuSans-61" transform="translate(505.761719 0.16875)"/>
      <use xlink:href="#DejaVuSans-67" transform="translate(567.041016 0.16875)"/>
      <use xlink:href="#DejaVuSans-65" transform="translate(630.517578 0.16875)"/>
      <use xlink:href="#DejaVuSans-20" transform="translate(692.041016 0.16875)"/>
      <use xlink:href="#DejaVuSans-28" transform="translate(723.828125 0.16875)"/>
      <use xlink:href="#DejaVuSans-Oblique-56" transform="translate(812.841797 43.965625) scale(0.7)"/>
      <use xlink:href="#STIXSizeOneSym-Regular-221a" transform="translate(762.841797 -52.31875) scale(0.394738)"/>
      <use xlink:href="#DejaVuSans-Oblique-48" transform="translate(813.303651 -63.69375) scale(0.7)"/>
      <use xlink:href="#DejaVuSans-Oblique-7a" transform="translate(865.94037 -63.69375) scale(0.7)"/>
      <use xlink:href="#DejaVuSans-29" transform="translate(923.933534 0.16875)"/>
      <path d="M 762.841797 18.965625 
L 762.841797 25.215625 
L 911.433534 25.215625 
L 911.433534 18.965625 
L 762.841797 18.965625 
z
"/>
      <path d="M 804.553651 3.965625 
L 804.553651 8.340625 
L 911.433534 8.340625 
L 911.433534 3.965625 
L 804.553651 3.965625 
z
"/>
     </g>
    </g>
   </g>
   <g id="LineCollection_1">
    <path d="M 88.774245 32.185795 
L 88.774245 26.799358 
" clip-path="url(#p9bdfa15d7d)" style="fill: none; stroke: #000000; stroke-width: 1.5"/>
    <path d="M 108.210007 82.886521 
L 108.210007 76.649929 
" clip-path="url(#p9bdfa15d7d)" style="fill: none; stroke: #000000; stroke-width: 1.5"/>
    <path d="M 127.644903 124.607377 
L 127.644903 117.518915 
" clip-path="url(#p9bdfa15d7d)" style="fill: none; stroke: #000000; stroke-width: 1.5"/>
    <path d="M 147.080211 129.99198 
L 147.080211 122.049843 
" clip-path="url(#p9bdfa15d7d)" style="fill: none; stroke: #000000; stroke-width: 1.5"/>
    <path d="M 166.517314 134.002637 
L 166.517314 125.204871 
" clip-path="url(#p9bdfa15d7d)" style="fill: none; stroke: #000000; stroke-width: 1.5"/>
    <path d="M 185.953518 154.512596 
L 185.953518 144.857241 
" clip-path="url(#p9bdfa15d7d)" style="fill: none; stroke: #000000; stroke-width: 1.5"/>
    <path d="M 205.388665 135.083225 
L 205.388665 124.56818 
" clip-path="url(#p9bdfa15d7d)" style="fill: none; stroke: #000000; stroke-width: 1.5"/>
    <path d="M 224.824427 141.393652 
L 224.824427 130.016584 
" clip-path="url(#p9bdfa15d7d)" style="fill: none; stroke: #000000; stroke-width: 1.5"/>
    <path d="M 244.259323 139.482628 
L 244.259323 127.241097 
" clip-path="url(#p9bdfa15d7d)" style="fill: none; stroke: #000000; stroke-width: 1.5"/>
    <path d="M 263.694631 142.981872 
L 263.694631 129.873201 
" clip-path="url(#p9bdfa15d7d)" style="fill: none; stroke: #000000; stroke-width: 1.5"/>
    <path d="M 283.131734 137.360368 
L 283.131734 123.381633 
" clip-path="url(#p9bdfa15d7d)" style="fill: none; stroke: #000000; stroke-width: 1.5"/>
    <path d="M 302.567938 144.613652 
L 302.567938 129.761855 
" clip-path="url(#p9bdfa15d7d)" style="fill: none; stroke: #000000; stroke-width: 1.5"/>
    <path d="M 322.003085 132.529984 
L 322.003085 116.801925 
" clip-path="url(#p9bdfa15d7d)" style="fill: none; stroke: #000000; stroke-width: 1.5"/>
    <path d="M 341.438847 158.549059 
L 341.438847 141.941188 
" clip-path="url(#p9bdfa15d7d)" style="fill: none; stroke: #000000; stroke-width: 1.5"/>
    <path d="M 360.873743 141.376069 
L 360.873743 123.884362 
" clip-path="url(#p9bdfa15d7d)" style="fill: none; stroke: #000000; stroke-width: 1.5"/>
    <path d="M 380.309051 150.005365 
L 380.309051 131.62413 
" clip-path="url(#p9bdfa15d7d)" style="fill: none; stroke: #000000; stroke-width: 1.5"/>
    <path d="M 399.746154 142.978768 
L 399.746154 123.696939 
" clip-path="url(#p9bdfa15d7d)" style="fill: none; stroke: #000000; stroke-width: 1.5"/>
    <path d="M 419.182358 146.101213 
L 419.182358 125.89322 
" clip-path="url(#p9bdfa15d7d)" style="fill: none; stroke: #000000; stroke-width: 1.5"/>
    <path d="M 438.617505 147.94421 
L 438.617505 126.759529 
" clip-path="url(#p9bdfa15d7d)" style="fill: none; stroke: #000000; stroke-width: 1.5"/>
    <path d="M 458.053267 155.397962 
L 458.053267 133.176915 
" clip-path="url(#p9bdfa15d7d)" style="fill: none; stroke: #000000; stroke-width: 1.5"/>
    <path d="M 477.488163 133.521977 
L 477.488163 110.243684 
" clip-path="url(#p9bdfa15d7d)" style="fill: none; stroke: #000000; stroke-width: 1.5"/>
    <path d="M 496.923471 160.715807 
L 496.923471 136.410421 
" clip-path="url(#p9bdfa15d7d)" style="fill: none; stroke: #000000; stroke-width: 1.5"/>
    <path d="M 516.360574 165.96 
L 516.360574 140.671814 
" clip-path="url(#p9bdfa15d7d)" style="fill: none; stroke: #000000; stroke-width: 1.5"/>
    <path d="M 535.796778 157.377532 
L 535.796778 131.137546 
" clip-path="url(#p9bdfa15d7d)" style="fill: none; stroke: #000000; stroke-width: 1.5"/>
    <path d="M 555.231925 155.575866 
L 555.231925 128.398514 
" clip-path="url(#p9bdfa15d7d)" style="fill: none; stroke: #000000; stroke-width: 1.5"/>
    <path d="M 574.667687 148.093317 
L 574.667687 119.981953 
" clip-path="url(#p9bdfa15d7d)" style="fill: none; stroke: #000000; stroke-width: 1.5"/>
   </g>
   <g id="line2d_121">
    <defs>
     <path id="me83369f64d" d="M 5 0 
L -5 -0 
" style="stroke: #000000"/>
    </defs>
    <g clip-path="url(#p9bdfa15d7d)">
     <use xlink:href="#me83369f64d" x="88.774245" y="32.185795" style="stroke: #000000"/>
     <use xlink:href="#me83369f64d" x="108.210007" y="82.886521" style="stroke: #000000"/>
     <use xlink:href="#me83369f64d" x="127.644903" y="124.607377" style="stroke: #000000"/>
     <use xlink:href="#me83369f64d" x="147.080211" y="129.99198" style="stroke: #000000"/>
     <use xlink:href="#me83369f64d" x="166.517314" y="134.002637" style="stroke: #000000"/>
     <use xlink:href="#me83369f64d" x="185.953518" y="154.512596" style="stroke: #000000"/>
     <use xlink:href="#me83369f64d" x="205.388665" y="135.083225" style="stroke: #000000"/>
     <use xlink:href="#me83369f64d" x="224.824427" y="141.393652" style="stroke: #000000"/>
     <use xlink:href="#me83369f64d" x="244.259323" y="139.482628" style="stroke: #000000"/>
     <use xlink:href="#me83369f64d" x="263.694631" y="142.981872" style="stroke: #000000"/>
     <use xlink:href="#me83369f64d" x="283.131734" y="137.360368" style="stroke: #000000"/>
     <use xlink:href="#me83369f64d" x="302.567938" y="144.613652" style="stroke: #000000"/>
     <use xlink:href="#me83369f64d" x="322.003085" y="132.529984" style="stroke: #000000"/>
     <use xlink:href="#me83369f64d" x="341.438847" y="158.549059" style="stroke: #000000"/>
     <use xlink:href="#me83369f64d" x="360.873743" y="141.376069" style="stroke: #000000"/>
     <use xlink:href="#me83369f64d" x="380.309051" y="150.005365" style="stroke: #000000"/>
     <use xlink:href="#me83369f64d" x="399.746154" y="142.978768" style="stroke: #000000"/>
     <use xlink:href="#me83369f64d" x="419.182358" y="146.101213" style="stroke: #000000"/>
     <use xlink:href="#me83369f64d" x="438.617505" y="147.94421" style="stroke: #000000"/>
     <use xlink:href="#me83369f64d" x="458.053267" y="155.397962" style="stroke: #000000"/>
     <use xlink:href="#me83369f64d" x="477.488163" y="133.521977" style="stroke: #000000"/>
     <use xlink:href="#me83369f64d" x="496.923471" y="160.715807" style="stroke: #000000"/>
     <use xlink:href="#me83369f64d" x="516.360574" y="165.96" style="stroke: #000000"/>
     <use xlink:href="#me83369f64d" x="535.796778" y="157.377532" style="stroke: #000000"/>
     <use xlink:href="#me83369f64d" x="555.231925" y="155.575866" style="stroke: #000000"/>
     <use xlink:href="#me83369f64d" x="574.667687" y="148.093317" style="stroke: #000000"/>
    </g>
   </g>
   <g id="line2d_122">
    <g clip-path="url(#p9bdfa15d7d)">
     <use xlink:href="#me83369f64d" x="88.774245" y="26.799358" style="stroke: #000000"/>
     <use xlink:href="#me83369f64d" x="108.210007" y="76.649929" style="stroke: #000000"/>
     <use xlink:href="#me83369f64d" x="127.644903" y="117.518915" style="stroke: #000000"/>
     <use xlink:href="#me83369f64d" x="147.080211" y="122.049843" style="stroke: #000000"/>
     <use xlink:href="#me83369f64d" x="166.517314" y="125.204871" style="stroke: #000000"/>
     <use xlink:href="#me83369f64d" x="185.953518" y="144.857241" style="stroke: #000000"/>
     <use xlink:href="#me83369f64d" x="205.388665" y="124.56818" style="stroke: #000000"/>
     <use xlink:href="#me83369f64d" x="224.824427" y="130.016584" style="stroke: #000000"/>
     <use xlink:href="#me83369f64d" x="244.259323" y="127.241097" style="stroke: #000000"/>
     <use xlink:href="#me83369f64d" x="263.694631" y="129.873201" style="stroke: #000000"/>
     <use xlink:href="#me83369f64d" x="283.131734" y="123.381633" style="stroke: #000000"/>
     <use xlink:href="#me83369f64d" x="302.567938" y="129.761855" style="stroke: #000000"/>
     <use xlink:href="#me83369f64d" x="322.003085" y="116.801925" style="stroke: #000000"/>
     <use xlink:href="#me83369f64d" x="341.438847" y="141.941188" style="stroke: #000000"/>
     <use xlink:href="#me83369f64d" x="360.873743" y="123.884362" style="stroke: #000000"/>
     <use xlink:href="#me83369f64d" x="380.309051" y="131.62413" style="stroke: #000000"/>
     <use xlink:href="#me83369f64d" x="399.746154" y="123.696939" style="stroke: #000000"/>
     <use xlink:href="#me83369f64d" x="419.182358" y="125.89322" style="stroke: #000000"/>
     <use xlink:href="#me83369f64d" x="438.617505" y="126.759529" style="stroke: #000000"/>
     <use xlink:href="#me83369f64d" x="458.053267" y="133.176915" style="stroke: #000000"/>
     <use xlink:href="#me83369f64d" x="477.488163" y="110.243684" style="stroke: #000000"/>
     <use xlink:href="#me83369f64d" x="496.923471" y="136.410421" style="stroke: #000000"/>
     <use xlink:href="#me83369f64d" x="516.360574" y="140.671814" style="stroke: #000000"/>
     <use xlink:href="#me83369f64d" x="535.796778" y="131.137546" style="stroke: #000000"/>
     <use xlink:href="#me83369f64d" x="555.231925" y="128.398514" style="stroke: #000000"/>
     <use xlink:href="#me83369f64d" x="574.667687" y="119.981953" style="stroke: #000000"/>
    </g>
   </g>
   <g id="line2d_123"/>
   <g id="line2d_124">
    <path d="M 83.063636 14.76 
L 99.820393 58.271045 
L 107.437101 77.484419 
L 112.514906 89.748196 
L 116.57715 99.002876 
L 119.623833 105.473545 
L 122.670516 111.420582 
L 125.209419 115.899653 
L 127.748321 119.891088 
L 129.779443 122.711206 
L 131.810565 125.193642 
L 133.841687 127.344125 
L 135.872809 129.178392 
L 137.903931 130.720339 
L 139.935053 131.999457 
L 141.966175 133.048103 
L 144.505078 134.084614 
L 147.04398 134.872496 
L 150.090663 135.564233 
L 153.645127 136.115382 
L 157.707371 136.516399 
L 163.292957 136.825922 
L 171.417445 137.023485 
L 186.143079 137.118348 
L 245.553399 137.13622 
L 590.336364 137.13623 
L 590.336364 137.13623 
" clip-path="url(#p9bdfa15d7d)" style="fill: none; stroke: #ff7f0e; stroke-width: 1.5; stroke-linecap: square"/>
   </g>
   <g id="line2d_125">
    <defs>
     <path id="m6e86a8e4e9" d="M 0 3 
C 0.795609 3 1.55874 2.683901 2.12132 2.12132 
C 2.683901 1.55874 3 0.795609 3 0 
C 3 -0.795609 2.683901 -1.55874 2.12132 -2.12132 
C 1.55874 -2.683901 0.795609 -3 0 -3 
C -0.795609 -3 -1.55874 -2.683901 -2.12132 -2.12132 
C -2.683901 -1.55874 -3 -0.795609 -3 0 
C -3 0.795609 -2.683901 1.55874 -2.12132 2.12132 
C -1.55874 2.683901 -0.795609 3 0 3 
z
" style="stroke: #000000"/>
    </defs>
    <g clip-path="url(#p9bdfa15d7d)">
     <use xlink:href="#m6e86a8e4e9" x="88.774245" y="29.406061" style="stroke: #000000"/>
     <use xlink:href="#m6e86a8e4e9" x="108.210007" y="79.652271" style="stroke: #000000"/>
     <use xlink:href="#m6e86a8e4e9" x="127.644903" y="120.913392" style="stroke: #000000"/>
     <use xlink:href="#m6e86a8e4e9" x="147.080211" y="125.832972" style="stroke: #000000"/>
     <use xlink:href="#m6e86a8e4e9" x="166.517314" y="129.373217" style="stroke: #000000"/>
     <use xlink:href="#m6e86a8e4e9" x="185.953518" y="149.407351" style="stroke: #000000"/>
     <use xlink:href="#m6e86a8e4e9" x="205.388665" y="129.496641" style="stroke: #000000"/>
     <use xlink:href="#m6e86a8e4e9" x="224.824427" y="135.320064" style="stroke: #000000"/>
     <use xlink:href="#m6e86a8e4e9" x="244.259323" y="132.916285" style="stroke: #000000"/>
     <use xlink:href="#m6e86a8e4e9" x="263.694631" y="135.916861" style="stroke: #000000"/>
     <use xlink:href="#m6e86a8e4e9" x="283.131734" y="129.790607" style="stroke: #000000"/>
     <use xlink:href="#m6e86a8e4e9" x="302.567938" y="136.532985" style="stroke: #000000"/>
     <use xlink:href="#m6e86a8e4e9" x="322.003085" y="123.932105" style="stroke: #000000"/>
     <use xlink:href="#m6e86a8e4e9" x="341.438847" y="149.427421" style="stroke: #000000"/>
     <use xlink:href="#m6e86a8e4e9" x="360.873743" y="131.723804" style="stroke: #000000"/>
     <use xlink:href="#m6e86a8e4e9" x="380.309051" y="139.814547" style="stroke: #000000"/>
     <use xlink:href="#m6e86a8e4e9" x="399.746154" y="132.238111" style="stroke: #000000"/>
     <use xlink:href="#m6e86a8e4e9" x="419.182358" y="134.790317" style="stroke: #000000"/>
     <use xlink:href="#m6e86a8e4e9" x="438.617505" y="136.026732" style="stroke: #000000"/>
     <use xlink:href="#m6e86a8e4e9" x="458.053267" y="142.830996" style="stroke: #000000"/>
     <use xlink:href="#m6e86a8e4e9" x="477.488163" y="120.286277" style="stroke: #000000"/>
     <use xlink:href="#m6e86a8e4e9" x="496.923471" y="146.824526" style="stroke: #000000"/>
     <use xlink:href="#m6e86a8e4e9" x="516.360574" y="151.435984" style="stroke: #000000"/>
     <use xlink:href="#m6e86a8e4e9" x="535.796778" y="142.235716" style="stroke: #000000"/>
     <use xlink:href="#m6e86a8e4e9" x="555.231925" y="139.820821" style="stroke: #000000"/>
     <use xlink:href="#m6e86a8e4e9" x="574.667687" y="131.722534" style="stroke: #000000"/>
    </g>
   </g>
   <g id="patch_3">
    <path d="M 57.7 173.52 
L 57.7 7.2 
" style="fill: none; stroke: #000000; stroke-width: 0.8; stroke-linejoin: miter; stroke-linecap: square"/>
   </g>
   <g id="patch_4">
    <path d="M 615.7 173.52 
L 615.7 7.2 
" style="fill: none; stroke: #000000; stroke-width: 0.8; stroke-linejoin: miter; stroke-linecap: square"/>
   </g>
   <g id="patch_5">
    <path d="M 57.7 173.52 
L 615.7 173.52 
" style="fill: none; stroke: #000000; stroke-width: 0.8; stroke-linejoin: miter; stroke-linecap: square"/>
   </g>
   <g id="patch_6">
    <path d="M 57.7 7.2 
L 615.7 7.2 
" style="fill: none; stroke: #000000; stroke-width: 0.8; stroke-linejoin: miter; stroke-linecap: square"/>
   </g>
   <g id="legend_1">
    <g id="patch_7">
     <path d="M 185.3 67.5 
L 608.7 67.5 
Q 610.7 67.5 610.7 65.5 
L 610.7 14.2 
Q 610.7 12.2 608.7 12.2 
L 185.3 12.2 
Q 183.3 12.2 183.3 14.2 
L 183.3 65.5 
Q 183.3 67.5 185.3 67.5 
z
" style="fill: #ffffff; opacity: 0.8; stroke: #cccccc; stroke-linejoin: miter"/>
    </g>
    <g id="line2d_126"/>
    <g id="text_10">
     <!-- $\chi^2_\nu$ = 1.24 -->
     <g transform="translate(215.3 25.3) scale(0.1 -0.1)">
      <defs>
       <path id="DejaVuSans-Oblique-3c7" d="M 1922 -781 
L 1691 416 
L 394 -1334 
L -284 -1334 
L 1553 1141 
L 1269 2613 
Q 1194 3006 713 3006 
L 559 3006 
L 653 3500 
L 872 3494 
Q 1675 3472 1775 2950 
L 2006 1753 
L 3303 3503 
L 3981 3503 
L 2144 1028 
L 2428 -444 
Q 2503 -838 2984 -838 
L 3138 -838 
L 3044 -1331 
L 2825 -1325 
Q 2022 -1303 1922 -781 
z
" transform="scale(0.015625)"/>
       <path id="DejaVuSans-Oblique-3bd" d="M 959 0 
L 572 3500 
L 1191 3500 
L 1522 563 
Q 1972 950 2391 1488 
Q 2706 1891 2788 2241 
Q 2825 2406 2809 2719 
Q 2794 3091 2544 3500 
L 3125 3500 
L 3125 3500 
Q 3288 3222 3353 2834 
Q 3416 2478 3369 2234 
Q 3250 1622 2719 1075 
Q 2025 363 1572 0 
L 959 0 
z
" transform="scale(0.015625)"/>
       <path id="DejaVuSans-3d" d="M 678 2906 
L 4684 2906 
L 4684 2381 
L 678 2381 
L 678 2906 
z
M 678 1631 
L 4684 1631 
L 4684 1100 
L 678 1100 
L 678 1631 
z
" transform="scale(0.015625)"/>
       <path id="DejaVuSans-2e" d="M 684 794 
L 1344 794 
L 1344 0 
L 684 0 
L 684 794 
z
" transform="scale(0.015625)"/>
      </defs>
      <use xlink:href="#DejaVuSans-Oblique-3c7" transform="translate(0 0.765625)"/>
      <use xlink:href="#DejaVuSans-32" transform="translate(63.652396 39.046875) scale(0.7)"/>
      <use xlink:href="#DejaVuSans-Oblique-3bd" transform="translate(59.179688 -26.578125) scale(0.7)"/>
      <use xlink:href="#DejaVuSans-20" transform="translate(110.922904 0.765625)"/>
      <use xlink:href="#DejaVuSans-3d" transform="translate(142.710013 0.765625)"/>
      <use xlink:href="#DejaVuSans-20" transform="translate(226.499076 0.765625)"/>
      <use xlink:href="#DejaVuSans-31" transform="translate(258.286185 0.765625)"/>
      <use xlink:href="#DejaVuSans-2e" transform="translate(321.909232 0.765625)"/>
      <use xlink:href="#DejaVuSans-32" transform="translate(348.196341 0.765625)"/>
      <use xlink:href="#DejaVuSans-34" transform="translate(411.819388 0.765625)"/>
     </g>
    </g>
    <g id="line2d_127">
     <path d="M 187.3 42.5 
L 197.3 42.5 
L 207.3 42.5 
" style="fill: none; stroke: #ff7f0e; stroke-width: 1.5; stroke-linecap: square"/>
    </g>
    <g id="text_11">
     <!-- $v = \sqrt{v_{th}^2 + (\beta f^{-\alpha})^2}$, $v_{th} = 1.12 \pm 0.05 \times 10^{-7}$, $\alpha$ = 3.2 $\pm$ 0.2, $\beta = 2.4 \pm 0.9 \times 10^{-4}$ -->
     <g transform="translate(215.3 46) scale(0.1 -0.1)">
      <defs>
       <path id="DejaVuSans-Oblique-76" d="M 459 3500 
L 1069 3500 
L 1581 525 
L 3256 3500 
L 3866 3500 
L 1875 0 
L 1100 0 
L 459 3500 
z
" transform="scale(0.015625)"/>
       <path id="DejaVuSans-Oblique-74" d="M 2706 3500 
L 2619 3053 
L 1472 3053 
L 1100 1153 
Q 1081 1047 1072 975 
Q 1063 903 1063 863 
Q 1063 663 1183 572 
Q 1303 481 1569 481 
L 2150 481 
L 2053 0 
L 1503 0 
Q 991 0 739 200 
Q 488 400 488 806 
Q 488 878 497 964 
Q 506 1050 525 1153 
L 897 3053 
L 409 3053 
L 500 3500 
L 978 3500 
L 1172 4494 
L 1747 4494 
L 1556 3500 
L 2706 3500 
z
" transform="scale(0.015625)"/>
       <path id="DejaVuSans-Oblique-68" d="M 3566 2113 
L 3156 0 
L 2578 0 
L 2988 2091 
Q 3016 2238 3031 2350 
Q 3047 2463 3047 2528 
Q 3047 2791 2881 2937 
Q 2716 3084 2419 3084 
Q 1956 3084 1617 2771 
Q 1278 2459 1178 1941 
L 800 0 
L 225 0 
L 1172 4863 
L 1747 4863 
L 1375 2950 
Q 1594 3244 1934 3414 
Q 2275 3584 2650 3584 
Q 3113 3584 3367 3334 
Q 3622 3084 3622 2631 
Q 3622 2519 3608 2391 
Q 3594 2263 3566 2113 
z
" transform="scale(0.015625)"/>
       <path id="DejaVuSans-2b" d="M 2944 4013 
L 2944 2272 
L 4684 2272 
L 4684 1741 
L 2944 1741 
L 2944 0 
L 2419 0 
L 2419 1741 
L 678 1741 
L 678 2272 
L 2419 2272 
L 2419 4013 
L 2944 4013 
z
" transform="scale(0.015625)"/>
       <path id="DejaVuSans-Oblique-3b2" d="M 872 216 
L 572 -1331 
L -6 -1331 
L 928 3478 
Q 1206 4903 2538 4903 
Q 3888 4903 3659 3700 
Q 3503 2844 2894 2531 
Q 3713 2250 3553 1416 
Q 3272 -69 1759 -66 
Q 1097 -63 872 216 
z
M 1019 966 
Q 1259 422 1875 425 
Q 2775 425 2966 1406 
Q 3138 2288 1675 2219 
L 1778 2750 
Q 2909 2731 3106 3750 
Q 3241 4438 2509 4434 
Q 1691 4434 1503 3459 
L 1019 966 
z
" transform="scale(0.015625)"/>
       <path id="DejaVuSans-Oblique-66" d="M 3059 4863 
L 2969 4384 
L 2419 4384 
Q 2106 4384 1964 4261 
Q 1822 4138 1753 3809 
L 1691 3500 
L 2638 3500 
L 2553 3053 
L 1606 3053 
L 1013 0 
L 434 0 
L 1031 3053 
L 481 3053 
L 563 3500 
L 1113 3500 
L 1159 3744 
Q 1278 4363 1576 4613 
Q 1875 4863 2516 4863 
L 3059 4863 
z
" transform="scale(0.015625)"/>
       <path id="DejaVuSans-Oblique-3b1" d="M 2619 1628 
L 2622 2350 
Q 2625 3088 2069 3091 
Q 1653 3094 1394 2747 
Q 1069 2319 959 1747 
Q 825 1059 994 731 
Q 1169 397 1547 397 
Q 1966 397 2319 1063 
L 2619 1628 
z
M 2166 3578 
Q 3141 3594 3128 2584 
Q 3128 2584 3616 3500 
L 4128 3500 
L 3119 1603 
L 3109 919 
Q 3109 766 3194 638 
Q 3291 488 3391 488 
L 3669 488 
L 3575 0 
L 3228 0 
Q 2934 0 2722 263 
Q 2622 394 2619 669 
Q 2416 334 2066 50 
Q 1900 -81 1453 -78 
Q 722 -72 456 397 
Q 184 884 353 1747 
Q 534 2675 1009 3097 
Q 1544 3569 2166 3578 
z
" transform="scale(0.015625)"/>
       <path id="DejaVuSans-2c" d="M 750 794 
L 1409 794 
L 1409 256 
L 897 -744 
L 494 -744 
L 750 256 
L 750 794 
z
" transform="scale(0.015625)"/>
       <path id="DejaVuSans-b1" d="M 2944 4013 
L 2944 2803 
L 4684 2803 
L 4684 2272 
L 2944 2272 
L 2944 1063 
L 2419 1063 
L 2419 2272 
L 678 2272 
L 678 2803 
L 2419 2803 
L 2419 4013 
L 2944 4013 
z
M 678 531 
L 4684 531 
L 4684 0 
L 678 0 
L 678 531 
z
" transform="scale(0.015625)"/>
       <path id="DejaVuSans-d7" d="M 4488 3438 
L 3059 2003 
L 4488 575 
L 4116 197 
L 2681 1631 
L 1247 197 
L 878 575 
L 2303 2003 
L 878 3438 
L 1247 3816 
L 2681 2381 
L 4116 3816 
L 4488 3438 
z
" transform="scale(0.015625)"/>
       <path id="DejaVuSans-39" d="M 703 97 
L 703 672 
Q 941 559 1184 500 
Q 1428 441 1663 441 
Q 2288 441 2617 861 
Q 2947 1281 2994 2138 
Q 2813 1869 2534 1725 
Q 2256 1581 1919 1581 
Q 1219 1581 811 2004 
Q 403 2428 403 3163 
Q 403 3881 828 4315 
Q 1253 4750 1959 4750 
Q 2769 4750 3195 4129 
Q 3622 3509 3622 2328 
Q 3622 1225 3098 567 
Q 2575 -91 1691 -91 
Q 1453 -91 1209 -44 
Q 966 3 703 97 
z
M 1959 2075 
Q 2384 2075 2632 2365 
Q 2881 2656 2881 3163 
Q 2881 3666 2632 3958 
Q 2384 4250 1959 4250 
Q 1534 4250 1286 3958 
Q 1038 3666 1038 3163 
Q 1038 2656 1286 2365 
Q 1534 2075 1959 2075 
z
" transform="scale(0.015625)"/>
      </defs>
      <use xlink:href="#DejaVuSans-Oblique-76" transform="translate(0 0.734375)"/>
      <use xlink:href="#DejaVuSans-3d" transform="translate(78.662109 0.734375)"/>
      <use xlink:href="#STIXSizeOneSym-Regular-221a" transform="translate(181.933594 -2.71875) scale(0.806116)"/>
      <use xlink:href="#DejaVuSans-Oblique-76" transform="translate(279.654205 0.451562)"/>
      <use xlink:href="#DejaVuSans-32" transform="translate(343.300039 38.796875) scale(0.7)"/>
      <use xlink:href="#DejaVuSans-Oblique-74" transform="translate(338.833893 -26.892188) scale(0.7)"/>
      <use xlink:href="#DejaVuSans-Oblique-68" transform="translate(366.280182 -26.892188) scale(0.7)"/>
      <use xlink:href="#DejaVuSans-2b" transform="translate(432.862213 0.451562)"/>
      <use xlink:href="#DejaVuSans-28" transform="translate(536.133698 0.451562)"/>
      <use xlink:href="#DejaVuSans-Oblique-3b2" transform="translate(575.147369 0.451562)"/>
      <use xlink:href="#DejaVuSans-Oblique-66" transform="translate(638.965729 0.451562)"/>
      <use xlink:href="#DejaVuSans-2212" transform="translate(681.618515 38.732812) scale(0.7)"/>
      <use xlink:href="#DejaVuSans-Oblique-3b1" transform="translate(740.270859 38.732812) scale(0.7)"/>
      <use xlink:href="#DejaVuSans-29" transform="translate(789.147812 0.451562)"/>
      <use xlink:href="#DejaVuSans-32" transform="translate(829.118515 38.732812) scale(0.7)"/>
      <use xlink:href="#DejaVuSans-2c" transform="translate(888.889023 0.734375)"/>
      <use xlink:href="#DejaVuSans-20" transform="translate(920.676132 0.734375)"/>
      <use xlink:href="#DejaVuSans-Oblique-76" transform="translate(952.463242 0.734375)"/>
      <use xlink:href="#DejaVuSans-Oblique-74" transform="translate(1011.642929 -15.671875) scale(0.7)"/>
      <use xlink:href="#DejaVuSans-Oblique-68" transform="translate(1039.089218 -15.671875) scale(0.7)"/>
      <use xlink:href="#DejaVuSans-3d" transform="translate(1105.67125 0.734375)"/>
      <use xlink:href="#DejaVuSans-31" transform="translate(1208.942734 0.734375)"/>
      <use xlink:href="#DejaVuSans-2e" transform="translate(1272.565781 0.734375)"/>
      <use xlink:href="#DejaVuSans-31" transform="translate(1304.35289 0.734375)"/>
      <use xlink:href="#DejaVuSans-32" transform="translate(1367.975937 0.734375)"/>
      <use xlink:href="#DejaVuSans-b1" transform="translate(1451.081406 0.734375)"/>
      <use xlink:href="#DejaVuSans-30" transform="translate(1554.35289 0.734375)"/>
      <use xlink:href="#DejaVuSans-2e" transform="translate(1617.975937 0.734375)"/>
      <use xlink:href="#DejaVuSans-30" transform="translate(1649.763046 0.734375)"/>
      <use xlink:href="#DejaVuSans-35" transform="translate(1713.386093 0.734375)"/>
      <use xlink:href="#DejaVuSans-d7" transform="translate(1796.491562 0.734375)"/>
      <use xlink:href="#DejaVuSans-31" transform="translate(1899.763046 0.734375)"/>
      <use xlink:href="#DejaVuSans-30" transform="translate(1963.386093 0.734375)"/>
      <use xlink:href="#DejaVuSans-2212" transform="translate(2027.966171 39.015625) scale(0.7)"/>
      <use xlink:href="#DejaVuSans-37" transform="translate(2086.618515 39.015625) scale(0.7)"/>
      <use xlink:href="#DejaVuSans-2c" transform="translate(2133.889023 0.734375)"/>
      <use xlink:href="#DejaVuSans-20" transform="translate(2165.676132 0.734375)"/>
      <use xlink:href="#DejaVuSans-Oblique-3b1" transform="translate(2197.463242 0.734375)"/>
      <use xlink:href="#DejaVuSans-20" transform="translate(2263.381211 0.734375)"/>
      <use xlink:href="#DejaVuSans-3d" transform="translate(2295.16832 0.734375)"/>
      <use xlink:href="#DejaVuSans-20" transform="translate(2378.957382 0.734375)"/>
      <use xlink:href="#DejaVuSans-33" transform="translate(2410.744492 0.734375)"/>
      <use xlink:href="#DejaVuSans-2e" transform="translate(2474.367539 0.734375)"/>
      <use xlink:href="#DejaVuSans-32" transform="translate(2500.654648 0.734375)"/>
      <use xlink:href="#DejaVuSans-20" transform="translate(2564.277695 0.734375)"/>
      <use xlink:href="#DejaVuSans-b1" transform="translate(2596.064804 0.734375)"/>
      <use xlink:href="#DejaVuSans-20" transform="translate(2679.853867 0.734375)"/>
      <use xlink:href="#DejaVuSans-30" transform="translate(2711.640976 0.734375)"/>
      <use xlink:href="#DejaVuSans-2e" transform="translate(2775.264023 0.734375)"/>
      <use xlink:href="#DejaVuSans-32" transform="translate(2801.551132 0.734375)"/>
      <use xlink:href="#DejaVuSans-2c" transform="translate(2865.174179 0.734375)"/>
      <use xlink:href="#DejaVuSans-20" transform="translate(2896.961289 0.734375)"/>
      <use xlink:href="#DejaVuSans-Oblique-3b2" transform="translate(2928.748398 0.734375)"/>
      <use xlink:href="#DejaVuSans-3d" transform="translate(3012.049179 0.734375)"/>
      <use xlink:href="#DejaVuSans-32" transform="translate(3115.320664 0.734375)"/>
      <use xlink:href="#DejaVuSans-2e" transform="translate(3178.943711 0.734375)"/>
      <use xlink:href="#DejaVuSans-34" transform="translate(3210.73082 0.734375)"/>
      <use xlink:href="#DejaVuSans-b1" transform="translate(3293.836289 0.734375)"/>
      <use xlink:href="#DejaVuSans-30" transform="translate(3397.107773 0.734375)"/>
      <use xlink:href="#DejaVuSans-2e" transform="translate(3460.73082 0.734375)"/>
      <use xlink:href="#DejaVuSans-39" transform="translate(3492.517929 0.734375)"/>
      <use xlink:href="#DejaVuSans-d7" transform="translate(3575.623398 0.734375)"/>
      <use xlink:href="#DejaVuSans-31" transform="translate(3678.894882 0.734375)"/>
      <use xlink:href="#DejaVuSans-30" transform="translate(3742.517929 0.734375)"/>
      <use xlink:href="#DejaVuSans-2212" transform="translate(3807.098007 39.015625) scale(0.7)"/>
      <use xlink:href="#DejaVuSans-34" transform="translate(3865.750351 39.015625) scale(0.7)"/>
      <path d="M 267.154205 116.5 
L 267.154205 122.75 
L 888.889023 122.75 
L 888.889023 116.5 
L 267.154205 116.5 
z
"/>
     </g>
    </g>
    <g id="LineCollection_2">
     <path d="M 197.3 62.9 
L 197.3 52.9 
" style="fill: none; stroke: #000000; stroke-width: 1.5"/>
    </g>
    <g id="line2d_128">
     <g>
      <use xlink:href="#me83369f64d" x="197.3" y="62.9" style="stroke: #000000"/>
     </g>
    </g>
    <g id="line2d_129">
     <g>
      <use xlink:href="#me83369f64d" x="197.3" y="52.9" style="stroke: #000000"/>
     </g>
    </g>
    <g id="line2d_130"/>
    <g id="line2d_131">
     <g>
      <use xlink:href="#m6e86a8e4e9" x="197.3" y="57.9" style="stroke: #000000"/>
     </g>
    </g>
    <g id="text_12">
     <!-- 1M$\Omega$ Noise Amplitude Spectrum -->
     <g transform="translate(215.3 61.4) scale(0.1 -0.1)">
      <defs>
       <path id="DejaVuSans-4d" d="M 628 4666 
L 1569 4666 
L 2759 1491 
L 3956 4666 
L 4897 4666 
L 4897 0 
L 4281 0 
L 4281 4097 
L 3078 897 
L 2444 897 
L 1241 4097 
L 1241 0 
L 628 0 
L 628 4666 
z
" transform="scale(0.015625)"/>
       <path id="DejaVuSans-3a9" d="M 4647 556 
L 4647 0 
L 2772 0 
L 2772 556 
Q 3325 859 3634 1378 
Q 3944 1897 3944 2528 
Q 3944 3278 3531 3731 
Q 3119 4184 2444 4184 
Q 1769 4184 1355 3729 
Q 941 3275 941 2528 
Q 941 1897 1250 1378 
Q 1563 859 2119 556 
L 2119 0 
L 244 0 
L 244 556 
L 1241 556 
Q 747 991 519 1456 
Q 294 1922 294 2497 
Q 294 3491 894 4106 
Q 1491 4722 2444 4722 
Q 3391 4722 3994 4106 
Q 4594 3494 4594 2528 
Q 4594 1922 4372 1459 
Q 4150 997 3647 556 
L 4647 556 
z
" transform="scale(0.015625)"/>
       <path id="DejaVuSans-41" d="M 2188 4044 
L 1331 1722 
L 3047 1722 
L 2188 4044 
z
M 1831 4666 
L 2547 4666 
L 4325 0 
L 3669 0 
L 3244 1197 
L 1141 1197 
L 716 0 
L 50 0 
L 1831 4666 
z
" transform="scale(0.015625)"/>
       <path id="DejaVuSans-6d" d="M 3328 2828 
Q 3544 3216 3844 3400 
Q 4144 3584 4550 3584 
Q 5097 3584 5394 3201 
Q 5691 2819 5691 2113 
L 5691 0 
L 5113 0 
L 5113 2094 
Q 5113 2597 4934 2840 
Q 4756 3084 4391 3084 
Q 3944 3084 3684 2787 
Q 3425 2491 3425 1978 
L 3425 0 
L 2847 0 
L 2847 2094 
Q 2847 2600 2669 2842 
Q 2491 3084 2119 3084 
Q 1678 3084 1418 2786 
Q 1159 2488 1159 1978 
L 1159 0 
L 581 0 
L 581 3500 
L 1159 3500 
L 1159 2956 
Q 1356 3278 1631 3431 
Q 1906 3584 2284 3584 
Q 2666 3584 2933 3390 
Q 3200 3197 3328 2828 
z
" transform="scale(0.015625)"/>
       <path id="DejaVuSans-70" d="M 1159 525 
L 1159 -1331 
L 581 -1331 
L 581 3500 
L 1159 3500 
L 1159 2969 
Q 1341 3281 1617 3432 
Q 1894 3584 2278 3584 
Q 2916 3584 3314 3078 
Q 3713 2572 3713 1747 
Q 3713 922 3314 415 
Q 2916 -91 2278 -91 
Q 1894 -91 1617 61 
Q 1341 213 1159 525 
z
M 3116 1747 
Q 3116 2381 2855 2742 
Q 2594 3103 2138 3103 
Q 1681 3103 1420 2742 
Q 1159 2381 1159 1747 
Q 1159 1113 1420 752 
Q 1681 391 2138 391 
Q 2594 391 2855 752 
Q 3116 1113 3116 1747 
z
" transform="scale(0.015625)"/>
       <path id="DejaVuSans-64" d="M 2906 2969 
L 2906 4863 
L 3481 4863 
L 3481 0 
L 2906 0 
L 2906 525 
Q 2725 213 2448 61 
Q 2172 -91 1784 -91 
Q 1150 -91 751 415 
Q 353 922 353 1747 
Q 353 2572 751 3078 
Q 1150 3584 1784 3584 
Q 2172 3584 2448 3432 
Q 2725 3281 2906 2969 
z
M 947 1747 
Q 947 1113 1208 752 
Q 1469 391 1925 391 
Q 2381 391 2643 752 
Q 2906 1113 2906 1747 
Q 2906 2381 2643 2742 
Q 2381 3103 1925 3103 
Q 1469 3103 1208 2742 
Q 947 2381 947 1747 
z
" transform="scale(0.015625)"/>
       <path id="DejaVuSans-53" d="M 3425 4513 
L 3425 3897 
Q 3066 4069 2747 4153 
Q 2428 4238 2131 4238 
Q 1616 4238 1336 4038 
Q 1056 3838 1056 3469 
Q 1056 3159 1242 3001 
Q 1428 2844 1947 2747 
L 2328 2669 
Q 3034 2534 3370 2195 
Q 3706 1856 3706 1288 
Q 3706 609 3251 259 
Q 2797 -91 1919 -91 
Q 1588 -91 1214 -16 
Q 841 59 441 206 
L 441 856 
Q 825 641 1194 531 
Q 1563 422 1919 422 
Q 2459 422 2753 634 
Q 3047 847 3047 1241 
Q 3047 1584 2836 1778 
Q 2625 1972 2144 2069 
L 1759 2144 
Q 1053 2284 737 2584 
Q 422 2884 422 3419 
Q 422 4038 858 4394 
Q 1294 4750 2059 4750 
Q 2388 4750 2728 4690 
Q 3069 4631 3425 4513 
z
" transform="scale(0.015625)"/>
      </defs>
      <use xlink:href="#DejaVuSans-31" transform="translate(0 0.015625)"/>
      <use xlink:href="#DejaVuSans-4d" transform="translate(63.623047 0.015625)"/>
      <use xlink:href="#DejaVuSans-3a9" transform="translate(149.902344 0.015625)"/>
      <use xlink:href="#DejaVuSans-20" transform="translate(226.318359 0.015625)"/>
      <use xlink:href="#DejaVuSans-4e" transform="translate(258.105469 0.015625)"/>
      <use xlink:href="#DejaVuSans-6f" transform="translate(332.910156 0.015625)"/>
      <use xlink:href="#DejaVuSans-69" transform="translate(394.091797 0.015625)"/>
      <use xlink:href="#DejaVuSans-73" transform="translate(421.875 0.015625)"/>
      <use xlink:href="#DejaVuSans-65" transform="translate(473.974609 0.015625)"/>
      <use xlink:href="#DejaVuSans-20" transform="translate(535.498047 0.015625)"/>
      <use xlink:href="#DejaVuSans-41" transform="translate(567.285156 0.015625)"/>
      <use xlink:href="#DejaVuSans-6d" transform="translate(635.693359 0.015625)"/>
      <use xlink:href="#DejaVuSans-70" transform="translate(733.105469 0.015625)"/>
      <use xlink:href="#DejaVuSans-6c" transform="translate(796.582031 0.015625)"/>
      <use xlink:href="#DejaVuSans-69" transform="translate(824.365234 0.015625)"/>
      <use xlink:href="#DejaVuSans-74" transform="translate(852.148438 0.015625)"/>
      <use xlink:href="#DejaVuSans-75" transform="translate(891.357422 0.015625)"/>
      <use xlink:href="#DejaVuSans-64" transform="translate(954.736328 0.015625)"/>
      <use xlink:href="#DejaVuSans-65" transform="translate(1018.212891 0.015625)"/>
      <use xlink:href="#DejaVuSans-20" transform="translate(1079.736328 0.015625)"/>
      <use xlink:href="#DejaVuSans-53" transform="translate(1111.523438 0.015625)"/>
      <use xlink:href="#DejaVuSans-70" transform="translate(1175 0.015625)"/>
      <use xlink:href="#DejaVuSans-65" transform="translate(1238.476562 0.015625)"/>
      <use xlink:href="#DejaVuSans-63" transform="translate(1300 0.015625)"/>
      <use xlink:href="#DejaVuSans-74" transform="translate(1354.980469 0.015625)"/>
      <use xlink:href="#DejaVuSans-72" transform="translate(1394.189453 0.015625)"/>
      <use xlink:href="#DejaVuSans-75" transform="translate(1435.302734 0.015625)"/>
      <use xlink:href="#DejaVuSans-6d" transform="translate(1498.681641 0.015625)"/>
     </g>
    </g>
   </g>
  </g>
 </g>
 <defs>
  <clipPath id="p9bdfa15d7d">
   <rect x="57.7" y="7.2" width="558" height="166.32"/>
  </clipPath>
 </defs>
</svg>
