<?xml version="1.0" encoding="utf-8" standalone="no"?>
<!DOCTYPE svg PUBLIC "-//W3C//DTD SVG 1.1//EN"
  "http://www.w3.org/Graphics/SVG/1.1/DTD/svg11.dtd">
<svg xmlns:xlink="http://www.w3.org/1999/xlink" width="622.9pt" height="377.39625pt" viewBox="0 0 622.9 377.39625" xmlns="http://www.w3.org/2000/svg" version="1.1">
 <metadata>
  <rdf:RDF xmlns:dc="http://purl.org/dc/elements/1.1/" xmlns:cc="http://creativecommons.org/ns#" xmlns:rdf="http://www.w3.org/1999/02/22-rdf-syntax-ns#">
   <cc:Work>
    <dc:type rdf:resource="http://purl.org/dc/dcmitype/StillImage"/>
    <dc:date>2025-02-05T17:32:49.002203</dc:date>
    <dc:format>image/svg+xml</dc:format>
    <dc:creator>
     <cc:Agent>
      <dc:title>Matplotlib v3.9.2, https://matplotlib.org/</dc:title>
     </cc:Agent>
    </dc:creator>
   </cc:Work>
  </rdf:RDF>
 </metadata>
 <defs>
  <style type="text/css">*{stroke-linejoin: round; stroke-linecap: butt}</style>
 </defs>
 <g id="figure_1">
  <g id="patch_1">
   <path d="M 0 377.39625 
L 622.9 377.39625 
L 622.9 0 
L 0 0 
z
" style="fill: #ffffff"/>
  </g>
  <g id="axes_1">
   <g id="patch_2">
    <path d="M 57.7 339.84 
L 615.7 339.84 
L 615.7 7.2 
L 57.7 7.2 
z
" style="fill: #ffffff"/>
   </g>
   <g id="matplotlib.axis_1">
    <g id="xtick_1">
     <g id="line2d_1">
      <defs>
       <path id="m702db2a773" d="M 0 0 
L 0 3.5 
" style="stroke: #000000; stroke-width: 0.8"/>
      </defs>
      <g>
       <use xlink:href="#m702db2a773" x="123.878683" y="339.84" style="stroke: #000000; stroke-width: 0.8"/>
      </g>
     </g>
     <g id="text_1">
      <!-- $\mathdefault{10^{1}}$ -->
      <g transform="translate(115.078683 354.438437) scale(0.1 -0.1)">
       <defs>
        <path id="DejaVuSans-31" d="M 794 531 
L 1825 531 
L 1825 4091 
L 703 3866 
L 703 4441 
L 1819 4666 
L 2450 4666 
L 2450 531 
L 3481 531 
L 3481 0 
L 794 0 
L 794 531 
z
" transform="scale(0.015625)"/>
        <path id="DejaVuSans-30" d="M 2034 4250 
Q 1547 4250 1301 3770 
Q 1056 3291 1056 2328 
Q 1056 1369 1301 889 
Q 1547 409 2034 409 
Q 2525 409 2770 889 
Q 3016 1369 3016 2328 
Q 3016 3291 2770 3770 
Q 2525 4250 2034 4250 
z
M 2034 4750 
Q 2819 4750 3233 4129 
Q 3647 3509 3647 2328 
Q 3647 1150 3233 529 
Q 2819 -91 2034 -91 
Q 1250 -91 836 529 
Q 422 1150 422 2328 
Q 422 3509 836 4129 
Q 1250 4750 2034 4750 
z
" transform="scale(0.015625)"/>
       </defs>
       <use xlink:href="#DejaVuSans-31" transform="translate(0 0.684375)"/>
       <use xlink:href="#DejaVuSans-30" transform="translate(63.623047 0.684375)"/>
       <use xlink:href="#DejaVuSans-31" transform="translate(128.203125 38.965625) scale(0.7)"/>
      </g>
     </g>
    </g>
    <g id="xtick_2">
     <g id="line2d_2">
      <g>
       <use xlink:href="#m702db2a773" x="240.493103" y="339.84" style="stroke: #000000; stroke-width: 0.8"/>
      </g>
     </g>
     <g id="text_2">
      <!-- $\mathdefault{10^{2}}$ -->
      <g transform="translate(231.693103 354.438437) scale(0.1 -0.1)">
       <defs>
        <path id="DejaVuSans-32" d="M 1228 531 
L 3431 531 
L 3431 0 
L 469 0 
L 469 531 
Q 828 903 1448 1529 
Q 2069 2156 2228 2338 
Q 2531 2678 2651 2914 
Q 2772 3150 2772 3378 
Q 2772 3750 2511 3984 
Q 2250 4219 1831 4219 
Q 1534 4219 1204 4116 
Q 875 4013 500 3803 
L 500 4441 
Q 881 4594 1212 4672 
Q 1544 4750 1819 4750 
Q 2544 4750 2975 4387 
Q 3406 4025 3406 3419 
Q 3406 3131 3298 2873 
Q 3191 2616 2906 2266 
Q 2828 2175 2409 1742 
Q 1991 1309 1228 531 
z
" transform="scale(0.015625)"/>
       </defs>
       <use xlink:href="#DejaVuSans-31" transform="translate(0 0.765625)"/>
       <use xlink:href="#DejaVuSans-30" transform="translate(63.623047 0.765625)"/>
       <use xlink:href="#DejaVuSans-32" transform="translate(128.203125 39.046875) scale(0.7)"/>
      </g>
     </g>
    </g>
    <g id="xtick_3">
     <g id="line2d_3">
      <g>
       <use xlink:href="#m702db2a773" x="357.107524" y="339.84" style="stroke: #000000; stroke-width: 0.8"/>
      </g>
     </g>
     <g id="text_3">
      <!-- $\mathdefault{10^{3}}$ -->
      <g transform="translate(348.307524 354.438437) scale(0.1 -0.1)">
       <defs>
        <path id="DejaVuSans-33" d="M 2597 2516 
Q 3050 2419 3304 2112 
Q 3559 1806 3559 1356 
Q 3559 666 3084 287 
Q 2609 -91 1734 -91 
Q 1441 -91 1130 -33 
Q 819 25 488 141 
L 488 750 
Q 750 597 1062 519 
Q 1375 441 1716 441 
Q 2309 441 2620 675 
Q 2931 909 2931 1356 
Q 2931 1769 2642 2001 
Q 2353 2234 1838 2234 
L 1294 2234 
L 1294 2753 
L 1863 2753 
Q 2328 2753 2575 2939 
Q 2822 3125 2822 3475 
Q 2822 3834 2567 4026 
Q 2313 4219 1838 4219 
Q 1578 4219 1281 4162 
Q 984 4106 628 3988 
L 628 4550 
Q 988 4650 1302 4700 
Q 1616 4750 1894 4750 
Q 2613 4750 3031 4423 
Q 3450 4097 3450 3541 
Q 3450 3153 3228 2886 
Q 3006 2619 2597 2516 
z
" transform="scale(0.015625)"/>
       </defs>
       <use xlink:href="#DejaVuSans-31" transform="translate(0 0.765625)"/>
       <use xlink:href="#DejaVuSans-30" transform="translate(63.623047 0.765625)"/>
       <use xlink:href="#DejaVuSans-33" transform="translate(128.203125 39.046875) scale(0.7)"/>
      </g>
     </g>
    </g>
    <g id="xtick_4">
     <g id="line2d_4">
      <g>
       <use xlink:href="#m702db2a773" x="473.721944" y="339.84" style="stroke: #000000; stroke-width: 0.8"/>
      </g>
     </g>
     <g id="text_4">
      <!-- $\mathdefault{10^{4}}$ -->
      <g transform="translate(464.921944 354.438437) scale(0.1 -0.1)">
       <defs>
        <path id="DejaVuSans-34" d="M 2419 4116 
L 825 1625 
L 2419 1625 
L 2419 4116 
z
M 2253 4666 
L 3047 4666 
L 3047 1625 
L 3713 1625 
L 3713 1100 
L 3047 1100 
L 3047 0 
L 2419 0 
L 2419 1100 
L 313 1100 
L 313 1709 
L 2253 4666 
z
" transform="scale(0.015625)"/>
       </defs>
       <use xlink:href="#DejaVuSans-31" transform="translate(0 0.684375)"/>
       <use xlink:href="#DejaVuSans-30" transform="translate(63.623047 0.684375)"/>
       <use xlink:href="#DejaVuSans-34" transform="translate(128.203125 38.965625) scale(0.7)"/>
      </g>
     </g>
    </g>
    <g id="xtick_5">
     <g id="line2d_5">
      <g>
       <use xlink:href="#m702db2a773" x="590.336364" y="339.84" style="stroke: #000000; stroke-width: 0.8"/>
      </g>
     </g>
     <g id="text_5">
      <!-- $\mathdefault{10^{5}}$ -->
      <g transform="translate(581.536364 354.438437) scale(0.1 -0.1)">
       <defs>
        <path id="DejaVuSans-35" d="M 691 4666 
L 3169 4666 
L 3169 4134 
L 1269 4134 
L 1269 2991 
Q 1406 3038 1543 3061 
Q 1681 3084 1819 3084 
Q 2600 3084 3056 2656 
Q 3513 2228 3513 1497 
Q 3513 744 3044 326 
Q 2575 -91 1722 -91 
Q 1428 -91 1123 -41 
Q 819 9 494 109 
L 494 744 
Q 775 591 1075 516 
Q 1375 441 1709 441 
Q 2250 441 2565 725 
Q 2881 1009 2881 1497 
Q 2881 1984 2565 2268 
Q 2250 2553 1709 2553 
Q 1456 2553 1204 2497 
Q 953 2441 691 2322 
L 691 4666 
z
" transform="scale(0.015625)"/>
       </defs>
       <use xlink:href="#DejaVuSans-31" transform="translate(0 0.684375)"/>
       <use xlink:href="#DejaVuSans-30" transform="translate(63.623047 0.684375)"/>
       <use xlink:href="#DejaVuSans-35" transform="translate(128.203125 38.965625) scale(0.7)"/>
      </g>
     </g>
    </g>
    <g id="xtick_6">
     <g id="line2d_6">
      <defs>
       <path id="m4ce8bb9e92" d="M 0 0 
L 0 2 
" style="stroke: #000000; stroke-width: 0.6"/>
      </defs>
      <g>
       <use xlink:href="#m4ce8bb9e92" x="62.903482" y="339.84" style="stroke: #000000; stroke-width: 0.6"/>
      </g>
     </g>
    </g>
    <g id="xtick_7">
     <g id="line2d_7">
      <g>
       <use xlink:href="#m4ce8bb9e92" x="77.47314" y="339.84" style="stroke: #000000; stroke-width: 0.6"/>
      </g>
     </g>
    </g>
    <g id="xtick_8">
     <g id="line2d_8">
      <g>
       <use xlink:href="#m4ce8bb9e92" x="88.774245" y="339.84" style="stroke: #000000; stroke-width: 0.6"/>
      </g>
     </g>
    </g>
    <g id="xtick_9">
     <g id="line2d_9">
      <g>
       <use xlink:href="#m4ce8bb9e92" x="98.00792" y="339.84" style="stroke: #000000; stroke-width: 0.6"/>
      </g>
     </g>
    </g>
    <g id="xtick_10">
     <g id="line2d_10">
      <g>
       <use xlink:href="#m4ce8bb9e92" x="105.814881" y="339.84" style="stroke: #000000; stroke-width: 0.6"/>
      </g>
     </g>
    </g>
    <g id="xtick_11">
     <g id="line2d_11">
      <g>
       <use xlink:href="#m4ce8bb9e92" x="112.577578" y="339.84" style="stroke: #000000; stroke-width: 0.6"/>
      </g>
     </g>
    </g>
    <g id="xtick_12">
     <g id="line2d_12">
      <g>
       <use xlink:href="#m4ce8bb9e92" x="118.5427" y="339.84" style="stroke: #000000; stroke-width: 0.6"/>
      </g>
     </g>
    </g>
    <g id="xtick_13">
     <g id="line2d_13">
      <g>
       <use xlink:href="#m4ce8bb9e92" x="158.983122" y="339.84" style="stroke: #000000; stroke-width: 0.6"/>
      </g>
     </g>
    </g>
    <g id="xtick_14">
     <g id="line2d_14">
      <g>
       <use xlink:href="#m4ce8bb9e92" x="179.517902" y="339.84" style="stroke: #000000; stroke-width: 0.6"/>
      </g>
     </g>
    </g>
    <g id="xtick_15">
     <g id="line2d_15">
      <g>
       <use xlink:href="#m4ce8bb9e92" x="194.08756" y="339.84" style="stroke: #000000; stroke-width: 0.6"/>
      </g>
     </g>
    </g>
    <g id="xtick_16">
     <g id="line2d_16">
      <g>
       <use xlink:href="#m4ce8bb9e92" x="205.388665" y="339.84" style="stroke: #000000; stroke-width: 0.6"/>
      </g>
     </g>
    </g>
    <g id="xtick_17">
     <g id="line2d_17">
      <g>
       <use xlink:href="#m4ce8bb9e92" x="214.62234" y="339.84" style="stroke: #000000; stroke-width: 0.6"/>
      </g>
     </g>
    </g>
    <g id="xtick_18">
     <g id="line2d_18">
      <g>
       <use xlink:href="#m4ce8bb9e92" x="222.429301" y="339.84" style="stroke: #000000; stroke-width: 0.6"/>
      </g>
     </g>
    </g>
    <g id="xtick_19">
     <g id="line2d_19">
      <g>
       <use xlink:href="#m4ce8bb9e92" x="229.191998" y="339.84" style="stroke: #000000; stroke-width: 0.6"/>
      </g>
     </g>
    </g>
    <g id="xtick_20">
     <g id="line2d_20">
      <g>
       <use xlink:href="#m4ce8bb9e92" x="235.15712" y="339.84" style="stroke: #000000; stroke-width: 0.6"/>
      </g>
     </g>
    </g>
    <g id="xtick_21">
     <g id="line2d_21">
      <g>
       <use xlink:href="#m4ce8bb9e92" x="275.597542" y="339.84" style="stroke: #000000; stroke-width: 0.6"/>
      </g>
     </g>
    </g>
    <g id="xtick_22">
     <g id="line2d_22">
      <g>
       <use xlink:href="#m4ce8bb9e92" x="296.132322" y="339.84" style="stroke: #000000; stroke-width: 0.6"/>
      </g>
     </g>
    </g>
    <g id="xtick_23">
     <g id="line2d_23">
      <g>
       <use xlink:href="#m4ce8bb9e92" x="310.70198" y="339.84" style="stroke: #000000; stroke-width: 0.6"/>
      </g>
     </g>
    </g>
    <g id="xtick_24">
     <g id="line2d_24">
      <g>
       <use xlink:href="#m4ce8bb9e92" x="322.003085" y="339.84" style="stroke: #000000; stroke-width: 0.6"/>
      </g>
     </g>
    </g>
    <g id="xtick_25">
     <g id="line2d_25">
      <g>
       <use xlink:href="#m4ce8bb9e92" x="331.23676" y="339.84" style="stroke: #000000; stroke-width: 0.6"/>
      </g>
     </g>
    </g>
    <g id="xtick_26">
     <g id="line2d_26">
      <g>
       <use xlink:href="#m4ce8bb9e92" x="339.043721" y="339.84" style="stroke: #000000; stroke-width: 0.6"/>
      </g>
     </g>
    </g>
    <g id="xtick_27">
     <g id="line2d_27">
      <g>
       <use xlink:href="#m4ce8bb9e92" x="345.806419" y="339.84" style="stroke: #000000; stroke-width: 0.6"/>
      </g>
     </g>
    </g>
    <g id="xtick_28">
     <g id="line2d_28">
      <g>
       <use xlink:href="#m4ce8bb9e92" x="351.77154" y="339.84" style="stroke: #000000; stroke-width: 0.6"/>
      </g>
     </g>
    </g>
    <g id="xtick_29">
     <g id="line2d_29">
      <g>
       <use xlink:href="#m4ce8bb9e92" x="392.211962" y="339.84" style="stroke: #000000; stroke-width: 0.6"/>
      </g>
     </g>
    </g>
    <g id="xtick_30">
     <g id="line2d_30">
      <g>
       <use xlink:href="#m4ce8bb9e92" x="412.746742" y="339.84" style="stroke: #000000; stroke-width: 0.6"/>
      </g>
     </g>
    </g>
    <g id="xtick_31">
     <g id="line2d_31">
      <g>
       <use xlink:href="#m4ce8bb9e92" x="427.3164" y="339.84" style="stroke: #000000; stroke-width: 0.6"/>
      </g>
     </g>
    </g>
    <g id="xtick_32">
     <g id="line2d_32">
      <g>
       <use xlink:href="#m4ce8bb9e92" x="438.617505" y="339.84" style="stroke: #000000; stroke-width: 0.6"/>
      </g>
     </g>
    </g>
    <g id="xtick_33">
     <g id="line2d_33">
      <g>
       <use xlink:href="#m4ce8bb9e92" x="447.85118" y="339.84" style="stroke: #000000; stroke-width: 0.6"/>
      </g>
     </g>
    </g>
    <g id="xtick_34">
     <g id="line2d_34">
      <g>
       <use xlink:href="#m4ce8bb9e92" x="455.658141" y="339.84" style="stroke: #000000; stroke-width: 0.6"/>
      </g>
     </g>
    </g>
    <g id="xtick_35">
     <g id="line2d_35">
      <g>
       <use xlink:href="#m4ce8bb9e92" x="462.420839" y="339.84" style="stroke: #000000; stroke-width: 0.6"/>
      </g>
     </g>
    </g>
    <g id="xtick_36">
     <g id="line2d_36">
      <g>
       <use xlink:href="#m4ce8bb9e92" x="468.38596" y="339.84" style="stroke: #000000; stroke-width: 0.6"/>
      </g>
     </g>
    </g>
    <g id="xtick_37">
     <g id="line2d_37">
      <g>
       <use xlink:href="#m4ce8bb9e92" x="508.826382" y="339.84" style="stroke: #000000; stroke-width: 0.6"/>
      </g>
     </g>
    </g>
    <g id="xtick_38">
     <g id="line2d_38">
      <g>
       <use xlink:href="#m4ce8bb9e92" x="529.361162" y="339.84" style="stroke: #000000; stroke-width: 0.6"/>
      </g>
     </g>
    </g>
    <g id="xtick_39">
     <g id="line2d_39">
      <g>
       <use xlink:href="#m4ce8bb9e92" x="543.93082" y="339.84" style="stroke: #000000; stroke-width: 0.6"/>
      </g>
     </g>
    </g>
    <g id="xtick_40">
     <g id="line2d_40">
      <g>
       <use xlink:href="#m4ce8bb9e92" x="555.231925" y="339.84" style="stroke: #000000; stroke-width: 0.6"/>
      </g>
     </g>
    </g>
    <g id="xtick_41">
     <g id="line2d_41">
      <g>
       <use xlink:href="#m4ce8bb9e92" x="564.4656" y="339.84" style="stroke: #000000; stroke-width: 0.6"/>
      </g>
     </g>
    </g>
    <g id="xtick_42">
     <g id="line2d_42">
      <g>
       <use xlink:href="#m4ce8bb9e92" x="572.272561" y="339.84" style="stroke: #000000; stroke-width: 0.6"/>
      </g>
     </g>
    </g>
    <g id="xtick_43">
     <g id="line2d_43">
      <g>
       <use xlink:href="#m4ce8bb9e92" x="579.035259" y="339.84" style="stroke: #000000; stroke-width: 0.6"/>
      </g>
     </g>
    </g>
    <g id="xtick_44">
     <g id="line2d_44">
      <g>
       <use xlink:href="#m4ce8bb9e92" x="585.00038" y="339.84" style="stroke: #000000; stroke-width: 0.6"/>
      </g>
     </g>
    </g>
    <g id="text_6">
     <!-- Frequency (Hz) -->
     <g transform="translate(298.995313 368.116562) scale(0.1 -0.1)">
      <defs>
       <path id="DejaVuSans-46" d="M 628 4666 
L 3309 4666 
L 3309 4134 
L 1259 4134 
L 1259 2759 
L 3109 2759 
L 3109 2228 
L 1259 2228 
L 1259 0 
L 628 0 
L 628 4666 
z
" transform="scale(0.015625)"/>
       <path id="DejaVuSans-72" d="M 2631 2963 
Q 2534 3019 2420 3045 
Q 2306 3072 2169 3072 
Q 1681 3072 1420 2755 
Q 1159 2438 1159 1844 
L 1159 0 
L 581 0 
L 581 3500 
L 1159 3500 
L 1159 2956 
Q 1341 3275 1631 3429 
Q 1922 3584 2338 3584 
Q 2397 3584 2469 3576 
Q 2541 3569 2628 3553 
L 2631 2963 
z
" transform="scale(0.015625)"/>
       <path id="DejaVuSans-65" d="M 3597 1894 
L 3597 1613 
L 953 1613 
Q 991 1019 1311 708 
Q 1631 397 2203 397 
Q 2534 397 2845 478 
Q 3156 559 3463 722 
L 3463 178 
Q 3153 47 2828 -22 
Q 2503 -91 2169 -91 
Q 1331 -91 842 396 
Q 353 884 353 1716 
Q 353 2575 817 3079 
Q 1281 3584 2069 3584 
Q 2775 3584 3186 3129 
Q 3597 2675 3597 1894 
z
M 3022 2063 
Q 3016 2534 2758 2815 
Q 2500 3097 2075 3097 
Q 1594 3097 1305 2825 
Q 1016 2553 972 2059 
L 3022 2063 
z
" transform="scale(0.015625)"/>
       <path id="DejaVuSans-71" d="M 947 1747 
Q 947 1113 1208 752 
Q 1469 391 1925 391 
Q 2381 391 2643 752 
Q 2906 1113 2906 1747 
Q 2906 2381 2643 2742 
Q 2381 3103 1925 3103 
Q 1469 3103 1208 2742 
Q 947 2381 947 1747 
z
M 2906 525 
Q 2725 213 2448 61 
Q 2172 -91 1784 -91 
Q 1150 -91 751 415 
Q 353 922 353 1747 
Q 353 2572 751 3078 
Q 1150 3584 1784 3584 
Q 2172 3584 2448 3432 
Q 2725 3281 2906 2969 
L 2906 3500 
L 3481 3500 
L 3481 -1331 
L 2906 -1331 
L 2906 525 
z
" transform="scale(0.015625)"/>
       <path id="DejaVuSans-75" d="M 544 1381 
L 544 3500 
L 1119 3500 
L 1119 1403 
Q 1119 906 1312 657 
Q 1506 409 1894 409 
Q 2359 409 2629 706 
Q 2900 1003 2900 1516 
L 2900 3500 
L 3475 3500 
L 3475 0 
L 2900 0 
L 2900 538 
Q 2691 219 2414 64 
Q 2138 -91 1772 -91 
Q 1169 -91 856 284 
Q 544 659 544 1381 
z
M 1991 3584 
L 1991 3584 
z
" transform="scale(0.015625)"/>
       <path id="DejaVuSans-6e" d="M 3513 2113 
L 3513 0 
L 2938 0 
L 2938 2094 
Q 2938 2591 2744 2837 
Q 2550 3084 2163 3084 
Q 1697 3084 1428 2787 
Q 1159 2491 1159 1978 
L 1159 0 
L 581 0 
L 581 3500 
L 1159 3500 
L 1159 2956 
Q 1366 3272 1645 3428 
Q 1925 3584 2291 3584 
Q 2894 3584 3203 3211 
Q 3513 2838 3513 2113 
z
" transform="scale(0.015625)"/>
       <path id="DejaVuSans-63" d="M 3122 3366 
L 3122 2828 
Q 2878 2963 2633 3030 
Q 2388 3097 2138 3097 
Q 1578 3097 1268 2742 
Q 959 2388 959 1747 
Q 959 1106 1268 751 
Q 1578 397 2138 397 
Q 2388 397 2633 464 
Q 2878 531 3122 666 
L 3122 134 
Q 2881 22 2623 -34 
Q 2366 -91 2075 -91 
Q 1284 -91 818 406 
Q 353 903 353 1747 
Q 353 2603 823 3093 
Q 1294 3584 2113 3584 
Q 2378 3584 2631 3529 
Q 2884 3475 3122 3366 
z
" transform="scale(0.015625)"/>
       <path id="DejaVuSans-79" d="M 2059 -325 
Q 1816 -950 1584 -1140 
Q 1353 -1331 966 -1331 
L 506 -1331 
L 506 -850 
L 844 -850 
Q 1081 -850 1212 -737 
Q 1344 -625 1503 -206 
L 1606 56 
L 191 3500 
L 800 3500 
L 1894 763 
L 2988 3500 
L 3597 3500 
L 2059 -325 
z
" transform="scale(0.015625)"/>
       <path id="DejaVuSans-20" transform="scale(0.015625)"/>
       <path id="DejaVuSans-28" d="M 1984 4856 
Q 1566 4138 1362 3434 
Q 1159 2731 1159 2009 
Q 1159 1288 1364 580 
Q 1569 -128 1984 -844 
L 1484 -844 
Q 1016 -109 783 600 
Q 550 1309 550 2009 
Q 550 2706 781 3412 
Q 1013 4119 1484 4856 
L 1984 4856 
z
" transform="scale(0.015625)"/>
       <path id="DejaVuSans-48" d="M 628 4666 
L 1259 4666 
L 1259 2753 
L 3553 2753 
L 3553 4666 
L 4184 4666 
L 4184 0 
L 3553 0 
L 3553 2222 
L 1259 2222 
L 1259 0 
L 628 0 
L 628 4666 
z
" transform="scale(0.015625)"/>
       <path id="DejaVuSans-7a" d="M 353 3500 
L 3084 3500 
L 3084 2975 
L 922 459 
L 3084 459 
L 3084 0 
L 275 0 
L 275 525 
L 2438 3041 
L 353 3041 
L 353 3500 
z
" transform="scale(0.015625)"/>
       <path id="DejaVuSans-29" d="M 513 4856 
L 1013 4856 
Q 1481 4119 1714 3412 
Q 1947 2706 1947 2009 
Q 1947 1309 1714 600 
Q 1481 -109 1013 -844 
L 513 -844 
Q 928 -128 1133 580 
Q 1338 1288 1338 2009 
Q 1338 2731 1133 3434 
Q 928 4138 513 4856 
z
" transform="scale(0.015625)"/>
      </defs>
      <use xlink:href="#DejaVuSans-46"/>
      <use xlink:href="#DejaVuSans-72" x="50.269531"/>
      <use xlink:href="#DejaVuSans-65" x="89.132812"/>
      <use xlink:href="#DejaVuSans-71" x="150.65625"/>
      <use xlink:href="#DejaVuSans-75" x="214.132812"/>
      <use xlink:href="#DejaVuSans-65" x="277.511719"/>
      <use xlink:href="#DejaVuSans-6e" x="339.035156"/>
      <use xlink:href="#DejaVuSans-63" x="402.414062"/>
      <use xlink:href="#DejaVuSans-79" x="457.394531"/>
      <use xlink:href="#DejaVuSans-20" x="516.574219"/>
      <use xlink:href="#DejaVuSans-28" x="548.361328"/>
      <use xlink:href="#DejaVuSans-48" x="587.375"/>
      <use xlink:href="#DejaVuSans-7a" x="662.570312"/>
      <use xlink:href="#DejaVuSans-29" x="715.060547"/>
     </g>
    </g>
   </g>
   <g id="matplotlib.axis_2">
    <g id="ytick_1">
     <g id="line2d_45">
      <defs>
       <path id="m310a8b2ed8" d="M 0 0 
L -3.5 0 
" style="stroke: #000000; stroke-width: 0.8"/>
      </defs>
      <g>
       <use xlink:href="#m310a8b2ed8" x="57.7" y="270.879174" style="stroke: #000000; stroke-width: 0.8"/>
      </g>
     </g>
     <g id="text_7">
      <!-- $\mathdefault{10^{-6}}$ -->
      <g transform="translate(27.2 274.678392) scale(0.1 -0.1)">
       <defs>
        <path id="DejaVuSans-2212" d="M 678 2272 
L 4684 2272 
L 4684 1741 
L 678 1741 
L 678 2272 
z
" transform="scale(0.015625)"/>
        <path id="DejaVuSans-36" d="M 2113 2584 
Q 1688 2584 1439 2293 
Q 1191 2003 1191 1497 
Q 1191 994 1439 701 
Q 1688 409 2113 409 
Q 2538 409 2786 701 
Q 3034 994 3034 1497 
Q 3034 2003 2786 2293 
Q 2538 2584 2113 2584 
z
M 3366 4563 
L 3366 3988 
Q 3128 4100 2886 4159 
Q 2644 4219 2406 4219 
Q 1781 4219 1451 3797 
Q 1122 3375 1075 2522 
Q 1259 2794 1537 2939 
Q 1816 3084 2150 3084 
Q 2853 3084 3261 2657 
Q 3669 2231 3669 1497 
Q 3669 778 3244 343 
Q 2819 -91 2113 -91 
Q 1303 -91 875 529 
Q 447 1150 447 2328 
Q 447 3434 972 4092 
Q 1497 4750 2381 4750 
Q 2619 4750 2861 4703 
Q 3103 4656 3366 4563 
z
" transform="scale(0.015625)"/>
       </defs>
       <use xlink:href="#DejaVuSans-31" transform="translate(0 0.765625)"/>
       <use xlink:href="#DejaVuSans-30" transform="translate(63.623047 0.765625)"/>
       <use xlink:href="#DejaVuSans-2212" transform="translate(128.203125 39.046875) scale(0.7)"/>
       <use xlink:href="#DejaVuSans-36" transform="translate(186.855469 39.046875) scale(0.7)"/>
      </g>
     </g>
    </g>
    <g id="ytick_2">
     <g id="line2d_46">
      <g>
       <use xlink:href="#m310a8b2ed8" x="57.7" y="92.120399" style="stroke: #000000; stroke-width: 0.8"/>
      </g>
     </g>
     <g id="text_8">
      <!-- $\mathdefault{10^{-5}}$ -->
      <g transform="translate(27.2 95.919618) scale(0.1 -0.1)">
       <use xlink:href="#DejaVuSans-31" transform="translate(0 0.684375)"/>
       <use xlink:href="#DejaVuSans-30" transform="translate(63.623047 0.684375)"/>
       <use xlink:href="#DejaVuSans-2212" transform="translate(128.203125 38.965625) scale(0.7)"/>
       <use xlink:href="#DejaVuSans-35" transform="translate(186.855469 38.965625) scale(0.7)"/>
      </g>
     </g>
    </g>
    <g id="ytick_3">
     <g id="line2d_47">
      <defs>
       <path id="mc48d40284b" d="M 0 0 
L -2 0 
" style="stroke: #000000; stroke-width: 0.6"/>
      </defs>
      <g>
       <use xlink:href="#mc48d40284b" x="57.7" y="324.690927" style="stroke: #000000; stroke-width: 0.6"/>
      </g>
     </g>
    </g>
    <g id="ytick_4">
     <g id="line2d_48">
      <g>
       <use xlink:href="#mc48d40284b" x="57.7" y="310.536584" style="stroke: #000000; stroke-width: 0.6"/>
      </g>
     </g>
    </g>
    <g id="ytick_5">
     <g id="line2d_49">
      <g>
       <use xlink:href="#mc48d40284b" x="57.7" y="298.569258" style="stroke: #000000; stroke-width: 0.6"/>
      </g>
     </g>
    </g>
    <g id="ytick_6">
     <g id="line2d_50">
      <g>
       <use xlink:href="#mc48d40284b" x="57.7" y="288.202689" style="stroke: #000000; stroke-width: 0.6"/>
      </g>
     </g>
    </g>
    <g id="ytick_7">
     <g id="line2d_51">
      <g>
       <use xlink:href="#mc48d40284b" x="57.7" y="279.058727" style="stroke: #000000; stroke-width: 0.6"/>
      </g>
     </g>
    </g>
    <g id="ytick_8">
     <g id="line2d_52">
      <g>
       <use xlink:href="#mc48d40284b" x="57.7" y="217.06742" style="stroke: #000000; stroke-width: 0.6"/>
      </g>
     </g>
    </g>
    <g id="ytick_9">
     <g id="line2d_53">
      <g>
       <use xlink:href="#mc48d40284b" x="57.7" y="185.589563" style="stroke: #000000; stroke-width: 0.6"/>
      </g>
     </g>
    </g>
    <g id="ytick_10">
     <g id="line2d_54">
      <g>
       <use xlink:href="#mc48d40284b" x="57.7" y="163.255667" style="stroke: #000000; stroke-width: 0.6"/>
      </g>
     </g>
    </g>
    <g id="ytick_11">
     <g id="line2d_55">
      <g>
       <use xlink:href="#mc48d40284b" x="57.7" y="145.932152" style="stroke: #000000; stroke-width: 0.6"/>
      </g>
     </g>
    </g>
    <g id="ytick_12">
     <g id="line2d_56">
      <g>
       <use xlink:href="#mc48d40284b" x="57.7" y="131.77781" style="stroke: #000000; stroke-width: 0.6"/>
      </g>
     </g>
    </g>
    <g id="ytick_13">
     <g id="line2d_57">
      <g>
       <use xlink:href="#mc48d40284b" x="57.7" y="119.810484" style="stroke: #000000; stroke-width: 0.6"/>
      </g>
     </g>
    </g>
    <g id="ytick_14">
     <g id="line2d_58">
      <g>
       <use xlink:href="#mc48d40284b" x="57.7" y="109.443914" style="stroke: #000000; stroke-width: 0.6"/>
      </g>
     </g>
    </g>
    <g id="ytick_15">
     <g id="line2d_59">
      <g>
       <use xlink:href="#mc48d40284b" x="57.7" y="100.299952" style="stroke: #000000; stroke-width: 0.6"/>
      </g>
     </g>
    </g>
    <g id="ytick_16">
     <g id="line2d_60">
      <g>
       <use xlink:href="#mc48d40284b" x="57.7" y="38.308646" style="stroke: #000000; stroke-width: 0.6"/>
      </g>
     </g>
    </g>
    <g id="text_9">
     <!-- Noise Voltage $(\frac{V}{\sqrt{Hz}})$ -->
     <g transform="translate(16.7 221.67) rotate(-90) scale(0.1 -0.1)">
      <defs>
       <path id="DejaVuSans-4e" d="M 628 4666 
L 1478 4666 
L 3547 763 
L 3547 4666 
L 4159 4666 
L 4159 0 
L 3309 0 
L 1241 3903 
L 1241 0 
L 628 0 
L 628 4666 
z
" transform="scale(0.015625)"/>
       <path id="DejaVuSans-6f" d="M 1959 3097 
Q 1497 3097 1228 2736 
Q 959 2375 959 1747 
Q 959 1119 1226 758 
Q 1494 397 1959 397 
Q 2419 397 2687 759 
Q 2956 1122 2956 1747 
Q 2956 2369 2687 2733 
Q 2419 3097 1959 3097 
z
M 1959 3584 
Q 2709 3584 3137 3096 
Q 3566 2609 3566 1747 
Q 3566 888 3137 398 
Q 2709 -91 1959 -91 
Q 1206 -91 779 398 
Q 353 888 353 1747 
Q 353 2609 779 3096 
Q 1206 3584 1959 3584 
z
" transform="scale(0.015625)"/>
       <path id="DejaVuSans-69" d="M 603 3500 
L 1178 3500 
L 1178 0 
L 603 0 
L 603 3500 
z
M 603 4863 
L 1178 4863 
L 1178 4134 
L 603 4134 
L 603 4863 
z
" transform="scale(0.015625)"/>
       <path id="DejaVuSans-73" d="M 2834 3397 
L 2834 2853 
Q 2591 2978 2328 3040 
Q 2066 3103 1784 3103 
Q 1356 3103 1142 2972 
Q 928 2841 928 2578 
Q 928 2378 1081 2264 
Q 1234 2150 1697 2047 
L 1894 2003 
Q 2506 1872 2764 1633 
Q 3022 1394 3022 966 
Q 3022 478 2636 193 
Q 2250 -91 1575 -91 
Q 1294 -91 989 -36 
Q 684 19 347 128 
L 347 722 
Q 666 556 975 473 
Q 1284 391 1588 391 
Q 1994 391 2212 530 
Q 2431 669 2431 922 
Q 2431 1156 2273 1281 
Q 2116 1406 1581 1522 
L 1381 1569 
Q 847 1681 609 1914 
Q 372 2147 372 2553 
Q 372 3047 722 3315 
Q 1072 3584 1716 3584 
Q 2034 3584 2315 3537 
Q 2597 3491 2834 3397 
z
" transform="scale(0.015625)"/>
       <path id="DejaVuSans-56" d="M 1831 0 
L 50 4666 
L 709 4666 
L 2188 738 
L 3669 4666 
L 4325 4666 
L 2547 0 
L 1831 0 
z
" transform="scale(0.015625)"/>
       <path id="DejaVuSans-6c" d="M 603 4863 
L 1178 4863 
L 1178 0 
L 603 0 
L 603 4863 
z
" transform="scale(0.015625)"/>
       <path id="DejaVuSans-74" d="M 1172 4494 
L 1172 3500 
L 2356 3500 
L 2356 3053 
L 1172 3053 
L 1172 1153 
Q 1172 725 1289 603 
Q 1406 481 1766 481 
L 2356 481 
L 2356 0 
L 1766 0 
Q 1100 0 847 248 
Q 594 497 594 1153 
L 594 3053 
L 172 3053 
L 172 3500 
L 594 3500 
L 594 4494 
L 1172 4494 
z
" transform="scale(0.015625)"/>
       <path id="DejaVuSans-61" d="M 2194 1759 
Q 1497 1759 1228 1600 
Q 959 1441 959 1056 
Q 959 750 1161 570 
Q 1363 391 1709 391 
Q 2188 391 2477 730 
Q 2766 1069 2766 1631 
L 2766 1759 
L 2194 1759 
z
M 3341 1997 
L 3341 0 
L 2766 0 
L 2766 531 
Q 2569 213 2275 61 
Q 1981 -91 1556 -91 
Q 1019 -91 701 211 
Q 384 513 384 1019 
Q 384 1609 779 1909 
Q 1175 2209 1959 2209 
L 2766 2209 
L 2766 2266 
Q 2766 2663 2505 2880 
Q 2244 3097 1772 3097 
Q 1472 3097 1187 3025 
Q 903 2953 641 2809 
L 641 3341 
Q 956 3463 1253 3523 
Q 1550 3584 1831 3584 
Q 2591 3584 2966 3190 
Q 3341 2797 3341 1997 
z
" transform="scale(0.015625)"/>
       <path id="DejaVuSans-67" d="M 2906 1791 
Q 2906 2416 2648 2759 
Q 2391 3103 1925 3103 
Q 1463 3103 1205 2759 
Q 947 2416 947 1791 
Q 947 1169 1205 825 
Q 1463 481 1925 481 
Q 2391 481 2648 825 
Q 2906 1169 2906 1791 
z
M 3481 434 
Q 3481 -459 3084 -895 
Q 2688 -1331 1869 -1331 
Q 1566 -1331 1297 -1286 
Q 1028 -1241 775 -1147 
L 775 -588 
Q 1028 -725 1275 -790 
Q 1522 -856 1778 -856 
Q 2344 -856 2625 -561 
Q 2906 -266 2906 331 
L 2906 616 
Q 2728 306 2450 153 
Q 2172 0 1784 0 
Q 1141 0 747 490 
Q 353 981 353 1791 
Q 353 2603 747 3093 
Q 1141 3584 1784 3584 
Q 2172 3584 2450 3431 
Q 2728 3278 2906 2969 
L 2906 3500 
L 3481 3500 
L 3481 434 
z
" transform="scale(0.015625)"/>
       <path id="DejaVuSans-Oblique-56" d="M 1319 0 
L 500 4666 
L 1119 4666 
L 1797 653 
L 4063 4666 
L 4750 4666 
L 2053 0 
L 1319 0 
z
" transform="scale(0.015625)"/>
       <path id="STIXSizeOneSym-Regular-221a" d="M 6970 9933 
L 3373 -1888 
L 3104 -1888 
L 1626 2918 
Q 1555 3149 1465 3251 
Q 1376 3354 1229 3354 
Q 1011 3354 794 3181 
L 717 3309 
L 1766 4115 
L 1926 4115 
L 3379 -602 
L 3405 -602 
L 6605 9933 
L 6970 9933 
z
" transform="scale(0.015625)"/>
       <path id="DejaVuSans-Oblique-48" d="M 1081 4666 
L 1716 4666 
L 1344 2753 
L 3634 2753 
L 4006 4666 
L 4641 4666 
L 3731 0 
L 3097 0 
L 3531 2222 
L 1241 2222 
L 806 0 
L 172 0 
L 1081 4666 
z
" transform="scale(0.015625)"/>
       <path id="DejaVuSans-Oblique-7a" d="M 744 3500 
L 3475 3500 
L 3372 2975 
L 738 459 
L 2913 459 
L 2822 0 
L -19 0 
L 84 525 
L 2719 3041 
L 653 3041 
L 744 3500 
z
" transform="scale(0.015625)"/>
      </defs>
      <use xlink:href="#DejaVuSans-4e" transform="translate(0 0.16875)"/>
      <use xlink:href="#DejaVuSans-6f" transform="translate(74.804688 0.16875)"/>
      <use xlink:href="#DejaVuSans-69" transform="translate(135.986328 0.16875)"/>
      <use xlink:href="#DejaVuSans-73" transform="translate(163.769531 0.16875)"/>
      <use xlink:href="#DejaVuSans-65" transform="translate(215.869141 0.16875)"/>
      <use xlink:href="#DejaVuSans-20" transform="translate(277.392578 0.16875)"/>
      <use xlink:href="#DejaVuSans-56" transform="translate(309.179688 0.16875)"/>
      <use xlink:href="#DejaVuSans-6f" transform="translate(377.587891 0.16875)"/>
      <use xlink:href="#DejaVuSans-6c" transform="translate(438.769531 0.16875)"/>
      <use xlink:href="#DejaVuSans-74" transform="translate(466.552734 0.16875)"/>
      <use xlink:href="#DejaVuSans-61" transform="translate(505.761719 0.16875)"/>
      <use xlink:href="#DejaVuSans-67" transform="translate(567.041016 0.16875)"/>
      <use xlink:href="#DejaVuSans-65" transform="translate(630.517578 0.16875)"/>
      <use xlink:href="#DejaVuSans-20" transform="translate(692.041016 0.16875)"/>
      <use xlink:href="#DejaVuSans-28" transform="translate(723.828125 0.16875)"/>
      <use xlink:href="#DejaVuSans-Oblique-56" transform="translate(812.841797 43.965625) scale(0.7)"/>
      <use xlink:href="#STIXSizeOneSym-Regular-221a" transform="translate(762.841797 -52.31875) scale(0.394738)"/>
      <use xlink:href="#DejaVuSans-Oblique-48" transform="translate(813.303651 -63.69375) scale(0.7)"/>
      <use xlink:href="#DejaVuSans-Oblique-7a" transform="translate(865.94037 -63.69375) scale(0.7)"/>
      <use xlink:href="#DejaVuSans-29" transform="translate(923.933534 0.16875)"/>
      <path d="M 762.841797 18.965625 
L 762.841797 25.215625 
L 911.433534 25.215625 
L 911.433534 18.965625 
L 762.841797 18.965625 
z
"/>
      <path d="M 804.553651 3.965625 
L 804.553651 8.340625 
L 911.433534 8.340625 
L 911.433534 3.965625 
L 804.553651 3.965625 
z
"/>
     </g>
    </g>
   </g>
   <g id="line2d_61"/>
   <g id="line2d_62"/>
   <g id="line2d_63"/>
   <g id="LineCollection_1">
    <path d="M 88.774245 115.300316 
L 88.774245 63.954256 
" clip-path="url(#p51b6659399)" style="fill: none; stroke: #000000; stroke-width: 1.5"/>
    <path d="M 108.210007 137.773682 
L 108.210007 86.049763 
" clip-path="url(#p51b6659399)" style="fill: none; stroke: #000000; stroke-width: 1.5"/>
    <path d="M 127.644903 186.541562 
L 127.644903 134.386831 
" clip-path="url(#p51b6659399)" style="fill: none; stroke: #000000; stroke-width: 1.5"/>
    <path d="M 147.080211 135.83049 
L 147.080211 83.192838 
" clip-path="url(#p51b6659399)" style="fill: none; stroke: #000000; stroke-width: 1.5"/>
    <path d="M 166.517314 164.911025 
L 166.517314 111.739184 
" clip-path="url(#p51b6659399)" style="fill: none; stroke: #000000; stroke-width: 1.5"/>
    <path d="M 185.953518 187.907678 
L 185.953518 134.151296 
" clip-path="url(#p51b6659399)" style="fill: none; stroke: #000000; stroke-width: 1.5"/>
    <path d="M 205.388665 194.898496 
L 205.388665 140.5079 
" clip-path="url(#p51b6659399)" style="fill: none; stroke: #000000; stroke-width: 1.5"/>
    <path d="M 224.824427 119.511795 
L 224.824427 64.437482 
" clip-path="url(#p51b6659399)" style="fill: none; stroke: #000000; stroke-width: 1.5"/>
    <path d="M 244.259323 154.658452 
L 244.259323 98.850167 
" clip-path="url(#p51b6659399)" style="fill: none; stroke: #000000; stroke-width: 1.5"/>
    <path d="M 263.694631 201.907023 
L 263.694631 145.311285 
" clip-path="url(#p51b6659399)" style="fill: none; stroke: #000000; stroke-width: 1.5"/>
    <path d="M 283.131734 230.581128 
L 283.131734 173.135568 
" clip-path="url(#p51b6659399)" style="fill: none; stroke: #000000; stroke-width: 1.5"/>
    <path d="M 302.567938 247.386825 
L 302.567938 189.006833 
" clip-path="url(#p51b6659399)" style="fill: none; stroke: #000000; stroke-width: 1.5"/>
    <path d="M 322.003085 259.904674 
L 322.003085 200.454765 
" clip-path="url(#p51b6659399)" style="fill: none; stroke: #000000; stroke-width: 1.5"/>
    <path d="M 341.438847 302.401454 
L 341.438847 241.661154 
" clip-path="url(#p51b6659399)" style="fill: none; stroke: #000000; stroke-width: 1.5"/>
    <path d="M 360.873743 253.710156 
L 360.873743 191.411141 
" clip-path="url(#p51b6659399)" style="fill: none; stroke: #000000; stroke-width: 1.5"/>
    <path d="M 380.309051 322.869613 
L 380.309051 258.863109 
" clip-path="url(#p51b6659399)" style="fill: none; stroke: #000000; stroke-width: 1.5"/>
    <path d="M 399.746154 317.398494 
L 399.746154 251.754463 
" clip-path="url(#p51b6659399)" style="fill: none; stroke: #000000; stroke-width: 1.5"/>
    <path d="M 419.182358 324.72 
L 419.182358 257.611198 
" clip-path="url(#p51b6659399)" style="fill: none; stroke: #000000; stroke-width: 1.5"/>
    <path d="M 438.617505 317.15776 
L 438.617505 248.723834 
" clip-path="url(#p51b6659399)" style="fill: none; stroke: #000000; stroke-width: 1.5"/>
    <path d="M 458.053267 315.884933 
L 458.053267 246.197242 
" clip-path="url(#p51b6659399)" style="fill: none; stroke: #000000; stroke-width: 1.5"/>
    <path d="M 477.488163 297.178873 
L 477.488163 226.258174 
" clip-path="url(#p51b6659399)" style="fill: none; stroke: #000000; stroke-width: 1.5"/>
    <path d="M 496.923471 300.863173 
L 496.923471 228.701598 
" clip-path="url(#p51b6659399)" style="fill: none; stroke: #000000; stroke-width: 1.5"/>
    <path d="M 516.360574 264.066924 
L 516.360574 190.642253 
" clip-path="url(#p51b6659399)" style="fill: none; stroke: #000000; stroke-width: 1.5"/>
    <path d="M 535.796778 246.094932 
L 535.796778 171.378423 
" clip-path="url(#p51b6659399)" style="fill: none; stroke: #000000; stroke-width: 1.5"/>
    <path d="M 555.231925 203.125723 
L 555.231925 127.085633 
" clip-path="url(#p51b6659399)" style="fill: none; stroke: #000000; stroke-width: 1.5"/>
    <path d="M 574.667687 99.716833 
L 574.667687 22.32 
" clip-path="url(#p51b6659399)" style="fill: none; stroke: #000000; stroke-width: 1.5"/>
   </g>
   <g id="line2d_64">
    <defs>
     <path id="m06ef8f726d" d="M 5 0 
L -5 -0 
" style="stroke: #000000"/>
    </defs>
    <g clip-path="url(#p51b6659399)">
     <use xlink:href="#m06ef8f726d" x="88.774245" y="115.300316" style="stroke: #000000"/>
     <use xlink:href="#m06ef8f726d" x="108.210007" y="137.773682" style="stroke: #000000"/>
     <use xlink:href="#m06ef8f726d" x="127.644903" y="186.541562" style="stroke: #000000"/>
     <use xlink:href="#m06ef8f726d" x="147.080211" y="135.83049" style="stroke: #000000"/>
     <use xlink:href="#m06ef8f726d" x="166.517314" y="164.911025" style="stroke: #000000"/>
     <use xlink:href="#m06ef8f726d" x="185.953518" y="187.907678" style="stroke: #000000"/>
     <use xlink:href="#m06ef8f726d" x="205.388665" y="194.898496" style="stroke: #000000"/>
     <use xlink:href="#m06ef8f726d" x="224.824427" y="119.511795" style="stroke: #000000"/>
     <use xlink:href="#m06ef8f726d" x="244.259323" y="154.658452" style="stroke: #000000"/>
     <use xlink:href="#m06ef8f726d" x="263.694631" y="201.907023" style="stroke: #000000"/>
     <use xlink:href="#m06ef8f726d" x="283.131734" y="230.581128" style="stroke: #000000"/>
     <use xlink:href="#m06ef8f726d" x="302.567938" y="247.386825" style="stroke: #000000"/>
     <use xlink:href="#m06ef8f726d" x="322.003085" y="259.904674" style="stroke: #000000"/>
     <use xlink:href="#m06ef8f726d" x="341.438847" y="302.401454" style="stroke: #000000"/>
     <use xlink:href="#m06ef8f726d" x="360.873743" y="253.710156" style="stroke: #000000"/>
     <use xlink:href="#m06ef8f726d" x="380.309051" y="322.869613" style="stroke: #000000"/>
     <use xlink:href="#m06ef8f726d" x="399.746154" y="317.398494" style="stroke: #000000"/>
     <use xlink:href="#m06ef8f726d" x="419.182358" y="324.72" style="stroke: #000000"/>
     <use xlink:href="#m06ef8f726d" x="438.617505" y="317.15776" style="stroke: #000000"/>
     <use xlink:href="#m06ef8f726d" x="458.053267" y="315.884933" style="stroke: #000000"/>
     <use xlink:href="#m06ef8f726d" x="477.488163" y="297.178873" style="stroke: #000000"/>
     <use xlink:href="#m06ef8f726d" x="496.923471" y="300.863173" style="stroke: #000000"/>
     <use xlink:href="#m06ef8f726d" x="516.360574" y="264.066924" style="stroke: #000000"/>
     <use xlink:href="#m06ef8f726d" x="535.796778" y="246.094932" style="stroke: #000000"/>
     <use xlink:href="#m06ef8f726d" x="555.231925" y="203.125723" style="stroke: #000000"/>
     <use xlink:href="#m06ef8f726d" x="574.667687" y="99.716833" style="stroke: #000000"/>
    </g>
   </g>
   <g id="line2d_65">
    <g clip-path="url(#p51b6659399)">
     <use xlink:href="#m06ef8f726d" x="88.774245" y="63.954256" style="stroke: #000000"/>
     <use xlink:href="#m06ef8f726d" x="108.210007" y="86.049763" style="stroke: #000000"/>
     <use xlink:href="#m06ef8f726d" x="127.644903" y="134.386831" style="stroke: #000000"/>
     <use xlink:href="#m06ef8f726d" x="147.080211" y="83.192838" style="stroke: #000000"/>
     <use xlink:href="#m06ef8f726d" x="166.517314" y="111.739184" style="stroke: #000000"/>
     <use xlink:href="#m06ef8f726d" x="185.953518" y="134.151296" style="stroke: #000000"/>
     <use xlink:href="#m06ef8f726d" x="205.388665" y="140.5079" style="stroke: #000000"/>
     <use xlink:href="#m06ef8f726d" x="224.824427" y="64.437482" style="stroke: #000000"/>
     <use xlink:href="#m06ef8f726d" x="244.259323" y="98.850167" style="stroke: #000000"/>
     <use xlink:href="#m06ef8f726d" x="263.694631" y="145.311285" style="stroke: #000000"/>
     <use xlink:href="#m06ef8f726d" x="283.131734" y="173.135568" style="stroke: #000000"/>
     <use xlink:href="#m06ef8f726d" x="302.567938" y="189.006833" style="stroke: #000000"/>
     <use xlink:href="#m06ef8f726d" x="322.003085" y="200.454765" style="stroke: #000000"/>
     <use xlink:href="#m06ef8f726d" x="341.438847" y="241.661154" style="stroke: #000000"/>
     <use xlink:href="#m06ef8f726d" x="360.873743" y="191.411141" style="stroke: #000000"/>
     <use xlink:href="#m06ef8f726d" x="380.309051" y="258.863109" style="stroke: #000000"/>
     <use xlink:href="#m06ef8f726d" x="399.746154" y="251.754463" style="stroke: #000000"/>
     <use xlink:href="#m06ef8f726d" x="419.182358" y="257.611198" style="stroke: #000000"/>
     <use xlink:href="#m06ef8f726d" x="438.617505" y="248.723834" style="stroke: #000000"/>
     <use xlink:href="#m06ef8f726d" x="458.053267" y="246.197242" style="stroke: #000000"/>
     <use xlink:href="#m06ef8f726d" x="477.488163" y="226.258174" style="stroke: #000000"/>
     <use xlink:href="#m06ef8f726d" x="496.923471" y="228.701598" style="stroke: #000000"/>
     <use xlink:href="#m06ef8f726d" x="516.360574" y="190.642253" style="stroke: #000000"/>
     <use xlink:href="#m06ef8f726d" x="535.796778" y="171.378423" style="stroke: #000000"/>
     <use xlink:href="#m06ef8f726d" x="555.231925" y="127.085633" style="stroke: #000000"/>
     <use xlink:href="#m06ef8f726d" x="574.667687" y="22.32" style="stroke: #000000"/>
    </g>
   </g>
   <g id="line2d_66">
    <path d="M 83.063636 89.133535 
L 121.654955 118.288216 
L 149.075102 138.740154 
L 169.894103 154.004456 
L 181.065274 161.952112 
L 186.143079 165.335853 
L 189.697543 167.450512 
L 192.236446 168.703044 
L 194.267568 169.446282 
L 195.790909 169.78357 
L 197.314251 169.86542 
L 198.329812 169.741509 
L 199.345373 169.445245 
L 200.360934 168.948643 
L 201.376495 168.222135 
L 202.392056 167.235667 
L 203.407617 165.960192 
L 204.423178 164.369508 
L 205.438739 162.44229 
L 206.4543 160.164113 
L 207.977641 156.07879 
L 209.500983 151.215383 
L 211.024324 145.646718 
L 213.055446 137.330567 
L 216.102129 123.684484 
L 220.672154 103.145056 
L 222.703276 94.894535 
L 224.734398 87.620438 
L 226.25774 82.974238 
L 227.781081 79.148844 
L 228.796642 77.110547 
L 229.812203 75.521175 
L 230.827764 74.414846 
L 231.843325 73.826158 
L 232.351106 73.736895 
L 232.858886 73.790275 
L 233.366667 73.990784 
L 233.874447 74.34294 
L 234.382228 74.851293 
L 235.397789 76.354892 
L 236.41335 78.53828 
L 237.428911 81.43798 
L 238.444472 85.089688 
L 239.460033 89.52723 
L 240.475594 94.780939 
L 241.998935 104.242438 
L 243.522277 115.626607 
L 245.045618 128.862016 
L 247.07674 148.87092 
L 250.123423 179.905298 
L 251.138984 188.809613 
L 252.154545 196.232029 
L 253.170106 201.969915 
L 254.185667 206.103982 
L 255.201229 208.930179 
L 256.21679 210.822183 
L 257.232351 212.116773 
L 258.247912 213.062919 
L 259.771253 214.160667 
L 262.817936 215.99233 
L 271.450205 220.8335 
L 280.590254 225.704691 
L 289.222523 230.051511 
L 297.347011 233.905035 
L 305.471499 237.519002 
L 313.595987 240.887172 
L 321.720475 244.00631 
L 329.844963 246.876344 
L 337.969451 249.50037 
L 346.093939 251.884496 
L 354.218428 254.037543 
L 362.850696 256.08444 
L 371.482965 257.898628 
L 380.623014 259.585012 
L 390.270844 261.126759 
L 400.426454 262.512991 
L 411.089844 263.738884 
L 422.768796 264.849074 
L 435.463309 265.823944 
L 449.681163 266.681608 
L 465.422359 267.40309 
L 483.702457 268.013124 
L 505.537019 268.511698 
L 532.957166 268.902882 
L 569.517363 269.18528 
L 590.336364 269.275654 
L 590.336364 269.275654 
" clip-path="url(#p51b6659399)" style="fill: none; stroke: #d62728; stroke-width: 1.5; stroke-linecap: square"/>
   </g>
   <g id="line2d_67">
    <defs>
     <path id="m5a11d7065d" d="M 0 2.5 
C 0.663008 2.5 1.29895 2.236584 1.767767 1.767767 
C 2.236584 1.29895 2.5 0.663008 2.5 0 
C 2.5 -0.663008 2.236584 -1.29895 1.767767 -1.767767 
C 1.29895 -2.236584 0.663008 -2.5 0 -2.5 
C -0.663008 -2.5 -1.29895 -2.236584 -1.767767 -1.767767 
C -2.236584 -1.29895 -2.5 -0.663008 -2.5 0 
C -2.5 0.663008 -2.236584 1.29895 -1.767767 1.767767 
C -1.29895 2.236584 -0.663008 2.5 0 2.5 
z
" style="stroke: #000000"/>
    </defs>
    <g clip-path="url(#p51b6659399)">
     <use xlink:href="#m5a11d7065d" x="88.774245" y="85.457522" style="stroke: #000000"/>
     <use xlink:href="#m5a11d7065d" x="108.210007" y="107.681457" style="stroke: #000000"/>
     <use xlink:href="#m5a11d7065d" x="127.644903" y="156.164447" style="stroke: #000000"/>
     <use xlink:href="#m5a11d7065d" x="147.080211" y="105.13339" style="stroke: #000000"/>
     <use xlink:href="#m5a11d7065d" x="166.517314" y="133.859189" style="stroke: #000000"/>
     <use xlink:href="#m5a11d7065d" x="185.953518" y="156.46673" style="stroke: #000000"/>
     <use xlink:href="#m5a11d7065d" x="205.388665" y="163.034264" style="stroke: #000000"/>
     <use xlink:href="#m5a11d7065d" x="224.824427" y="87.189953" style="stroke: #000000"/>
     <use xlink:href="#m5a11d7065d" x="244.259323" y="121.843884" style="stroke: #000000"/>
     <use xlink:href="#m5a11d7065d" x="263.694631" y="168.562127" style="stroke: #000000"/>
     <use xlink:href="#m5a11d7065d" x="283.131734" y="196.661933" style="stroke: #000000"/>
     <use xlink:href="#m5a11d7065d" x="302.567938" y="212.833805" style="stroke: #000000"/>
     <use xlink:href="#m5a11d7065d" x="322.003085" y="224.622923" style="stroke: #000000"/>
     <use xlink:href="#m5a11d7065d" x="341.438847" y="266.236556" style="stroke: #000000"/>
     <use xlink:href="#m5a11d7065d" x="360.873743" y="216.472313" style="stroke: #000000"/>
     <use xlink:href="#m5a11d7065d" x="380.309051" y="284.448742" style="stroke: #000000"/>
     <use xlink:href="#m5a11d7065d" x="399.746154" y="277.835592" style="stroke: #000000"/>
     <use xlink:href="#m5a11d7065d" x="419.182358" y="284.129397" style="stroke: #000000"/>
     <use xlink:href="#m5a11d7065d" x="438.617505" y="275.632468" style="stroke: #000000"/>
     <use xlink:href="#m5a11d7065d" x="458.053267" y="273.470972" style="stroke: #000000"/>
     <use xlink:href="#m5a11d7065d" x="477.488163" y="253.886893" style="stroke: #000000"/>
     <use xlink:href="#m5a11d7065d" x="496.923471" y="256.683531" style="stroke: #000000"/>
     <use xlink:href="#m5a11d7065d" x="516.360574" y="218.979593" style="stroke: #000000"/>
     <use xlink:href="#m5a11d7065d" x="535.796778" y="200.074974" style="stroke: #000000"/>
     <use xlink:href="#m5a11d7065d" x="555.231925" y="156.145763" style="stroke: #000000"/>
     <use xlink:href="#m5a11d7065d" x="574.667687" y="51.748169" style="stroke: #000000"/>
    </g>
   </g>
   <g id="patch_3">
    <path d="M 57.7 339.84 
L 57.7 7.2 
" style="fill: none; stroke: #000000; stroke-width: 0.8; stroke-linejoin: miter; stroke-linecap: square"/>
   </g>
   <g id="patch_4">
    <path d="M 615.7 339.84 
L 615.7 7.2 
" style="fill: none; stroke: #000000; stroke-width: 0.8; stroke-linejoin: miter; stroke-linecap: square"/>
   </g>
   <g id="patch_5">
    <path d="M 57.7 339.84 
L 615.7 339.84 
" style="fill: none; stroke: #000000; stroke-width: 0.8; stroke-linejoin: miter; stroke-linecap: square"/>
   </g>
   <g id="patch_6">
    <path d="M 57.7 7.2 
L 615.7 7.2 
" style="fill: none; stroke: #000000; stroke-width: 0.8; stroke-linejoin: miter; stroke-linecap: square"/>
   </g>
   <g id="legend_1">
    <g id="patch_7">
     <path d="M 290.9 103.378125 
L 608.7 103.378125 
Q 610.7 103.378125 610.7 101.378125 
L 610.7 14.2 
Q 610.7 12.2 608.7 12.2 
L 290.9 12.2 
Q 288.9 12.2 288.9 14.2 
L 288.9 101.378125 
Q 288.9 103.378125 290.9 103.378125 
z
" style="fill: #ffffff; opacity: 0.8; stroke: #cccccc; stroke-linejoin: miter"/>
    </g>
    <g id="line2d_68"/>
    <g id="text_10">
     <!-- $\chi^2_\nu$ = 1.02 -->
     <g transform="translate(320.9 25.3) scale(0.1 -0.1)">
      <defs>
       <path id="DejaVuSans-Oblique-3c7" d="M 1922 -781 
L 1691 416 
L 394 -1334 
L -284 -1334 
L 1553 1141 
L 1269 2613 
Q 1194 3006 713 3006 
L 559 3006 
L 653 3500 
L 872 3494 
Q 1675 3472 1775 2950 
L 2006 1753 
L 3303 3503 
L 3981 3503 
L 2144 1028 
L 2428 -444 
Q 2503 -838 2984 -838 
L 3138 -838 
L 3044 -1331 
L 2825 -1325 
Q 2022 -1303 1922 -781 
z
" transform="scale(0.015625)"/>
       <path id="DejaVuSans-Oblique-3bd" d="M 959 0 
L 572 3500 
L 1191 3500 
L 1522 563 
Q 1972 950 2391 1488 
Q 2706 1891 2788 2241 
Q 2825 2406 2809 2719 
Q 2794 3091 2544 3500 
L 3125 3500 
L 3125 3500 
Q 3288 3222 3353 2834 
Q 3416 2478 3369 2234 
Q 3250 1622 2719 1075 
Q 2025 363 1572 0 
L 959 0 
z
" transform="scale(0.015625)"/>
       <path id="DejaVuSans-3d" d="M 678 2906 
L 4684 2906 
L 4684 2381 
L 678 2381 
L 678 2906 
z
M 678 1631 
L 4684 1631 
L 4684 1100 
L 678 1100 
L 678 1631 
z
" transform="scale(0.015625)"/>
       <path id="DejaVuSans-2e" d="M 684 794 
L 1344 794 
L 1344 0 
L 684 0 
L 684 794 
z
" transform="scale(0.015625)"/>
      </defs>
      <use xlink:href="#DejaVuSans-Oblique-3c7" transform="translate(0 0.765625)"/>
      <use xlink:href="#DejaVuSans-32" transform="translate(63.652396 39.046875) scale(0.7)"/>
      <use xlink:href="#DejaVuSans-Oblique-3bd" transform="translate(59.179688 -26.578125) scale(0.7)"/>
      <use xlink:href="#DejaVuSans-20" transform="translate(110.922904 0.765625)"/>
      <use xlink:href="#DejaVuSans-3d" transform="translate(142.710013 0.765625)"/>
      <use xlink:href="#DejaVuSans-20" transform="translate(226.499076 0.765625)"/>
      <use xlink:href="#DejaVuSans-31" transform="translate(258.286185 0.765625)"/>
      <use xlink:href="#DejaVuSans-2e" transform="translate(321.909232 0.765625)"/>
      <use xlink:href="#DejaVuSans-30" transform="translate(353.696341 0.765625)"/>
      <use xlink:href="#DejaVuSans-32" transform="translate(417.319388 0.765625)"/>
     </g>
    </g>
    <g id="line2d_69"/>
    <g id="text_11">
     <!-- $v_{th} = 1.0 \pm 0.1 \times 10^{-6}, \beta = 2.2 \pm 0.3 \times 10^{-5},$ -->
     <g transform="translate(320.9 42.2) scale(0.1 -0.1)">
      <defs>
       <path id="DejaVuSans-Oblique-76" d="M 459 3500 
L 1069 3500 
L 1581 525 
L 3256 3500 
L 3866 3500 
L 1875 0 
L 1100 0 
L 459 3500 
z
" transform="scale(0.015625)"/>
       <path id="DejaVuSans-Oblique-74" d="M 2706 3500 
L 2619 3053 
L 1472 3053 
L 1100 1153 
Q 1081 1047 1072 975 
Q 1063 903 1063 863 
Q 1063 663 1183 572 
Q 1303 481 1569 481 
L 2150 481 
L 2053 0 
L 1503 0 
Q 991 0 739 200 
Q 488 400 488 806 
Q 488 878 497 964 
Q 506 1050 525 1153 
L 897 3053 
L 409 3053 
L 500 3500 
L 978 3500 
L 1172 4494 
L 1747 4494 
L 1556 3500 
L 2706 3500 
z
" transform="scale(0.015625)"/>
       <path id="DejaVuSans-Oblique-68" d="M 3566 2113 
L 3156 0 
L 2578 0 
L 2988 2091 
Q 3016 2238 3031 2350 
Q 3047 2463 3047 2528 
Q 3047 2791 2881 2937 
Q 2716 3084 2419 3084 
Q 1956 3084 1617 2771 
Q 1278 2459 1178 1941 
L 800 0 
L 225 0 
L 1172 4863 
L 1747 4863 
L 1375 2950 
Q 1594 3244 1934 3414 
Q 2275 3584 2650 3584 
Q 3113 3584 3367 3334 
Q 3622 3084 3622 2631 
Q 3622 2519 3608 2391 
Q 3594 2263 3566 2113 
z
" transform="scale(0.015625)"/>
       <path id="DejaVuSans-b1" d="M 2944 4013 
L 2944 2803 
L 4684 2803 
L 4684 2272 
L 2944 2272 
L 2944 1063 
L 2419 1063 
L 2419 2272 
L 678 2272 
L 678 2803 
L 2419 2803 
L 2419 4013 
L 2944 4013 
z
M 678 531 
L 4684 531 
L 4684 0 
L 678 0 
L 678 531 
z
" transform="scale(0.015625)"/>
       <path id="DejaVuSans-d7" d="M 4488 3438 
L 3059 2003 
L 4488 575 
L 4116 197 
L 2681 1631 
L 1247 197 
L 878 575 
L 2303 2003 
L 878 3438 
L 1247 3816 
L 2681 2381 
L 4116 3816 
L 4488 3438 
z
" transform="scale(0.015625)"/>
       <path id="DejaVuSans-2c" d="M 750 794 
L 1409 794 
L 1409 256 
L 897 -744 
L 494 -744 
L 750 256 
L 750 794 
z
" transform="scale(0.015625)"/>
       <path id="DejaVuSans-Oblique-3b2" d="M 872 216 
L 572 -1331 
L -6 -1331 
L 928 3478 
Q 1206 4903 2538 4903 
Q 3888 4903 3659 3700 
Q 3503 2844 2894 2531 
Q 3713 2250 3553 1416 
Q 3272 -69 1759 -66 
Q 1097 -63 872 216 
z
M 1019 966 
Q 1259 422 1875 425 
Q 2775 425 2966 1406 
Q 3138 2288 1675 2219 
L 1778 2750 
Q 2909 2731 3106 3750 
Q 3241 4438 2509 4434 
Q 1691 4434 1503 3459 
L 1019 966 
z
" transform="scale(0.015625)"/>
      </defs>
      <use xlink:href="#DejaVuSans-Oblique-76" transform="translate(0 0.765625)"/>
      <use xlink:href="#DejaVuSans-Oblique-74" transform="translate(59.179688 -15.640625) scale(0.7)"/>
      <use xlink:href="#DejaVuSans-Oblique-68" transform="translate(86.625977 -15.640625) scale(0.7)"/>
      <use xlink:href="#DejaVuSans-3d" transform="translate(153.208008 0.765625)"/>
      <use xlink:href="#DejaVuSans-31" transform="translate(256.479492 0.765625)"/>
      <use xlink:href="#DejaVuSans-2e" transform="translate(320.102539 0.765625)"/>
      <use xlink:href="#DejaVuSans-30" transform="translate(351.889648 0.765625)"/>
      <use xlink:href="#DejaVuSans-b1" transform="translate(434.995117 0.765625)"/>
      <use xlink:href="#DejaVuSans-30" transform="translate(538.266602 0.765625)"/>
      <use xlink:href="#DejaVuSans-2e" transform="translate(601.889648 0.765625)"/>
      <use xlink:href="#DejaVuSans-31" transform="translate(633.676758 0.765625)"/>
      <use xlink:href="#DejaVuSans-d7" transform="translate(716.782227 0.765625)"/>
      <use xlink:href="#DejaVuSans-31" transform="translate(820.053711 0.765625)"/>
      <use xlink:href="#DejaVuSans-30" transform="translate(883.676758 0.765625)"/>
      <use xlink:href="#DejaVuSans-2212" transform="translate(948.256836 39.046875) scale(0.7)"/>
      <use xlink:href="#DejaVuSans-36" transform="translate(1006.90918 39.046875) scale(0.7)"/>
      <use xlink:href="#DejaVuSans-2c" transform="translate(1054.179688 0.765625)"/>
      <use xlink:href="#DejaVuSans-Oblique-3b2" transform="translate(1105.449219 0.765625)"/>
      <use xlink:href="#DejaVuSans-3d" transform="translate(1188.75 0.765625)"/>
      <use xlink:href="#DejaVuSans-32" transform="translate(1292.021484 0.765625)"/>
      <use xlink:href="#DejaVuSans-2e" transform="translate(1355.644531 0.765625)"/>
      <use xlink:href="#DejaVuSans-32" transform="translate(1381.931641 0.765625)"/>
      <use xlink:href="#DejaVuSans-b1" transform="translate(1465.037109 0.765625)"/>
      <use xlink:href="#DejaVuSans-30" transform="translate(1568.308594 0.765625)"/>
      <use xlink:href="#DejaVuSans-2e" transform="translate(1631.931641 0.765625)"/>
      <use xlink:href="#DejaVuSans-33" transform="translate(1663.71875 0.765625)"/>
      <use xlink:href="#DejaVuSans-d7" transform="translate(1746.824219 0.765625)"/>
      <use xlink:href="#DejaVuSans-31" transform="translate(1850.095703 0.765625)"/>
      <use xlink:href="#DejaVuSans-30" transform="translate(1913.71875 0.765625)"/>
      <use xlink:href="#DejaVuSans-2212" transform="translate(1978.298828 39.046875) scale(0.7)"/>
      <use xlink:href="#DejaVuSans-35" transform="translate(2036.951172 39.046875) scale(0.7)"/>
      <use xlink:href="#DejaVuSans-2c" transform="translate(2084.22168 0.765625)"/>
     </g>
    </g>
    <g id="line2d_70"/>
    <g id="text_12">
     <!-- $c_1 = 1.2 \pm 0.5 \times 10^{-5}, c_2 = 8.5 \pm 0.5 \times 10^{1}, c_3 = 8 \pm 5 \times 10^{2}$ -->
     <g transform="translate(320.9 58.120312) scale(0.1 -0.1)">
      <defs>
       <path id="DejaVuSans-Oblique-63" d="M 3431 3366 
L 3316 2797 
Q 3109 2947 2876 3022 
Q 2644 3097 2394 3097 
Q 2119 3097 1870 3000 
Q 1622 2903 1453 2725 
Q 1184 2453 1037 2087 
Q 891 1722 891 1331 
Q 891 859 1127 628 
Q 1363 397 1844 397 
Q 2081 397 2348 469 
Q 2616 541 2906 684 
L 2797 116 
Q 2547 13 2283 -39 
Q 2019 -91 1741 -91 
Q 1044 -91 669 257 
Q 294 606 294 1253 
Q 294 1797 489 2255 
Q 684 2713 1069 3078 
Q 1331 3328 1684 3456 
Q 2038 3584 2456 3584 
Q 2700 3584 2940 3529 
Q 3181 3475 3431 3366 
z
" transform="scale(0.015625)"/>
       <path id="DejaVuSans-38" d="M 2034 2216 
Q 1584 2216 1326 1975 
Q 1069 1734 1069 1313 
Q 1069 891 1326 650 
Q 1584 409 2034 409 
Q 2484 409 2743 651 
Q 3003 894 3003 1313 
Q 3003 1734 2745 1975 
Q 2488 2216 2034 2216 
z
M 1403 2484 
Q 997 2584 770 2862 
Q 544 3141 544 3541 
Q 544 4100 942 4425 
Q 1341 4750 2034 4750 
Q 2731 4750 3128 4425 
Q 3525 4100 3525 3541 
Q 3525 3141 3298 2862 
Q 3072 2584 2669 2484 
Q 3125 2378 3379 2068 
Q 3634 1759 3634 1313 
Q 3634 634 3220 271 
Q 2806 -91 2034 -91 
Q 1263 -91 848 271 
Q 434 634 434 1313 
Q 434 1759 690 2068 
Q 947 2378 1403 2484 
z
M 1172 3481 
Q 1172 3119 1398 2916 
Q 1625 2713 2034 2713 
Q 2441 2713 2670 2916 
Q 2900 3119 2900 3481 
Q 2900 3844 2670 4047 
Q 2441 4250 2034 4250 
Q 1625 4250 1398 4047 
Q 1172 3844 1172 3481 
z
" transform="scale(0.015625)"/>
      </defs>
      <use xlink:href="#DejaVuSans-Oblique-63" transform="translate(0 0.765625)"/>
      <use xlink:href="#DejaVuSans-31" transform="translate(54.980469 -15.640625) scale(0.7)"/>
      <use xlink:href="#DejaVuSans-3d" transform="translate(121.733398 0.765625)"/>
      <use xlink:href="#DejaVuSans-31" transform="translate(225.004883 0.765625)"/>
      <use xlink:href="#DejaVuSans-2e" transform="translate(288.62793 0.765625)"/>
      <use xlink:href="#DejaVuSans-32" transform="translate(314.915039 0.765625)"/>
      <use xlink:href="#DejaVuSans-b1" transform="translate(398.020508 0.765625)"/>
      <use xlink:href="#DejaVuSans-30" transform="translate(501.291992 0.765625)"/>
      <use xlink:href="#DejaVuSans-2e" transform="translate(564.915039 0.765625)"/>
      <use xlink:href="#DejaVuSans-35" transform="translate(596.702148 0.765625)"/>
      <use xlink:href="#DejaVuSans-d7" transform="translate(679.807617 0.765625)"/>
      <use xlink:href="#DejaVuSans-31" transform="translate(783.079102 0.765625)"/>
      <use xlink:href="#DejaVuSans-30" transform="translate(846.702148 0.765625)"/>
      <use xlink:href="#DejaVuSans-2212" transform="translate(911.282227 39.046875) scale(0.7)"/>
      <use xlink:href="#DejaVuSans-35" transform="translate(969.93457 39.046875) scale(0.7)"/>
      <use xlink:href="#DejaVuSans-2c" transform="translate(1017.205078 0.765625)"/>
      <use xlink:href="#DejaVuSans-Oblique-63" transform="translate(1068.474609 0.765625)"/>
      <use xlink:href="#DejaVuSans-32" transform="translate(1123.455078 -15.640625) scale(0.7)"/>
      <use xlink:href="#DejaVuSans-3d" transform="translate(1190.208008 0.765625)"/>
      <use xlink:href="#DejaVuSans-38" transform="translate(1293.479492 0.765625)"/>
      <use xlink:href="#DejaVuSans-2e" transform="translate(1357.102539 0.765625)"/>
      <use xlink:href="#DejaVuSans-35" transform="translate(1388.889648 0.765625)"/>
      <use xlink:href="#DejaVuSans-b1" transform="translate(1471.995117 0.765625)"/>
      <use xlink:href="#DejaVuSans-30" transform="translate(1575.266602 0.765625)"/>
      <use xlink:href="#DejaVuSans-2e" transform="translate(1638.889648 0.765625)"/>
      <use xlink:href="#DejaVuSans-35" transform="translate(1670.676758 0.765625)"/>
      <use xlink:href="#DejaVuSans-d7" transform="translate(1753.782227 0.765625)"/>
      <use xlink:href="#DejaVuSans-31" transform="translate(1857.053711 0.765625)"/>
      <use xlink:href="#DejaVuSans-30" transform="translate(1920.676758 0.765625)"/>
      <use xlink:href="#DejaVuSans-31" transform="translate(1985.256836 39.046875) scale(0.7)"/>
      <use xlink:href="#DejaVuSans-2c" transform="translate(2032.527344 0.765625)"/>
      <use xlink:href="#DejaVuSans-Oblique-63" transform="translate(2083.796875 0.765625)"/>
      <use xlink:href="#DejaVuSans-33" transform="translate(2138.777344 -15.640625) scale(0.7)"/>
      <use xlink:href="#DejaVuSans-3d" transform="translate(2205.530273 0.765625)"/>
      <use xlink:href="#DejaVuSans-38" transform="translate(2308.801758 0.765625)"/>
      <use xlink:href="#DejaVuSans-b1" transform="translate(2391.907227 0.765625)"/>
      <use xlink:href="#DejaVuSans-35" transform="translate(2495.178711 0.765625)"/>
      <use xlink:href="#DejaVuSans-d7" transform="translate(2578.28418 0.765625)"/>
      <use xlink:href="#DejaVuSans-31" transform="translate(2681.555664 0.765625)"/>
      <use xlink:href="#DejaVuSans-30" transform="translate(2745.178711 0.765625)"/>
      <use xlink:href="#DejaVuSans-32" transform="translate(2809.758789 39.046875) scale(0.7)"/>
     </g>
    </g>
    <g id="line2d_71">
     <path d="M 292.9 77.3 
L 302.9 77.3 
L 312.9 77.3 
" style="fill: none; stroke: #d62728; stroke-width: 1.5; stroke-linecap: square"/>
    </g>
    <g id="text_13">
     <!-- $v = \sqrt{v_{th}^2 + (\beta f^{-0.5})^2 + (c_1 exp(-\frac{(f-c_2)^2}{c_3}))^2}$ -->
     <g transform="translate(320.9 80.8) scale(0.1 -0.1)">
      <defs>
       <path id="DejaVuSans-2b" d="M 2944 4013 
L 2944 2272 
L 4684 2272 
L 4684 1741 
L 2944 1741 
L 2944 0 
L 2419 0 
L 2419 1741 
L 678 1741 
L 678 2272 
L 2419 2272 
L 2419 4013 
L 2944 4013 
z
" transform="scale(0.015625)"/>
       <path id="DejaVuSans-Oblique-66" d="M 3059 4863 
L 2969 4384 
L 2419 4384 
Q 2106 4384 1964 4261 
Q 1822 4138 1753 3809 
L 1691 3500 
L 2638 3500 
L 2553 3053 
L 1606 3053 
L 1013 0 
L 434 0 
L 1031 3053 
L 481 3053 
L 563 3500 
L 1113 3500 
L 1159 3744 
Q 1278 4363 1576 4613 
Q 1875 4863 2516 4863 
L 3059 4863 
z
" transform="scale(0.015625)"/>
       <path id="DejaVuSans-Oblique-65" d="M 3078 2063 
Q 3088 2113 3092 2166 
Q 3097 2219 3097 2272 
Q 3097 2653 2873 2875 
Q 2650 3097 2266 3097 
Q 1838 3097 1509 2826 
Q 1181 2556 1013 2059 
L 3078 2063 
z
M 3578 1613 
L 903 1613 
Q 884 1494 878 1425 
Q 872 1356 872 1306 
Q 872 872 1139 634 
Q 1406 397 1894 397 
Q 2269 397 2603 481 
Q 2938 566 3225 728 
L 3116 159 
Q 2806 34 2476 -28 
Q 2147 -91 1806 -91 
Q 1078 -91 686 257 
Q 294 606 294 1247 
Q 294 1794 489 2264 
Q 684 2734 1063 3103 
Q 1306 3334 1642 3459 
Q 1978 3584 2356 3584 
Q 2950 3584 3301 3228 
Q 3653 2872 3653 2272 
Q 3653 2128 3634 1964 
Q 3616 1800 3578 1613 
z
" transform="scale(0.015625)"/>
       <path id="DejaVuSans-Oblique-78" d="M 3841 3500 
L 2234 1784 
L 3219 0 
L 2559 0 
L 1819 1388 
L 531 0 
L -166 0 
L 1556 1844 
L 641 3500 
L 1300 3500 
L 1972 2234 
L 3144 3500 
L 3841 3500 
z
" transform="scale(0.015625)"/>
       <path id="DejaVuSans-Oblique-70" d="M 3175 2156 
Q 3175 2616 2975 2859 
Q 2775 3103 2400 3103 
Q 2144 3103 1911 2972 
Q 1678 2841 1497 2591 
Q 1319 2344 1212 1994 
Q 1106 1644 1106 1300 
Q 1106 863 1306 627 
Q 1506 391 1875 391 
Q 2147 391 2380 519 
Q 2613 647 2778 891 
Q 2956 1147 3065 1494 
Q 3175 1841 3175 2156 
z
M 1394 2969 
Q 1625 3272 1939 3428 
Q 2253 3584 2638 3584 
Q 3175 3584 3472 3232 
Q 3769 2881 3769 2247 
Q 3769 1728 3584 1258 
Q 3400 788 3053 416 
Q 2822 169 2531 39 
Q 2241 -91 1919 -91 
Q 1547 -91 1294 64 
Q 1041 219 916 525 
L 556 -1331 
L -19 -1331 
L 922 3500 
L 1497 3500 
L 1394 2969 
z
" transform="scale(0.015625)"/>
      </defs>
      <use xlink:href="#DejaVuSans-Oblique-76" transform="translate(0 0.443594)"/>
      <use xlink:href="#DejaVuSans-3d" transform="translate(78.662109 0.443594)"/>
      <use xlink:href="#STIXSizeOneSym-Regular-221a" transform="translate(181.933594 -8.296875) scale(1.020717)"/>
      <use xlink:href="#DejaVuSans-Oblique-76" transform="translate(302.3797 0.304688)"/>
      <use xlink:href="#DejaVuSans-32" transform="translate(366.025533 38.65) scale(0.7)"/>
      <use xlink:href="#DejaVuSans-Oblique-74" transform="translate(361.559387 -27.039062) scale(0.7)"/>
      <use xlink:href="#DejaVuSans-Oblique-68" transform="translate(389.005676 -27.039062) scale(0.7)"/>
      <use xlink:href="#DejaVuSans-2b" transform="translate(455.587708 0.304688)"/>
      <use xlink:href="#DejaVuSans-28" transform="translate(558.859192 0.304688)"/>
      <use xlink:href="#DejaVuSans-Oblique-3b2" transform="translate(597.872864 0.304688)"/>
      <use xlink:href="#DejaVuSans-Oblique-66" transform="translate(661.691223 0.304688)"/>
      <use xlink:href="#DejaVuSans-2212" transform="translate(704.34401 38.585938) scale(0.7)"/>
      <use xlink:href="#DejaVuSans-30" transform="translate(762.996353 38.585938) scale(0.7)"/>
      <use xlink:href="#DejaVuSans-2e" transform="translate(807.532486 38.585938) scale(0.7)"/>
      <use xlink:href="#DejaVuSans-35" transform="translate(829.783463 38.585938) scale(0.7)"/>
      <use xlink:href="#DejaVuSans-29" transform="translate(877.053971 0.304688)"/>
      <use xlink:href="#DejaVuSans-32" transform="translate(917.024674 38.585938) scale(0.7)"/>
      <use xlink:href="#DejaVuSans-2b" transform="translate(983.777603 0.304688)"/>
      <use xlink:href="#DejaVuSans-28" transform="translate(1087.049088 0.304688)"/>
      <use xlink:href="#DejaVuSans-Oblique-63" transform="translate(1126.06276 0.304688)"/>
      <use xlink:href="#DejaVuSans-31" transform="translate(1181.043228 -16.101562) scale(0.7)"/>
      <use xlink:href="#DejaVuSans-Oblique-65" transform="translate(1228.313736 0.304688)"/>
      <use xlink:href="#DejaVuSans-Oblique-78" transform="translate(1289.837174 0.304688)"/>
      <use xlink:href="#DejaVuSans-Oblique-70" transform="translate(1349.016861 0.304688)"/>
      <use xlink:href="#DejaVuSans-28" transform="translate(1412.493424 0.304688)"/>
      <use xlink:href="#DejaVuSans-2212" transform="translate(1451.507096 0.304688)"/>
      <use xlink:href="#DejaVuSans-28" transform="translate(1535.296158 55.585938) scale(0.7)"/>
      <use xlink:href="#DejaVuSans-Oblique-66" transform="translate(1562.605728 55.585938) scale(0.7)"/>
      <use xlink:href="#DejaVuSans-2212" transform="translate(1600.886978 55.585938) scale(0.7)"/>
      <use xlink:href="#DejaVuSans-Oblique-63" transform="translate(1673.177017 55.585938) scale(0.7)"/>
      <use xlink:href="#DejaVuSans-32" transform="translate(1711.663346 44.101562) scale(0.49)"/>
      <use xlink:href="#DejaVuSans-29" transform="translate(1744.752701 55.585938) scale(0.7)"/>
      <use xlink:href="#DejaVuSans-32" transform="translate(1772.732193 82.382812) scale(0.49)"/>
      <use xlink:href="#DejaVuSans-Oblique-63" transform="translate(1634.296158 -26.348437) scale(0.7)"/>
      <use xlink:href="#DejaVuSans-33" transform="translate(1672.782486 -37.832812) scale(0.49)"/>
      <use xlink:href="#DejaVuSans-29" transform="translate(1818.321549 0.304688)"/>
      <use xlink:href="#DejaVuSans-29" transform="translate(1857.335221 0.304688)"/>
      <use xlink:href="#DejaVuSans-32" transform="translate(1897.305924 38.585938) scale(0.7)"/>
      <path d="M 289.8797 143.5 
L 289.8797 149.75 
L 1957.076431 149.75 
L 1957.076431 143.5 
L 289.8797 143.5 
z
"/>
      <path d="M 1535.296158 19.101562 
L 1535.296158 25.351562 
L 1805.821549 25.351562 
L 1805.821549 19.101562 
L 1535.296158 19.101562 
z
"/>
     </g>
    </g>
    <g id="LineCollection_2">
     <path d="M 302.9 98.798437 
L 302.9 88.798437 
" style="fill: none; stroke: #000000; stroke-width: 1.5"/>
    </g>
    <g id="line2d_72">
     <g>
      <use xlink:href="#m06ef8f726d" x="302.9" y="98.798437" style="stroke: #000000"/>
     </g>
    </g>
    <g id="line2d_73">
     <g>
      <use xlink:href="#m06ef8f726d" x="302.9" y="88.798437" style="stroke: #000000"/>
     </g>
    </g>
    <g id="line2d_74"/>
    <g id="line2d_75">
     <g>
      <use xlink:href="#m5a11d7065d" x="302.9" y="93.798437" style="stroke: #000000"/>
     </g>
    </g>
    <g id="text_14">
     <!-- 60pF Noise Amplitude Spectrum -->
     <g transform="translate(320.9 97.298437) scale(0.1 -0.1)">
      <defs>
       <path id="DejaVuSans-70" d="M 1159 525 
L 1159 -1331 
L 581 -1331 
L 581 3500 
L 1159 3500 
L 1159 2969 
Q 1341 3281 1617 3432 
Q 1894 3584 2278 3584 
Q 2916 3584 3314 3078 
Q 3713 2572 3713 1747 
Q 3713 922 3314 415 
Q 2916 -91 2278 -91 
Q 1894 -91 1617 61 
Q 1341 213 1159 525 
z
M 3116 1747 
Q 3116 2381 2855 2742 
Q 2594 3103 2138 3103 
Q 1681 3103 1420 2742 
Q 1159 2381 1159 1747 
Q 1159 1113 1420 752 
Q 1681 391 2138 391 
Q 2594 391 2855 752 
Q 3116 1113 3116 1747 
z
" transform="scale(0.015625)"/>
       <path id="DejaVuSans-41" d="M 2188 4044 
L 1331 1722 
L 3047 1722 
L 2188 4044 
z
M 1831 4666 
L 2547 4666 
L 4325 0 
L 3669 0 
L 3244 1197 
L 1141 1197 
L 716 0 
L 50 0 
L 1831 4666 
z
" transform="scale(0.015625)"/>
       <path id="DejaVuSans-6d" d="M 3328 2828 
Q 3544 3216 3844 3400 
Q 4144 3584 4550 3584 
Q 5097 3584 5394 3201 
Q 5691 2819 5691 2113 
L 5691 0 
L 5113 0 
L 5113 2094 
Q 5113 2597 4934 2840 
Q 4756 3084 4391 3084 
Q 3944 3084 3684 2787 
Q 3425 2491 3425 1978 
L 3425 0 
L 2847 0 
L 2847 2094 
Q 2847 2600 2669 2842 
Q 2491 3084 2119 3084 
Q 1678 3084 1418 2786 
Q 1159 2488 1159 1978 
L 1159 0 
L 581 0 
L 581 3500 
L 1159 3500 
L 1159 2956 
Q 1356 3278 1631 3431 
Q 1906 3584 2284 3584 
Q 2666 3584 2933 3390 
Q 3200 3197 3328 2828 
z
" transform="scale(0.015625)"/>
       <path id="DejaVuSans-64" d="M 2906 2969 
L 2906 4863 
L 3481 4863 
L 3481 0 
L 2906 0 
L 2906 525 
Q 2725 213 2448 61 
Q 2172 -91 1784 -91 
Q 1150 -91 751 415 
Q 353 922 353 1747 
Q 353 2572 751 3078 
Q 1150 3584 1784 3584 
Q 2172 3584 2448 3432 
Q 2725 3281 2906 2969 
z
M 947 1747 
Q 947 1113 1208 752 
Q 1469 391 1925 391 
Q 2381 391 2643 752 
Q 2906 1113 2906 1747 
Q 2906 2381 2643 2742 
Q 2381 3103 1925 3103 
Q 1469 3103 1208 2742 
Q 947 2381 947 1747 
z
" transform="scale(0.015625)"/>
       <path id="DejaVuSans-53" d="M 3425 4513 
L 3425 3897 
Q 3066 4069 2747 4153 
Q 2428 4238 2131 4238 
Q 1616 4238 1336 4038 
Q 1056 3838 1056 3469 
Q 1056 3159 1242 3001 
Q 1428 2844 1947 2747 
L 2328 2669 
Q 3034 2534 3370 2195 
Q 3706 1856 3706 1288 
Q 3706 609 3251 259 
Q 2797 -91 1919 -91 
Q 1588 -91 1214 -16 
Q 841 59 441 206 
L 441 856 
Q 825 641 1194 531 
Q 1563 422 1919 422 
Q 2459 422 2753 634 
Q 3047 847 3047 1241 
Q 3047 1584 2836 1778 
Q 2625 1972 2144 2069 
L 1759 2144 
Q 1053 2284 737 2584 
Q 422 2884 422 3419 
Q 422 4038 858 4394 
Q 1294 4750 2059 4750 
Q 2388 4750 2728 4690 
Q 3069 4631 3425 4513 
z
" transform="scale(0.015625)"/>
      </defs>
      <use xlink:href="#DejaVuSans-36"/>
      <use xlink:href="#DejaVuSans-30" x="63.623047"/>
      <use xlink:href="#DejaVuSans-70" x="127.246094"/>
      <use xlink:href="#DejaVuSans-46" x="190.722656"/>
      <use xlink:href="#DejaVuSans-20" x="248.242188"/>
      <use xlink:href="#DejaVuSans-4e" x="280.029297"/>
      <use xlink:href="#DejaVuSans-6f" x="354.833984"/>
      <use xlink:href="#DejaVuSans-69" x="416.015625"/>
      <use xlink:href="#DejaVuSans-73" x="443.798828"/>
      <use xlink:href="#DejaVuSans-65" x="495.898438"/>
      <use xlink:href="#DejaVuSans-20" x="557.421875"/>
      <use xlink:href="#DejaVuSans-41" x="589.208984"/>
      <use xlink:href="#DejaVuSans-6d" x="657.617188"/>
      <use xlink:href="#DejaVuSans-70" x="755.029297"/>
      <use xlink:href="#DejaVuSans-6c" x="818.505859"/>
      <use xlink:href="#DejaVuSans-69" x="846.289062"/>
      <use xlink:href="#DejaVuSans-74" x="874.072266"/>
      <use xlink:href="#DejaVuSans-75" x="913.28125"/>
      <use xlink:href="#DejaVuSans-64" x="976.660156"/>
      <use xlink:href="#DejaVuSans-65" x="1040.136719"/>
      <use xlink:href="#DejaVuSans-20" x="1101.660156"/>
      <use xlink:href="#DejaVuSans-53" x="1133.447266"/>
      <use xlink:href="#DejaVuSans-70" x="1196.923828"/>
      <use xlink:href="#DejaVuSans-65" x="1260.400391"/>
      <use xlink:href="#DejaVuSans-63" x="1321.923828"/>
      <use xlink:href="#DejaVuSans-74" x="1376.904297"/>
      <use xlink:href="#DejaVuSans-72" x="1416.113281"/>
      <use xlink:href="#DejaVuSans-75" x="1457.226562"/>
      <use xlink:href="#DejaVuSans-6d" x="1520.605469"/>
     </g>
    </g>
   </g>
  </g>
 </g>
 <defs>
  <clipPath id="p51b6659399">
   <rect x="57.7" y="7.2" width="558" height="332.64"/>
  </clipPath>
 </defs>
</svg>
