<?xml version="1.0" encoding="utf-8" standalone="no"?>
<!DOCTYPE svg PUBLIC "-//W3C//DTD SVG 1.1//EN"
  "http://www.w3.org/Graphics/SVG/1.1/DTD/svg11.dtd">
<svg xmlns:xlink="http://www.w3.org/1999/xlink" width="608.98125pt" height="221.674688pt" viewBox="0 0 608.98125 221.674688" xmlns="http://www.w3.org/2000/svg" version="1.1">
 <metadata>
  <rdf:RDF xmlns:dc="http://purl.org/dc/elements/1.1/" xmlns:cc="http://creativecommons.org/ns#" xmlns:rdf="http://www.w3.org/1999/02/22-rdf-syntax-ns#">
   <cc:Work>
    <dc:type rdf:resource="http://purl.org/dc/dcmitype/StillImage"/>
    <dc:date>2025-04-03T14:43:27.513958</dc:date>
    <dc:format>image/svg+xml</dc:format>
    <dc:creator>
     <cc:Agent>
      <dc:title>Matplotlib v3.9.2, https://matplotlib.org/</dc:title>
     </cc:Agent>
    </dc:creator>
   </cc:Work>
  </rdf:RDF>
 </metadata>
 <defs>
  <style type="text/css">*{stroke-linejoin: round; stroke-linecap: butt}</style>
 </defs>
 <g id="figure_1">
  <g id="patch_1">
   <path d="M 0 221.674688 
L 608.98125 221.674688 
L 608.98125 0 
L 0 0 
z
" style="fill: #ffffff"/>
  </g>
  <g id="axes_1">
   <g id="patch_2">
    <path d="M 43.78125 184.118437 
L 601.78125 184.118437 
L 601.78125 17.798437 
L 43.78125 17.798437 
z
" style="fill: #ffffff"/>
   </g>
   <g id="matplotlib.axis_1">
    <g id="xtick_1">
     <g id="line2d_1">
      <defs>
       <path id="m44fee17a5d" d="M 0 0 
L 0 3.5 
" style="stroke: #000000; stroke-width: 0.8"/>
      </defs>
      <g>
       <use xlink:href="#m44fee17a5d" x="69.144886" y="184.118437" style="stroke: #000000; stroke-width: 0.8"/>
      </g>
     </g>
     <g id="text_1">
      <!-- 0 -->
      <g transform="translate(65.963636 198.716875) scale(0.1 -0.1)">
       <defs>
        <path id="DejaVuSans-30" d="M 2034 4250 
Q 1547 4250 1301 3770 
Q 1056 3291 1056 2328 
Q 1056 1369 1301 889 
Q 1547 409 2034 409 
Q 2525 409 2770 889 
Q 3016 1369 3016 2328 
Q 3016 3291 2770 3770 
Q 2525 4250 2034 4250 
z
M 2034 4750 
Q 2819 4750 3233 4129 
Q 3647 3509 3647 2328 
Q 3647 1150 3233 529 
Q 2819 -91 2034 -91 
Q 1250 -91 836 529 
Q 422 1150 422 2328 
Q 422 3509 836 4129 
Q 1250 4750 2034 4750 
z
" transform="scale(0.015625)"/>
       </defs>
       <use xlink:href="#DejaVuSans-30"/>
      </g>
     </g>
    </g>
    <g id="xtick_2">
     <g id="line2d_2">
      <g>
       <use xlink:href="#m44fee17a5d" x="150.308523" y="184.118437" style="stroke: #000000; stroke-width: 0.8"/>
      </g>
     </g>
     <g id="text_2">
      <!-- 2000 -->
      <g transform="translate(137.583523 198.716875) scale(0.1 -0.1)">
       <defs>
        <path id="DejaVuSans-32" d="M 1228 531 
L 3431 531 
L 3431 0 
L 469 0 
L 469 531 
Q 828 903 1448 1529 
Q 2069 2156 2228 2338 
Q 2531 2678 2651 2914 
Q 2772 3150 2772 3378 
Q 2772 3750 2511 3984 
Q 2250 4219 1831 4219 
Q 1534 4219 1204 4116 
Q 875 4013 500 3803 
L 500 4441 
Q 881 4594 1212 4672 
Q 1544 4750 1819 4750 
Q 2544 4750 2975 4387 
Q 3406 4025 3406 3419 
Q 3406 3131 3298 2873 
Q 3191 2616 2906 2266 
Q 2828 2175 2409 1742 
Q 1991 1309 1228 531 
z
" transform="scale(0.015625)"/>
       </defs>
       <use xlink:href="#DejaVuSans-32"/>
       <use xlink:href="#DejaVuSans-30" x="63.623047"/>
       <use xlink:href="#DejaVuSans-30" x="127.246094"/>
       <use xlink:href="#DejaVuSans-30" x="190.869141"/>
      </g>
     </g>
    </g>
    <g id="xtick_3">
     <g id="line2d_3">
      <g>
       <use xlink:href="#m44fee17a5d" x="231.472159" y="184.118437" style="stroke: #000000; stroke-width: 0.8"/>
      </g>
     </g>
     <g id="text_3">
      <!-- 4000 -->
      <g transform="translate(218.747159 198.716875) scale(0.1 -0.1)">
       <defs>
        <path id="DejaVuSans-34" d="M 2419 4116 
L 825 1625 
L 2419 1625 
L 2419 4116 
z
M 2253 4666 
L 3047 4666 
L 3047 1625 
L 3713 1625 
L 3713 1100 
L 3047 1100 
L 3047 0 
L 2419 0 
L 2419 1100 
L 313 1100 
L 313 1709 
L 2253 4666 
z
" transform="scale(0.015625)"/>
       </defs>
       <use xlink:href="#DejaVuSans-34"/>
       <use xlink:href="#DejaVuSans-30" x="63.623047"/>
       <use xlink:href="#DejaVuSans-30" x="127.246094"/>
       <use xlink:href="#DejaVuSans-30" x="190.869141"/>
      </g>
     </g>
    </g>
    <g id="xtick_4">
     <g id="line2d_4">
      <g>
       <use xlink:href="#m44fee17a5d" x="312.635795" y="184.118437" style="stroke: #000000; stroke-width: 0.8"/>
      </g>
     </g>
     <g id="text_4">
      <!-- 6000 -->
      <g transform="translate(299.910795 198.716875) scale(0.1 -0.1)">
       <defs>
        <path id="DejaVuSans-36" d="M 2113 2584 
Q 1688 2584 1439 2293 
Q 1191 2003 1191 1497 
Q 1191 994 1439 701 
Q 1688 409 2113 409 
Q 2538 409 2786 701 
Q 3034 994 3034 1497 
Q 3034 2003 2786 2293 
Q 2538 2584 2113 2584 
z
M 3366 4563 
L 3366 3988 
Q 3128 4100 2886 4159 
Q 2644 4219 2406 4219 
Q 1781 4219 1451 3797 
Q 1122 3375 1075 2522 
Q 1259 2794 1537 2939 
Q 1816 3084 2150 3084 
Q 2853 3084 3261 2657 
Q 3669 2231 3669 1497 
Q 3669 778 3244 343 
Q 2819 -91 2113 -91 
Q 1303 -91 875 529 
Q 447 1150 447 2328 
Q 447 3434 972 4092 
Q 1497 4750 2381 4750 
Q 2619 4750 2861 4703 
Q 3103 4656 3366 4563 
z
" transform="scale(0.015625)"/>
       </defs>
       <use xlink:href="#DejaVuSans-36"/>
       <use xlink:href="#DejaVuSans-30" x="63.623047"/>
       <use xlink:href="#DejaVuSans-30" x="127.246094"/>
       <use xlink:href="#DejaVuSans-30" x="190.869141"/>
      </g>
     </g>
    </g>
    <g id="xtick_5">
     <g id="line2d_5">
      <g>
       <use xlink:href="#m44fee17a5d" x="393.799432" y="184.118437" style="stroke: #000000; stroke-width: 0.8"/>
      </g>
     </g>
     <g id="text_5">
      <!-- 8000 -->
      <g transform="translate(381.074432 198.716875) scale(0.1 -0.1)">
       <defs>
        <path id="DejaVuSans-38" d="M 2034 2216 
Q 1584 2216 1326 1975 
Q 1069 1734 1069 1313 
Q 1069 891 1326 650 
Q 1584 409 2034 409 
Q 2484 409 2743 651 
Q 3003 894 3003 1313 
Q 3003 1734 2745 1975 
Q 2488 2216 2034 2216 
z
M 1403 2484 
Q 997 2584 770 2862 
Q 544 3141 544 3541 
Q 544 4100 942 4425 
Q 1341 4750 2034 4750 
Q 2731 4750 3128 4425 
Q 3525 4100 3525 3541 
Q 3525 3141 3298 2862 
Q 3072 2584 2669 2484 
Q 3125 2378 3379 2068 
Q 3634 1759 3634 1313 
Q 3634 634 3220 271 
Q 2806 -91 2034 -91 
Q 1263 -91 848 271 
Q 434 634 434 1313 
Q 434 1759 690 2068 
Q 947 2378 1403 2484 
z
M 1172 3481 
Q 1172 3119 1398 2916 
Q 1625 2713 2034 2713 
Q 2441 2713 2670 2916 
Q 2900 3119 2900 3481 
Q 2900 3844 2670 4047 
Q 2441 4250 2034 4250 
Q 1625 4250 1398 4047 
Q 1172 3844 1172 3481 
z
" transform="scale(0.015625)"/>
       </defs>
       <use xlink:href="#DejaVuSans-38"/>
       <use xlink:href="#DejaVuSans-30" x="63.623047"/>
       <use xlink:href="#DejaVuSans-30" x="127.246094"/>
       <use xlink:href="#DejaVuSans-30" x="190.869141"/>
      </g>
     </g>
    </g>
    <g id="xtick_6">
     <g id="line2d_6">
      <g>
       <use xlink:href="#m44fee17a5d" x="474.963068" y="184.118437" style="stroke: #000000; stroke-width: 0.8"/>
      </g>
     </g>
     <g id="text_6">
      <!-- 10000 -->
      <g transform="translate(459.056818 198.716875) scale(0.1 -0.1)">
       <defs>
        <path id="DejaVuSans-31" d="M 794 531 
L 1825 531 
L 1825 4091 
L 703 3866 
L 703 4441 
L 1819 4666 
L 2450 4666 
L 2450 531 
L 3481 531 
L 3481 0 
L 794 0 
L 794 531 
z
" transform="scale(0.015625)"/>
       </defs>
       <use xlink:href="#DejaVuSans-31"/>
       <use xlink:href="#DejaVuSans-30" x="63.623047"/>
       <use xlink:href="#DejaVuSans-30" x="127.246094"/>
       <use xlink:href="#DejaVuSans-30" x="190.869141"/>
       <use xlink:href="#DejaVuSans-30" x="254.492188"/>
      </g>
     </g>
    </g>
    <g id="xtick_7">
     <g id="line2d_7">
      <g>
       <use xlink:href="#m44fee17a5d" x="556.126705" y="184.118437" style="stroke: #000000; stroke-width: 0.8"/>
      </g>
     </g>
     <g id="text_7">
      <!-- 12000 -->
      <g transform="translate(540.220455 198.716875) scale(0.1 -0.1)">
       <use xlink:href="#DejaVuSans-31"/>
       <use xlink:href="#DejaVuSans-32" x="63.623047"/>
       <use xlink:href="#DejaVuSans-30" x="127.246094"/>
       <use xlink:href="#DejaVuSans-30" x="190.869141"/>
       <use xlink:href="#DejaVuSans-30" x="254.492188"/>
      </g>
     </g>
    </g>
    <g id="text_8">
     <!-- MCA Channel Number -->
     <g transform="translate(267.764063 212.395) scale(0.1 -0.1)">
      <defs>
       <path id="DejaVuSans-4d" d="M 628 4666 
L 1569 4666 
L 2759 1491 
L 3956 4666 
L 4897 4666 
L 4897 0 
L 4281 0 
L 4281 4097 
L 3078 897 
L 2444 897 
L 1241 4097 
L 1241 0 
L 628 0 
L 628 4666 
z
" transform="scale(0.015625)"/>
       <path id="DejaVuSans-43" d="M 4122 4306 
L 4122 3641 
Q 3803 3938 3442 4084 
Q 3081 4231 2675 4231 
Q 1875 4231 1450 3742 
Q 1025 3253 1025 2328 
Q 1025 1406 1450 917 
Q 1875 428 2675 428 
Q 3081 428 3442 575 
Q 3803 722 4122 1019 
L 4122 359 
Q 3791 134 3420 21 
Q 3050 -91 2638 -91 
Q 1578 -91 968 557 
Q 359 1206 359 2328 
Q 359 3453 968 4101 
Q 1578 4750 2638 4750 
Q 3056 4750 3426 4639 
Q 3797 4528 4122 4306 
z
" transform="scale(0.015625)"/>
       <path id="DejaVuSans-41" d="M 2188 4044 
L 1331 1722 
L 3047 1722 
L 2188 4044 
z
M 1831 4666 
L 2547 4666 
L 4325 0 
L 3669 0 
L 3244 1197 
L 1141 1197 
L 716 0 
L 50 0 
L 1831 4666 
z
" transform="scale(0.015625)"/>
       <path id="DejaVuSans-20" transform="scale(0.015625)"/>
       <path id="DejaVuSans-68" d="M 3513 2113 
L 3513 0 
L 2938 0 
L 2938 2094 
Q 2938 2591 2744 2837 
Q 2550 3084 2163 3084 
Q 1697 3084 1428 2787 
Q 1159 2491 1159 1978 
L 1159 0 
L 581 0 
L 581 4863 
L 1159 4863 
L 1159 2956 
Q 1366 3272 1645 3428 
Q 1925 3584 2291 3584 
Q 2894 3584 3203 3211 
Q 3513 2838 3513 2113 
z
" transform="scale(0.015625)"/>
       <path id="DejaVuSans-61" d="M 2194 1759 
Q 1497 1759 1228 1600 
Q 959 1441 959 1056 
Q 959 750 1161 570 
Q 1363 391 1709 391 
Q 2188 391 2477 730 
Q 2766 1069 2766 1631 
L 2766 1759 
L 2194 1759 
z
M 3341 1997 
L 3341 0 
L 2766 0 
L 2766 531 
Q 2569 213 2275 61 
Q 1981 -91 1556 -91 
Q 1019 -91 701 211 
Q 384 513 384 1019 
Q 384 1609 779 1909 
Q 1175 2209 1959 2209 
L 2766 2209 
L 2766 2266 
Q 2766 2663 2505 2880 
Q 2244 3097 1772 3097 
Q 1472 3097 1187 3025 
Q 903 2953 641 2809 
L 641 3341 
Q 956 3463 1253 3523 
Q 1550 3584 1831 3584 
Q 2591 3584 2966 3190 
Q 3341 2797 3341 1997 
z
" transform="scale(0.015625)"/>
       <path id="DejaVuSans-6e" d="M 3513 2113 
L 3513 0 
L 2938 0 
L 2938 2094 
Q 2938 2591 2744 2837 
Q 2550 3084 2163 3084 
Q 1697 3084 1428 2787 
Q 1159 2491 1159 1978 
L 1159 0 
L 581 0 
L 581 3500 
L 1159 3500 
L 1159 2956 
Q 1366 3272 1645 3428 
Q 1925 3584 2291 3584 
Q 2894 3584 3203 3211 
Q 3513 2838 3513 2113 
z
" transform="scale(0.015625)"/>
       <path id="DejaVuSans-65" d="M 3597 1894 
L 3597 1613 
L 953 1613 
Q 991 1019 1311 708 
Q 1631 397 2203 397 
Q 2534 397 2845 478 
Q 3156 559 3463 722 
L 3463 178 
Q 3153 47 2828 -22 
Q 2503 -91 2169 -91 
Q 1331 -91 842 396 
Q 353 884 353 1716 
Q 353 2575 817 3079 
Q 1281 3584 2069 3584 
Q 2775 3584 3186 3129 
Q 3597 2675 3597 1894 
z
M 3022 2063 
Q 3016 2534 2758 2815 
Q 2500 3097 2075 3097 
Q 1594 3097 1305 2825 
Q 1016 2553 972 2059 
L 3022 2063 
z
" transform="scale(0.015625)"/>
       <path id="DejaVuSans-6c" d="M 603 4863 
L 1178 4863 
L 1178 0 
L 603 0 
L 603 4863 
z
" transform="scale(0.015625)"/>
       <path id="DejaVuSans-4e" d="M 628 4666 
L 1478 4666 
L 3547 763 
L 3547 4666 
L 4159 4666 
L 4159 0 
L 3309 0 
L 1241 3903 
L 1241 0 
L 628 0 
L 628 4666 
z
" transform="scale(0.015625)"/>
       <path id="DejaVuSans-75" d="M 544 1381 
L 544 3500 
L 1119 3500 
L 1119 1403 
Q 1119 906 1312 657 
Q 1506 409 1894 409 
Q 2359 409 2629 706 
Q 2900 1003 2900 1516 
L 2900 3500 
L 3475 3500 
L 3475 0 
L 2900 0 
L 2900 538 
Q 2691 219 2414 64 
Q 2138 -91 1772 -91 
Q 1169 -91 856 284 
Q 544 659 544 1381 
z
M 1991 3584 
L 1991 3584 
z
" transform="scale(0.015625)"/>
       <path id="DejaVuSans-6d" d="M 3328 2828 
Q 3544 3216 3844 3400 
Q 4144 3584 4550 3584 
Q 5097 3584 5394 3201 
Q 5691 2819 5691 2113 
L 5691 0 
L 5113 0 
L 5113 2094 
Q 5113 2597 4934 2840 
Q 4756 3084 4391 3084 
Q 3944 3084 3684 2787 
Q 3425 2491 3425 1978 
L 3425 0 
L 2847 0 
L 2847 2094 
Q 2847 2600 2669 2842 
Q 2491 3084 2119 3084 
Q 1678 3084 1418 2786 
Q 1159 2488 1159 1978 
L 1159 0 
L 581 0 
L 581 3500 
L 1159 3500 
L 1159 2956 
Q 1356 3278 1631 3431 
Q 1906 3584 2284 3584 
Q 2666 3584 2933 3390 
Q 3200 3197 3328 2828 
z
" transform="scale(0.015625)"/>
       <path id="DejaVuSans-62" d="M 3116 1747 
Q 3116 2381 2855 2742 
Q 2594 3103 2138 3103 
Q 1681 3103 1420 2742 
Q 1159 2381 1159 1747 
Q 1159 1113 1420 752 
Q 1681 391 2138 391 
Q 2594 391 2855 752 
Q 3116 1113 3116 1747 
z
M 1159 2969 
Q 1341 3281 1617 3432 
Q 1894 3584 2278 3584 
Q 2916 3584 3314 3078 
Q 3713 2572 3713 1747 
Q 3713 922 3314 415 
Q 2916 -91 2278 -91 
Q 1894 -91 1617 61 
Q 1341 213 1159 525 
L 1159 0 
L 581 0 
L 581 4863 
L 1159 4863 
L 1159 2969 
z
" transform="scale(0.015625)"/>
       <path id="DejaVuSans-72" d="M 2631 2963 
Q 2534 3019 2420 3045 
Q 2306 3072 2169 3072 
Q 1681 3072 1420 2755 
Q 1159 2438 1159 1844 
L 1159 0 
L 581 0 
L 581 3500 
L 1159 3500 
L 1159 2956 
Q 1341 3275 1631 3429 
Q 1922 3584 2338 3584 
Q 2397 3584 2469 3576 
Q 2541 3569 2628 3553 
L 2631 2963 
z
" transform="scale(0.015625)"/>
      </defs>
      <use xlink:href="#DejaVuSans-4d"/>
      <use xlink:href="#DejaVuSans-43" x="86.279297"/>
      <use xlink:href="#DejaVuSans-41" x="156.103516"/>
      <use xlink:href="#DejaVuSans-20" x="224.511719"/>
      <use xlink:href="#DejaVuSans-43" x="256.298828"/>
      <use xlink:href="#DejaVuSans-68" x="326.123047"/>
      <use xlink:href="#DejaVuSans-61" x="389.501953"/>
      <use xlink:href="#DejaVuSans-6e" x="450.78125"/>
      <use xlink:href="#DejaVuSans-6e" x="514.160156"/>
      <use xlink:href="#DejaVuSans-65" x="577.539062"/>
      <use xlink:href="#DejaVuSans-6c" x="639.0625"/>
      <use xlink:href="#DejaVuSans-20" x="666.845703"/>
      <use xlink:href="#DejaVuSans-4e" x="698.632812"/>
      <use xlink:href="#DejaVuSans-75" x="773.4375"/>
      <use xlink:href="#DejaVuSans-6d" x="836.816406"/>
      <use xlink:href="#DejaVuSans-62" x="934.228516"/>
      <use xlink:href="#DejaVuSans-65" x="997.705078"/>
      <use xlink:href="#DejaVuSans-72" x="1059.228516"/>
     </g>
    </g>
   </g>
   <g id="matplotlib.axis_2">
    <g id="ytick_1">
     <g id="line2d_8">
      <defs>
       <path id="m04f38cdc22" d="M 0 0 
L -3.5 0 
" style="stroke: #000000; stroke-width: 0.8"/>
      </defs>
      <g>
       <use xlink:href="#m04f38cdc22" x="43.78125" y="180.945297" style="stroke: #000000; stroke-width: 0.8"/>
      </g>
     </g>
     <g id="text_9">
      <!-- 0.0 -->
      <g transform="translate(20.878125 184.744516) scale(0.1 -0.1)">
       <defs>
        <path id="DejaVuSans-2e" d="M 684 794 
L 1344 794 
L 1344 0 
L 684 0 
L 684 794 
z
" transform="scale(0.015625)"/>
       </defs>
       <use xlink:href="#DejaVuSans-30"/>
       <use xlink:href="#DejaVuSans-2e" x="63.623047"/>
       <use xlink:href="#DejaVuSans-30" x="95.410156"/>
      </g>
     </g>
    </g>
    <g id="ytick_2">
     <g id="line2d_9">
      <g>
       <use xlink:href="#m04f38cdc22" x="43.78125" y="144.121611" style="stroke: #000000; stroke-width: 0.8"/>
      </g>
     </g>
     <g id="text_10">
      <!-- 0.5 -->
      <g transform="translate(20.878125 147.92083) scale(0.1 -0.1)">
       <defs>
        <path id="DejaVuSans-35" d="M 691 4666 
L 3169 4666 
L 3169 4134 
L 1269 4134 
L 1269 2991 
Q 1406 3038 1543 3061 
Q 1681 3084 1819 3084 
Q 2600 3084 3056 2656 
Q 3513 2228 3513 1497 
Q 3513 744 3044 326 
Q 2575 -91 1722 -91 
Q 1428 -91 1123 -41 
Q 819 9 494 109 
L 494 744 
Q 775 591 1075 516 
Q 1375 441 1709 441 
Q 2250 441 2565 725 
Q 2881 1009 2881 1497 
Q 2881 1984 2565 2268 
Q 2250 2553 1709 2553 
Q 1456 2553 1204 2497 
Q 953 2441 691 2322 
L 691 4666 
z
" transform="scale(0.015625)"/>
       </defs>
       <use xlink:href="#DejaVuSans-30"/>
       <use xlink:href="#DejaVuSans-2e" x="63.623047"/>
       <use xlink:href="#DejaVuSans-35" x="95.410156"/>
      </g>
     </g>
    </g>
    <g id="ytick_3">
     <g id="line2d_10">
      <g>
       <use xlink:href="#m04f38cdc22" x="43.78125" y="107.297926" style="stroke: #000000; stroke-width: 0.8"/>
      </g>
     </g>
     <g id="text_11">
      <!-- 1.0 -->
      <g transform="translate(20.878125 111.097145) scale(0.1 -0.1)">
       <use xlink:href="#DejaVuSans-31"/>
       <use xlink:href="#DejaVuSans-2e" x="63.623047"/>
       <use xlink:href="#DejaVuSans-30" x="95.410156"/>
      </g>
     </g>
    </g>
    <g id="ytick_4">
     <g id="line2d_11">
      <g>
       <use xlink:href="#m04f38cdc22" x="43.78125" y="70.47424" style="stroke: #000000; stroke-width: 0.8"/>
      </g>
     </g>
     <g id="text_12">
      <!-- 1.5 -->
      <g transform="translate(20.878125 74.273459) scale(0.1 -0.1)">
       <use xlink:href="#DejaVuSans-31"/>
       <use xlink:href="#DejaVuSans-2e" x="63.623047"/>
       <use xlink:href="#DejaVuSans-35" x="95.410156"/>
      </g>
     </g>
    </g>
    <g id="ytick_5">
     <g id="line2d_12">
      <g>
       <use xlink:href="#m04f38cdc22" x="43.78125" y="33.650555" style="stroke: #000000; stroke-width: 0.8"/>
      </g>
     </g>
     <g id="text_13">
      <!-- 2.0 -->
      <g transform="translate(20.878125 37.449773) scale(0.1 -0.1)">
       <use xlink:href="#DejaVuSans-32"/>
       <use xlink:href="#DejaVuSans-2e" x="63.623047"/>
       <use xlink:href="#DejaVuSans-30" x="95.410156"/>
      </g>
     </g>
    </g>
    <g id="text_14">
     <!-- Energy (eV) -->
     <g transform="translate(14.798438 130.452187) rotate(-90) scale(0.1 -0.1)">
      <defs>
       <path id="DejaVuSans-45" d="M 628 4666 
L 3578 4666 
L 3578 4134 
L 1259 4134 
L 1259 2753 
L 3481 2753 
L 3481 2222 
L 1259 2222 
L 1259 531 
L 3634 531 
L 3634 0 
L 628 0 
L 628 4666 
z
" transform="scale(0.015625)"/>
       <path id="DejaVuSans-67" d="M 2906 1791 
Q 2906 2416 2648 2759 
Q 2391 3103 1925 3103 
Q 1463 3103 1205 2759 
Q 947 2416 947 1791 
Q 947 1169 1205 825 
Q 1463 481 1925 481 
Q 2391 481 2648 825 
Q 2906 1169 2906 1791 
z
M 3481 434 
Q 3481 -459 3084 -895 
Q 2688 -1331 1869 -1331 
Q 1566 -1331 1297 -1286 
Q 1028 -1241 775 -1147 
L 775 -588 
Q 1028 -725 1275 -790 
Q 1522 -856 1778 -856 
Q 2344 -856 2625 -561 
Q 2906 -266 2906 331 
L 2906 616 
Q 2728 306 2450 153 
Q 2172 0 1784 0 
Q 1141 0 747 490 
Q 353 981 353 1791 
Q 353 2603 747 3093 
Q 1141 3584 1784 3584 
Q 2172 3584 2450 3431 
Q 2728 3278 2906 2969 
L 2906 3500 
L 3481 3500 
L 3481 434 
z
" transform="scale(0.015625)"/>
       <path id="DejaVuSans-79" d="M 2059 -325 
Q 1816 -950 1584 -1140 
Q 1353 -1331 966 -1331 
L 506 -1331 
L 506 -850 
L 844 -850 
Q 1081 -850 1212 -737 
Q 1344 -625 1503 -206 
L 1606 56 
L 191 3500 
L 800 3500 
L 1894 763 
L 2988 3500 
L 3597 3500 
L 2059 -325 
z
" transform="scale(0.015625)"/>
       <path id="DejaVuSans-28" d="M 1984 4856 
Q 1566 4138 1362 3434 
Q 1159 2731 1159 2009 
Q 1159 1288 1364 580 
Q 1569 -128 1984 -844 
L 1484 -844 
Q 1016 -109 783 600 
Q 550 1309 550 2009 
Q 550 2706 781 3412 
Q 1013 4119 1484 4856 
L 1984 4856 
z
" transform="scale(0.015625)"/>
       <path id="DejaVuSans-56" d="M 1831 0 
L 50 4666 
L 709 4666 
L 2188 738 
L 3669 4666 
L 4325 4666 
L 2547 0 
L 1831 0 
z
" transform="scale(0.015625)"/>
       <path id="DejaVuSans-29" d="M 513 4856 
L 1013 4856 
Q 1481 4119 1714 3412 
Q 1947 2706 1947 2009 
Q 1947 1309 1714 600 
Q 1481 -109 1013 -844 
L 513 -844 
Q 928 -128 1133 580 
Q 1338 1288 1338 2009 
Q 1338 2731 1133 3434 
Q 928 4138 513 4856 
z
" transform="scale(0.015625)"/>
      </defs>
      <use xlink:href="#DejaVuSans-45"/>
      <use xlink:href="#DejaVuSans-6e" x="63.183594"/>
      <use xlink:href="#DejaVuSans-65" x="126.5625"/>
      <use xlink:href="#DejaVuSans-72" x="188.085938"/>
      <use xlink:href="#DejaVuSans-67" x="227.449219"/>
      <use xlink:href="#DejaVuSans-79" x="290.925781"/>
      <use xlink:href="#DejaVuSans-20" x="350.105469"/>
      <use xlink:href="#DejaVuSans-28" x="381.892578"/>
      <use xlink:href="#DejaVuSans-65" x="420.90625"/>
      <use xlink:href="#DejaVuSans-56" x="482.429688"/>
      <use xlink:href="#DejaVuSans-29" x="550.837891"/>
     </g>
    </g>
    <g id="text_15">
     <!-- 1e6 -->
     <g transform="translate(43.78125 14.798437) scale(0.1 -0.1)">
      <use xlink:href="#DejaVuSans-31"/>
      <use xlink:href="#DejaVuSans-65" x="63.623047"/>
      <use xlink:href="#DejaVuSans-36" x="125.146484"/>
     </g>
    </g>
   </g>
   <g id="LineCollection_1">
    <path d="M 337.990599 94.542201 
L 355.004835 94.542201 
" clip-path="url(#p11cbf2f07d)" style="fill: none; stroke: #1f77b4; stroke-width: 1.5"/>
    <path d="M 375.069007 82.810175 
L 392.417401 82.810175 
" clip-path="url(#p11cbf2f07d)" style="fill: none; stroke: #1f77b4; stroke-width: 1.5"/>
    <path d="M 177.649008 143.312227 
L 196.034775 143.312227 
" clip-path="url(#p11cbf2f07d)" style="fill: none; stroke: #1f77b4; stroke-width: 1.5"/>
    <path d="M 354.083873 87.079513 
L 380.635838 87.079513 
" clip-path="url(#p11cbf2f07d)" style="fill: none; stroke: #1f77b4; stroke-width: 1.5"/>
    <path d="M 484.8789 49.446443 
L 506.976696 49.446443 
" clip-path="url(#p11cbf2f07d)" style="fill: none; stroke: #1f77b4; stroke-width: 1.5"/>
    <path d="M 93.070224 163.373034 
L 132.859045 163.373034 
" clip-path="url(#p11cbf2f07d)" style="fill: none; stroke: #1f77b4; stroke-width: 1.5"/>
    <path d="M 154.959434 143.31149 
L 211.037398 143.31149 
" clip-path="url(#p11cbf2f07d)" style="fill: none; stroke: #1f77b4; stroke-width: 1.5"/>
    <path d="M 254.520666 113.837812 
L 299.602219 113.837812 
" clip-path="url(#p11cbf2f07d)" style="fill: none; stroke: #1f77b4; stroke-width: 1.5"/>
    <path d="M 176.92159 132.190737 
L 209.626683 132.190737 
" clip-path="url(#p11cbf2f07d)" style="fill: none; stroke: #1f77b4; stroke-width: 1.5"/>
   </g>
   <g id="line2d_13">
    <defs>
     <path id="m5e9acf2a5b" d="M 0 5 
L 0 -5 
" style="stroke: #1f77b4"/>
    </defs>
    <g clip-path="url(#p11cbf2f07d)">
     <use xlink:href="#m5e9acf2a5b" x="337.990599" y="94.542201" style="fill: #1f77b4; stroke: #1f77b4"/>
     <use xlink:href="#m5e9acf2a5b" x="375.069007" y="82.810175" style="fill: #1f77b4; stroke: #1f77b4"/>
     <use xlink:href="#m5e9acf2a5b" x="177.649008" y="143.312227" style="fill: #1f77b4; stroke: #1f77b4"/>
     <use xlink:href="#m5e9acf2a5b" x="354.083873" y="87.079513" style="fill: #1f77b4; stroke: #1f77b4"/>
     <use xlink:href="#m5e9acf2a5b" x="484.8789" y="49.446443" style="fill: #1f77b4; stroke: #1f77b4"/>
     <use xlink:href="#m5e9acf2a5b" x="93.070224" y="163.373034" style="fill: #1f77b4; stroke: #1f77b4"/>
     <use xlink:href="#m5e9acf2a5b" x="154.959434" y="143.31149" style="fill: #1f77b4; stroke: #1f77b4"/>
     <use xlink:href="#m5e9acf2a5b" x="254.520666" y="113.837812" style="fill: #1f77b4; stroke: #1f77b4"/>
     <use xlink:href="#m5e9acf2a5b" x="176.92159" y="132.190737" style="fill: #1f77b4; stroke: #1f77b4"/>
    </g>
   </g>
   <g id="line2d_14">
    <g clip-path="url(#p11cbf2f07d)">
     <use xlink:href="#m5e9acf2a5b" x="355.004835" y="94.542201" style="fill: #1f77b4; stroke: #1f77b4"/>
     <use xlink:href="#m5e9acf2a5b" x="392.417401" y="82.810175" style="fill: #1f77b4; stroke: #1f77b4"/>
     <use xlink:href="#m5e9acf2a5b" x="196.034775" y="143.312227" style="fill: #1f77b4; stroke: #1f77b4"/>
     <use xlink:href="#m5e9acf2a5b" x="380.635838" y="87.079513" style="fill: #1f77b4; stroke: #1f77b4"/>
     <use xlink:href="#m5e9acf2a5b" x="506.976696" y="49.446443" style="fill: #1f77b4; stroke: #1f77b4"/>
     <use xlink:href="#m5e9acf2a5b" x="132.859045" y="163.373034" style="fill: #1f77b4; stroke: #1f77b4"/>
     <use xlink:href="#m5e9acf2a5b" x="211.037398" y="143.31149" style="fill: #1f77b4; stroke: #1f77b4"/>
     <use xlink:href="#m5e9acf2a5b" x="299.602219" y="113.837812" style="fill: #1f77b4; stroke: #1f77b4"/>
     <use xlink:href="#m5e9acf2a5b" x="209.626683" y="132.190737" style="fill: #1f77b4; stroke: #1f77b4"/>
    </g>
   </g>
   <g id="line2d_15">
    <path d="M 69.144886 176.558437 
L 74.268853 175.031165 
L 79.39282 173.503892 
L 84.516787 171.976619 
L 89.640754 170.449347 
L 94.764721 168.922074 
L 99.888688 167.394801 
L 105.012655 165.867528 
L 110.136622 164.340256 
L 115.260589 162.812983 
L 120.384556 161.28571 
L 125.508523 159.758437 
L 130.63249 158.231165 
L 135.756457 156.703892 
L 140.880424 155.176619 
L 146.00439 153.649347 
L 151.128357 152.122074 
L 156.252324 150.594801 
L 161.376291 149.067528 
L 166.500258 147.540256 
L 171.624225 146.012983 
L 176.748192 144.48571 
L 181.872159 142.958438 
L 186.996126 141.431165 
L 192.120093 139.903892 
L 197.24406 138.376619 
L 202.368027 136.849347 
L 207.491994 135.322074 
L 212.615961 133.794801 
L 217.739928 132.267528 
L 222.863895 130.740256 
L 227.987862 129.212983 
L 233.111829 127.68571 
L 238.235795 126.158438 
L 243.359762 124.631165 
L 248.483729 123.103892 
L 253.607696 121.576619 
L 258.731663 120.049347 
L 263.85563 118.522074 
L 268.979597 116.994801 
L 274.103564 115.467528 
L 279.227531 113.940256 
L 284.351498 112.412983 
L 289.475465 110.88571 
L 294.599432 109.358438 
L 299.723399 107.831165 
L 304.847366 106.303892 
L 309.971333 104.776619 
L 315.0953 103.249347 
L 320.219267 101.722074 
L 325.343233 100.194801 
L 330.4672 98.667528 
L 335.591167 97.140256 
L 340.715134 95.612983 
L 345.839101 94.08571 
L 350.963068 92.558438 
L 356.087035 91.031165 
L 361.211002 89.503892 
L 366.334969 87.976619 
L 371.458936 86.449347 
L 376.582903 84.922074 
L 381.70687 83.394801 
L 386.830837 81.867528 
L 391.954804 80.340256 
L 397.078771 78.812983 
L 402.202738 77.28571 
L 407.326705 75.758438 
L 412.450671 74.231165 
L 417.574638 72.703892 
L 422.698605 71.176619 
L 427.822572 69.649347 
L 432.946539 68.122074 
L 438.070506 66.594801 
L 443.194473 65.067528 
L 448.31844 63.540256 
L 453.442407 62.012983 
L 458.566374 60.48571 
L 463.690341 58.958438 
L 468.814308 57.431165 
L 473.938275 55.903892 
L 479.062242 54.376619 
L 484.186209 52.849347 
L 489.310176 51.322074 
L 494.434143 49.794801 
L 499.55811 48.267528 
L 504.682076 46.740256 
L 509.806043 45.212983 
L 514.93001 43.68571 
L 520.053977 42.158438 
L 525.177944 40.631165 
L 530.301911 39.103892 
L 535.425878 37.576619 
L 540.549845 36.049347 
L 545.673812 34.522074 
L 550.797779 32.994801 
L 555.921746 31.467528 
L 561.045713 29.940256 
L 566.16968 28.412983 
L 571.293647 26.88571 
L 576.417614 25.358437 
" clip-path="url(#p11cbf2f07d)" style="fill: none; stroke: #ff7f0e; stroke-width: 1.5; stroke-linecap: square"/>
   </g>
   <g id="line2d_16">
    <defs>
     <path id="me82485d800" d="M 0 3 
C 0.795609 3 1.55874 2.683901 2.12132 2.12132 
C 2.683901 1.55874 3 0.795609 3 0 
C 3 -0.795609 2.683901 -1.55874 2.12132 -2.12132 
C 1.55874 -2.683901 0.795609 -3 0 -3 
C -0.795609 -3 -1.55874 -2.683901 -2.12132 -2.12132 
C -2.683901 -1.55874 -3 -0.795609 -3 0 
C -3 0.795609 -2.683901 1.55874 -2.12132 2.12132 
C -1.55874 2.683901 -0.795609 3 0 3 
z
" style="stroke: #1f77b4"/>
    </defs>
    <g clip-path="url(#p11cbf2f07d)">
     <use xlink:href="#me82485d800" x="346.497717" y="94.542201" style="fill: #1f77b4; stroke: #1f77b4"/>
     <use xlink:href="#me82485d800" x="383.743204" y="82.810175" style="fill: #1f77b4; stroke: #1f77b4"/>
     <use xlink:href="#me82485d800" x="186.841891" y="143.312227" style="fill: #1f77b4; stroke: #1f77b4"/>
     <use xlink:href="#me82485d800" x="367.359855" y="87.079513" style="fill: #1f77b4; stroke: #1f77b4"/>
     <use xlink:href="#me82485d800" x="495.927798" y="49.446443" style="fill: #1f77b4; stroke: #1f77b4"/>
     <use xlink:href="#me82485d800" x="112.964635" y="163.373034" style="fill: #1f77b4; stroke: #1f77b4"/>
     <use xlink:href="#me82485d800" x="182.998416" y="143.31149" style="fill: #1f77b4; stroke: #1f77b4"/>
     <use xlink:href="#me82485d800" x="277.061442" y="113.837812" style="fill: #1f77b4; stroke: #1f77b4"/>
     <use xlink:href="#me82485d800" x="193.274136" y="132.190737" style="fill: #1f77b4; stroke: #1f77b4"/>
    </g>
   </g>
   <g id="patch_3">
    <path d="M 43.78125 184.118437 
L 43.78125 17.798437 
" style="fill: none; stroke: #000000; stroke-width: 0.8; stroke-linejoin: miter; stroke-linecap: square"/>
   </g>
   <g id="patch_4">
    <path d="M 601.78125 184.118437 
L 601.78125 17.798437 
" style="fill: none; stroke: #000000; stroke-width: 0.8; stroke-linejoin: miter; stroke-linecap: square"/>
   </g>
   <g id="patch_5">
    <path d="M 43.78125 184.118437 
L 601.78125 184.118437 
" style="fill: none; stroke: #000000; stroke-width: 0.8; stroke-linejoin: miter; stroke-linecap: square"/>
   </g>
   <g id="patch_6">
    <path d="M 43.78125 17.798437 
L 601.78125 17.798437 
" style="fill: none; stroke: #000000; stroke-width: 0.8; stroke-linejoin: miter; stroke-linecap: square"/>
   </g>
   <g id="legend_1">
    <g id="patch_7">
     <path d="M 50.78125 57.398437 
L 306.08125 57.398437 
Q 308.08125 57.398437 308.08125 55.398437 
L 308.08125 24.798437 
Q 308.08125 22.798437 306.08125 22.798437 
L 50.78125 22.798437 
Q 48.78125 22.798437 48.78125 24.798437 
L 48.78125 55.398437 
Q 48.78125 57.398437 50.78125 57.398437 
z
" style="fill: #ffffff; opacity: 0.8; stroke: #cccccc; stroke-linejoin: miter"/>
    </g>
    <g id="line2d_17">
     <path d="M 52.78125 32.398437 
L 62.78125 32.398437 
L 72.78125 32.398437 
" style="fill: none; stroke: #ff7f0e; stroke-width: 1.5; stroke-linecap: square"/>
    </g>
    <g id="text_16">
     <!-- y = (164 $\pm$ 6)$10^{-6}$x+ 0.06 $\pm$ 0.04, $\chi^2_\nu$ = 0.41 -->
     <g transform="translate(80.78125 35.898437) scale(0.1 -0.1)">
      <defs>
       <path id="DejaVuSans-3d" d="M 678 2906 
L 4684 2906 
L 4684 2381 
L 678 2381 
L 678 2906 
z
M 678 1631 
L 4684 1631 
L 4684 1100 
L 678 1100 
L 678 1631 
z
" transform="scale(0.015625)"/>
       <path id="DejaVuSans-b1" d="M 2944 4013 
L 2944 2803 
L 4684 2803 
L 4684 2272 
L 2944 2272 
L 2944 1063 
L 2419 1063 
L 2419 2272 
L 678 2272 
L 678 2803 
L 2419 2803 
L 2419 4013 
L 2944 4013 
z
M 678 531 
L 4684 531 
L 4684 0 
L 678 0 
L 678 531 
z
" transform="scale(0.015625)"/>
       <path id="DejaVuSans-2212" d="M 678 2272 
L 4684 2272 
L 4684 1741 
L 678 1741 
L 678 2272 
z
" transform="scale(0.015625)"/>
       <path id="DejaVuSans-78" d="M 3513 3500 
L 2247 1797 
L 3578 0 
L 2900 0 
L 1881 1375 
L 863 0 
L 184 0 
L 1544 1831 
L 300 3500 
L 978 3500 
L 1906 2253 
L 2834 3500 
L 3513 3500 
z
" transform="scale(0.015625)"/>
       <path id="DejaVuSans-2b" d="M 2944 4013 
L 2944 2272 
L 4684 2272 
L 4684 1741 
L 2944 1741 
L 2944 0 
L 2419 0 
L 2419 1741 
L 678 1741 
L 678 2272 
L 2419 2272 
L 2419 4013 
L 2944 4013 
z
" transform="scale(0.015625)"/>
       <path id="DejaVuSans-2c" d="M 750 794 
L 1409 794 
L 1409 256 
L 897 -744 
L 494 -744 
L 750 256 
L 750 794 
z
" transform="scale(0.015625)"/>
       <path id="DejaVuSans-Oblique-3c7" d="M 1922 -781 
L 1691 416 
L 394 -1334 
L -284 -1334 
L 1553 1141 
L 1269 2613 
Q 1194 3006 713 3006 
L 559 3006 
L 653 3500 
L 872 3494 
Q 1675 3472 1775 2950 
L 2006 1753 
L 3303 3503 
L 3981 3503 
L 2144 1028 
L 2428 -444 
Q 2503 -838 2984 -838 
L 3138 -838 
L 3044 -1331 
L 2825 -1325 
Q 2022 -1303 1922 -781 
z
" transform="scale(0.015625)"/>
       <path id="DejaVuSans-Oblique-3bd" d="M 959 0 
L 572 3500 
L 1191 3500 
L 1522 563 
Q 1972 950 2391 1488 
Q 2706 1891 2788 2241 
Q 2825 2406 2809 2719 
Q 2794 3091 2544 3500 
L 3125 3500 
L 3125 3500 
Q 3288 3222 3353 2834 
Q 3416 2478 3369 2234 
Q 3250 1622 2719 1075 
Q 2025 363 1572 0 
L 959 0 
z
" transform="scale(0.015625)"/>
      </defs>
      <use xlink:href="#DejaVuSans-79" transform="translate(0 0.765625)"/>
      <use xlink:href="#DejaVuSans-20" transform="translate(59.179688 0.765625)"/>
      <use xlink:href="#DejaVuSans-3d" transform="translate(90.966797 0.765625)"/>
      <use xlink:href="#DejaVuSans-20" transform="translate(174.755859 0.765625)"/>
      <use xlink:href="#DejaVuSans-28" transform="translate(206.542969 0.765625)"/>
      <use xlink:href="#DejaVuSans-31" transform="translate(245.556641 0.765625)"/>
      <use xlink:href="#DejaVuSans-36" transform="translate(309.179688 0.765625)"/>
      <use xlink:href="#DejaVuSans-34" transform="translate(372.802734 0.765625)"/>
      <use xlink:href="#DejaVuSans-20" transform="translate(436.425781 0.765625)"/>
      <use xlink:href="#DejaVuSans-b1" transform="translate(468.212891 0.765625)"/>
      <use xlink:href="#DejaVuSans-20" transform="translate(552.001953 0.765625)"/>
      <use xlink:href="#DejaVuSans-36" transform="translate(583.789062 0.765625)"/>
      <use xlink:href="#DejaVuSans-29" transform="translate(647.412109 0.765625)"/>
      <use xlink:href="#DejaVuSans-31" transform="translate(686.425781 0.765625)"/>
      <use xlink:href="#DejaVuSans-30" transform="translate(750.048828 0.765625)"/>
      <use xlink:href="#DejaVuSans-2212" transform="translate(814.628906 39.046875) scale(0.7)"/>
      <use xlink:href="#DejaVuSans-36" transform="translate(873.28125 39.046875) scale(0.7)"/>
      <use xlink:href="#DejaVuSans-78" transform="translate(920.551758 0.765625)"/>
      <use xlink:href="#DejaVuSans-2b" transform="translate(979.731445 0.765625)"/>
      <use xlink:href="#DejaVuSans-20" transform="translate(1063.520508 0.765625)"/>
      <use xlink:href="#DejaVuSans-30" transform="translate(1095.307617 0.765625)"/>
      <use xlink:href="#DejaVuSans-2e" transform="translate(1158.930664 0.765625)"/>
      <use xlink:href="#DejaVuSans-30" transform="translate(1190.717773 0.765625)"/>
      <use xlink:href="#DejaVuSans-36" transform="translate(1254.34082 0.765625)"/>
      <use xlink:href="#DejaVuSans-20" transform="translate(1317.963867 0.765625)"/>
      <use xlink:href="#DejaVuSans-b1" transform="translate(1349.750977 0.765625)"/>
      <use xlink:href="#DejaVuSans-20" transform="translate(1433.540039 0.765625)"/>
      <use xlink:href="#DejaVuSans-30" transform="translate(1465.327148 0.765625)"/>
      <use xlink:href="#DejaVuSans-2e" transform="translate(1528.950195 0.765625)"/>
      <use xlink:href="#DejaVuSans-30" transform="translate(1560.737305 0.765625)"/>
      <use xlink:href="#DejaVuSans-34" transform="translate(1624.360352 0.765625)"/>
      <use xlink:href="#DejaVuSans-2c" transform="translate(1687.983398 0.765625)"/>
      <use xlink:href="#DejaVuSans-20" transform="translate(1719.770508 0.765625)"/>
      <use xlink:href="#DejaVuSans-Oblique-3c7" transform="translate(1751.557617 0.765625)"/>
      <use xlink:href="#DejaVuSans-32" transform="translate(1815.210013 39.046875) scale(0.7)"/>
      <use xlink:href="#DejaVuSans-Oblique-3bd" transform="translate(1810.737305 -26.578125) scale(0.7)"/>
      <use xlink:href="#DejaVuSans-20" transform="translate(1862.480521 0.765625)"/>
      <use xlink:href="#DejaVuSans-3d" transform="translate(1894.26763 0.765625)"/>
      <use xlink:href="#DejaVuSans-20" transform="translate(1978.056693 0.765625)"/>
      <use xlink:href="#DejaVuSans-30" transform="translate(2009.843802 0.765625)"/>
      <use xlink:href="#DejaVuSans-2e" transform="translate(2073.466849 0.765625)"/>
      <use xlink:href="#DejaVuSans-34" transform="translate(2105.253958 0.765625)"/>
      <use xlink:href="#DejaVuSans-31" transform="translate(2168.877005 0.765625)"/>
     </g>
    </g>
    <g id="LineCollection_2">
     <path d="M 57.78125 47.798437 
L 67.78125 47.798437 
" style="fill: none; stroke: #1f77b4; stroke-width: 1.5"/>
    </g>
    <g id="line2d_18">
     <g>
      <use xlink:href="#m5e9acf2a5b" x="57.78125" y="47.798437" style="fill: #1f77b4; stroke: #1f77b4"/>
     </g>
    </g>
    <g id="line2d_19">
     <g>
      <use xlink:href="#m5e9acf2a5b" x="67.78125" y="47.798437" style="fill: #1f77b4; stroke: #1f77b4"/>
     </g>
    </g>
    <g id="line2d_20"/>
    <g id="line2d_21">
     <g>
      <use xlink:href="#me82485d800" x="62.78125" y="47.798437" style="fill: #1f77b4; stroke: #1f77b4"/>
     </g>
    </g>
    <g id="text_17">
     <!-- Calibrated $\gamma$ Peaks -->
     <g transform="translate(80.78125 51.298437) scale(0.1 -0.1)">
      <defs>
       <path id="DejaVuSans-69" d="M 603 3500 
L 1178 3500 
L 1178 0 
L 603 0 
L 603 3500 
z
M 603 4863 
L 1178 4863 
L 1178 4134 
L 603 4134 
L 603 4863 
z
" transform="scale(0.015625)"/>
       <path id="DejaVuSans-74" d="M 1172 4494 
L 1172 3500 
L 2356 3500 
L 2356 3053 
L 1172 3053 
L 1172 1153 
Q 1172 725 1289 603 
Q 1406 481 1766 481 
L 2356 481 
L 2356 0 
L 1766 0 
Q 1100 0 847 248 
Q 594 497 594 1153 
L 594 3053 
L 172 3053 
L 172 3500 
L 594 3500 
L 594 4494 
L 1172 4494 
z
" transform="scale(0.015625)"/>
       <path id="DejaVuSans-64" d="M 2906 2969 
L 2906 4863 
L 3481 4863 
L 3481 0 
L 2906 0 
L 2906 525 
Q 2725 213 2448 61 
Q 2172 -91 1784 -91 
Q 1150 -91 751 415 
Q 353 922 353 1747 
Q 353 2572 751 3078 
Q 1150 3584 1784 3584 
Q 2172 3584 2448 3432 
Q 2725 3281 2906 2969 
z
M 947 1747 
Q 947 1113 1208 752 
Q 1469 391 1925 391 
Q 2381 391 2643 752 
Q 2906 1113 2906 1747 
Q 2906 2381 2643 2742 
Q 2381 3103 1925 3103 
Q 1469 3103 1208 2742 
Q 947 2381 947 1747 
z
" transform="scale(0.015625)"/>
       <path id="DejaVuSans-Oblique-3b3" d="M 1491 2950 
L 1838 788 
L 3456 3500 
L 4066 3500 
L 1972 0 
L 1713 -1331 
L 1138 -1331 
L 1397 0 
L 988 2613 
Q 925 3006 628 3006 
L 475 3006 
L 569 3500 
L 788 3500 
Q 1403 3500 1491 2950 
z
" transform="scale(0.015625)"/>
       <path id="DejaVuSans-50" d="M 1259 4147 
L 1259 2394 
L 2053 2394 
Q 2494 2394 2734 2622 
Q 2975 2850 2975 3272 
Q 2975 3691 2734 3919 
Q 2494 4147 2053 4147 
L 1259 4147 
z
M 628 4666 
L 2053 4666 
Q 2838 4666 3239 4311 
Q 3641 3956 3641 3272 
Q 3641 2581 3239 2228 
Q 2838 1875 2053 1875 
L 1259 1875 
L 1259 0 
L 628 0 
L 628 4666 
z
" transform="scale(0.015625)"/>
       <path id="DejaVuSans-6b" d="M 581 4863 
L 1159 4863 
L 1159 1991 
L 2875 3500 
L 3609 3500 
L 1753 1863 
L 3688 0 
L 2938 0 
L 1159 1709 
L 1159 0 
L 581 0 
L 581 4863 
z
" transform="scale(0.015625)"/>
       <path id="DejaVuSans-73" d="M 2834 3397 
L 2834 2853 
Q 2591 2978 2328 3040 
Q 2066 3103 1784 3103 
Q 1356 3103 1142 2972 
Q 928 2841 928 2578 
Q 928 2378 1081 2264 
Q 1234 2150 1697 2047 
L 1894 2003 
Q 2506 1872 2764 1633 
Q 3022 1394 3022 966 
Q 3022 478 2636 193 
Q 2250 -91 1575 -91 
Q 1294 -91 989 -36 
Q 684 19 347 128 
L 347 722 
Q 666 556 975 473 
Q 1284 391 1588 391 
Q 1994 391 2212 530 
Q 2431 669 2431 922 
Q 2431 1156 2273 1281 
Q 2116 1406 1581 1522 
L 1381 1569 
Q 847 1681 609 1914 
Q 372 2147 372 2553 
Q 372 3047 722 3315 
Q 1072 3584 1716 3584 
Q 2034 3584 2315 3537 
Q 2597 3491 2834 3397 
z
" transform="scale(0.015625)"/>
      </defs>
      <use xlink:href="#DejaVuSans-43" transform="translate(0 0.015625)"/>
      <use xlink:href="#DejaVuSans-61" transform="translate(69.824219 0.015625)"/>
      <use xlink:href="#DejaVuSans-6c" transform="translate(131.103516 0.015625)"/>
      <use xlink:href="#DejaVuSans-69" transform="translate(158.886719 0.015625)"/>
      <use xlink:href="#DejaVuSans-62" transform="translate(186.669922 0.015625)"/>
      <use xlink:href="#DejaVuSans-72" transform="translate(250.146484 0.015625)"/>
      <use xlink:href="#DejaVuSans-61" transform="translate(291.259766 0.015625)"/>
      <use xlink:href="#DejaVuSans-74" transform="translate(352.539062 0.015625)"/>
      <use xlink:href="#DejaVuSans-65" transform="translate(391.748047 0.015625)"/>
      <use xlink:href="#DejaVuSans-64" transform="translate(453.271484 0.015625)"/>
      <use xlink:href="#DejaVuSans-20" transform="translate(516.748047 0.015625)"/>
      <use xlink:href="#DejaVuSans-Oblique-3b3" transform="translate(548.535156 0.015625)"/>
      <use xlink:href="#DejaVuSans-20" transform="translate(607.714844 0.015625)"/>
      <use xlink:href="#DejaVuSans-50" transform="translate(639.501953 0.015625)"/>
      <use xlink:href="#DejaVuSans-65" transform="translate(699.804688 0.015625)"/>
      <use xlink:href="#DejaVuSans-61" transform="translate(761.328125 0.015625)"/>
      <use xlink:href="#DejaVuSans-6b" transform="translate(822.607422 0.015625)"/>
      <use xlink:href="#DejaVuSans-73" transform="translate(880.517578 0.015625)"/>
     </g>
    </g>
   </g>
  </g>
 </g>
 <defs>
  <clipPath id="p11cbf2f07d">
   <rect x="43.78125" y="17.798437" width="558" height="166.32"/>
  </clipPath>
 </defs>
</svg>
